<svg width="184" height="59" viewBox="0 0 184 59" fill="none" xmlns="http://www.w3.org/2000/svg">
<g filter="url(#filter0_dd)">
<path d="M50.0695 27.5208L49.8357 27.3913C49.8357 27.3913 49.8177 27.3913 49.8177 27.3727L47.4975 25.9848L44.7637 24.3562L43.2888 23.4679L15.5183 6.97885C15.3564 6.86781 15.1766 6.75677 14.9967 6.66424L12.4067 5.12822H12.4247L10.2664 3.85129C10.0685 3.72174 9.87068 3.5922 9.65485 3.49967C9.04332 3.18506 8.35985 3 7.64041 3C5.08638 3 3 5.14673 3 7.77462V45.805C3 48.1368 4.61875 50.0799 6.75909 50.4871C7.42457 51.3013 8.35985 51.875 9.42103 52.0786C9.42103 52.0786 9.42103 52.0786 9.42103 52.0601C10.0865 52.8559 11.0218 53.4296 12.065 53.6331C11.6873 53.1705 11.3815 52.6338 11.1837 52.0601C11.7232 51.9491 12.2269 51.7455 12.6765 51.4679L44.4939 32.61C44.5658 32.573 44.6378 32.536 44.6917 32.4805C46.0227 31.6477 46.922 30.1302 46.922 28.4091C46.922 27.1137 46.4184 25.9478 45.609 25.078L48.2709 26.6695C49.0803 27.5208 49.5839 28.7052 49.5839 29.9821C49.5839 31.7032 48.6846 33.2207 47.3536 34.0535C47.2817 34.0905 47.2278 34.146 47.1558 34.183L15.3564 53.0594C14.655 53.5036 13.8276 53.7442 12.9463 53.7442C12.6405 53.7442 12.3528 53.7072 12.083 53.6516C12.9283 54.6695 14.1873 55.3172 15.6082 55.3172C16.4896 55.3172 17.3169 55.0581 18.0184 54.6325L49.8357 35.7746C49.9077 35.7376 49.9796 35.7006 50.0336 35.645C51.3645 34.8123 52.2638 33.2948 52.2638 31.5737C52.2638 29.8711 51.3825 28.3536 50.0695 27.5208ZM8.32388 10.9392V48.9696C8.32388 49.0436 8.32388 49.1176 8.32388 49.1916C8.32388 49.2657 8.32388 49.3397 8.34186 49.4137C8.34186 49.4877 8.35985 49.5618 8.35985 49.6358C8.35985 49.7098 8.37784 49.7838 8.39582 49.8579C8.41381 49.9319 8.43179 50.0059 8.44978 50.0984V50.1169C8.44978 50.1354 8.44978 50.1539 8.46777 50.1725C8.46777 50.191 8.48575 50.228 8.48575 50.2465C8.48575 50.265 8.50374 50.302 8.50374 50.3205C8.52172 50.376 8.53971 50.4315 8.5577 50.4871V50.5056C8.57568 50.5611 8.59367 50.6166 8.61165 50.6906C8.62964 50.7647 8.66561 50.8202 8.6836 50.8942C8.70158 50.9312 8.71957 50.9682 8.73756 51.0052C8.75554 51.0237 8.75554 51.0608 8.77353 51.0793C8.79151 51.0978 8.79151 51.1163 8.8095 51.1348C8.8095 51.1348 8.8095 51.1348 8.8095 51.1533C8.82749 51.2088 8.86346 51.2643 8.88145 51.3013C8.89943 51.3384 8.91742 51.3754 8.95339 51.4309C8.97138 51.4494 8.97138 51.4679 8.98936 51.4864C9.00735 51.5234 9.02533 51.5604 9.04332 51.5789C9.07929 51.6345 9.11526 51.69 9.15124 51.7455C9.15124 51.7455 9.15124 51.7455 9.15124 51.764C9.16922 51.7825 9.16922 51.801 9.18721 51.8195C9.18721 51.838 9.20519 51.838 9.20519 51.8565C9.20519 51.875 9.22318 51.875 9.22318 51.8935C8.70158 51.7825 8.19797 51.5419 7.67638 51.1718C7.22673 50.8572 6.34541 49.8578 6.07562 49.3397C5.82381 48.84 5.62597 48.3588 5.62597 47.4335V9.36615C5.62597 6.73826 7.69436 4.59154 10.2664 4.59154C10.6621 4.59154 11.0398 4.64706 11.3995 4.73959L14.0434 6.31262C13.6837 6.22009 13.306 6.16457 12.9103 6.16457C10.3923 6.16457 8.32388 8.3113 8.32388 10.9392ZM42.0837 30.9074C42.0118 30.9445 41.9578 31 41.8859 31.037L10.9858 49.3582V12.5307C10.9858 9.90283 13.0542 7.75611 15.6262 7.75611C16.0219 7.75611 16.3996 7.81163 16.7593 7.90416L43.019 23.5234C43.8284 24.3747 44.314 25.5406 44.314 26.8361C44.296 28.5571 43.4147 30.0747 42.0837 30.9074Z" fill="white"/>
<path d="M62.7048 29.1633V26.4713C65.168 26.8766 66.8755 27.0502 67.7712 27.0502C69.6746 27.0502 70.5983 26.5581 70.5983 25.545V24.5898C70.5983 24.0978 70.4583 23.7504 70.2064 23.4899C69.9265 23.2294 69.4507 23.1136 68.7509 23.1136H67.0994C63.9924 23.1136 62.4249 21.84 62.4249 19.2638V18.1928C62.4249 16.9192 62.9288 15.964 63.9644 15.3851C65.0001 14.7773 66.6236 14.4878 68.8629 14.4878C70.0385 14.4878 71.494 14.5746 73.2854 14.7772V17.3824C71.1021 17.1219 69.5626 16.9771 68.7509 16.9771C67.6033 16.9771 66.8195 17.064 66.4276 17.2666C66.0078 17.4692 65.7839 17.8165 65.7839 18.2507V19.2928C65.7839 20.0743 66.3997 20.4506 67.6593 20.4506H69.3667C70.9902 20.4506 72.1658 20.769 72.8656 21.3769C73.5933 21.9847 73.9572 22.9399 73.9572 24.1846V25.1688C73.9572 26.9055 73.3414 28.0923 72.1378 28.7001C71.55 29.0185 70.9062 29.2501 70.2064 29.3659C69.5067 29.4817 68.6669 29.5685 67.6593 29.5685C66.3717 29.5685 64.6922 29.4527 62.7048 29.1633Z" fill="white"/>
<path d="M79.6389 17.2091H75.2723V14.7197H87.3925V17.238H83.0539V29.3663H79.6389V17.2091Z" fill="white"/>
<path d="M89.2967 25.3428V14.7197H92.7116V25.3428C92.7116 26.0085 92.9075 26.4717 93.3274 26.7032C93.7473 26.9637 94.447 27.0795 95.4827 27.0795C96.4904 27.0795 97.1902 26.9637 97.582 26.7032C97.9739 26.4427 98.1698 26.0085 98.1698 25.3428V14.7197H101.585V25.3428C101.585 28.1795 99.5414 29.5978 95.4267 29.5978C91.34 29.5689 89.2967 28.1795 89.2967 25.3428Z" fill="white"/>
<path d="M104.608 14.7197H110.626C112.277 14.7197 113.593 14.8645 114.545 15.125C115.496 15.3855 116.196 15.8486 116.672 16.4854C117.12 17.1222 117.344 18.0195 117.344 19.1774V25.1402C117.344 26.2401 117.12 27.1085 116.7 27.7163C116.28 28.3242 115.58 28.7584 114.629 28.99C113.677 29.2505 112.333 29.3663 110.626 29.3663H104.58V14.7197H104.608ZM110.486 26.848C111.41 26.848 112.109 26.819 112.585 26.7322C113.061 26.6454 113.397 26.5006 113.621 26.2401C113.845 26.0086 113.929 25.6323 113.929 25.1112V19.0905C113.929 18.3958 113.677 17.9038 113.145 17.6432C112.613 17.3538 111.774 17.238 110.598 17.238H107.995V26.8769H110.486V26.848Z" fill="white"/>
<path d="M120.086 14.7197H123.501V29.3663H120.086V14.7197Z" fill="white"/>
<path d="M130.78 29.4238C130.108 29.308 129.436 29.1343 128.708 28.8738C127.925 28.6133 127.337 28.1502 126.889 27.5423C126.441 26.9344 126.245 26.1819 126.245 25.3135V18.9165C126.245 18.1928 126.413 17.556 126.721 16.9771C127.029 16.3982 127.449 15.964 127.925 15.6167C128.372 15.3272 128.904 15.0957 129.548 14.893C130.192 14.6904 130.78 14.5746 131.339 14.5457C131.843 14.4878 132.375 14.4878 132.963 14.4878C133.635 14.4878 134.223 14.5167 134.698 14.5746C135.202 14.6325 135.734 14.7483 136.35 14.893C137.05 15.0957 137.609 15.3562 138.085 15.6746C138.533 15.964 138.925 16.3982 139.233 16.9482C139.541 17.4981 139.709 18.1639 139.709 18.9454V25.3424C139.709 26.1529 139.513 26.8476 139.093 27.4555C138.673 28.0344 138.113 28.4975 137.385 28.787C136.07 29.3369 134.614 29.5975 132.991 29.5975C132.151 29.5685 131.423 29.5396 130.78 29.4238ZM134.195 27.0213C134.53 26.9923 134.866 26.9055 135.202 26.8187C135.538 26.7029 135.818 26.5292 135.986 26.2976C136.154 26.0371 136.266 25.7477 136.266 25.3714V18.9454C136.266 18.2507 135.986 17.7587 135.454 17.4692C134.922 17.1797 134.083 17.035 132.935 17.035C131.787 17.035 130.976 17.1797 130.416 17.4692C129.884 17.7587 129.604 18.2507 129.604 18.9454V25.3714C129.604 25.7477 129.688 26.0661 129.884 26.2976C130.08 26.5582 130.36 26.7318 130.724 26.8187C131.06 26.9344 131.423 26.9923 131.731 27.0213C132.067 27.0502 132.459 27.0792 132.935 27.0792C133.467 27.0792 133.859 27.0502 134.195 27.0213Z" fill="white"/>
<path d="M63.1531 33.8521H68.8912C70.2348 33.8521 71.2985 33.9389 72.0262 34.1705C72.754 34.3731 73.2858 34.6915 73.5937 35.1546C73.9016 35.5888 74.0416 36.2256 74.0416 37.0071V38.8018C74.0416 39.207 73.8736 39.5833 73.5657 39.9596C73.2578 40.3069 72.894 40.5674 72.4741 40.7122V40.828C73.0339 40.8858 73.5378 41.1464 73.9856 41.5516C74.4335 41.9858 74.6854 42.4489 74.6854 42.9699V45.2277C74.6854 46.4145 74.2375 47.2539 73.3138 47.746C72.3901 48.2381 70.9906 48.4986 69.0592 48.4986H63.1811V33.8521H63.1531ZM68.8912 39.7859C69.4231 39.7859 69.8429 39.728 70.0949 39.6412C70.3468 39.5543 70.5427 39.4096 70.6267 39.207C70.7107 39.0044 70.7666 38.7149 70.7666 38.3097V37.586C70.7666 37.2387 70.7107 36.9782 70.6267 36.8045C70.5427 36.6308 70.3748 36.5151 70.0949 36.4282C69.8149 36.3414 69.3951 36.3124 68.8073 36.3124H66.54V39.757H68.8912V39.7859ZM68.9752 45.9803C69.8149 45.9803 70.4028 45.8935 70.7387 45.6908C71.0745 45.4882 71.2705 45.1698 71.2705 44.7356V43.5489C71.2705 42.9989 71.1305 42.6226 70.8786 42.391C70.5987 42.1595 70.1228 42.0437 69.4511 42.0437H66.568V45.9803H68.9752Z" fill="white"/>
<path d="M80.7587 42.6226L75.6364 33.8521H79.4991L82.4942 39.5833L85.4612 33.8521H89.352L84.1736 42.5936V48.4986H80.7587V42.6226Z" fill="white"/>
<path d="M95.6223 48.2961V45.6041C98.0855 46.0094 99.793 46.183 100.689 46.183C102.592 46.183 103.516 45.691 103.516 44.6779V43.7227C103.516 43.2306 103.376 42.8832 103.124 42.6227C102.844 42.3622 102.368 42.2464 101.668 42.2464H100.017C96.9099 42.2464 95.3424 40.9728 95.3424 38.3966V37.3257C95.3424 36.052 95.8462 35.0968 96.8819 34.5179C97.9176 33.9101 99.5411 33.6206 101.78 33.6206C102.956 33.6206 104.412 33.7074 106.203 33.9101V36.5152C104.02 36.2547 102.48 36.1099 101.668 36.1099C100.521 36.1099 99.737 36.1968 99.3451 36.3994C98.9253 36.602 98.7013 36.9494 98.7013 37.3835V38.4256C98.7013 39.2071 99.3171 39.5834 100.577 39.5834H102.284C103.908 39.5834 105.083 39.9018 105.783 40.5097C106.511 41.1175 106.875 42.0728 106.875 43.3174V44.3016C106.875 46.0383 106.259 47.2251 105.055 47.8329C104.467 48.1513 103.824 48.3829 103.124 48.4987C102.424 48.6145 101.584 48.7013 100.577 48.7013C99.2891 48.7013 97.6097 48.5855 95.6223 48.2961Z" fill="white"/>
<path d="M109.282 33.8521H112.697V39.728H118.715V33.8521H122.13V48.4986H118.715V42.2174H112.697V48.4986H109.282V33.8521Z" fill="white"/>
<path d="M128.932 42.6226L123.81 33.8521H127.673L130.668 39.5833L133.635 33.8521H137.525L132.347 42.5936V48.4986H128.932V42.6226Z" fill="white"/>
<path d="M139.232 33.8521H142.619V45.9803H149.589V48.4986H139.232V33.8521Z" fill="white"/>
<path d="M156.083 48.5566C155.411 48.4408 154.74 48.2672 154.012 48.0067C153.228 47.7461 152.64 47.283 152.192 46.6751C151.744 46.0673 151.549 45.3147 151.549 44.4463V38.0493C151.549 37.3257 151.716 36.6889 152.024 36.1099C152.332 35.531 152.752 35.0968 153.228 34.7495C153.676 34.46 154.208 34.2285 154.851 34.0258C155.495 33.8232 156.083 33.7074 156.643 33.6785C157.147 33.6206 157.679 33.6206 158.266 33.6206C158.938 33.6206 159.526 33.6496 160.002 33.7074C160.506 33.7653 161.037 33.8811 161.653 34.0258C162.353 34.2285 162.913 34.489 163.389 34.8074C163.837 35.0968 164.228 35.531 164.536 36.081C164.844 36.631 165.012 37.2967 165.012 38.0783V44.4753C165.012 45.2858 164.816 45.9805 164.396 46.5883C163.977 47.1672 163.417 47.6304 162.689 47.9198C161.373 48.4698 159.918 48.7303 158.294 48.7303C157.483 48.7014 156.755 48.6724 156.083 48.5566ZM159.526 46.1541C159.862 46.1252 160.198 46.0383 160.534 45.9515C160.87 45.8357 161.149 45.662 161.317 45.4305C161.485 45.17 161.597 44.8805 161.597 44.5042V38.0783C161.597 37.3836 161.317 36.8915 160.786 36.602C160.254 36.3126 159.414 36.1678 158.266 36.1678C157.119 36.1678 156.307 36.3126 155.747 36.602C155.215 36.8915 154.935 37.3836 154.935 38.0783V44.5042C154.935 44.8805 155.019 45.1989 155.215 45.4305C155.411 45.691 155.691 45.8647 156.055 45.9515C156.391 46.0673 156.755 46.1252 157.063 46.1541C157.399 46.1831 157.791 46.212 158.266 46.212C158.798 46.212 159.19 46.1831 159.526 46.1541Z" fill="white"/>
<path d="M166.244 33.8521H169.686L173.493 45.5751H173.577L177.384 33.8521H180.743L175.509 48.4986H171.338L166.244 33.8521Z" fill="white"/>
</g>
<defs>
<filter id="filter0_dd" x="0" y="0" width="183.743" height="58.3172" filterUnits="userSpaceOnUse" color-interpolation-filters="sRGB">
<feFlood flood-opacity="0" result="BackgroundImageFix"/>
<feColorMatrix in="SourceAlpha" type="matrix" values="0 0 0 0 0 0 0 0 0 0 0 0 0 0 0 0 0 0 127 0"/>
<feOffset dx="1" dy="1"/>
<feGaussianBlur stdDeviation="1"/>
<feColorMatrix type="matrix" values="0 0 0 0 0.127604 0 0 0 0 0.551888 0 0 0 0 0.6125 0 0 0 1 0"/>
<feBlend mode="normal" in2="BackgroundImageFix" result="effect1_dropShadow"/>
<feColorMatrix in="SourceAlpha" type="matrix" values="0 0 0 0 0 0 0 0 0 0 0 0 0 0 0 0 0 0 127 0"/>
<feOffset dx="-1" dy="-1"/>
<feGaussianBlur stdDeviation="1"/>
<feColorMatrix type="matrix" values="0 0 0 0 1 0 0 0 0 1 0 0 0 0 1 0 0 0 0.8 0"/>
<feBlend mode="normal" in2="effect1_dropShadow" result="effect2_dropShadow"/>
<feBlend mode="normal" in="SourceGraphic" in2="effect2_dropShadow" result="shape"/>
</filter>
</defs>
</svg>
