<svg width="26" height="17" viewBox="0 0 26 17" fill="none" xmlns="http://www.w3.org/2000/svg">
<path d="M23.1529 2.94852H16.8592V1.38521H23.1534V2.94852H23.1529ZM12.6693 9.35916C13.0754 9.98816 13.2783 10.7519 13.2783 11.6485C13.2783 12.5758 13.0495 13.4076 12.584 14.1424C12.2879 14.6286 11.9202 15.0393 11.4784 15.3699C10.9809 15.7523 10.3918 16.0145 9.71463 16.1546C9.03529 16.295 8.3 16.3659 7.50795 16.3659H0.469238V0.736816H8.01718C9.91973 0.767767 11.2685 1.31899 12.065 2.40151C12.543 3.06544 12.7798 3.8621 12.7798 4.78812C12.7798 5.74362 12.5401 6.50817 12.0575 7.08906C11.789 7.41474 11.3925 7.71099 10.8675 7.9784C11.6627 8.26951 12.266 8.72794 12.6693 9.35916ZM4.07368 6.89856H7.38087C8.06051 6.89856 8.60992 6.76939 9.03307 6.51115C9.45593 6.25332 9.66692 5.79501 9.66692 5.13699C9.66692 4.40999 9.38755 3.92745 8.82745 3.6952C8.34602 3.53385 7.73004 3.45075 6.9826 3.45075H4.07368V6.89856ZM9.98537 11.4253C9.98537 10.6134 9.65355 10.0522 8.99126 9.75101C8.6209 9.57985 8.09835 9.49236 7.42835 9.48612H4.07368V13.6512H7.37644C8.05496 13.6512 8.58014 13.5624 8.95914 13.3771C9.64263 13.0364 9.98537 12.388 9.98537 11.4253ZM25.488 8.88269C25.5641 9.39402 25.5985 10.1359 25.5845 11.1056H17.4334C17.4784 12.2307 17.8668 13.0175 18.6035 13.4677C19.0477 13.7501 19.5863 13.888 20.217 13.888C20.882 13.888 21.4241 13.7199 21.8413 13.3743C22.0687 13.1911 22.2692 12.9325 22.4426 12.6062H25.4302C25.352 13.2707 24.9922 13.9447 24.3458 14.6296C23.3442 15.7182 21.9395 16.264 20.1355 16.264C18.6451 16.264 17.3317 15.8037 16.1917 14.8863C15.0554 13.9657 14.4848 12.4727 14.4848 10.4016C14.4848 8.45948 14.9971 6.97296 16.0252 5.93826C17.0571 4.90164 18.3888 4.3857 20.0303 4.3857C21.0033 4.3857 21.8803 4.55961 22.6628 4.90924C23.4428 5.25921 24.0875 5.81002 24.5952 6.56704C25.0547 7.23371 25.3502 8.00456 25.488 8.88269ZM22.5473 9.17433C22.4925 8.39635 22.2328 7.80753 21.7651 7.40511C21.3012 7.00158 20.7217 6.79899 20.0303 6.79899C19.2778 6.79899 18.6967 7.01553 18.2838 7.44114C17.8682 7.86587 17.6095 8.44331 17.5035 9.17439H22.5473V9.17433Z" fill="#31679D"/>
</svg>
