<svg id="Слой_1" data-name="Слой 1" xmlns="http://www.w3.org/2000/svg" viewBox="0 0 141.73 141.73"><defs><style>.cls-1{fill:#88ced9;}</style></defs><title>Круги</title><path class="cls-1" d="M37.25,20.09l-.49.31a.12.12,0,0,1-.17,0l-2.5-4a.12.12,0,0,1,0-.1.11.11,0,0,1,.05-.08l2.94-1.85a.11.11,0,0,1,.18,0l.28.45c0,.07,0,.12-.05.17L35.13,16.5l2.16,3.43A.1.1,0,0,1,37.25,20.09Z"/><path class="cls-1" d="M41.86,19.07l-.51.26a.11.11,0,0,1-.17,0l-2.86-5.51a.11.11,0,0,1,0-.17l.41-.21a.13.13,0,0,1,.18,0l.22.29.06,0a2.11,2.11,0,0,1,1.13-1.22,2.43,2.43,0,0,1,1.91-.19,2.5,2.5,0,0,1,1.47,1.31,2.41,2.41,0,0,1-1,3.4,2.2,2.2,0,0,1-1.68.21l.88,1.69A.11.11,0,0,1,41.86,19.07Zm-2.19-4.5.93,1.8a1.87,1.87,0,0,0,1.75-.06,1.53,1.53,0,0,0,.84-1A1.74,1.74,0,0,0,43,14a1.76,1.76,0,0,0-1-.93,1.56,1.56,0,0,0-1.29.12A1.88,1.88,0,0,0,39.67,14.57Z"/><path class="cls-1" d="M48.65,13.49h0a2.47,2.47,0,0,1-1.43,1.4,1.9,1.9,0,0,1-1.39.1,1.46,1.46,0,0,1-.85-2,2.13,2.13,0,0,1,.89-.92l1.71-1L47.48,11a.7.7,0,0,0-.53-.44,1.47,1.47,0,0,0-.85.12,2.7,2.7,0,0,0-1.34,1.12c0,.08-.1.09-.17,0l-.44-.27c-.08,0-.09-.09,0-.17A3.44,3.44,0,0,1,45.8,10a2.3,2.3,0,0,1,1.47-.13,1.43,1.43,0,0,1,1,.9l.65,1.57a2.85,2.85,0,0,0,.6,1l.19.22c.06.05,0,.1,0,.15l-.38.35a.11.11,0,0,1-.17,0Zm-.45-.72-.4-1-1.62,1a1.19,1.19,0,0,0-.48.49.65.65,0,0,0,0,.56.69.69,0,0,0,.51.44,1.28,1.28,0,0,0,.76-.09,2.25,2.25,0,0,0,.82-.57A2,2,0,0,0,48.2,12.77Z"/><path class="cls-1" d="M52,6.39l.55-.16a.12.12,0,0,1,.16.09l.46,1.61a1.57,1.57,0,0,1,1-.74,2,2,0,0,1,1.75.23A2.71,2.71,0,0,1,56.92,9,2.78,2.78,0,0,1,56.85,11a2.06,2.06,0,0,1-1.37,1.12,1.55,1.55,0,0,1-1.21-.14l.49,1.72c0,.08,0,.13-.08.16l-.55.15a.11.11,0,0,1-.16-.08l-.5-1.73a1.5,1.5,0,0,1-.95.77,2,2,0,0,1-1.75-.23,2.73,2.73,0,0,1-1.09-1.61,2.75,2.75,0,0,1,.07-1.93A2.06,2.06,0,0,1,51.12,8a1.58,1.58,0,0,1,1.21.12l-.47-1.61C51.84,6.46,51.87,6.41,52,6.39Zm1.29,5-.71-2.46a1.53,1.53,0,0,0-1.17-.11,1.26,1.26,0,0,0-.89.76,2.18,2.18,0,0,0,0,1.34A2.13,2.13,0,0,0,51.18,12a1.3,1.3,0,0,0,1.16.18A1.43,1.43,0,0,0,53.24,11.34Zm.08-2.69L54,11.11a1.43,1.43,0,0,0,1.21.24,1.27,1.27,0,0,0,.88-.77,2,2,0,0,0,0-1.34,2.08,2.08,0,0,0-.7-1.13,1.26,1.26,0,0,0-1.16-.17A1.61,1.61,0,0,0,53.32,8.65Z"/><path class="cls-1" d="M57.81,5.81a.62.62,0,0,1-.49-.1A.65.65,0,0,1,57,5.3a.67.67,0,0,1,.1-.49.65.65,0,0,1,.41-.28.68.68,0,0,1,.76.52.66.66,0,0,1-.5.76Zm-.17.64.56-.11a.12.12,0,0,1,.15.1l.92,4.6c0,.08,0,.13-.1.14l-.56.12a.12.12,0,0,1-.15-.1l-.92-4.6A.12.12,0,0,1,57.64,6.45Z"/><path class="cls-1" d="M59.69,6,60.26,6a.11.11,0,0,1,.14.11l.21,1.47a1.13,1.13,0,0,0,.44.82,1.3,1.3,0,0,0,1,.17,4,4,0,0,0,1.24-.36l-.34-2.46a.1.1,0,0,1,.1-.14l.57-.08a.11.11,0,0,1,.14.11l.66,4.64a.11.11,0,0,1-.11.14l-.57.08a.11.11,0,0,1-.14-.11l-.2-1.42a4.09,4.09,0,0,1-1.24.36A2.12,2.12,0,0,1,60.55,9a1.86,1.86,0,0,1-.76-1.34l-.2-1.47C59.58,6.1,59.61,6.05,59.69,6Z"/><path class="cls-1" d="M65.31,5.32l.57,0c.09,0,.13,0,.14.12l.1,1.85,2.66-.15-.1-1.85c0-.08,0-.13.12-.13l.57,0a.12.12,0,0,1,.13.12l.26,4.68c0,.09,0,.13-.12.13l-.56,0a.13.13,0,0,1-.15-.12l-.11-2.06L66.16,8l.11,2.05c0,.09,0,.13-.12.14l-.57,0a.12.12,0,0,1-.13-.12l-.26-4.68C65.19,5.37,65.23,5.32,65.31,5.32Z"/><path class="cls-1" d="M71.1,5.07l.57,0a.12.12,0,0,1,.13.13l-.07,2.17-.11,1.46h0l.86-1.12,2.06-2.47a.21.21,0,0,1,.21-.08h.53a.11.11,0,0,1,.11.14L75.29,10c0,.08,0,.12-.12.12l-.57,0c-.09,0-.13,0-.13-.13l.07-2.18.1-1.47h0l-.92,1.22-2,2.4a.16.16,0,0,1-.16.07H71a.12.12,0,0,1-.12-.13L71,5.19A.11.11,0,0,1,71.1,5.07Z"/><path class="cls-1" d="M77,5.34l.57.06c.09,0,.12.06.11.15L77.46,7.7l-.24,1.44,0,0,1-1,2.27-2.28a.25.25,0,0,1,.22-.06l.53.06a.11.11,0,0,1,.1.14l-.56,4.65c0,.09,0,.12-.13.11l-.56-.06a.12.12,0,0,1-.12-.15l.26-2.16.23-1.45,0,0L79.39,8l-2.2,2.21a.17.17,0,0,1-.16.07l-.58-.07c-.08,0-.11-.06-.1-.14l.56-4.65C76.92,5.36,77,5.33,77,5.34Zm2.16-.26a1.33,1.33,0,0,1-1.21-1,.1.1,0,0,1,.06-.12l.5-.15a.11.11,0,0,1,.12.06.71.71,0,0,0,.62.51A.72.72,0,0,0,80,4a.1.1,0,0,1,.14,0l.44.26s.06.07,0,.13A1.33,1.33,0,0,1,79.2,5.08Z"/><path class="cls-1" d="M86.28,6.84l3.19.81a.11.11,0,0,1,.09.15l-1,3.92.42.1c.08,0,.1.07.09.15l-.42,1.62a.11.11,0,0,1-.15.09L88,13.55c-.08,0-.11-.07-.09-.14l.21-1-3.6-.92-.28,1a.12.12,0,0,1-.16.1l-.51-.13a.11.11,0,0,1-.09-.15l.41-1.63c0-.08.07-.1.15-.08l.27.06a.28.28,0,0,0,.27-.06.59.59,0,0,0,.21-.29L86.15,6.9A.09.09,0,0,1,86.28,6.84Zm2.33,1.38-1.92-.49-1.14,2.88a1.39,1.39,0,0,1-.16.3l2.38.6Z"/><path class="cls-1" d="M91.42,8.23l.54.19a.12.12,0,0,1,.08.17l-.73,2L90.76,12l0,0,1.16-.8,2.71-1.73a.26.26,0,0,1,.23,0l.5.18a.1.1,0,0,1,.07.15L93.9,14.22c0,.08-.07.11-.14.08l-.54-.19a.12.12,0,0,1-.09-.16l.73-2.06.55-1.37,0,0-1.25.88-2.63,1.67a.17.17,0,0,1-.17,0l-.55-.19a.11.11,0,0,1-.07-.16l1.57-4.42A.11.11,0,0,1,91.42,8.23Z"/><path class="cls-1" d="M96.6,10.83a2.93,2.93,0,0,1,2.14.19,2.43,2.43,0,0,1,1.06.87,1.14,1.14,0,0,1,.09,1.18.89.89,0,0,1-.83.53l0,0A1.14,1.14,0,0,1,99.28,15a1.38,1.38,0,0,1-1.08.84,2.68,2.68,0,0,1-1.61-.25,3,3,0,0,1-1.65-1.75.13.13,0,0,1,.06-.16l.5-.22c.07,0,.12,0,.16.07a2.38,2.38,0,0,0,1.26,1.38,1.84,1.84,0,0,0,1,.18.75.75,0,0,0,.62-.43c.21-.46,0-.82-.57-1.09l-1-.47a.11.11,0,0,1-.06-.17l.21-.47a.12.12,0,0,1,.17-.07l1.07.49a.9.9,0,0,0,.49.09.41.41,0,0,0,.34-.27.5.5,0,0,0-.09-.56,1.77,1.77,0,0,0-.68-.48,2.1,2.1,0,0,0-1.55-.12c-.09,0-.14,0-.14-.07l-.15-.57S96.54,10.85,96.6,10.83Z"/><path class="cls-1" d="M102.78,18l0,0a2.51,2.51,0,0,1-2-.26,1.88,1.88,0,0,1-.94-1,1.38,1.38,0,0,1,.11-1.2,1.35,1.35,0,0,1,.91-.69,2.07,2.07,0,0,1,1.26.13l1.83.73.07-.14a.66.66,0,0,0,0-.68,1.45,1.45,0,0,0-.63-.59,2.72,2.72,0,0,0-1.7-.36c-.09,0-.14,0-.14-.11l-.06-.51c0-.08,0-.13.1-.14a3.48,3.48,0,0,1,2.18.44,2.38,2.38,0,0,1,1,1.07,1.45,1.45,0,0,1-.09,1.34l-.84,1.48a3.14,3.14,0,0,0-.38,1.07l0,.29c0,.07,0,.1-.12.1l-.51-.09a.11.11,0,0,1-.11-.14Zm.28-.8.51-.91-1.78-.67a1.22,1.22,0,0,0-.67-.08.63.63,0,0,0-.46.33.67.67,0,0,0,0,.67,1.27,1.27,0,0,0,.54.54,2.17,2.17,0,0,0,1,.28A2,2,0,0,0,103.06,17.18Z"/><path class="cls-1" d="M106.93,15.51l.48.33a.11.11,0,0,1,0,.17l-1.23,1.8L105.34,19l0,0,1.32-.48,3.07-1a.26.26,0,0,1,.22,0l.44.31a.12.12,0,0,1,0,.17l-2.65,3.86c0,.07-.1.09-.16.05l-.47-.33a.12.12,0,0,1,0-.18l1.23-1.8.87-1.18,0,0-1.42.53-3,1a.17.17,0,0,1-.17,0l-.48-.33a.1.1,0,0,1,0-.17l2.65-3.87A.1.1,0,0,1,106.93,15.51Zm2,.78a1.35,1.35,0,0,1-.6-1.47c0-.06,0-.09.11-.08l.51.1a.1.1,0,0,1,.08.11.75.75,0,0,0,1.12.76.1.1,0,0,1,.13,0l.27.43a.09.09,0,0,1,0,.13A1.35,1.35,0,0,1,109,16.29Z"/><path class="cls-1" d="M111.8,18.93l.44.37a.1.1,0,0,1,0,.17l-1.18,1.44,2.06,1.69,1.18-1.44a.11.11,0,0,1,.18,0l.44.36a.11.11,0,0,1,0,.18l-3,3.62a.11.11,0,0,1-.17,0l-.44-.36c-.07-.06-.08-.12,0-.18l1.3-1.59-2.06-1.69-1.3,1.59c-.06.06-.12.07-.18,0l-.44-.36c-.07-.05-.07-.11,0-.18l3-3.62A.12.12,0,0,1,111.8,18.93Z"/><path class="cls-1" d="M120.44,34.6l-.36-.44a.12.12,0,0,1,0-.18l3.13-2.55L122,30l-2.65,1.65a1.12,1.12,0,0,1-1.62-.21,1.14,1.14,0,0,1-.25-.47,1.26,1.26,0,0,1,0-.55.09.09,0,0,1,.12-.09l.54,0c.08,0,.11,0,.09.11a.47.47,0,0,0,.1.47c.13.17.33.18.58,0L122.11,29a.1.1,0,0,1,.15,0l2,2.46a.11.11,0,0,1,0,.18l-3.63,3A.12.12,0,0,1,120.44,34.6Z"/><path class="cls-1" d="M122,35.64a2.61,2.61,0,0,1,3-2,2.42,2.42,0,0,1,1.61,1.1,2.48,2.48,0,0,1-.7,3.53,2.4,2.4,0,0,1-1.91.4,2.63,2.63,0,0,1-2-3Zm4.26.81a1.78,1.78,0,0,0-1.37-2.05,1.91,1.91,0,0,0-2.11,1.42,1.76,1.76,0,0,0,1.37,2,1.74,1.74,0,0,0,1.32-.3A1.78,1.78,0,0,0,126.25,36.45Z"/><path class="cls-1" d="M124.65,41l-.28-.5c0-.08,0-.13,0-.17l4.1-2.28a.12.12,0,0,1,.1,0,.1.1,0,0,1,.07.05l1.69,3a.11.11,0,0,1-.05.17l-.46.25c-.07,0-.12,0-.16,0l-1.35-2.43-3.54,2C124.74,41.09,124.69,41.07,124.65,41Z"/><path class="cls-1" d="M127.21,44.39a2.61,2.61,0,0,1,3.31-1.5,2.46,2.46,0,0,1,1.41,1.35,2.54,2.54,0,0,1,.09,1.95,2.49,2.49,0,0,1-1.36,1.42,2.42,2.42,0,0,1-1.95.08,2.52,2.52,0,0,1-1.41-1.35A2.46,2.46,0,0,1,127.21,44.39Zm4.07,1.49a1.67,1.67,0,0,0-.05-1.33,1.64,1.64,0,0,0-1-.91,1.8,1.8,0,0,0-1.36.09,1.74,1.74,0,0,0-1,1A1.63,1.63,0,0,0,128,46a1.67,1.67,0,0,0,1,.92,1.92,1.92,0,0,0,2.32-1.06Z"/><path class="cls-1" d="M133.18,47.3l1.42,3.93a.12.12,0,0,1-.08.16l-.49.18a.12.12,0,0,1-.16-.08l-.57-1.58-3.8,1.37c-.08,0-.13,0-.16-.08l-.19-.53a.12.12,0,0,1,.07-.17L133,49.14l-.57-1.58c0-.08,0-.13.08-.16l.48-.18C133.1,47.19,133.15,47.22,133.18,47.3Z"/><path class="cls-1" d="M135,52.54l.14.55a.1.1,0,0,1-.08.15l-2.11.57-1.42.31v.05l1.32.5,3,1.25a.24.24,0,0,1,.14.18l.14.52c0,.07,0,.12-.09.14L131.48,58c-.08,0-.13,0-.15-.07l-.15-.55a.13.13,0,0,1,.09-.17l2.11-.56,1.43-.33v0l-1.43-.53-2.87-1.22a.15.15,0,0,1-.12-.13l-.15-.56c0-.07,0-.12.09-.14l4.52-1.21C134.94,52.43,135,52.46,135,52.54Z"/><path class="cls-1" d="M136.46,58.31l.69,3.89a.11.11,0,0,1-.11.14l-4.61.81c-.08,0-.13,0-.15-.1l-.1-.56c0-.09,0-.14.11-.15l4-.7-.44-2.51-4,.69a.11.11,0,0,1-.15-.1l-.1-.56c0-.09,0-.13.1-.15l4.62-.81A.11.11,0,0,1,136.46,58.31Z"/><path class="cls-1" d="M137,74.18l0,0a2,2,0,0,1,.69,1.69A2.35,2.35,0,0,1,135,78.22a2.37,2.37,0,0,1-1.71-.82,2.44,2.44,0,0,1-.6-1.8,2.32,2.32,0,0,1,.89-1.8,3,3,0,0,1,2-.56,5.54,5.54,0,0,1,1.64.33,2.74,2.74,0,0,1,1.06.71,2.67,2.67,0,0,1,.65,1.94,2.55,2.55,0,0,0,.05.9.8.8,0,0,0,.35.42c.07,0,.09.1.05.17l-.24.47a.13.13,0,0,1-.17,0,1.12,1.12,0,0,1-.71-.7,3.68,3.68,0,0,1-.12-1.42,2,2,0,0,0-.29-1.21A1.88,1.88,0,0,0,137,74.18Zm-.11,1.68a1.63,1.63,0,0,0-.41-1.21,1.72,1.72,0,0,0-2.4-.16,1.67,1.67,0,0,0-.16,2.36,1.64,1.64,0,0,0,1.18.56,1.74,1.74,0,0,0,1.24-.38A1.56,1.56,0,0,0,136.84,75.86Z"/><path class="cls-1" d="M130.91,79.39l.08-.56a.13.13,0,0,1,.15-.11l6.13.94a.11.11,0,0,1,.11.14l-.07.46a.13.13,0,0,1-.15.12h-.36v.06a2.13,2.13,0,0,1,.32,1.63,2.41,2.41,0,0,1-1,1.66,2.74,2.74,0,0,1-3.63-.55,2.43,2.43,0,0,1-.43-1.87,2.17,2.17,0,0,1,.82-1.48L131,79.54C130.93,79.53,130.9,79.48,130.91,79.39Zm4.92.88-2-.3a1.91,1.91,0,0,0-1,1.45,1.57,1.57,0,0,0,.31,1.26,1.75,1.75,0,0,0,1.19.66,1.78,1.78,0,0,0,1.34-.27,1.62,1.62,0,0,0,.67-1.11A1.88,1.88,0,0,0,135.83,80.27Z"/><path class="cls-1" d="M132.09,85.32a2.64,2.64,0,0,1,3.53.89,2.48,2.48,0,0,1,.26,2,2.41,2.41,0,0,1-1.13,1.56,2.55,2.55,0,0,1-1.95.23l-.25-.06c-.08,0-.11-.06-.09-.13l1-4a1.6,1.6,0,0,0-1.11.31,1.84,1.84,0,0,0-.66,1,2.46,2.46,0,0,0,.19,1.7c0,.06,0,.11-.06.14l-.5.22a.12.12,0,0,1-.16,0,3.15,3.15,0,0,1-.21-2.2A2.52,2.52,0,0,1,132.09,85.32Zm3,2.66a1.72,1.72,0,0,0-.1-1.21,1.52,1.52,0,0,0-.84-.79l-.81,3.25a1.51,1.51,0,0,0,1.1-.28A1.61,1.61,0,0,0,135.13,88Z"/><path class="cls-1" d="M134.77,91.93l-.19.54c0,.08-.08.1-.16.07l-1.75-.61-.88,2.52,1.76.61c.08,0,.1.08.07.17l-.19.53c0,.08-.08.1-.16.08l-4.42-1.55a.11.11,0,0,1-.08-.16l.19-.53c0-.08.08-.11.16-.08l1.94.67.88-2.51L130,91c-.08,0-.11-.08-.08-.16l.19-.54c0-.08.08-.11.16-.08l4.42,1.54A.12.12,0,0,1,134.77,91.93Z"/><path class="cls-1" d="M132.39,98.29l-1.37,3a.1.1,0,0,1-.16.06l-3.68-1.67-.18.39a.1.1,0,0,1-.16.06l-1.52-.69a.12.12,0,0,1-.07-.17l.22-.48c0-.07.09-.1.16-.06l1,.39,1.53-3.38-.9-.45c-.09,0-.11-.1-.07-.17l.21-.48a.12.12,0,0,1,.17-.07l1.53.7a.09.09,0,0,1,.05.15l-.11.26a.32.32,0,0,0,0,.27.64.64,0,0,0,.25.27l3.08,1.93A.12.12,0,0,1,132.39,98.29Zm-1.78,2,.82-1.8-2.63-1.64a1.18,1.18,0,0,1-.26-.21l-1,2.24Z"/><path class="cls-1" d="M128.31,106.23l-.35.63c0,.07-.09.07-.14,0l-3.38-4.3a1.58,1.58,0,0,1-.27-1.86,1.34,1.34,0,0,1,.19-.26.13.13,0,0,1,.18,0l.43.25a.12.12,0,0,1,.07.07.09.09,0,0,1,0,.08,1.5,1.5,0,0,0-.14.2.77.77,0,0,0,.11,1l.14.16,5.17.44s.06,0,0,.07l-.39.68a.08.08,0,0,1-.09,0L125.8,103l0,.08,2.55,3A.09.09,0,0,1,128.31,106.23Z"/><path class="cls-1" d="M123.45,109.59l0,0a1.32,1.32,0,0,1-.74.25,1.14,1.14,0,0,1-.69-.2,1.44,1.44,0,0,1-.62-1,1.59,1.59,0,0,1,.3-1.21l1.5-2.18a.09.09,0,0,1,.08,0,.1.1,0,0,1,.09,0l3.86,2.65a.11.11,0,0,1,0,.17l-1.41,2.06a1.44,1.44,0,0,1-.92.64,1.32,1.32,0,0,1-1-.21,1,1,0,0,1-.32-.4A.8.8,0,0,1,123.45,109.59Zm1.15-2.53-1.21-.84-1.09,1.58a1,1,0,0,0-.18.62.68.68,0,0,0,.32.51c.4.27.76.17,1.08-.29Zm1.59,1.1-1-.66-1,1.51a.63.63,0,0,0-.1.44.59.59,0,0,0,.68.47.61.61,0,0,0,.4-.28Z"/><path class="cls-1" d="M118.5,112.56l0,0a2.47,2.47,0,0,1,.6-1.92,1.9,1.9,0,0,1,1.17-.74,1.46,1.46,0,0,1,1.68,1.34,2.09,2.09,0,0,1-.35,1.22l-1,1.66.12.1a.68.68,0,0,0,.67.14,1.49,1.49,0,0,0,.69-.52,2.69,2.69,0,0,0,.65-1.61c0-.09,0-.13.13-.11l.52,0c.08,0,.12,0,.12.13a3.35,3.35,0,0,1-.82,2.06,2.3,2.3,0,0,1-1.23.82,1.44,1.44,0,0,1-1.3-.33l-1.31-1.08a3.09,3.09,0,0,0-1-.56l-.27-.1a.1.1,0,0,1-.08-.14l.18-.48a.11.11,0,0,1,.15-.09Zm.73.42.81.67,1-1.64a1.17,1.17,0,0,0,.2-.65.69.69,0,0,0-.24-.51.68.68,0,0,0-.66-.15,1.3,1.3,0,0,0-.62.44,2.27,2.27,0,0,0-.45.89A2,2,0,0,0,119.23,113Z"/><path class="cls-1" d="M120.19,117.09l-.4.4a.11.11,0,0,1-.18,0l-1.33-1.3-1.86,1.9,1.33,1.3c.06.06.06.12,0,.19l-.39.4a.11.11,0,0,1-.18,0l-3.35-3.28a.11.11,0,0,1,0-.18l.39-.4c.07-.06.13-.07.19,0l1.47,1.44,1.86-1.9-1.47-1.44a.11.11,0,0,1,0-.18l.4-.41a.11.11,0,0,1,.18,0l3.35,3.28A.11.11,0,0,1,120.19,117.09Z"/><path class="cls-1" d="M116.08,121.18l-.44.37a.1.1,0,0,1-.17,0l-1.21-1.41-2,1.74,1.22,1.41q.08.09,0,.18l-.42.37a.11.11,0,0,1-.18,0l-3-3.55c-.06-.06,0-.12,0-.18l.43-.36q.11-.09.18,0l1.34,1.56,2-1.73L112.41,118c0-.07,0-.13,0-.18l.43-.37c.06-.06.12,0,.18,0l3,3.55A.11.11,0,0,1,116.08,121.18Z"/><path class="cls-1" d="M109,120.9l.07,1.73a1.61,1.61,0,0,1,1.73.7,1.71,1.71,0,0,1,.31,1.33,1.88,1.88,0,0,1-.79,1.2l-1.83,1.32a.11.11,0,0,1-.18,0l-2.74-3.8a.11.11,0,0,1,0-.18l.46-.33a.11.11,0,0,1,.17,0l.74,1,1.33-1-.09-1.5a.25.25,0,0,1,.1-.23l.51-.36s.08,0,.12,0S109,120.85,109,120.9Zm-.4,5.25,1.27-.92a1,1,0,0,0,.46-.67,1,1,0,0,0-.2-.74,1,1,0,0,0-.64-.43,1,1,0,0,0-.79.22l-1.27.91Z"/><path class="cls-1" d="M94.09,134.6a2.52,2.52,0,0,1-1.21.15,2.38,2.38,0,0,1-1.12-.43.1.1,0,0,1,0-.15l.29-.46a.1.1,0,0,1,.16,0,1.78,1.78,0,0,0,1.65.2,1.59,1.59,0,0,0,1-.9,1.88,1.88,0,0,0-.88-2.37,1.62,1.62,0,0,0-1.33-.05,1.82,1.82,0,0,0-1.14,1.25c0,.06-.07.08-.14.06l-.52-.17c-.06,0-.08-.07-.07-.14a2.43,2.43,0,0,1,1.6-1.72,2.48,2.48,0,0,1,3.28,1.5,2.44,2.44,0,0,1-.06,1.95A2.5,2.5,0,0,1,94.09,134.6Z"/><path class="cls-1" d="M91.1,135.58l-4,1.12a.1.1,0,0,1-.15-.08l-.14-.5a.12.12,0,0,1,.09-.16l1.61-.45-1.09-3.89a.12.12,0,0,1,.09-.16l.55-.15a.12.12,0,0,1,.16.09l1.08,3.89,1.62-.45c.08,0,.13,0,.16.08l.13.5A.11.11,0,0,1,91.1,135.58Z"/><path class="cls-1" d="M85.77,137l-.56.11a.11.11,0,0,1-.15-.1l-.41-2.14-.21-1.44h0l-.6,1.27-1.46,2.87a.23.23,0,0,1-.19.13l-.52.1c-.08,0-.12,0-.14-.11l-.88-4.6c0-.08,0-.13.08-.14l.56-.11a.12.12,0,0,1,.16.1l.41,2.15.22,1.45h0l.63-1.39,1.42-2.78a.18.18,0,0,1,.14-.11l.57-.11c.07,0,.12,0,.14.11l.88,4.6C85.87,137,85.84,137,85.77,137Z"/><path class="cls-1" d="M74.83,133.6l.57-.06a.11.11,0,0,1,.14.11l.39,4,1.89-.19.1-3.12c0-.76.39-1.17,1.07-1.23a1.12,1.12,0,0,1,.53.05,1.2,1.2,0,0,1,.46.31.1.1,0,0,1,0,.15l-.32.43c0,.07-.09.07-.15,0a.49.49,0,0,0-.44-.19c-.22,0-.33.18-.35.47l-.15,3.71a.1.1,0,0,1-.1.11l-3.17.31a.11.11,0,0,1-.14-.11l-.45-4.67A.1.1,0,0,1,74.83,133.6Z"/><path class="cls-1" d="M73.39,139.16a.62.62,0,0,1,.46.18.6.6,0,0,1,.21.45.61.61,0,0,1-.18.47.64.64,0,0,1-.9,0,.64.64,0,0,1,0-.92A.63.63,0,0,1,73.39,139.16Zm.27-.61-.57,0c-.09,0-.13,0-.13-.12l-.16-4.68c0-.08,0-.13.12-.13l.57,0c.08,0,.13,0,.13.12l.16,4.68C73.78,138.51,73.74,138.55,73.66,138.55Z"/><path class="cls-1" d="M69.22,138.65a2.54,2.54,0,0,1-1.17-.3,2.5,2.5,0,0,1-.89-.82.1.1,0,0,1,0-.15l.43-.33a.11.11,0,0,1,.17,0,1.78,1.78,0,0,0,1.46.79,1.62,1.62,0,0,0,1.24-.47,1.88,1.88,0,0,0,.06-2.53,1.6,1.6,0,0,0-1.22-.54,1.81,1.81,0,0,0-1.51.74.11.11,0,0,1-.16,0l-.42-.36s0-.09,0-.15a2.45,2.45,0,0,1,2.12-1,2.52,2.52,0,0,1,1.81.76,2.49,2.49,0,0,1,.68,1.85,2.49,2.49,0,0,1-2.61,2.47Z"/><path class="cls-1" d="M66.08,138.45,61.93,138a.11.11,0,0,1-.11-.14l0-.52a.11.11,0,0,1,.14-.11l1.67.18.42-4a.12.12,0,0,1,.14-.12l.57.06a.11.11,0,0,1,.11.14l-.42,4,1.66.18c.09,0,.13.05.12.14l-.06.51A.11.11,0,0,1,66.08,138.45Z"/><path class="cls-1" d="M60.58,137.82l-.56-.11c-.08,0-.11-.06-.1-.15l.41-2.13.33-1.42,0,0-1,1-2.42,2.12a.23.23,0,0,1-.22,0l-.52-.1c-.08,0-.11-.06-.1-.15l.88-4.6c0-.08.06-.12.13-.1l.56.1c.09,0,.13.07.11.15l-.41,2.15L57.28,136l0,0L58.42,135l2.35-2.06a.21.21,0,0,1,.17,0l.57.11q.1,0,.09.15l-.88,4.6C60.71,137.8,60.66,137.83,60.58,137.82Z"/><path class="cls-1" d="M54.76,136.62l-.55-.15c-.09,0-.11-.08-.09-.16l.59-2.09-2.85,1.49a.38.38,0,0,1-.28,0l-.78-.22a.08.08,0,0,1-.07-.07s0-.06.05-.09L53.41,134l-1.48-3.17a.09.09,0,0,1,0-.1s.06,0,.11,0l.7.2a.35.35,0,0,1,.23.18l1.17,2.57.82-.35.43-1.52c0-.09.07-.12.16-.09l.55.15c.08,0,.11.08.08.16l-1.27,4.51A.1.1,0,0,1,54.76,136.62Z"/><path class="cls-1" d="M48,130h0a2.44,2.44,0,0,1,2-.05,1.91,1.91,0,0,1,1.09.86,1.45,1.45,0,0,1-.72,2,2.08,2.08,0,0,1-1.27.07l-1.91-.45-.05.15a.63.63,0,0,0,.09.67,1.44,1.44,0,0,0,.71.5,2.64,2.64,0,0,0,1.73.08c.09,0,.14,0,.16.09l.14.5a.1.1,0,0,1-.08.15,3.4,3.4,0,0,1-2.22-.1,2.29,2.29,0,0,1-1.17-.9,1.41,1.41,0,0,1-.12-1.33l.6-1.6a3.21,3.21,0,0,0,.21-1.12v-.29a.1.1,0,0,1,.11-.11h.51c.09,0,.13,0,.13.11Zm-.16.83-.36,1,1.85.39a1.28,1.28,0,0,0,.68,0,.7.7,0,0,0,.34-1.06,1.25,1.25,0,0,0-.63-.45,2.21,2.21,0,0,0-1-.14A1.9,1.9,0,0,0,47.81,130.79Z"/><path class="cls-1" d="M35.1,128.8a.67.67,0,0,1,.2.9.62.62,0,0,1-.41.29.64.64,0,0,1-.49-.08.68.68,0,0,1-.28-.41.64.64,0,0,1,.08-.49.63.63,0,0,1,.41-.28A.64.64,0,0,1,35.1,128.8Zm.56-.35-.48-.3a.12.12,0,0,1,0-.18l2.5-4a.11.11,0,0,1,.18,0l.48.3a.11.11,0,0,1,0,.18l-2.5,4A.11.11,0,0,1,35.66,128.45Z"/><path class="cls-1" d="M33.8,127.28l-.46-.33a.11.11,0,0,1,0-.18l1.08-1.51-2.16-1.55-1.08,1.51a.13.13,0,0,1-.19,0l-.45-.33a.11.11,0,0,1,0-.18l2.73-3.8a.11.11,0,0,1,.18,0l.45.33a.11.11,0,0,1,0,.18l-1.2,1.67,2.16,1.56L36,123a.11.11,0,0,1,.18,0l.46.33a.11.11,0,0,1,0,.18L34,127.25A.11.11,0,0,1,33.8,127.28Z"/><path class="cls-1" d="M25.73,122.79l-.42-.39a.1.1,0,0,1,0-.17L26.42,121a1.52,1.52,0,0,1-1.13-.42,2,2,0,0,1-.74-1.61,2.71,2.71,0,0,1,.77-1.77,2.77,2.77,0,0,1,1.68-1,2,2,0,0,1,1.68.57,1.5,1.5,0,0,1,.52,1.1l1.2-1.34a.12.12,0,0,1,.18,0l.43.39a.11.11,0,0,1,0,.17l-1.2,1.34a1.52,1.52,0,0,1,1.15.4,2,2,0,0,1,.74,1.61,2.76,2.76,0,0,1-.79,1.77,2.71,2.71,0,0,1-1.67,1,2,2,0,0,1-1.68-.56,1.57,1.57,0,0,1-.54-1.08l-1.12,1.25C25.86,122.84,25.8,122.84,25.73,122.79Zm1.19-2.37,1.71-1.9a1.42,1.42,0,0,0-.44-1.15,1.24,1.24,0,0,0-1.12-.34,2,2,0,0,0-1.13.7,2.12,2.12,0,0,0-.59,1.2,1.24,1.24,0,0,0,.47,1.07A1.54,1.54,0,0,0,26.92,120.42Zm2.32-1.35L27.53,121a1.59,1.59,0,0,0,.54,1,1.23,1.23,0,0,0,1.11.35,2.41,2.41,0,0,0,1.71-1.91,1.25,1.25,0,0,0-.46-1.08A1.41,1.41,0,0,0,29.24,119.07Z"/><path class="cls-1" d="M25.58,114.7a2.43,2.43,0,0,1-.87,1.75,2.47,2.47,0,0,1-1.85.67,2.64,2.64,0,0,1-2.41-2.71,2.47,2.47,0,0,1,.88-1.76,2.43,2.43,0,0,1,1.84-.66,2.5,2.5,0,0,1,1.74.88A2.47,2.47,0,0,1,25.58,114.7Zm-4.33-.22a1.76,1.76,0,0,0,1.63,1.84,1.75,1.75,0,0,0,1.27-.49,1.7,1.7,0,0,0,.63-1.2,1.62,1.62,0,0,0-.44-1.25,1.63,1.63,0,0,0-1.19-.59,1.74,1.74,0,0,0-1.27.48A1.76,1.76,0,0,0,21.25,114.48Z"/><path class="cls-1" d="M22.21,109.75l.35.46c.05.07.05.13,0,.17l-3.75,2.82a.12.12,0,0,1-.1,0,.12.12,0,0,1-.08,0l-2.09-2.79c-.05-.07,0-.12,0-.18l.42-.31a.11.11,0,0,1,.17,0l1.67,2.23,3.24-2.44A.11.11,0,0,1,22.21,109.75Z"/><path class="cls-1" d="M20.84,105.26l.3.48a.12.12,0,0,1,0,.18l-5.26,3.3a.11.11,0,0,1-.17,0l-.25-.39c0-.06,0-.12,0-.18l.28-.24,0,0a2.15,2.15,0,0,1-1.31-1,2.41,2.41,0,0,1,.84-3.46,2.4,2.4,0,0,1,3.47.76,2.19,2.19,0,0,1,.35,1.65l1.61-1A.12.12,0,0,1,20.84,105.26Zm-4.31,2.55,1.71-1.07a1.89,1.89,0,0,0-.19-1.75,1.57,1.57,0,0,0-1.06-.76,2,2,0,0,0-2.17,1.36,1.59,1.59,0,0,0,.23,1.28A1.87,1.87,0,0,0,16.53,107.81Z"/><path class="cls-1" d="M14.71,98.93l0,0a2.47,2.47,0,0,1,1.51,1.31,2,2,0,0,1,.22,1.38,1.42,1.42,0,0,1-.76.93,1.37,1.37,0,0,1-1.15.07,2.16,2.16,0,0,1-1-.81l-1.11-1.62-.13.07a.67.67,0,0,0-.4.56,1.62,1.62,0,0,0,.19.84,2.76,2.76,0,0,0,1.22,1.24.11.11,0,0,1,.06.17l-.23.46a.11.11,0,0,1-.17.06,3.37,3.37,0,0,1-1.56-1.58,2.31,2.31,0,0,1-.26-1.45A1.46,1.46,0,0,1,12,99.54l1.52-.77a3.24,3.24,0,0,0,.92-.68l.19-.21a.1.1,0,0,1,.16,0l.37.35c.06.06.07.11,0,.17Zm-.68.5-.94.48,1.11,1.54a1.2,1.2,0,0,0,.52.44.65.65,0,0,0,.56,0,.67.67,0,0,0,.4-.54,1.35,1.35,0,0,0-.15-.76,2.33,2.33,0,0,0-.63-.76A2,2,0,0,0,14,99.43Z"/><path class="cls-1" d="M7.38,96.25l-.21-.54a.11.11,0,0,1,.08-.16L8.82,95a1.55,1.55,0,0,1-.82-.9,2.06,2.06,0,0,1,.08-1.77,2.75,2.75,0,0,1,1.51-1.21A2.71,2.71,0,0,1,11.52,91a2.07,2.07,0,0,1,1.24,1.28,1.5,1.5,0,0,1,0,1.21l1.68-.63a.11.11,0,0,1,.16.07l.21.54a.11.11,0,0,1-.08.16L13,94.25a1.5,1.5,0,0,1,.84.89,2,2,0,0,1-.08,1.77,2.72,2.72,0,0,1-1.51,1.21,2.71,2.71,0,0,1-1.93.09,2,2,0,0,1-1.23-1.27,1.54,1.54,0,0,1,0-1.21l-1.57.59A.11.11,0,0,1,7.38,96.25Zm2.14-1.56,2.39-.9a1.44,1.44,0,0,0,.14-1.23,1.25,1.25,0,0,0-.84-.81,2.08,2.08,0,0,0-1.33.1,2.07,2.07,0,0,0-1.07.8,1.26,1.26,0,0,0-.08,1.17A1.54,1.54,0,0,0,9.52,94.69Zm2.68-.13-2.39.9a1.56,1.56,0,0,0,0,1.18,1.24,1.24,0,0,0,.83.82A2,2,0,0,0,12,97.35a2,2,0,0,0,1.07-.8,1.22,1.22,0,0,0,.08-1.16A1.36,1.36,0,0,0,12.2,94.56Z"/><path class="cls-1" d="M6.31,90.43a.66.66,0,0,1-.45.81.61.61,0,0,1-.49-.06.63.63,0,0,1-.31-.39.59.59,0,0,1,.06-.48A.64.64,0,0,1,6,90.06.59.59,0,0,1,6.31,90.43Zm.66.12L6.81,90a.12.12,0,0,1,.09-.16l4.5-1.29a.12.12,0,0,1,.16.09l.15.55c0,.08,0,.13-.08.16L7.12,90.63A.1.1,0,0,1,7,90.55Z"/><path class="cls-1" d="M6.36,88.44l-.12-.56a.11.11,0,0,1,.09-.15l2.12-.48-2.66-1.8a.34.34,0,0,1-.15-.23l-.18-.8a.08.08,0,0,1,0-.09.08.08,0,0,1,.1,0L8,86l2.09-2.82a.08.08,0,0,1,.09,0,.09.09,0,0,1,.07.08l.16.71a.34.34,0,0,1-.05.29L8.65,86.49l.71.56,1.54-.35a.11.11,0,0,1,.15.09l.13.56c0,.08,0,.13-.1.15l-4.57,1A.11.11,0,0,1,6.36,88.44Z"/><path class="cls-1" d="M9,79.27v0a2.47,2.47,0,0,1,1,1.73,1.91,1.91,0,0,1-.24,1.37,1.38,1.38,0,0,1-1,.64,1.35,1.35,0,0,1-1.11-.31A2,2,0,0,1,7,81.67l-.52-1.89-.16,0a.68.68,0,0,0-.55.4,1.48,1.48,0,0,0-.09.86,2.67,2.67,0,0,0,.75,1.57.1.1,0,0,1,0,.17L6,83.17a.1.1,0,0,1-.17,0,3.47,3.47,0,0,1-1-2,2.29,2.29,0,0,1,.24-1.46A1.44,1.44,0,0,1,6.23,79l1.69-.23A3.1,3.1,0,0,0,9,78.39l.25-.13a.09.09,0,0,1,.15,0l.24.45c0,.08,0,.13,0,.17Zm-.8.26-1,.15.54,1.82a1.21,1.21,0,0,0,.35.58.65.65,0,0,0,.54.17.68.68,0,0,0,.55-.38,1.27,1.27,0,0,0,.1-.76,2.19,2.19,0,0,0-.35-.93A1.94,1.94,0,0,0,8.19,79.53Z"/><path class="cls-1" d="M3.86,67.45a.66.66,0,0,1-.23.44.64.64,0,0,1-.47.17.69.69,0,0,1-.61-.7.66.66,0,0,1,.23-.43.64.64,0,0,1,.47-.17.66.66,0,0,1,.44.23A.63.63,0,0,1,3.86,67.45Zm.57.33,0-.57c0-.09,0-.13.14-.12l4.67.3a.12.12,0,0,1,.12.14l0,.57a.1.1,0,0,1-.13.11l-4.68-.3C4.47,67.91,4.43,67.86,4.43,67.78Z"/><path class="cls-1" d="M10.05,61.64,10,62.2c0,.09-.06.12-.15.11l-4-.51-.25,1.88,3,.79a1.12,1.12,0,0,1,1,1.32,1.18,1.18,0,0,1-.17.51,1.23,1.23,0,0,1-.4.38.1.1,0,0,1-.15,0l-.35-.41c-.06,0-.05-.1,0-.14a.53.53,0,0,0,.28-.4c0-.21-.1-.36-.39-.44l-3.58-1a.11.11,0,0,1-.08-.13L5.15,61a.11.11,0,0,1,.14-.11l4.65.59A.12.12,0,0,1,10.05,61.64Z"/><path class="cls-1" d="M5.44,59.21l.13-.55c0-.08.07-.12.15-.09l1.8.42.15-.59a2.46,2.46,0,0,1-1.24-1.18,2.53,2.53,0,0,1-.18-1.72,2.49,2.49,0,0,1,1.14-1.59,2.43,2.43,0,0,1,1.92-.29,2.52,2.52,0,0,1,1.89,3.06,2.53,2.53,0,0,1-1,1.5,2.45,2.45,0,0,1-1.76.43l-.14.56,2,.48c.08,0,.11.07.09.16l-.13.55c0,.08-.07.12-.15.1L5.53,59.37C5.45,59.35,5.42,59.3,5.44,59.21ZM7,55.68A1.65,1.65,0,0,0,7.21,57a1.7,1.7,0,0,0,1.11.76,1.71,1.71,0,0,0,1.35-.19,1.64,1.64,0,0,0,.77-1.06,1.66,1.66,0,0,0-.21-1.31,1.76,1.76,0,0,0-1.11-.77,1.72,1.72,0,0,0-1.34.18A1.66,1.66,0,0,0,7,55.68Z"/><path class="cls-1" d="M8.07,49.5a2.59,2.59,0,0,1,.65-1,2.37,2.37,0,0,1,1-.59.1.1,0,0,1,.14.07l.17.51a.11.11,0,0,1-.08.15,1.74,1.74,0,0,0-1.2,1.14,1.62,1.62,0,0,0,.06,1.33,1.89,1.89,0,0,0,2.39.84,1.64,1.64,0,0,0,.89-1,1.81,1.81,0,0,0-.24-1.67s0-.1,0-.15l.47-.28a.1.1,0,0,1,.15,0,2.45,2.45,0,0,1,.31,2.33,2.5,2.5,0,0,1-1.29,1.48,2.42,2.42,0,0,1-2,.08,2.45,2.45,0,0,1-1.47-1.29A2.51,2.51,0,0,1,8.07,49.5Z"/><path class="cls-1" d="M9.24,46.57l1.7-3.82a.11.11,0,0,1,.17-.06l.47.21a.11.11,0,0,1,.06.17L11,44.6l3.69,1.64c.07,0,.1.09.06.17l-.23.52a.12.12,0,0,1-.17.07l-3.69-1.65-.68,1.53a.11.11,0,0,1-.17.06l-.47-.21A.1.1,0,0,1,9.24,46.57Z"/><path class="cls-1" d="M17.47,44.15l-.27.5c0,.08-.1.09-.18.05l-5.43-3a.12.12,0,0,1-.05-.18l.23-.4a.13.13,0,0,1,.18-.06l.34.13,0-.06a2.08,2.08,0,0,1,.27-1.64,2.44,2.44,0,0,1,1.48-1.22,2.52,2.52,0,0,1,1.95.27,2.48,2.48,0,0,1,1.26,1.51A2.42,2.42,0,0,1,17,42a2.21,2.21,0,0,1-1.27,1.11l1.66.92A.11.11,0,0,1,17.47,44.15Zm-4.31-2.53,1.77,1a1.86,1.86,0,0,0,1.43-1,1.56,1.56,0,0,0,.15-1.29,1.78,1.78,0,0,0-.89-1,1.83,1.83,0,0,0-1.35-.21,1.59,1.59,0,0,0-1,.81A1.9,1.9,0,0,0,13.16,41.62Z"/><path class="cls-1" d="M20,35.73l0,0a2.49,2.49,0,0,1-.42,2,1.93,1.93,0,0,1-1.1.85,1.41,1.41,0,0,1-1.19-.21,1.37,1.37,0,0,1-.61-1,2.1,2.1,0,0,1,.23-1.25l.89-1.75-.13-.09a.69.69,0,0,0-.68-.07,1.52,1.52,0,0,0-.65.58,2.73,2.73,0,0,0-.49,1.66c0,.09,0,.14-.12.13l-.52,0c-.08,0-.12,0-.13-.11a3.41,3.41,0,0,1,.63-2.14,2.28,2.28,0,0,1,1.14-.92,1.43,1.43,0,0,1,1.33.2l1.41,1a3.27,3.27,0,0,0,1,.47l.28.07c.08,0,.1.06.09.13l-.13.5a.11.11,0,0,1-.14.1Zm-.77-.34-.87-.59-.81,1.71a1.17,1.17,0,0,0-.13.67.61.61,0,0,0,.28.48.68.68,0,0,0,.67.09,1.19,1.19,0,0,0,.58-.5,2.23,2.23,0,0,0,.37-.92A2,2,0,0,0,19.27,35.39Z"/><path class="cls-1" d="M24.16,31.55l-2.39,2.94a.1.1,0,0,1-.17,0l-3.64-3a.11.11,0,0,1,0-.17l.36-.45a.12.12,0,0,1,.18,0l3.14,2.55,1.59-1.95L20.07,29c-.07-.05-.07-.11,0-.18l.36-.44c.05-.07.11-.07.18,0l3.13,2.55.28-.35q.08-.09.18,0l1.27,1.09c.06,0,.06.1,0,.17l-.3.37c-.05.07-.11.07-.18,0Z"/><path class="cls-1" d="M21.4,26.36a.64.64,0,0,1-.45.21.67.67,0,0,1-.47-.17.64.64,0,0,1-.21-.45.67.67,0,0,1,.17-.47.59.59,0,0,1,.45-.2.62.62,0,0,1,.47.17.65.65,0,0,1,.2.45A.58.58,0,0,1,21.4,26.36Zm.25.62.38-.42c.06-.06.12-.07.18,0l3.45,3.16a.11.11,0,0,1,0,.18l-.38.42a.11.11,0,0,1-.18,0l-3.46-3.16A.11.11,0,0,1,21.65,27Z"/><path class="cls-1" d="M26.35,28.91,26,27.21a1.61,1.61,0,0,1-1.82-.44,1.69,1.69,0,0,1-.49-1.27,1.82,1.82,0,0,1,.6-1.3l1.62-1.58c.06-.06.12-.05.18,0L29.39,26a.12.12,0,0,1,0,.19l-.41.4a.11.11,0,0,1-.17,0l-.89-.91-1.17,1.14.3,1.47a.23.23,0,0,1-.07.25l-.44.43s-.08.06-.11,0S26.36,29,26.35,28.91ZM26,23.66l-1.12,1.09a1,1,0,0,0-.36.74,1,1,0,0,0,.3.7,1,1,0,0,0,.71.33,1,1,0,0,0,.74-.33l1.13-1.09Z"/></svg>