<svg id="Слой_1" data-name="Слой 1" xmlns="http://www.w3.org/2000/svg" viewBox="0 0 141.73 141.73"><defs><style>.cls-1{fill:#5991cd;}</style></defs><title>Круги</title><path class="cls-1" d="M34.13,16.41l.57-.34c.07,0,.13,0,.17,0l3,2.76,0,0-1-3.9a.11.11,0,0,1,.06-.14l.52-.31a.13.13,0,0,1,.16,0l3,2.77,0,0-1-3.92a.12.12,0,0,1,.06-.15l.57-.34c.07,0,.11,0,.13.06l1.09,4.84a.17.17,0,0,1-.08.17l-.65.38a.14.14,0,0,1-.18,0l-2.63-2.48,0,0,.93,3.49a.13.13,0,0,1,0,.16l-.66.39a.15.15,0,0,1-.19,0l-3.75-3.27C34.05,16.5,34.05,16.45,34.13,16.41Z"/><path class="cls-1" d="M43.6,16a2.42,2.42,0,0,1-1.42-1.35,2.47,2.47,0,0,1,1.27-3.38,2.39,2.39,0,0,1,1.92-.09,2.49,2.49,0,0,1,1.39,1.37l.11.23a.1.1,0,0,1,0,.16l-3.7,1.7a1.63,1.63,0,0,0,.94.67,1.8,1.8,0,0,0,1.23-.14,2.46,2.46,0,0,0,1.2-1.22c0-.06.08-.07.15,0l.49.25a.11.11,0,0,1,0,.16,3.14,3.14,0,0,1-1.57,1.54A2.59,2.59,0,0,1,43.6,16Zm.17-4a1.7,1.7,0,0,0-.88.83,1.58,1.58,0,0,0-.1,1.15l3.05-1.4a1.51,1.51,0,0,0-.9-.68A1.59,1.59,0,0,0,43.77,11.93Z"/><path class="cls-1" d="M46.59,8.29l.54-.19c.08,0,.13,0,.16.08L47.92,10a2.2,2.2,0,0,1,1.3-1.07A2.41,2.41,0,0,1,51.14,9a2.44,2.44,0,0,1,1.27,1.49,2.48,2.48,0,0,1-.06,2A2.43,2.43,0,0,1,50.9,13.7a2.14,2.14,0,0,1-1.67,0l0,0,.06.36a.12.12,0,0,1-.08.16l-.44.16a.12.12,0,0,1-.16-.08L46.51,8.45C46.48,8.37,46.51,8.32,46.59,8.29Zm1.64,2.58.67,1.91a1.89,1.89,0,0,0,1.75.19,1.58,1.58,0,0,0,1-.85,1.8,1.8,0,0,0,0-1.37,1.78,1.78,0,0,0-.86-1.06,1.6,1.6,0,0,0-1.29-.06A1.87,1.87,0,0,0,48.23,10.87Z"/><path class="cls-1" d="M53.49,10.35l-.13-.5a.11.11,0,0,1,.09-.15l2.28-.6q.12,0,.15.09l.14.49a.12.12,0,0,1-.1.16l-2.27.6A.12.12,0,0,1,53.49,10.35Z"/><path class="cls-1" d="M57.84,6.59,61.08,6a.12.12,0,0,1,.15.1l.73,4,.42-.08a.1.1,0,0,1,.14.09l.3,1.65c0,.08,0,.13-.1.15L62.2,12c-.08,0-.13,0-.14-.09l-.22-1-3.66.67.15,1a.11.11,0,0,1-.1.15l-.52.1c-.08,0-.13,0-.14-.1l-.31-1.65c0-.08,0-.13.1-.14l.27-.05a.31.31,0,0,0,.22-.17.57.57,0,0,0,.07-.35l-.17-3.64A.12.12,0,0,1,57.84,6.59Zm2.69.29-1.94.36.16,3.09a1.22,1.22,0,0,1,0,.34l2.41-.44Z"/><path class="cls-1" d="M63.08,5.72l.57,0c.08,0,.13,0,.13.12L64,8l.07,1.46h0l.72-1.21L66.55,5.5a.25.25,0,0,1,.2-.11l.53,0c.08,0,.12,0,.13.11l.42,4.67c0,.08,0,.13-.1.13l-.56.05A.12.12,0,0,1,67,10.2L66.82,8l-.07-1.46h0l-.76,1.32-1.7,2.62a.18.18,0,0,1-.14.1l-.58.05c-.08,0-.12,0-.13-.11L63,5.86A.11.11,0,0,1,63.08,5.72Z"/><path class="cls-1" d="M68.83,5.94a3,3,0,0,1,2-.75,2.45,2.45,0,0,1,1.34.33,1.18,1.18,0,0,1,.59,1,.89.89,0,0,1-.53.83v0a1.13,1.13,0,0,1,.81,1.15,1.39,1.39,0,0,1-.61,1.23,2.69,2.69,0,0,1-1.56.46,3,3,0,0,1-2.24-.87.13.13,0,0,1,0-.18l.35-.4c0-.07.11-.07.17,0a2.37,2.37,0,0,0,1.74.69,1.73,1.73,0,0,0,1-.26.74.74,0,0,0,.37-.66c0-.5-.34-.74-1-.73l-1.14,0c-.09,0-.13,0-.13-.13V7.24c0-.09,0-.13.12-.13l1.18,0A.94.94,0,0,0,71.75,7a.42.42,0,0,0,.19-.39.51.51,0,0,0-.32-.47A1.91,1.91,0,0,0,70.8,6a2.13,2.13,0,0,0-1.45.56c-.07.06-.12.06-.16,0l-.38-.44S68.79,6,68.83,5.94Z"/><path class="cls-1" d="M77.47,9.81h0a2.5,2.5,0,0,1-1.9.61,1.92,1.92,0,0,1-1.29-.54,1.38,1.38,0,0,1-.4-1.13,1.35,1.35,0,0,1,.53-1,2,2,0,0,1,1.2-.42l2-.1V7.06a.67.67,0,0,0-.28-.62,1.48,1.48,0,0,0-.82-.28,2.73,2.73,0,0,0-1.69.4.1.1,0,0,1-.17,0l-.27-.44a.1.1,0,0,1,0-.17,3.39,3.39,0,0,1,2.16-.52,2.38,2.38,0,0,1,1.38.54,1.44,1.44,0,0,1,.48,1.25l-.14,1.7A3.26,3.26,0,0,0,78.33,10l.08.28c0,.06,0,.11-.08.13l-.49.14a.12.12,0,0,1-.16-.08ZM77.39,9l.08-1.05-1.89.15a1.09,1.09,0,0,0-.64.21.66.66,0,0,0-.29.49.7.7,0,0,0,.25.62,1.28,1.28,0,0,0,.73.26,2.17,2.17,0,0,0,1-.14A2,2,0,0,0,77.39,9Z"/><path class="cls-1" d="M80.22,5.83l.56.09c.08,0,.12.07.1.15l-.35,2.14-.31,1.43,0,0,1-1,2.36-2.18a.24.24,0,0,1,.22,0l.53.08a.12.12,0,0,1,.1.15l-.77,4.62c0,.08-.06.12-.13.11L83,11.3a.12.12,0,0,1-.11-.15L83.26,9l.3-1.44h0L82.44,8.62l-2.3,2.12a.14.14,0,0,1-.16,0l-.58-.09q-.11,0-.09-.15l.77-4.61A.11.11,0,0,1,80.22,5.83Zm2.16-.15A1.36,1.36,0,0,1,81.22,4.6a.09.09,0,0,1,.07-.12l.5-.12a.09.09,0,0,1,.11.06.75.75,0,0,0,1.34.22.11.11,0,0,1,.14,0l.43.28s0,.08,0,.14A1.35,1.35,0,0,1,82.38,5.68Z"/><path class="cls-1" d="M97.53,10.56a2.72,2.72,0,0,1,1,.72A2.47,2.47,0,0,1,99,12.36a.1.1,0,0,1-.08.14l-.52.14a.12.12,0,0,1-.14-.09,1.8,1.8,0,0,0-1.06-1.28,1.69,1.69,0,0,0-1.34,0,1.88,1.88,0,0,0-1,2.33,1.58,1.58,0,0,0,.94.95,1.8,1.8,0,0,0,1.68-.13s.1,0,.14,0l.26.48a.1.1,0,0,1,0,.15,2.43,2.43,0,0,1-2.35.16,2.48,2.48,0,0,1-1.35-3.34,2.4,2.4,0,0,1,1.38-1.38A2.52,2.52,0,0,1,97.53,10.56Z"/><path class="cls-1" d="M99,16a2.43,2.43,0,0,1,.22-1.94,2.47,2.47,0,0,1,3.46-1,2.38,2.38,0,0,1,1.23,1.47,2.48,2.48,0,0,1-.24,1.94l-.12.23c0,.07-.09.09-.15,0l-3.6-1.91a1.62,1.62,0,0,0,0,1.15,1.76,1.76,0,0,0,.86.89,2.47,2.47,0,0,0,1.7.23c.07,0,.1,0,.11.09l.1.55a.1.1,0,0,1-.09.13,3.14,3.14,0,0,1-2.18-.32A2.56,2.56,0,0,1,99,16Zm3.32-2.3a1.78,1.78,0,0,0-1.2-.2,1.57,1.57,0,0,0-1,.62l3,1.58a1.57,1.57,0,0,0,0-1.13A1.63,1.63,0,0,0,102.3,13.71Z"/><path class="cls-1" d="M104.06,18.83a2.39,2.39,0,0,1,.39-1.92,2.47,2.47,0,0,1,3.52-.72,2.5,2.5,0,0,1,1.12,1.6,2.47,2.47,0,0,1-.39,1.92,2.57,2.57,0,0,1-4.64-.88Zm4.24-.9a1.6,1.6,0,0,0-.75-1.1,1.64,1.64,0,0,0-1.31-.26,1.75,1.75,0,0,0-1.1.8,1.78,1.78,0,0,0-.3,1.32,1.78,1.78,0,0,0,2.06,1.36,1.75,1.75,0,0,0,1.1-.8A1.77,1.77,0,0,0,108.3,17.93Z"/><path class="cls-1" d="M116.77,23.16l.41.41c.06.05,0,.11,0,.17l-1.86,1.86a1.64,1.64,0,0,0-.53,1,1.25,1.25,0,0,0,.44,1,1.77,1.77,0,0,0,1.57.5l2.37-2.38a.11.11,0,0,1,.18,0l.4.4a.11.11,0,0,1,0,.18l-3.3,3.32a.11.11,0,0,1-.18,0l-.33-.32a.13.13,0,0,1,0-.19l.23-.31,0,0a2.2,2.2,0,0,1-1.47-.63,2.16,2.16,0,0,1-.71-1.51,2.25,2.25,0,0,1,.75-1.58l1.88-1.89A.11.11,0,0,1,116.77,23.16Z"/><path class="cls-1" d="M120.88,27.34l.48.57a.19.19,0,0,1,.06.16l-.5,2.12,0,0,2.14-.15a.19.19,0,0,1,.16.08l.51.6a.1.1,0,0,1,0,.09.08.08,0,0,1-.07,0l-2.83.08-.63,3.1s0,.06,0,.07-.06,0-.09,0l-.51-.61a.21.21,0,0,1,0-.2l.57-2.39,0,0-2.41.19a.28.28,0,0,1-.2-.08l-.51-.61a.09.09,0,0,1,0-.07s0,0,.07,0l3.13-.11.58-2.77,0-.05a.06.06,0,0,1,.06,0S120.86,27.32,120.88,27.34Z"/><path class="cls-1" d="M126.2,33.11l.14.5c0,.08,0,.13-.08.16l-5.8,1.58a.1.1,0,0,1-.15-.08l-.14-.5c0-.09,0-.14.08-.16l5.8-1.59C126.13,33,126.19,33,126.2,33.11Z"/><path class="cls-1" d="M126.66,34.74l.31.49a.11.11,0,0,1,0,.17l-2.22,1.4a1.6,1.6,0,0,0-.75.88,1.26,1.26,0,0,0,.2,1,1.79,1.79,0,0,0,1.43.84l2.84-1.78a.11.11,0,0,1,.17,0l.31.48a.12.12,0,0,1,0,.18l-4,2.49a.11.11,0,0,1-.17,0l-.25-.39a.13.13,0,0,1,0-.18l.31-.26,0,0a2.14,2.14,0,0,1-1.29-.94,2.17,2.17,0,0,1-.35-1.63,2.22,2.22,0,0,1,1.09-1.37l2.26-1.42A.11.11,0,0,1,126.66,34.74Z"/><path class="cls-1" d="M129.68,39.74l.27.5c0,.08,0,.13,0,.17l-4.1,2.25a.11.11,0,0,1-.18,0l-.27-.5a.11.11,0,0,1,.05-.17l4.11-2.25A.11.11,0,0,1,129.68,39.74Zm.66,0a.66.66,0,0,1-.05-.5.71.71,0,0,1,.31-.39.67.67,0,0,1,.5,0,.71.71,0,0,1,.39.31.63.63,0,0,1,0,.49.59.59,0,0,1-.31.39.64.64,0,0,1-.49,0A.6.6,0,0,1,130.34,39.71Z"/><path class="cls-1" d="M132.21,44.79l1.29,3a.11.11,0,0,1-.07.16l-3.72,1.58.17.4a.11.11,0,0,1-.06.16l-1.55.65a.11.11,0,0,1-.16-.07l-.21-.48c0-.08,0-.13.06-.16l.94-.44-1.45-3.42-1,.36a.12.12,0,0,1-.18-.06l-.2-.49a.11.11,0,0,1,.07-.16l1.54-.66c.07,0,.12,0,.15.07l.11.25a.31.31,0,0,0,.22.18.64.64,0,0,0,.36,0l3.5-1C132.14,44.71,132.19,44.73,132.21,44.79Zm.3,2.69-.77-1.82-3,.83a1.39,1.39,0,0,1-.33,0l1,2.26Z"/><path class="cls-1" d="M134.2,49.71l.18.55a.12.12,0,0,1-.09.16l-2.07.66-1.41.38v0l1.34.43,3,1.12a.22.22,0,0,1,.15.17l.16.51c0,.07,0,.12-.08.15l-4.46,1.42a.12.12,0,0,1-.16-.07l-.17-.54a.12.12,0,0,1,.08-.17l2.08-.66,1.41-.4v0L132.73,53l-2.93-1.08a.21.21,0,0,1-.13-.13l-.17-.55c0-.07,0-.12.08-.15l4.47-1.42A.1.1,0,0,1,134.2,49.71Z"/><path class="cls-1" d="M135.27,55.4a2.94,2.94,0,0,1,1.14,1.82,2.35,2.35,0,0,1,0,1.37,1.13,1.13,0,0,1-.89.79.89.89,0,0,1-.92-.35h-.05a1.13,1.13,0,0,1-.95,1,1.43,1.43,0,0,1-1.33-.35,2.65,2.65,0,0,1-.77-1.43,3,3,0,0,1,.4-2.38c0-.06.09-.07.16-.05l.47.27c.08,0,.09.09,0,.17a2.35,2.35,0,0,0-.33,1.84,1.76,1.76,0,0,0,.46.89.72.72,0,0,0,.72.23c.49-.11.66-.48.52-1.11l-.26-1.11c0-.09,0-.14.1-.15l.5-.12a.12.12,0,0,1,.16.1l.26,1.15a.87.87,0,0,0,.22.44.42.42,0,0,0,.42.11.51.51,0,0,0,.39-.41,1.85,1.85,0,0,0,0-.84,2.13,2.13,0,0,0-.84-1.3c-.08-.06-.09-.11,0-.16l.36-.46S135.21,55.37,135.27,55.4Z"/><path class="cls-1" d="M133.31,64.67v0a2.43,2.43,0,0,1-1-1.73,1.9,1.9,0,0,1,.24-1.37,1.38,1.38,0,0,1,1-.64,1.35,1.35,0,0,1,1.11.31,2,2,0,0,1,.66,1.08l.52,1.9.15,0a.7.7,0,0,0,.56-.41,1.47,1.47,0,0,0,.09-.86,2.67,2.67,0,0,0-.75-1.56c-.06-.07-.06-.13,0-.18l.37-.36a.1.1,0,0,1,.17,0,3.4,3.4,0,0,1,1,2,2.26,2.26,0,0,1-.23,1.45,1.41,1.41,0,0,1-1.12.74l-1.68.23a3.1,3.1,0,0,0-1.09.35l-.26.13a.09.09,0,0,1-.15,0l-.24-.45a.12.12,0,0,1,0-.17Zm.81-.26,1-.15-.54-1.81a1.33,1.33,0,0,0-.35-.59.65.65,0,0,0-.54-.17.67.67,0,0,0-.55.38,1.27,1.27,0,0,0-.1.76,2.07,2.07,0,0,0,.35.93A1.87,1.87,0,0,0,134.12,64.41Z"/><path class="cls-1" d="M137.79,66.47l0,.57a.12.12,0,0,1-.12.14l-2.17.11h-1.46v0l1.18.77L137.88,70a.26.26,0,0,1,.1.21l0,.53c0,.08,0,.12-.13.12l-4.67.24c-.09,0-.13,0-.14-.1l0-.57c0-.09,0-.14.12-.14l2.18-.11,1.46,0v0l-1.28-.81L133,67.45a.16.16,0,0,1-.09-.15l0-.58a.11.11,0,0,1,.12-.12l4.68-.24C137.74,66.36,137.79,66.4,137.79,66.47Zm.61,2.09a1.35,1.35,0,0,1,.81-1.37.09.09,0,0,1,.13,0l.23.46a.1.1,0,0,1,0,.13.69.69,0,0,0-.39.7.71.71,0,0,0,.46.66c.05,0,.06.06.05.12l-.19.48c0,.06-.06.07-.12,0A1.35,1.35,0,0,1,138.4,68.56Z"/><path class="cls-1" d="M138,72.43l0,.57c0,.08,0,.12-.13.12L136,73.05l-.1,2.66,1.86.07c.08,0,.12,0,.12.14l0,.56a.12.12,0,0,1-.13.13l-4.68-.17c-.09,0-.13,0-.13-.13l0-.56c0-.1.05-.14.14-.14l2,.08.1-2.66L133.18,73c-.08,0-.12,0-.12-.13l0-.57a.11.11,0,0,1,.13-.12l4.68.17C138,72.3,138,72.34,138,72.43Z"/><path class="cls-1" d="M138.13,85.69l-.11.56c0,.09-.07.12-.15.1l-6.08-1.26a.12.12,0,0,1-.1-.15l.12-.56c0-.08.07-.12.15-.1L138,85.54A.11.11,0,0,1,138.13,85.69Z"/><path class="cls-1" d="M131.21,89.66l0,0a2.45,2.45,0,0,1-.24-2,1.86,1.86,0,0,1,.76-1.16,1.39,1.39,0,0,1,1.19-.19,1.37,1.37,0,0,1,.89.72,2.07,2.07,0,0,1,.19,1.25l-.27,2,.15,0a.69.69,0,0,0,.67-.15,1.5,1.5,0,0,0,.42-.76,2.69,2.69,0,0,0-.07-1.73c0-.09,0-.14.07-.16l.48-.19a.1.1,0,0,1,.16.06,3.43,3.43,0,0,1,.11,2.22,2.28,2.28,0,0,1-.79,1.25,1.4,1.4,0,0,1-1.32.24L132,90.58a3,3,0,0,0-1.13-.11l-.29,0a.1.1,0,0,1-.13-.1l0-.51c0-.08,0-.13.11-.14Zm.85.08,1,.27.21-1.88a1.21,1.21,0,0,0-.09-.67.62.62,0,0,0-.42-.37.67.67,0,0,0-.66.13,1.3,1.3,0,0,0-.4.66,2.26,2.26,0,0,0,0,1A1.88,1.88,0,0,0,132.06,89.74Z"/><path class="cls-1" d="M130.14,91.35,134.53,93c.08,0,.11.08.08.16l-.16.43c0,.08-.08.1-.17.09l-.38-.09,0,0a2,2,0,0,1,0,1.59,2.11,2.11,0,0,1-1.07,1.28,2.22,2.22,0,0,1-1.75,0l-2.5-.92c-.08,0-.11-.08-.08-.16l.2-.54a.11.11,0,0,1,.16-.07l2.47.91a1.6,1.6,0,0,0,1.15,0,1.25,1.25,0,0,0,.71-.8,1.8,1.8,0,0,0-.21-1.64l-3.15-1.16a.11.11,0,0,1-.07-.16l.19-.54A.12.12,0,0,1,130.14,91.35Z"/><path class="cls-1" d="M132.23,102.77l-.25.51a.11.11,0,0,1-.17.06l-5.6-2.66a.11.11,0,0,1-.06-.17l.19-.42a.14.14,0,0,1,.18-.07l.35.11,0-.06a2.09,2.09,0,0,1,.17-1.65,2.42,2.42,0,0,1,3.37-1.16,2.47,2.47,0,0,1,1.35,1.42,2.44,2.44,0,0,1-.13,1.92,2.19,2.19,0,0,1-1.2,1.18l1.72.82A.12.12,0,0,1,132.23,102.77Zm-4.47-2.26,1.83.86a1.9,1.9,0,0,0,1.37-1.1A1.64,1.64,0,0,0,131,99a2,2,0,0,0-2.32-1.1,1.62,1.62,0,0,0-1,.88A1.92,1.92,0,0,0,127.76,100.51Z"/><path class="cls-1" d="M129.8,104.07l-.28.5a.11.11,0,0,1-.17.05l-4.1-2.27a.11.11,0,0,1,0-.17l.28-.5a.11.11,0,0,1,.17-.05l4.1,2.27A.11.11,0,0,1,129.8,104.07Zm.38.54a.67.67,0,0,1,.89-.25.6.6,0,0,1,.3.39.61.61,0,0,1-.44.79.6.6,0,0,1-.49-.05.61.61,0,0,1-.31-.39A.64.64,0,0,1,130.18,104.61Z"/><path class="cls-1" d="M124.74,103.32l4,2.51a.11.11,0,0,1,0,.17l-.25.39c0,.07-.1.08-.18,0l-.35-.16,0,0a2,2,0,0,1-.3,1.56,2.1,2.1,0,0,1-1.32,1,2.23,2.23,0,0,1-1.7-.39l-2.25-1.43a.11.11,0,0,1,0-.17l.31-.49a.1.1,0,0,1,.17,0l2.22,1.4a1.55,1.55,0,0,0,1.11.3,1.26,1.26,0,0,0,.86-.63,1.8,1.8,0,0,0,.15-1.65L124.3,104a.1.1,0,0,1,0-.17l.3-.48A.11.11,0,0,1,124.74,103.32Z"/><path class="cls-1" d="M123.1,114.08l-.29.36a.11.11,0,0,1-.17,0L119.41,112a2.75,2.75,0,0,1-1.11-1.67,2.31,2.31,0,0,1,.53-1.86,2.82,2.82,0,0,1,2-1.19c.08,0,.13,0,.14.11l.06.56a.11.11,0,0,1-.1.15,2,2,0,0,0-1.53.84,1.68,1.68,0,0,0-.39,1.2,1.61,1.61,0,0,0,.65,1.09l0,0a2.21,2.21,0,0,1,.5-1.59,2.41,2.41,0,0,1,1.64-1,2.75,2.75,0,0,1,2.91,2.24,2.41,2.41,0,0,1-.53,1.85,2.05,2.05,0,0,1-1.44.88l0,0,.3.28A.14.14,0,0,1,123.1,114.08Zm-2.62-2.31,1.58,1.21a1.87,1.87,0,0,0,1.59-.77A1.59,1.59,0,0,0,124,111a1.82,1.82,0,0,0-.74-1.16,1.8,1.8,0,0,0-1.29-.41,1.58,1.58,0,0,0-1.12.66A1.9,1.9,0,0,0,120.48,111.77Z"/><path class="cls-1" d="M115.06,113.45l.4-.4a.11.11,0,0,1,.18,0l4.39,4.38a.11.11,0,0,1,0,.18l-.33.33c0,.06-.11.06-.18,0l-.3-.22,0,0a2.13,2.13,0,0,1-.71,1.51,2.42,2.42,0,0,1-1.76.76,2.74,2.74,0,0,1-2.6-2.59,2.4,2.4,0,0,1,.76-1.76,2.19,2.19,0,0,1,1.53-.71l-1.34-1.35A.11.11,0,0,1,115.06,113.45Zm3.45,3.63-1.43-1.43a1.88,1.88,0,0,0-1.66.58,1.55,1.55,0,0,0-.5,1.2,2,2,0,0,0,1.81,1.81,1.59,1.59,0,0,0,1.19-.5A1.9,1.9,0,0,0,118.51,117.08Z"/><path class="cls-1" d="M110.27,120.83l0,0a2.45,2.45,0,0,1,.94-1.76,1.9,1.9,0,0,1,1.29-.52,1.38,1.38,0,0,1,1.08.53,1.34,1.34,0,0,1,.32,1.1,2,2,0,0,1-.56,1.13L112,122.73l.1.12a.68.68,0,0,0,.64.25,1.54,1.54,0,0,0,.78-.37,2.74,2.74,0,0,0,.93-1.47q0-.14.15-.09l.5.12c.08,0,.12.06.1.15a3.39,3.39,0,0,1-1.19,1.88,2.3,2.3,0,0,1-1.36.57,1.39,1.39,0,0,1-1.21-.56l-1.1-1.3a3,3,0,0,0-.86-.74l-.25-.15c-.07,0-.08-.08,0-.15l.26-.44a.12.12,0,0,1,.17-.06Zm.65.55.67.81,1.25-1.43a1.16,1.16,0,0,0,.31-.6.66.66,0,0,0-.13-.55.71.71,0,0,0-.62-.27,1.27,1.27,0,0,0-.7.32,2.31,2.31,0,0,0-.6.79A1.89,1.89,0,0,0,110.92,121.38Z"/><path class="cls-1" d="M107.87,127.85l-.38.26a.1.1,0,0,1-.17,0L105,124.74a2.69,2.69,0,0,1-.55-1.93,2.26,2.26,0,0,1,1.06-1.6,2.79,2.79,0,0,1,2.31-.53.11.11,0,0,1,.09.16l-.1.54c0,.1-.06.13-.14.11a2,2,0,0,0-1.72.35,1.53,1.53,0,0,0-.44,2.26l0,0a2.27,2.27,0,0,1,1-1.38,2.46,2.46,0,0,1,1.87-.44,2.74,2.74,0,0,1,2.1,3,2.44,2.44,0,0,1-1.06,1.6,2.08,2.08,0,0,1-1.65.4l-.05,0,.2.35A.13.13,0,0,1,107.87,127.85Zm-1.79-3,1.14,1.63a1.87,1.87,0,0,0,1.75-.26,1.58,1.58,0,0,0,.7-1.08,2,2,0,0,0-1.46-2.11,1.61,1.61,0,0,0-1.27.29A1.88,1.88,0,0,0,106.08,124.86Z"/><path class="cls-1" d="M92.64,130.76l0,0a2.53,2.53,0,0,1,1.46-1.37,1.89,1.89,0,0,1,1.39-.08,1.42,1.42,0,0,1,.86.85,1.37,1.37,0,0,1,0,1.14,2.06,2.06,0,0,1-.9.9l-1.72.94,0,.14a.72.72,0,0,0,.52.45,1.5,1.5,0,0,0,.86-.11,2.71,2.71,0,0,0,1.35-1.09c0-.08.11-.09.17,0l.44.28a.11.11,0,0,1,0,.17,3.45,3.45,0,0,1-1.73,1.4,2.29,2.29,0,0,1-1.47.11,1.45,1.45,0,0,1-1-.92l-.61-1.59a3.28,3.28,0,0,0-.59-1l-.19-.21a.1.1,0,0,1,0-.16l.38-.34a.13.13,0,0,1,.18,0Zm.44.72.38,1,1.64-1a1.17,1.17,0,0,0,.49-.47.62.62,0,0,0,0-.56.69.69,0,0,0-.49-.46,1.4,1.4,0,0,0-.77.08,2.22,2.22,0,0,0-.82.56A1.89,1.89,0,0,0,93.08,131.48Z"/><path class="cls-1" d="M91.88,135.54l-.55.16c-.08,0-.14,0-.16-.09l-.52-1.78-2.56.75.52,1.78c0,.08,0,.13-.09.16l-.54.16a.12.12,0,0,1-.16-.09l-1.31-4.5a.11.11,0,0,1,.09-.15l.54-.16a.11.11,0,0,1,.16.08l.58,2,2.56-.75-.58-2A.12.12,0,0,1,90,131l.54-.16c.09,0,.14,0,.16.09L92,135.38C92,135.47,92,135.52,91.88,135.54Z"/><path class="cls-1" d="M86.38,137l-.55.12c-.09,0-.14,0-.16-.09l-1-4.57a.12.12,0,0,1,.1-.15l.56-.13c.08,0,.13,0,.15.1l1,4.56A.12.12,0,0,1,86.38,137Zm-.15.64a.67.67,0,0,1,.78.49.69.69,0,0,1-.49.79.65.65,0,0,1-.48-.1.63.63,0,0,1-.2-.89A.66.66,0,0,1,86.23,137.68Z"/><path class="cls-1" d="M79.79,138.24l-.78.13a.11.11,0,0,1-.14-.11l-.72-4.63c0-.08,0-.13.09-.14l.58-.09c.08,0,.13,0,.14.1l.34,2.14.17,1.42h0l.45-1.92.53-1.88c0-.09.09-.14.16-.15l.36-.06a.23.23,0,0,1,.2.1l1.07,1.62,1,1.69h0l-.27-1.41-.33-2.14c0-.08,0-.13.08-.14l.57-.09c.08,0,.13,0,.14.1l.72,4.63c0,.09,0,.13-.1.15l-.83.13a.16.16,0,0,1-.17-.1l-1.35-2.05L81,134.23h0L80.55,136,80,138.09A.2.2,0,0,1,79.79,138.24Z"/><path class="cls-1" d="M73.67,134.47h0a2.44,2.44,0,0,1,1.8-.86,1.88,1.88,0,0,1,1.35.35,1.38,1.38,0,0,1,.55,1.07,1.35,1.35,0,0,1-.39,1.08,2.14,2.14,0,0,1-1.13.57l-1.93.37v.15a.68.68,0,0,0,.35.59,1.6,1.6,0,0,0,.85.16,2.82,2.82,0,0,0,1.63-.62c.07-.06.12-.06.17,0l.33.4a.1.1,0,0,1,0,.17,3.43,3.43,0,0,1-2.08.81,2.32,2.32,0,0,1-1.43-.35,1.41,1.41,0,0,1-.65-1.17l-.1-1.7a3,3,0,0,0-.26-1.11l-.11-.27c0-.06,0-.11,0-.15l.47-.2a.12.12,0,0,1,.17.06Zm.19.82.07,1.05,1.85-.4a1.17,1.17,0,0,0,.61-.3.62.62,0,0,0,.21-.52.66.66,0,0,0-.33-.58,1.3,1.3,0,0,0-.75-.16,2.22,2.22,0,0,0-1,.27A2.16,2.16,0,0,0,73.86,135.29Z"/><path class="cls-1" d="M67.84,133.76l3.78.1c.09,0,.13,0,.13.13l-.13,4.68c0,.08,0,.13-.13.12h-.57a.11.11,0,0,1-.12-.13l.1-4-2.51-.07-.11,4c0,.09,0,.13-.13.12h-.57c-.09,0-.13-.05-.12-.13l.1-4h-.44c-.08,0-.12,0-.12-.14l.09-1.67a.12.12,0,0,1,.13-.11h.48a.12.12,0,0,1,.13.13Z"/><path class="cls-1" d="M65.39,139.11a.62.62,0,0,1,.44.23.6.6,0,0,1,.15.47.58.58,0,0,1-.23.44.64.64,0,0,1-.47.16.64.64,0,0,1-.43-.23.65.65,0,0,1-.16-.48.67.67,0,0,1,.24-.44A.61.61,0,0,1,65.39,139.11Zm.34-.57-.57,0a.11.11,0,0,1-.11-.14l.4-4.66c0-.09,0-.13.13-.12l.57.05c.09,0,.13,0,.12.14l-.4,4.66C65.86,138.51,65.81,138.55,65.73,138.54Z"/><path class="cls-1" d="M64.39,133.63l-1.15,1.29a1.62,1.62,0,0,1,.76,1.71,1.71,1.71,0,0,1-.7,1.17,1.83,1.83,0,0,1-1.4.31l-2.24-.32a.11.11,0,0,1-.11-.14l.67-4.64a.12.12,0,0,1,.15-.11l.57.09c.08,0,.11.06.1.14l-.18,1.25,1.62.24,1-1.14a.21.21,0,0,1,.23-.09l.62.08a.17.17,0,0,1,.11.06A.1.1,0,0,1,64.39,133.63Zm-3.93,3.5,1.55.22a1,1,0,0,0,.8-.17,1.07,1.07,0,0,0,.2-1.42,1,1,0,0,0-.71-.39l-1.56-.22Z"/><path class="cls-1" d="M50.87,135.63l-3.73-1.32a.11.11,0,0,1-.07-.16l1.56-4.42c0-.08.08-.1.16-.07l.54.19c.08,0,.1.08.07.16l-1.34,3.81,2.41.85,1.34-3.81c0-.08.08-.11.16-.08l.54.19c.08,0,.11.08.08.16L51,135.55A.12.12,0,0,1,50.87,135.63Z"/><path class="cls-1" d="M47.69,127.56l.52.23a.12.12,0,0,1,.06.17l-2.59,5.64a.11.11,0,0,1-.16.07l-.42-.2a.12.12,0,0,1-.07-.17l.1-.35-.06,0a2.09,2.09,0,0,1-1.66-.14,2.43,2.43,0,0,1-1.33-1.38,2.52,2.52,0,0,1,.12-2,2.49,2.49,0,0,1,1.41-1.37,2.43,2.43,0,0,1,1.92.1,2.22,2.22,0,0,1,1.2,1.19l.79-1.73A.11.11,0,0,1,47.69,127.56Zm-2.2,4.49.84-1.84a1.88,1.88,0,0,0-1.12-1.35,1.6,1.6,0,0,0-1.3-.05,1.77,1.77,0,0,0-1,1,1.84,1.84,0,0,0-.11,1.37,1.61,1.61,0,0,0,.89.94A1.89,1.89,0,0,0,45.49,132.05Z"/><path class="cls-1" d="M41.65,127.07a2.4,2.4,0,0,1-.27,1.94,2.55,2.55,0,1,1-2.87-3.75,2.64,2.64,0,0,1,3.14,1.81Zm-4.18,1.15a1.77,1.77,0,0,0,2.14,1.23,1.8,1.8,0,0,0,1-.86,1.74,1.74,0,0,0,.22-1.34A1.77,1.77,0,0,0,38.74,126a1.76,1.76,0,0,0-1.05.86A1.79,1.79,0,0,0,37.47,128.22Z"/><path class="cls-1" d="M36.9,123.43l.48.33a.11.11,0,0,1,0,.17l-2.68,3.86a.14.14,0,0,1-.08,0,.16.16,0,0,1-.1,0l-2.85-2a.12.12,0,0,1,0-.18l.3-.43a.11.11,0,0,1,.17,0l2.29,1.59,2.31-3.33A.11.11,0,0,1,36.9,123.43Z"/><path class="cls-1" d="M34.17,119.59l.44.37a.12.12,0,0,1,0,.18l-4,4.78a.11.11,0,0,1-.18,0l-.36-.29a.13.13,0,0,1,0-.19l.18-.31,0,0a2.12,2.12,0,0,1-1.57-.57,2.47,2.47,0,0,1-.93-1.68,2.53,2.53,0,0,1,.63-1.87,2.42,2.42,0,0,1,3.53-.37,2.21,2.21,0,0,1,.86,1.46L34,119.61A.12.12,0,0,1,34.17,119.59Zm-3.28,3.78,1.28-1.56a1.86,1.86,0,0,0-.74-1.59,1.55,1.55,0,0,0-1.23-.39,2,2,0,0,0-1.63,2,1.56,1.56,0,0,0,.61,1.14A1.9,1.9,0,0,0,30.89,123.37Z"/><path class="cls-1" d="M26.37,115.53l0,0a2.49,2.49,0,0,1,1.85.77,2,2,0,0,1,.64,1.24,1.4,1.4,0,0,1-.43,1.12,1.35,1.35,0,0,1-1.06.43,2.09,2.09,0,0,1-1.19-.46l-1.56-1.19-.11.11a.71.71,0,0,0-.2.66,1.59,1.59,0,0,0,.45.74,2.76,2.76,0,0,0,1.55.79c.09,0,.12.06.1.14l-.07.51c0,.08-.05.12-.14.11a3.43,3.43,0,0,1-2-1,2.27,2.27,0,0,1-.7-1.3A1.42,1.42,0,0,1,24,117l1.2-1.22a3.14,3.14,0,0,0,.65-.93l.12-.26a.1.1,0,0,1,.15-.06l.46.21c.08,0,.1.09.07.16Zm-.49.69-.74.75,1.54,1.11a1.22,1.22,0,0,0,.63.26.7.7,0,0,0,.74-.83,1.24,1.24,0,0,0-.38-.67,2.34,2.34,0,0,0-.84-.53A2,2,0,0,0,25.88,116.22Z"/><path class="cls-1" d="M18.81,113.38l-.51-.61a.12.12,0,0,1,0-.18l3.6-3a.11.11,0,0,1,.17,0l.37.45a.1.1,0,0,1,0,.17l-1.67,1.39-1.12.89,0,0,1.87-.6,1.89-.51a.2.2,0,0,1,.21.06l.23.28c.05,0,.05.12,0,.22l-.84,1.75-.91,1.76,0,0,1.07-1,1.66-1.38c.07-.06.12-.06.17,0l.36.44a.1.1,0,0,1,0,.17l-3.6,3a.11.11,0,0,1-.18,0l-.54-.65a.16.16,0,0,1,0-.19l1.06-2.21.7-1.39,0,0-1.72.55-2.09.58A.23.23,0,0,1,18.81,113.38Z"/><path class="cls-1" d="M15.17,108.29l-.41-.6c0-.07,0-.11.06-.12l5.35-1.16A1.58,1.58,0,0,1,22,107a1,1,0,0,1,.16.29.13.13,0,0,1-.05.16l-.41.29-.1,0a.09.09,0,0,1-.06-.06l-.13-.21a.76.76,0,0,0-.92-.33l-.21,0-2.66,4.46s-.06,0-.08,0l-.44-.64a.09.09,0,0,1,0-.11l2.16-3.47-.06-.07-3.86,1A.09.09,0,0,1,15.17,108.29Z"/><path class="cls-1" d="M14.29,102.44l0,0a1.32,1.32,0,0,1,.1-.77,1.1,1.1,0,0,1,.49-.53,1.41,1.41,0,0,1,1.17-.13,1.65,1.65,0,0,1,1,.81l1.3,2.3a.1.1,0,0,1,0,.09.13.13,0,0,1-.05.07l-4.08,2.31c-.08,0-.13,0-.17,0l-1.22-2.17a1.43,1.43,0,0,1-.18-1.12,1.33,1.33,0,0,1,.63-.82.94.94,0,0,1,.51-.11A.89.89,0,0,1,14.29,102.44Zm.08,3.09,1-.56-.9-1.61a.61.61,0,0,0-.35-.28.53.53,0,0,0-.44,0,.54.54,0,0,0-.28.36.65.65,0,0,0,.07.48Zm1.68-.94,1.29-.73-.94-1.66a.92.92,0,0,0-.48-.44.71.71,0,0,0-.6.06c-.42.24-.49.61-.21,1.1Z"/><path class="cls-1" d="M13.79,96.69l0,0a2.49,2.49,0,0,1,1.45,1.38,1.91,1.91,0,0,1,.16,1.38,1.36,1.36,0,0,1-.8.9,1.3,1.3,0,0,1-1.14,0,2,2,0,0,1-1-.85l-1-1.66-.14.06a.69.69,0,0,0-.41.54,1.5,1.5,0,0,0,.15.85,2.7,2.7,0,0,0,1.17,1.3c.08,0,.09.09,0,.16l-.25.46c0,.07-.08.09-.16,0a3.37,3.37,0,0,1-1.5-1.65,2.29,2.29,0,0,1-.19-1.46,1.42,1.42,0,0,1,.86-1l1.55-.71a3.06,3.06,0,0,0,.94-.64l.21-.2a.1.1,0,0,1,.16,0l.35.36c.06.06.07.12,0,.18Zm-.7.48-.95.43,1,1.59a1.15,1.15,0,0,0,.5.46.62.62,0,0,0,.56,0,.67.67,0,0,0,.42-.52,1.31,1.31,0,0,0-.12-.76,2.13,2.13,0,0,0-.6-.79A1.84,1.84,0,0,0,13.09,97.17Z"/><path class="cls-1" d="M9,96.2l-.19-.54a.11.11,0,0,1,.08-.16l1.75-.62-.89-2.51L8,93c-.08,0-.13,0-.16-.08l-.19-.53a.11.11,0,0,1,.08-.16l4.41-1.57c.08,0,.13,0,.16.08l.19.53a.12.12,0,0,1-.07.17l-1.94.69.89,2.51,1.93-.69a.12.12,0,0,1,.17.08l.19.54a.12.12,0,0,1-.08.16L9.13,96.28C9.05,96.31,9,96.28,9,96.2Z"/><path class="cls-1" d="M7.11,90.71,7,90.15c0-.08,0-.13.1-.15l1.79-.47L8.19,87l-1.8.46c-.08,0-.13,0-.16-.1l-.14-.54c0-.09,0-.14.09-.16l4.54-1.17a.11.11,0,0,1,.15.09l.14.55a.11.11,0,0,1-.08.16l-2,.51.67,2.58,2-.51a.12.12,0,0,1,.16.09l.14.55a.12.12,0,0,1-.09.16L7.26,90.8A.11.11,0,0,1,7.11,90.71Z"/><path class="cls-1" d="M10.49,84.46l-1.58-.7A1.59,1.59,0,0,1,7.51,85a1.64,1.64,0,0,1-1.32-.31,1.82,1.82,0,0,1-.73-1.23l-.37-2.24a.1.1,0,0,1,.1-.14l4.62-.78a.13.13,0,0,1,.15.11l.09.57c0,.07,0,.12-.1.13l-1.25.22L9,82.94l1.38.59a.21.21,0,0,1,.16.19l.11.62a.16.16,0,0,1,0,.12A.11.11,0,0,1,10.49,84.46ZM6,81.78l.26,1.55a1,1,0,0,0,.41.71,1,1,0,0,0,.75.15,1,1,0,0,0,.67-.39A1.05,1.05,0,0,0,8.2,83l-.26-1.55Z"/><path class="cls-1" d="M4.62,67.31l.06-.57c0-.09.05-.12.14-.12L7,66.84,5,64.29A.35.35,0,0,1,4.94,64L5,63.21s0-.07.06-.07a.08.08,0,0,1,.09,0l1.77,2.36,2.86-2a.08.08,0,0,1,.1,0s0,0,0,.1l-.07.72a.35.35,0,0,1-.15.26l-2.32,1.6.49.75,1.58.15a.11.11,0,0,1,.11.14l-.05.57a.11.11,0,0,1-.14.11l-4.66-.46C4.65,67.44,4.61,67.39,4.62,67.31Z"/><path class="cls-1" d="M9.48,62.4a2.43,2.43,0,0,1-1.92.4,2.55,2.55,0,1,1,.93-5,2.41,2.41,0,0,1,1.65,1.05,2.63,2.63,0,0,1-.66,3.56ZM7,58.85a1.76,1.76,0,0,0-.45,2.42A1.78,1.78,0,0,0,7.72,62a1.73,1.73,0,0,0,1.33-.25,1.64,1.64,0,0,0,.71-1.12,1.67,1.67,0,0,0-.26-1.3,1.73,1.73,0,0,0-1.16-.7A1.71,1.71,0,0,0,7,58.85Z"/><path class="cls-1" d="M6.64,55.09l.89-3.17a.12.12,0,0,1,.16-.09l3.89,1.1.11-.42a.11.11,0,0,1,.15-.08l1.61.46a.11.11,0,0,1,.09.15l-.14.51c0,.08-.07.11-.15.09l-1-.25-1,3.58,1,.31a.12.12,0,0,1,.1.16l-.14.5A.12.12,0,0,1,12,58l-1.61-.45a.11.11,0,0,1-.08-.15l.07-.27a.3.3,0,0,0-.05-.27.61.61,0,0,0-.29-.22L6.7,55.23A.11.11,0,0,1,6.64,55.09ZM8.08,52.8l-.53,1.9,2.84,1.22a1.39,1.39,0,0,1,.3.17l.66-2.36Z"/><path class="cls-1" d="M9.47,46.61l.25-.67c0-.08.08-.08.14,0l4,3.74a1.59,1.59,0,0,1,.55,1.79,2,2,0,0,1-.15.3.13.13,0,0,1-.17,0l-.47-.18a.12.12,0,0,1-.08-.06.08.08,0,0,1,0-.08c.05-.09.08-.16.11-.22a.8.8,0,0,0-.26-1l-.16-.13-5.18.34c-.05,0-.07,0-.05-.06l.28-.73a.1.1,0,0,1,.08-.07l4.09-.2,0-.09-3-2.63A.09.09,0,0,1,9.47,46.61Z"/><path class="cls-1" d="M13.78,42.56l.05,0a1.29,1.29,0,0,1,.69-.36,1.09,1.09,0,0,1,.71.1,1.44,1.44,0,0,1,.77.9,1.62,1.62,0,0,1-.12,1.25l-1.15,2.37s0,0-.07,0h-.1l-4.21-2a.1.1,0,0,1-.06-.16l1.09-2.24a1.4,1.4,0,0,1,.81-.78,1.3,1.3,0,0,1,1,.06,1,1,0,0,1,.38.35A1,1,0,0,1,13.78,42.56Zm-2.5,1.83,1,.5.8-1.65a.55.55,0,0,0,0-.45.56.56,0,0,0-.29-.33.61.61,0,0,0-.46,0,.64.64,0,0,0-.34.33Zm1.73.84,1.33.64.84-1.72a.86.86,0,0,0,.08-.64.67.67,0,0,0-.39-.45q-.64-.31-1,.45Z"/><path class="cls-1" d="M18.22,38.89l0,0a2.46,2.46,0,0,1-.3,2,2,2,0,0,1-1.05.91A1.45,1.45,0,0,1,15,40.75a2.07,2.07,0,0,1,.16-1.26l.78-1.81-.13-.07a.68.68,0,0,0-.69,0,1.55,1.55,0,0,0-.61.61,2.8,2.8,0,0,0-.4,1.7c0,.09,0,.13-.11.13l-.51.05a.1.1,0,0,1-.14-.1,3.41,3.41,0,0,1,.5-2.17,2.29,2.29,0,0,1,1.09-1,1.43,1.43,0,0,1,1.34.13l1.46.87a3.1,3.1,0,0,0,1.06.41l.29.06c.07,0,.1,0,.09.12l-.1.5c0,.09-.06.12-.14.11Zm-.79-.3-.9-.54-.72,1.76a1.14,1.14,0,0,0-.09.67A.65.65,0,0,0,16,41a.7.7,0,0,0,.67,0,1.34,1.34,0,0,0,.56-.53,2.31,2.31,0,0,0,.31-.95A1.94,1.94,0,0,0,17.43,38.59Z"/><path class="cls-1" d="M15.88,34.65l.33-.47a.12.12,0,0,1,.18,0l1.51,1.08,1.55-2.16L18,32c-.07-.05-.08-.11,0-.19l.32-.45a.11.11,0,0,1,.18,0l3.8,2.74a.11.11,0,0,1,0,.17l-.33.46a.12.12,0,0,1-.18,0l-1.67-1.21-1.56,2.16,1.67,1.21a.11.11,0,0,1,0,.17l-.34.47c-.05.07-.1.07-.17,0l-3.8-2.75A.1.1,0,0,1,15.88,34.65Z"/><path class="cls-1" d="M19.33,30l.37-.43c.05-.07.11-.07.18,0l1.4,1.21,1.74-2-1.4-1.22c-.07-.05-.07-.11,0-.18l.36-.43c.06-.06.12-.07.18,0L25.7,30c.07.05.07.11,0,.18l-.37.42a.12.12,0,0,1-.19,0l-1.55-1.34-1.74,2,1.56,1.34c.06,0,.06.11,0,.18l-.37.43c-.06.06-.12.07-.18,0l-3.55-3A.11.11,0,0,1,19.33,30Z"/><path class="cls-1" d="M26.4,29.2l-.33-1.69a1.62,1.62,0,0,1-1.82-.44,1.69,1.69,0,0,1-.5-1.27,1.9,1.9,0,0,1,.6-1.3L26,22.92a.11.11,0,0,1,.18,0l3.27,3.35a.11.11,0,0,1,0,.18l-.4.4a.11.11,0,0,1-.18,0l-.88-.9-1.18,1.14.31,1.47a.23.23,0,0,1-.06.25l-.45.43s-.07.06-.11.05S26.41,29.25,26.4,29.2ZM26,24l-1.12,1.09a1,1,0,0,0-.05,1.44,1,1,0,0,0,.7.33,1.06,1.06,0,0,0,.75-.34l1.12-1.09Z"/></svg>