<svg id="Слой_1" data-name="Слой 1" xmlns="http://www.w3.org/2000/svg" viewBox="0 0 141.73 141.73"><defs><style>.cls-1{fill:#713e90;}</style></defs><title>Круги</title><path class="cls-1" d="M33.54,16.47l3.36-2.09a.11.11,0,0,1,.17,0l2.48,4a.11.11,0,0,1,0,.17l-.48.3a.11.11,0,0,1-.17,0L36.71,15.4l-2.17,1.35,2.14,3.43a.12.12,0,0,1,0,.18l-.49.3a.11.11,0,0,1-.17,0l-2.48-4A.11.11,0,0,1,33.54,16.47Z"/><path class="cls-1" d="M40.72,17.15a2.37,2.37,0,0,1-1.47-1.29,2.43,2.43,0,0,1-.17-1.95,2.62,2.62,0,0,1,3.23-1.64,2.46,2.46,0,0,1,1.48,1.3A2.43,2.43,0,0,1,44,15.52a2.63,2.63,0,0,1-3.23,1.63ZM42,13a1.62,1.62,0,0,0-1.32.11,1.66,1.66,0,0,0-.88,1A1.81,1.81,0,0,0,40,15.49a1.71,1.71,0,0,0,1,.91,1.61,1.61,0,0,0,1.32-.11,1.63,1.63,0,0,0,.88-1,1.74,1.74,0,0,0-.14-1.35A1.81,1.81,0,0,0,42,13Z"/><path class="cls-1" d="M49.83,13.79,49.3,14a.11.11,0,0,1-.16-.07l-1.49-3.76-1.77.7.77,3A1.11,1.11,0,0,1,46,15.38a1.14,1.14,0,0,1-.52.1,1.46,1.46,0,0,1-.53-.17c-.06,0-.07-.08,0-.15l.19-.5c0-.07.07-.09.14-.05a.51.51,0,0,0,.48.05c.2-.08.27-.26.2-.55L45,10.51a.1.1,0,0,1,.07-.14L48,9.2a.11.11,0,0,1,.16.07l1.73,4.35A.12.12,0,0,1,49.83,13.79Z"/><path class="cls-1" d="M49.7,8a.63.63,0,0,1-.5,0,.62.62,0,0,1-.28-.87.61.61,0,0,1,.37-.32.6.6,0,0,1,.49,0,.68.68,0,0,1,.33.38.6.6,0,0,1,0,.49A.58.58,0,0,1,49.7,8Zm-.1.66.55-.18c.08,0,.13,0,.16.08l1.44,4.46c0,.08,0,.13-.08.16l-.55.17c-.08,0-.13,0-.16-.08L49.52,8.86C49.5,8.78,49.52,8.72,49.6,8.7Z"/><path class="cls-1" d="M53.51,12.65,53,12.8c-.08,0-.13,0-.15-.08L51.59,8.19a.12.12,0,0,1,0-.1A.13.13,0,0,1,51.68,8L55,7.14c.09,0,.14,0,.16.09l.13.5a.11.11,0,0,1-.09.15l-2.69.72,1,3.91C53.62,12.59,53.59,12.63,53.51,12.65Z"/><path class="cls-1" d="M57.4,11a2.44,2.44,0,0,1-1-1.65,2.5,2.5,0,0,1,.4-1.93,2.63,2.63,0,0,1,3.56-.64,2.43,2.43,0,0,1,1,1.65A2.46,2.46,0,0,1,61,10.35a2.52,2.52,0,0,1-1.66,1A2.47,2.47,0,0,1,57.4,11Zm2.44-3.58a1.74,1.74,0,0,0-2.42.44,1.76,1.76,0,0,0-.25,1.34,1.81,1.81,0,0,0,.7,1.16,1.78,1.78,0,0,0,2.43-.44,1.76,1.76,0,0,0,.24-1.34A1.73,1.73,0,0,0,59.84,7.42Z"/><path class="cls-1" d="M62.35,5.83l.57,0a.11.11,0,0,1,.14.11l.17,1.85,2.65-.24-.17-1.85c0-.08,0-.13.13-.13l.56-.06c.08,0,.13,0,.13.12L67,10.24c0,.09,0,.14-.11.14l-.56,0a.12.12,0,0,1-.15-.11L66,8.27l-2.65.24.18,2.05a.11.11,0,0,1-.11.14l-.57.05c-.09,0-.13,0-.14-.12L62.24,6A.11.11,0,0,1,62.35,5.83Z"/><path class="cls-1" d="M71.53,9.61h0a2.46,2.46,0,0,1-1.84.78A1.88,1.88,0,0,1,68.31,10a1.4,1.4,0,0,1-.51-1.09,1.37,1.37,0,0,1,.44-1.06,2.11,2.11,0,0,1,1.16-.52L71.34,7V6.87a.71.71,0,0,0-.33-.6,1.54,1.54,0,0,0-.84-.2,2.77,2.77,0,0,0-1.65.55c-.08.06-.13,0-.18,0L68,6.19A.1.1,0,0,1,68,6a3.43,3.43,0,0,1,2.11-.72,2.29,2.29,0,0,1,1.42.41,1.42,1.42,0,0,1,.59,1.2l0,1.7a3.28,3.28,0,0,0,.21,1.12l.1.27a.1.1,0,0,1-.06.15l-.48.18a.11.11,0,0,1-.16-.06Zm-.16-.83,0-1-1.87.32a1.22,1.22,0,0,0-.62.27.65.65,0,0,0-.24.51.7.7,0,0,0,.31.6,1.27,1.27,0,0,0,.75.19,2.12,2.12,0,0,0,1-.23A1.9,1.9,0,0,0,71.37,8.78Z"/><path class="cls-1" d="M78,10.72l-.57,0c-.09,0-.13-.06-.12-.14l.34-4-1.9-.16-.65,3.06a1.14,1.14,0,0,1-1.28,1,1.23,1.23,0,0,1-.51-.15,1.18,1.18,0,0,1-.4-.38.11.11,0,0,1,0-.16l.4-.36c.05-.06.1-.06.14,0a.5.5,0,0,0,.41.26c.21,0,.35-.12.42-.4l.81-3.62a.11.11,0,0,1,.13-.09l3.17.26a.11.11,0,0,1,.11.14l-.39,4.67A.1.1,0,0,1,78,10.72Z"/><path class="cls-1" d="M79.17,10.77,80,6.15c0-.09.06-.12.13-.11l.59.1c.07,0,.11.06.09.15l-.22,1.25,1.54.26a1.87,1.87,0,0,1,1.23.74,1.67,1.67,0,0,1,.31,1.33A1.7,1.7,0,0,1,82.91,11a1.85,1.85,0,0,1-1.41.26l-2.24-.39C79.19,10.89,79.16,10.85,79.17,10.77ZM80.44,8.3l-.34,2,1.53.27a1.06,1.06,0,0,0,.8-.15A1.07,1.07,0,0,0,82.68,9a1,1,0,0,0-.7-.41Z"/><path class="cls-1" d="M85.6,7.07l.55.14a.12.12,0,0,1,.09.16l-.48,1.79,2.58.68.47-1.79c0-.08.08-.11.17-.09l.54.14a.12.12,0,0,1,.09.16l-1.2,4.53a.11.11,0,0,1-.15.09l-.54-.15c-.09,0-.13-.07-.1-.15l.52-2-2.57-.68-.53,2a.11.11,0,0,1-.15.09l-.56-.15a.11.11,0,0,1-.09-.15l1.2-4.53C85.46,7.08,85.51,7.05,85.6,7.07Z"/><path class="cls-1" d="M91.08,8.62l.54.18c.08,0,.11.08.08.16l-1.46,4.45c0,.08-.08.11-.16.08l-.54-.18a.11.11,0,0,1-.08-.16L90.92,8.7A.12.12,0,0,1,91.08,8.62Zm.46-.47a.66.66,0,0,1-.37-.33.63.63,0,0,1,0-.5A.66.66,0,0,1,92,6.91a.64.64,0,0,1,.37.32.67.67,0,0,1,0,.5A.63.63,0,0,1,92,8.1.65.65,0,0,1,91.54,8.15Z"/><path class="cls-1" d="M97.71,13.59l0,.05a1.44,1.44,0,0,1,.39.67A1.12,1.12,0,0,1,98,15a1.39,1.39,0,0,1-.86.8,1.63,1.63,0,0,1-1.26-.07L93.47,14.7a.09.09,0,0,1-.06-.07.14.14,0,0,1,0-.09l1.89-4.29c0-.08.08-.1.15-.07l2.29,1a1.46,1.46,0,0,1,.81.79,1.3,1.3,0,0,1,0,1,1,1,0,0,1-.34.39A.88.88,0,0,1,97.71,13.59ZM95,12.93l-.59,1.35,1.75.77a.91.91,0,0,0,.64.06.69.69,0,0,0,.44-.41c.19-.44,0-.78-.49-1Zm.78-1.77-.47,1.06L97,13a.59.59,0,0,0,.45,0,.59.59,0,0,0,.33-.76.63.63,0,0,0-.34-.34Z"/><path class="cls-1" d="M100.65,12.54l.5.27a.12.12,0,0,1,0,.18l-1,1.9-.75,1.25,0,0,1.27-.6,3-1.28a.27.27,0,0,1,.23,0l.47.26c.07,0,.08.09,0,.17l-2.25,4.1c0,.08-.09.1-.16.06l-.5-.27c-.08-.05-.1-.1-.06-.18l1-1.91.76-1.26,0,0-1.37.66L99,17.15a.19.19,0,0,1-.18,0l-.51-.28c-.07,0-.08-.09,0-.17l2.25-4.11A.11.11,0,0,1,100.65,12.54Z"/><path class="cls-1" d="M102.71,21.15l-.47-.32a.12.12,0,0,1,0-.18l3.47-5.14a.11.11,0,0,1,.17,0l.39.26a.13.13,0,0,1,0,.18l-.16.33,0,0a2.11,2.11,0,0,1,1.62.41,2.41,2.41,0,0,1,1.08,1.58,2.74,2.74,0,0,1-2,3.05,2.42,2.42,0,0,1-1.87-.42,2.2,2.2,0,0,1-1-1.36l-1.06,1.58A.11.11,0,0,1,102.71,21.15Zm2.9-4.08-1.13,1.68a1.89,1.89,0,0,0,.89,1.52,1.59,1.59,0,0,0,1.27.26,2,2,0,0,0,1.43-2.13,1.57,1.57,0,0,0-.72-1.07A1.89,1.89,0,0,0,105.61,17.07Z"/><path class="cls-1" d="M108.57,22.6a2.61,2.61,0,0,1,2.3-2.81,2.61,2.61,0,0,1,2.8,2.29,2.61,2.61,0,0,1-2.3,2.81,2.48,2.48,0,0,1-1.86-.58A2.51,2.51,0,0,1,108.57,22.6Zm4.31-.46a1.62,1.62,0,0,0-.64-1.17,1.59,1.59,0,0,0-1.27-.39,1.75,1.75,0,0,0-1.18.68,1.8,1.8,0,0,0-.43,1.28,1.65,1.65,0,0,0,.64,1.17,1.6,1.6,0,0,0,1.27.39,1.73,1.73,0,0,0,1.17-.67A1.79,1.79,0,0,0,112.88,22.14Z"/><path class="cls-1" d="M115.54,24v.05a2,2,0,0,1,1.72.59,2.38,2.38,0,0,1,.78,1.74,2.34,2.34,0,0,1-.75,1.74,2.38,2.38,0,0,1-1.75.75,2.44,2.44,0,0,1-1.75-.73A2.33,2.33,0,0,1,113,26.3a3,3,0,0,1,.93-1.91,5.32,5.32,0,0,1,1.33-1,2.53,2.53,0,0,1,1.23-.33,2.71,2.71,0,0,1,1,.2,2.83,2.83,0,0,1,.85.59,3,3,0,0,0,.71.55.75.75,0,0,0,.55,0,.12.12,0,0,1,.16.07l.19.5c0,.06,0,.12-.07.16a1.14,1.14,0,0,1-1,.07,3.64,3.64,0,0,1-1.14-.84,2,2,0,0,0-1.1-.58A1.89,1.89,0,0,0,115.54,24Zm1.19,1.19a1.68,1.68,0,0,0-2.39,0,1.72,1.72,0,0,0-.5,1.19,1.59,1.59,0,0,0,.5,1.19,1.64,1.64,0,0,0,2.38,0,1.73,1.73,0,0,0,.53-1.18A1.55,1.55,0,0,0,116.73,25.21Z"/><path class="cls-1" d="M120,27.38l.37.44a.1.1,0,0,1,0,.17l-1.66,1.41-1.15.89,0,.05,1.4-.11,3.21-.14a.26.26,0,0,1,.21.1l.34.41a.1.1,0,0,1,0,.17l-3.57,3a.1.1,0,0,1-.17,0l-.37-.44a.12.12,0,0,1,0-.18l1.67-1.41,1.15-.91,0,0-1.51.13-3.13.13a.16.16,0,0,1-.16-.07l-.37-.44c0-.06,0-.11,0-.17l3.57-3C119.93,27.32,120,27.32,120,27.38Z"/><path class="cls-1" d="M124.64,34.19a2.86,2.86,0,0,1,1.7,1.29,2.47,2.47,0,0,1,.44,1.31,1.14,1.14,0,0,1-.56,1.05.87.87,0,0,1-1,0l0,0a1.15,1.15,0,0,1-.53,1.31,1.4,1.4,0,0,1-1.37.13,2.63,2.63,0,0,1-1.23-1.06,3,3,0,0,1-.46-2.37.12.12,0,0,1,.14-.1l.53.08c.09,0,.12,0,.1.15a2.3,2.3,0,0,0,.34,1.83,1.7,1.7,0,0,0,.74.68.72.72,0,0,0,.75,0c.42-.28.45-.69.1-1.23l-.63-1a.12.12,0,0,1,0-.18l.43-.28a.12.12,0,0,1,.18,0l.64,1a1,1,0,0,0,.37.34.42.42,0,0,0,.43-.05.5.5,0,0,0,.22-.52,1.78,1.78,0,0,0-.31-.77,2.14,2.14,0,0,0-1.25-.93c-.09,0-.12-.07-.09-.14l.18-.56S124.57,34.17,124.64,34.19Z"/><path class="cls-1" d="M129.39,40.69l1.75,3.53c0,.08,0,.14,0,.17l-4.2,2.09a.11.11,0,0,1-.17-.06l-.25-.51a.11.11,0,0,1,.06-.17l3.61-1.8L129,41.65l-3.62,1.8a.11.11,0,0,1-.17-.06l-.26-.51a.12.12,0,0,1,.06-.17l4.2-2.08A.11.11,0,0,1,129.39,40.69Z"/><path class="cls-1" d="M129.12,50.49l0,0A2.53,2.53,0,0,1,127.72,49a1.94,1.94,0,0,1-.08-1.39,1.46,1.46,0,0,1,2-.82,2.06,2.06,0,0,1,.9.9l.95,1.72.14-.06a.67.67,0,0,0,.44-.52A1.39,1.39,0,0,0,132,48a2.74,2.74,0,0,0-1.09-1.36.1.1,0,0,1,0-.17l.27-.43a.11.11,0,0,1,.17-.05,3.41,3.41,0,0,1,1.41,1.72,2.36,2.36,0,0,1,.12,1.47,1.45,1.45,0,0,1-.92,1l-1.58.62a3.16,3.16,0,0,0-1,.59l-.22.19c-.05.06-.1.05-.15,0l-.34-.39a.1.1,0,0,1,0-.17Zm.72-.44,1-.38-1-1.64a1.17,1.17,0,0,0-.47-.49.65.65,0,0,0-.56,0,.67.67,0,0,0-.45.5,1.24,1.24,0,0,0,.08.77,2.11,2.11,0,0,0,.56.82A1.87,1.87,0,0,0,129.84,50.05Z"/><path class="cls-1" d="M133.9,51.22,135,55c0,.08,0,.13-.09.15l-4.49,1.34a.11.11,0,0,1-.15-.09l-.17-.55a.11.11,0,0,1,.09-.15l3.87-1.15-.72-2.45-3.88,1.15a.11.11,0,0,1-.15-.09l-.17-.55a.11.11,0,0,1,.09-.15l4.49-1.34A.12.12,0,0,1,133.9,51.22Z"/><path class="cls-1" d="M131.33,58a2.65,2.65,0,0,1,3.57-.72A2.5,2.5,0,0,1,136,58.91a2.4,2.4,0,0,1-.35,1.88A2.47,2.47,0,0,1,134,61.84l-.26,0c-.08,0-.13,0-.14-.08l-.8-4a1.66,1.66,0,0,0-.88.76,1.8,1.8,0,0,0-.14,1.23,2.52,2.52,0,0,0,.9,1.46c.06,0,.06.09,0,.14l-.36.43a.12.12,0,0,1-.17,0A3.09,3.09,0,0,1,131,60,2.48,2.48,0,0,1,131.33,58Zm3.89,1.09a1.8,1.8,0,0,0-.61-1.05,1.52,1.52,0,0,0-1.1-.35l.66,3.28a1.47,1.47,0,0,0,.87-.72A1.65,1.65,0,0,0,135.22,59.06Z"/><path class="cls-1" d="M130.23,64l-.06-.57a.11.11,0,0,1,.11-.14l6.17-.65a.11.11,0,0,1,.14.11l0,.46a.13.13,0,0,1-.11.15l-.35.09v.06a2.16,2.16,0,0,1,.73,1.5,2.44,2.44,0,0,1-.52,1.85,2.73,2.73,0,0,1-3.65.39,2.44,2.44,0,0,1-.89-1.7,2.21,2.21,0,0,1,.41-1.64l-1.89.2A.11.11,0,0,1,130.23,64Zm5-.4-2,.21a1.88,1.88,0,0,0-.59,1.66,1.55,1.55,0,0,0,.61,1.14,1.78,1.78,0,0,0,1.32.33,1.81,1.81,0,0,0,1.23-.6,1.6,1.6,0,0,0,.36-1.25A1.89,1.89,0,0,0,135.22,63.62Z"/><path class="cls-1" d="M137.23,72.4v.72c0,.08,0,.11-.12.07l-5.1-2a1.59,1.59,0,0,1-1.18-1.46.76.76,0,0,1,0-.33.12.12,0,0,1,.13-.11h.5a.12.12,0,0,1,.09,0s0,0,0,.08a1,1,0,0,0,0,.24.77.77,0,0,0,.59.79l.2.06,4.67-2.27c.05,0,.07,0,.07,0l0,.78a.1.1,0,0,1-.06.09l-3.7,1.72V71l3.75,1.32A.11.11,0,0,1,137.23,72.4Z"/><path class="cls-1" d="M135.92,85.27l-.7,3.21a.12.12,0,0,1-.16.1l-3.94-.87-.09.43a.12.12,0,0,1-.14.09l-1.64-.36a.12.12,0,0,1-.1-.16l.11-.51c0-.08.07-.12.15-.1l1,.19.8-3.63-1-.25a.13.13,0,0,1-.11-.16l.12-.51c0-.08.06-.11.15-.1L132,83c.08,0,.11.06.09.14l-.06.27a.35.35,0,0,0,.07.27.66.66,0,0,0,.3.2l3.42,1.24A.11.11,0,0,1,135.92,85.27Zm-1.31,2.37.43-1.93-2.92-1-.3-.15-.52,2.4Z"/><path class="cls-1" d="M130.51,89.44a2.48,2.48,0,0,1,2-.14,2.48,2.48,0,0,1,1.65,3.22A2.38,2.38,0,0,1,132.88,94a2.48,2.48,0,0,1-1.95.11l-.25-.08c-.08,0-.11-.07-.08-.14L131.84,90a1.57,1.57,0,0,0-1.13.24,1.73,1.73,0,0,0-.72,1,2.41,2.41,0,0,0,.08,1.71.09.09,0,0,1-.07.13l-.52.2a.11.11,0,0,1-.15-.07,3.14,3.14,0,0,1-.08-2.2A2.6,2.6,0,0,1,130.51,89.44Zm2.86,2.85a1.73,1.73,0,0,0,0-1.21,1.55,1.55,0,0,0-.78-.85l-1,3.19a1.5,1.5,0,0,0,1.11-.2A1.64,1.64,0,0,0,133.37,92.29Z"/><path class="cls-1" d="M132.76,96.2l-.22.53a.12.12,0,0,1-.17.07l-2-.84,1.12,3a.34.34,0,0,1,0,.28l-.32.76a.06.06,0,0,1-.07,0s-.06,0-.08-.06l-1-2.77-3.33,1.08a.08.08,0,0,1-.1,0s0-.06,0-.1l.28-.67a.41.41,0,0,1,.22-.21l2.69-.84-.25-.86L128.05,95c-.08,0-.1-.08-.06-.16l.22-.53a.11.11,0,0,1,.16-.07L132.69,96A.11.11,0,0,1,132.76,96.2Z"/><path class="cls-1" d="M126.66,99.46a2.55,2.55,0,0,1,3,3.63,2.52,2.52,0,0,1-1.49,1.27,2.63,2.63,0,0,1-3.22-1.69,2.63,2.63,0,0,1,1.68-3.21Zm1.33,4.13a1.65,1.65,0,0,0,1-.86,1.59,1.59,0,0,0,.13-1.32,1.79,1.79,0,0,0-.9-1,1.75,1.75,0,0,0-1.35-.16,1.61,1.61,0,0,0-1,.86,1.58,1.58,0,0,0-.13,1.32,1.71,1.71,0,0,0,.9,1A1.75,1.75,0,0,0,128,103.59Z"/><path class="cls-1" d="M122,103.51l.31-.48a.12.12,0,0,1,.18,0l5.2,3.38a.12.12,0,0,1,0,.18l-.25.39a.13.13,0,0,1-.18,0l-.34-.15,0,0a2.13,2.13,0,0,1-.38,1.62,2.37,2.37,0,0,1-1.57,1.11,2.72,2.72,0,0,1-3.08-2,2.41,2.41,0,0,1,.38-1.88,2.23,2.23,0,0,1,1.35-1l-1.59-1A.12.12,0,0,1,122,103.51Zm4.13,2.83-1.7-1.1a1.87,1.87,0,0,0-1.5.91,1.56,1.56,0,0,0-.24,1.28,1.72,1.72,0,0,0,.81,1.08,1.77,1.77,0,0,0,1.34.31,1.58,1.58,0,0,0,1.06-.74A1.88,1.88,0,0,0,126.1,106.34Z"/><path class="cls-1" d="M122.13,114.4,120,116.91a.11.11,0,0,1-.18,0l-3.07-2.62-.28.33a.11.11,0,0,1-.17,0L115,113.56a.12.12,0,0,1,0-.18l.34-.4c.06-.06.11-.07.17,0l.81.64,2.41-2.83-.75-.68a.12.12,0,0,1,0-.19l.34-.4a.12.12,0,0,1,.18,0l1.28,1.09a.1.1,0,0,1,0,.16l-.18.22a.31.31,0,0,0-.06.27.61.61,0,0,0,.16.32l2.44,2.7A.11.11,0,0,1,122.13,114.4Zm-2.27,1.48,1.28-1.51-2.08-2.29a1.7,1.7,0,0,1-.19-.27l-1.6,1.86Z"/><path class="cls-1" d="M111.81,118.13l.41-.4a.11.11,0,0,1,.18,0l2.81,2.9,1.36-1.32-1.86-2.5a1.13,1.13,0,0,1,.07-1.64,1.16,1.16,0,0,1,.44-.29,1.36,1.36,0,0,1,.55,0c.07,0,.11,0,.1.11l0,.54c0,.08,0,.11-.1.1a.54.54,0,0,0-.47.14c-.15.15-.14.34,0,.58l2.19,3a.11.11,0,0,1,0,.15l-2.29,2.21a.11.11,0,0,1-.18,0l-3.26-3.37A.1.1,0,0,1,111.81,118.13Z"/><path class="cls-1" d="M111.05,119l.17,1.72a1.58,1.58,0,0,1,1.77.6,1.69,1.69,0,0,1,.38,1.31,1.84,1.84,0,0,1-.72,1.24l-1.76,1.42c-.06.06-.12,0-.18,0l-2.94-3.64c-.06-.06,0-.12,0-.18l.45-.36c.06,0,.11,0,.17,0l.8,1,1.27-1-.17-1.49a.22.22,0,0,1,.09-.24l.48-.39c.05,0,.08-.05.12,0S111.05,118.93,111.05,119Zm-.1,5.26,1.22-1a1.07,1.07,0,0,0,.42-.7,1,1,0,0,0-.24-.73,1,1,0,0,0-.67-.39,1,1,0,0,0-.77.26l-1.22,1Z"/><path class="cls-1" d="M107.54,127.63l-.48.32a.1.1,0,0,1-.17,0L104.3,124a.11.11,0,0,1,0-.18l.48-.31a.1.1,0,0,1,.17,0l2.59,3.9A.1.1,0,0,1,107.54,127.63Zm.09.66a.68.68,0,0,1,.49-.09.63.63,0,0,1,.41.28.6.6,0,0,1,.09.49.64.64,0,0,1-1.17.22.6.6,0,0,1-.09-.49A.65.65,0,0,1,107.63,128.29Z"/><path class="cls-1" d="M105.7,128.86l-.49.28a.12.12,0,0,1-.18,0l-.93-1.61-2.3,1.34.93,1.61a.11.11,0,0,1,0,.17l-.49.29a.11.11,0,0,1-.17-.05l-2.35-4a.11.11,0,0,1,0-.17l.49-.29c.08,0,.14,0,.18,0l1,1.77,2.3-1.33-1-1.78a.12.12,0,0,1,0-.18l.49-.28a.11.11,0,0,1,.17,0l2.36,4.05A.12.12,0,0,1,105.7,128.86Z"/><path class="cls-1" d="M101,131.52l-3.77,1.8a.12.12,0,0,1-.17-.06l-.22-.47a.11.11,0,0,1,.06-.17l1.51-.72-1.74-3.65a.12.12,0,0,1,.06-.17l.52-.24a.11.11,0,0,1,.17.06l1.73,3.65,1.52-.72a.11.11,0,0,1,.17.06l.22.46A.11.11,0,0,1,101,131.52Z"/><path class="cls-1" d="M94.33,129.88a2.66,2.66,0,0,1,1.29,3.41,2.53,2.53,0,0,1-1.46,1.33,2.41,2.41,0,0,1-1.92,0,2.53,2.53,0,0,1-1.31-1.46l-.09-.24q0-.12.06-.15l3.81-1.45a1.58,1.58,0,0,0-.89-.74,1.79,1.79,0,0,0-1.24.06,2.51,2.51,0,0,0-1.28,1.13.1.1,0,0,1-.15,0l-.47-.29c-.06,0-.08-.09,0-.15a3.12,3.12,0,0,1,1.67-1.44A2.62,2.62,0,0,1,94.33,129.88Zm-.44,4a1.82,1.82,0,0,0,.93-.77A1.57,1.57,0,0,0,95,132l-3.13,1.19a1.52,1.52,0,0,0,.85.74A1.66,1.66,0,0,0,93.89,133.9Z"/><path class="cls-1" d="M88.14,129.8l.55-.15a.12.12,0,0,1,.16.09l1.65,6a.12.12,0,0,1-.09.16L90,136a.13.13,0,0,1-.16-.08l-.15-.34-.06,0a2.14,2.14,0,0,1-1.36,1,2.42,2.42,0,0,1-1.91-.21,2.49,2.49,0,0,1-1.17-1.59,2.46,2.46,0,0,1,.19-1.95,2.41,2.41,0,0,1,1.53-1.15,2.22,2.22,0,0,1,1.69.13L88.05,130A.12.12,0,0,1,88.14,129.8Zm1.21,4.86-.54-1.95a1.87,1.87,0,0,0-1.73-.31,1.6,1.6,0,0,0-1,.79,2,2,0,0,0,.68,2.47,1.6,1.6,0,0,0,1.29.15A1.87,1.87,0,0,0,89.35,134.66Z"/><path class="cls-1" d="M85.83,139.33l-.49.35a.12.12,0,0,1-.17,0l-.79-1.41a.11.11,0,0,1,.05-.17l.39-.22a.09.09,0,0,1,.14,0l.9,1.31C85.89,139.25,85.89,139.29,85.83,139.33Z"/><path class="cls-1" d="M81.94,133.55a2.55,2.55,0,0,1-1.15,4.6,2.36,2.36,0,0,1-1.87-.44A2.49,2.49,0,0,1,78,136l0-.26a.11.11,0,0,1,.09-.14l4-.62a1.59,1.59,0,0,0-.71-.91,1.79,1.79,0,0,0-1.23-.19,2.52,2.52,0,0,0-1.49.83c0,.05-.09.05-.15,0l-.4-.38a.1.1,0,0,1,0-.16A3.12,3.12,0,0,1,80,133.14,2.59,2.59,0,0,1,81.94,133.55Zm-1.27,3.84a1.8,1.8,0,0,0,1.08-.56,1.54,1.54,0,0,0,.4-1.08l-3.31.51a1.56,1.56,0,0,0,.68.91A1.64,1.64,0,0,0,80.67,137.39Z"/><path class="cls-1" d="M75.92,132.19l.57,0c.08,0,.13,0,.13.12l.39,6.19c0,.08,0,.13-.12.13l-.46,0q-.12,0-.15-.12l-.07-.35h-.07a2.1,2.1,0,0,1-1.53.66,2.44,2.44,0,0,1-1.82-.6,2.48,2.48,0,0,1-.82-1.79,2.42,2.42,0,0,1,2.33-2.69,2.26,2.26,0,0,1,1.62.49l-.12-1.9C75.79,132.24,75.83,132.2,75.92,132.19Zm.18,5-.12-2a1.91,1.91,0,0,0-1.63-.66,1.57,1.57,0,0,0-1.17.57,1.78,1.78,0,0,0-.39,1.3,1.8,1.8,0,0,0,.55,1.26,1.6,1.6,0,0,0,1.22.41A1.89,1.89,0,0,0,76.1,137.19Z"/><path class="cls-1" d="M67.27,138.82l-.71,0c-.09,0-.11,0-.07-.12l2.18-5a1.58,1.58,0,0,1,1.51-1.12,1.19,1.19,0,0,1,.32,0,.14.14,0,0,1,.11.14v.5a.12.12,0,0,1,0,.09.08.08,0,0,1-.08,0l-.25,0a.78.78,0,0,0-.81.56l-.08.2,2.07,4.76s0,.07,0,.07l-.78,0a.11.11,0,0,1-.09,0l-1.57-3.78h-.09l-1.47,3.69A.11.11,0,0,1,67.27,138.82Z"/><path class="cls-1" d="M51.87,137.74l-.55-.16c-.08,0-.11-.07-.09-.16l.46-1.61a1.55,1.55,0,0,1-1.2.12,2.06,2.06,0,0,1-1.37-1.12,3.12,3.12,0,0,1,1-3.54,2,2,0,0,1,1.76-.22,1.46,1.46,0,0,1,.94.76l.5-1.73a.11.11,0,0,1,.16-.08l.55.15c.08,0,.11.08.08.16L53.64,132a1.51,1.51,0,0,1,1.21-.15A2.07,2.07,0,0,1,56.22,133a2.77,2.77,0,0,1,.07,1.94,2.71,2.71,0,0,1-1.09,1.59,2,2,0,0,1-1.76.23,1.55,1.55,0,0,1-.95-.74L52,137.65A.11.11,0,0,1,51.87,137.74Zm0-2.65.71-2.45a1.42,1.42,0,0,0-.9-.85,1.3,1.3,0,0,0-1.16.18,2.42,2.42,0,0,0-.71,2.47,1.26,1.26,0,0,0,.89.76A1.53,1.53,0,0,0,51.9,135.09Zm1.5-2.23-.71,2.46a1.61,1.61,0,0,0,.94.71,1.26,1.26,0,0,0,1.16-.17,2.44,2.44,0,0,0,.7-2.47,1.24,1.24,0,0,0-.88-.76A1.39,1.39,0,0,0,53.4,132.86Z"/><path class="cls-1" d="M48.21,130.54a2.41,2.41,0,0,1,0,2,2.44,2.44,0,0,1-1.37,1.41,2.49,2.49,0,0,1-2,0,2.49,2.49,0,0,1-1.38-3.33,2.57,2.57,0,0,1,4.72,0Zm-4,1.68a1.61,1.61,0,0,0,.94.94,1.66,1.66,0,0,0,1.33,0,1.94,1.94,0,0,0,1-2.35,1.64,1.64,0,0,0-.95-.93,1.62,1.62,0,0,0-1.33,0,1.9,1.9,0,0,0-1,2.34Z"/><path class="cls-1" d="M41.86,132.49l-3.72-1.91a.11.11,0,0,1,0-.17l.23-.46a.12.12,0,0,1,.17-.06l1.49.77,1.85-3.59A.11.11,0,0,1,42,127l.51.26a.11.11,0,0,1,.05.17L40.72,131l1.49.76a.11.11,0,0,1,0,.17l-.23.46A.11.11,0,0,1,41.86,132.49Z"/><path class="cls-1" d="M39.09,126.18a2.44,2.44,0,0,1-.34,1.93,2.56,2.56,0,0,1-4.66-.76A2.63,2.63,0,0,1,36,124.26a2.49,2.49,0,0,1,1.92.35A2.51,2.51,0,0,1,39.09,126.18Zm-4.22,1a1.61,1.61,0,0,0,.78,1.08,1.59,1.59,0,0,0,1.31.22,1.9,1.9,0,0,0,1.34-2.15,1.6,1.6,0,0,0-.78-1.08,1.63,1.63,0,0,0-1.31-.22,1.72,1.72,0,0,0-1.08.82A1.74,1.74,0,0,0,34.87,127.19Z"/><path class="cls-1" d="M32.55,126.33a2.94,2.94,0,0,1-2-.64,2.44,2.44,0,0,1-.85-1.08,1.15,1.15,0,0,1,.16-1.18.89.89,0,0,1,.93-.33l0,0a1.13,1.13,0,0,1,.05-1.4,1.4,1.4,0,0,1,1.24-.6,2.72,2.72,0,0,1,1.52.58,3,3,0,0,1,1.24,2.07.12.12,0,0,1-.1.14l-.53.11c-.08,0-.12,0-.14-.11a2.34,2.34,0,0,0-.94-1.61,1.79,1.79,0,0,0-.93-.38.73.73,0,0,0-.7.29c-.3.4-.19.79.33,1.18l.92.68a.12.12,0,0,1,0,.18l-.31.42a.12.12,0,0,1-.18,0l-.94-.7a.93.93,0,0,0-.46-.2.45.45,0,0,0-.39.2.51.51,0,0,0,0,.56,1.76,1.76,0,0,0,.56.62,2.12,2.12,0,0,0,1.49.45c.09,0,.14,0,.13.09l0,.59C32.65,126.29,32.62,126.32,32.55,126.33Z"/><path class="cls-1" d="M30.3,120a2.43,2.43,0,0,1-.66,1.85,2.55,2.55,0,1,1-3.8-3.39,2.43,2.43,0,0,1,1.75-.87A2.64,2.64,0,0,1,30.3,120Zm-4.33.28a1.76,1.76,0,0,0,1.84,1.64A1.91,1.91,0,0,0,29.5,120a1.63,1.63,0,0,0-.59-1.19,1.62,1.62,0,0,0-1.25-.44,1.73,1.73,0,0,0-1.2.62A1.82,1.82,0,0,0,26,120.28Z"/><path class="cls-1" d="M23.18,119.29l-.39-.41a.12.12,0,0,1,0-.18l1.35-1.27-1.82-1.94L21,116.76c-.06.06-.12,0-.18,0l-.38-.41q-.09-.11,0-.18L23.82,113c.07-.06.13-.06.18,0l.39.41a.11.11,0,0,1,0,.18L22.89,115l1.82,1.94,1.5-1.41c.06-.06.12,0,.18,0l.39.41a.11.11,0,0,1,0,.18l-3.42,3.21A.11.11,0,0,1,23.18,119.29Z"/><path class="cls-1" d="M19.28,115l-.35-.44c-.05-.07-.05-.13,0-.18l1.71-1.35,1.18-.85,0,0-1.4.06H17.2a.23.23,0,0,1-.2-.1l-.33-.42a.11.11,0,0,1,0-.17l3.68-2.9c.06-.05.12-.05.16,0l.36.45c.05.07.05.13,0,.18l-1.71,1.35-1.19.87,0,0,1.52-.08,3.12,0a.17.17,0,0,1,.16.08l.36.45a.11.11,0,0,1,0,.17l-3.68,2.9A.1.1,0,0,1,19.28,115Z"/><path class="cls-1" d="M9.65,99.88a2.76,2.76,0,0,1-.24-1.19,2.51,2.51,0,0,1,.34-1.15.11.11,0,0,1,.15-.05l.48.25a.1.1,0,0,1,0,.16,1.81,1.81,0,0,0-.07,1.66,1.65,1.65,0,0,0,1,.91,1.77,1.77,0,0,0,1.35-.09,1.8,1.8,0,0,0,1-1,1.65,1.65,0,0,0-.06-1.34,1.84,1.84,0,0,0-1.33-1c-.07,0-.09-.06-.08-.14l.14-.53a.1.1,0,0,1,.13-.08,2.45,2.45,0,0,1,1.84,1.46,2.53,2.53,0,0,1,.11,2,2.62,2.62,0,0,1-3.31,1.52A2.51,2.51,0,0,1,9.65,99.88Z"/><path class="cls-1" d="M9.24,92.66l0,0a1.25,1.25,0,0,1,.22-.75,1.14,1.14,0,0,1,.57-.44,1.4,1.4,0,0,1,1.18.08,1.64,1.64,0,0,1,.81,1L13,95a.1.1,0,0,1,0,.09.11.11,0,0,1-.06.07L8.48,96.71a.12.12,0,0,1-.16-.07l-.84-2.35a1.43,1.43,0,0,1,0-1.13,1.31,1.31,0,0,1,.76-.7,1,1,0,0,1,.52,0A.9.9,0,0,1,9.24,92.66ZM8.8,95.72l1.09-.39L9.27,93.6a.66.66,0,0,0-.3-.34.56.56,0,0,0-.44,0,.58.58,0,0,0-.34.31.66.66,0,0,0,0,.48Zm1.81-.65,1.39-.5-.64-1.8a.92.92,0,0,0-.4-.51.73.73,0,0,0-.6,0c-.45.17-.59.52-.39,1Z"/><path class="cls-1" d="M11.16,90.27l-1.64-.55a1.59,1.59,0,0,1-1.27,1.37,1.68,1.68,0,0,1-1.35-.18,1.87,1.87,0,0,1-.84-1.16l-.59-2.19a.11.11,0,0,1,.09-.15l4.53-1.22c.08,0,.13,0,.15.1l.15.55a.11.11,0,0,1-.09.15l-1.23.33L9.5,88.9l1.43.45a.24.24,0,0,1,.18.18l.16.6a.12.12,0,0,1,0,.12S11.21,90.29,11.16,90.27ZM6.4,88l.4,1.51a1.06,1.06,0,0,0,.47.67A1,1,0,0,0,8,90.3a1,1,0,0,0,.63-.46A1,1,0,0,0,8.74,89l-.41-1.51Z"/><path class="cls-1" d="M5.16,86.22l-.74-4.11c0-.08,0-.13.1-.15L5,81.87c.08,0,.13,0,.14.1l.3,1.65,4-.72c.08,0,.13,0,.15.1l.1.56a.12.12,0,0,1-.1.15l-4,.72.3,1.65c0,.08,0,.13-.1.15l-.51.09C5.23,86.34,5.18,86.3,5.16,86.22Z"/><path class="cls-1" d="M4.24,80.79l-.06-.57a.1.1,0,0,1,.11-.13l2.17-.22L4,77.76a.35.35,0,0,1-.12-.25l-.08-.81a.07.07,0,0,1,0-.09.08.08,0,0,1,.09,0l2.2,2,2.41-2.55a.08.08,0,0,1,.09,0s.06,0,.07.09l.07.72a.35.35,0,0,1-.09.28l-2,2,.63.64L9,79.62a.11.11,0,0,1,.14.11l.06.57a.11.11,0,0,1-.11.14l-4.66.47C4.29,80.91,4.25,80.88,4.24,80.79Z"/><path class="cls-1" d="M8,75.05a2.47,2.47,0,0,1-1.81.76,2.46,2.46,0,0,1-1.83-.7,2.52,2.52,0,0,1-.76-1.8,2.45,2.45,0,0,1,.7-1.82,2.41,2.41,0,0,1,1.8-.77,2.43,2.43,0,0,1,1.83.7A2.63,2.63,0,0,1,8,75.05Zm-3.15-3a1.69,1.69,0,0,0-.48,1.24,1.63,1.63,0,0,0,.53,1.22A1.79,1.79,0,0,0,6.22,75a1.79,1.79,0,0,0,1.26-.5,1.78,1.78,0,0,0,0-2.47,1.83,1.83,0,0,0-1.28-.46A1.78,1.78,0,0,0,4.89,72.06Z"/><path class="cls-1" d="M6.18,66.06h.06a1.33,1.33,0,0,1,.5-.59,1.17,1.17,0,0,1,.7-.18,1.44,1.44,0,0,1,1,.55,1.68,1.68,0,0,1,.36,1.21l-.19,2.63s0,0-.05.07a.08.08,0,0,1-.09,0l-4.67-.33a.11.11,0,0,1-.12-.12l.18-2.49a1.45,1.45,0,0,1,.47-1,1.27,1.27,0,0,1,1-.33.94.94,0,0,1,.49.19A.87.87,0,0,1,6.18,66.06ZM4.54,68.68l1.16.09.13-1.84a.61.61,0,0,0-.13-.43.6.6,0,0,0-.4-.2.56.56,0,0,0-.43.15.59.59,0,0,0-.2.44Zm1.93.14,1.47.1L8.08,67a1,1,0,0,0-.16-.63.66.66,0,0,0-.53-.27c-.49,0-.75.23-.79.79Z"/><path class="cls-1" d="M4.21,63.64l.09-.57a.1.1,0,0,1,.14-.1l2.15.34L8,63.6l0,0-1-1-2.2-2.35a.23.23,0,0,1,0-.22l.08-.52c0-.08.06-.11.15-.1l4.62.74c.09,0,.12,0,.11.12l-.09.57c0,.09-.06.13-.15.11l-2.15-.34-1.44-.29,0,0L7,61.39l2.13,2.28a.18.18,0,0,1,.06.17l-.1.57c0,.08-.06.11-.14.1l-4.62-.74C4.23,63.76,4.2,63.71,4.21,63.64Z"/><path class="cls-1" d="M5.24,55.62a1.33,1.33,0,0,1-1.17,1.07c-.06,0-.1,0-.11-.07l-.09-.51A.11.11,0,0,1,4,56a.71.71,0,0,0,.58-.56.72.72,0,0,0-.25-.76.09.09,0,0,1,0-.13l.32-.41s.08,0,.13,0A1.34,1.34,0,0,1,5.24,55.62Zm0,2.17.13-.55a.12.12,0,0,1,.16-.09l2.11.53L9,58.1l0,0L8.13,57l-2-2.54a.23.23,0,0,1,0-.22l.13-.52c0-.08.07-.1.15-.08l4.54,1.14c.08,0,.12.07.1.14l-.14.55a.12.12,0,0,1-.16.1L8.62,55l-1.41-.41v0l1,1.16,1.92,2.46a.16.16,0,0,1,0,.17L10,59a.1.1,0,0,1-.15.08L5.31,57.94A.11.11,0,0,1,5.22,57.79Z"/><path class="cls-1" d="M7.89,48.78,9.1,45.72a.11.11,0,0,1,.16-.07L13,47.14l.16-.41a.1.1,0,0,1,.15-.06l1.56.61a.12.12,0,0,1,.07.17l-.19.49a.11.11,0,0,1-.16.07l-1-.35-1.37,3.46.93.41c.09,0,.11.09.08.16l-.19.49a.11.11,0,0,1-.16.07l-1.56-.61a.11.11,0,0,1-.07-.16l.1-.26a.29.29,0,0,0,0-.27.66.66,0,0,0-.27-.25L7.94,48.93A.11.11,0,0,1,7.89,48.78Zm1.67-2.13-.73,1.84L11.54,50a1.18,1.18,0,0,1,.27.2l.91-2.29Z"/><path class="cls-1" d="M13.91,45.51a2.55,2.55,0,0,1-3.06-3.62,2.4,2.4,0,0,1,1.45-1.26,2.46,2.46,0,0,1,1.94.2l.24.12a.09.09,0,0,1,0,.15l-1.84,3.63a1.57,1.57,0,0,0,1.15,0,1.79,1.79,0,0,0,.88-.88,2.47,2.47,0,0,0,.19-1.7A.09.09,0,0,1,15,42l.54-.11a.11.11,0,0,1,.14.09,3.16,3.16,0,0,1-.28,2.19A2.57,2.57,0,0,1,13.91,45.51Zm-2.37-3.27a1.7,1.7,0,0,0-.17,1.2,1.51,1.51,0,0,0,.64,1l1.51-3a1.52,1.52,0,0,0-1.13,0A1.67,1.67,0,0,0,11.54,42.24Z"/><path class="cls-1" d="M12.76,38.49l.3-.49a.11.11,0,0,1,.17,0l1.85,1.15L14.45,36a.33.33,0,0,1,.05-.27l.43-.69A.1.1,0,0,1,15,35a.1.1,0,0,1,.06.08l.54,2.89,3.46-.54a.09.09,0,0,1,.1,0,.11.11,0,0,1,0,.11l-.39.62a.37.37,0,0,1-.24.17l-2.79.4.1.89,1.35.84a.11.11,0,0,1,0,.17l-.3.49a.12.12,0,0,1-.18,0l-4-2.48A.11.11,0,0,1,12.76,38.49Z"/><path class="cls-1" d="M19.29,36.24a2.62,2.62,0,0,1-2.91-2.17,2.46,2.46,0,0,1,.5-1.89,2.5,2.5,0,0,1,1.67-1,2.47,2.47,0,0,1,1.89.5,2.44,2.44,0,0,1,1,1.68A2.48,2.48,0,0,1,21,35.22,2.44,2.44,0,0,1,19.29,36.24ZM18.64,32a1.78,1.78,0,0,0-1.48,2,1.8,1.8,0,0,0,.74,1.15,1.76,1.76,0,0,0,1.3.37,1.65,1.65,0,0,0,1.14-.69,1.6,1.6,0,0,0,.33-1.28A1.74,1.74,0,0,0,20,32.33,1.8,1.8,0,0,0,18.64,32Z"/><path class="cls-1" d="M24.56,33l-.38.42a.11.11,0,0,1-.18,0l-4.61-4.16a.11.11,0,0,1,0-.17l.31-.35a.13.13,0,0,1,.19,0l.3.2.05-.05a2.1,2.1,0,0,1,.63-1.54,2.4,2.4,0,0,1,1.72-.85,2.49,2.49,0,0,1,1.84.71,2.41,2.41,0,0,1,.21,3.55,2.23,2.23,0,0,1-1.49.79l1.41,1.27A.11.11,0,0,1,24.56,33Zm-3.63-3.45,1.5,1.36a1.89,1.89,0,0,0,1.63-.67A1.55,1.55,0,0,0,24.5,29a1.74,1.74,0,0,0-.63-1.2,1.8,1.8,0,0,0-1.27-.52,1.61,1.61,0,0,0-1.17.57A1.9,1.9,0,0,0,20.93,29.54Z"/></svg>