<svg id="Слой_1" data-name="Слой 1" xmlns="http://www.w3.org/2000/svg" viewBox="0 0 141.73 141.73"><defs><style>.cls-1{fill:#168035;}</style></defs><title>Круги</title><path class="cls-1" d="M37.41,16.16l0,.05a1.27,1.27,0,0,1,.78.06,1.08,1.08,0,0,1,.55.46A1.43,1.43,0,0,1,39,17.9a1.69,1.69,0,0,1-.77,1l-2.24,1.39a.1.1,0,0,1-.09,0,.12.12,0,0,1-.08-.06l-2.47-4a.1.1,0,0,1,0-.17l2.12-1.32a1.4,1.4,0,0,1,1.1-.22,1.28,1.28,0,0,1,.85.6,1,1,0,0,1,.13.5A.81.81,0,0,1,37.41,16.16Zm-3.08.21.61,1,1.56-1a.6.6,0,0,0,.27-.36.57.57,0,0,0-.07-.44.55.55,0,0,0-.37-.26.57.57,0,0,0-.47.09Zm1,1.64.78,1.26,1.63-1a.93.93,0,0,0,.41-.5.7.7,0,0,0-.09-.59c-.25-.41-.62-.47-1.1-.17Z"/><path class="cls-1" d="M38.19,13.15l.51-.25a.11.11,0,0,1,.17,0l1,1.94.61,1.33h0l.22-1.39.61-3.16a.23.23,0,0,1,.15-.17l.48-.25a.11.11,0,0,1,.16.06l2.12,4.18c0,.08,0,.13,0,.16l-.51.26c-.08,0-.14,0-.18-.05l-1-1.95-.61-1.33h0l-.22,1.51L41,17.15a.18.18,0,0,1-.1.15l-.52.26a.12.12,0,0,1-.16-.06l-2.12-4.18A.12.12,0,0,1,38.19,13.15Z"/><path class="cls-1" d="M47.54,11.31l0,0a1.34,1.34,0,0,1,.76.19,1.15,1.15,0,0,1,.46.56,1.43,1.43,0,0,1,0,1.18,1.61,1.61,0,0,1-.93.84l-2.45,1a.15.15,0,0,1-.09,0,.13.13,0,0,1-.06-.07l-1.75-4.35a.11.11,0,0,1,.06-.16l2.32-.92a1.4,1.4,0,0,1,1.13,0,1.29,1.29,0,0,1,.72.73,1,1,0,0,1,0,.52A.89.89,0,0,1,47.54,11.31ZM44.47,11l.43,1.08,1.7-.69a.56.56,0,0,0,.33-.31.52.52,0,0,0,0-.44.61.61,0,0,0-.32-.33.62.62,0,0,0-.48,0Zm.71,1.79.55,1.37,1.78-.71A.9.9,0,0,0,48,13a.7.7,0,0,0,0-.6c-.18-.44-.54-.56-1.06-.35Z"/><path class="cls-1" d="M48.86,7.88a.65.65,0,0,1-.49,0A.62.62,0,0,1,48,7.46a.6.6,0,0,1,0-.49.58.58,0,0,1,.37-.33.61.61,0,0,1,.49,0,.66.66,0,0,1,.33.37.67.67,0,0,1,0,.5A.66.66,0,0,1,48.86,7.88Zm-.08.65.54-.18a.12.12,0,0,1,.16.08L51,12.88a.12.12,0,0,1-.08.16l-.55.18a.12.12,0,0,1-.16-.08L48.7,8.7A.12.12,0,0,1,48.78,8.53Z"/><path class="cls-1" d="M53,7.18a2.49,2.49,0,0,1,2.29.49.1.1,0,0,1,0,.15L55,8.25a.11.11,0,0,1-.17,0,1.79,1.79,0,0,0-1.62-.35,1.65,1.65,0,0,0-1.07.81A1.74,1.74,0,0,0,52,10.08a1.75,1.75,0,0,0,.79,1.09,1.62,1.62,0,0,0,1.33.17,1.79,1.79,0,0,0,1.24-1.14c0-.06.08-.07.15,0l.5.22a.1.1,0,0,1,0,.15,2.41,2.41,0,0,1-1.74,1.56,2.48,2.48,0,0,1-3.13-1.79,2.43,2.43,0,0,1,.24-1.94A2.48,2.48,0,0,1,53,7.18Z"/><path class="cls-1" d="M56.44,6.41l.57-.1a.1.1,0,0,1,.14.1l.39,2.14L59.45,6a.34.34,0,0,1,.24-.15l.8-.14a.08.08,0,0,1,.09,0,.08.08,0,0,1,0,.1L58.78,8.15l2.73,2.21a.07.07,0,0,1,0,.09.1.1,0,0,1-.08.07l-.72.13a.35.35,0,0,1-.29-.07l-2.17-1.8-.59.68L58,11c0,.08,0,.13-.1.15l-.56.1a.12.12,0,0,1-.15-.1l-.83-4.61C56.33,6.47,56.36,6.42,56.44,6.41Z"/><path class="cls-1" d="M65.5,9.43h0a2.49,2.49,0,0,1-1.78.92,2,2,0,0,1-1.35-.3A1.39,1.39,0,0,1,61.72,9a1.36,1.36,0,0,1,.36-1.09,2.17,2.17,0,0,1,1.11-.62l1.91-.44V6.71a.69.69,0,0,0-.38-.57A1.52,1.52,0,0,0,63.86,6a2.73,2.73,0,0,0-1.6.68c-.07.06-.13.06-.18,0l-.34-.38c-.06-.06-.06-.11,0-.18a3.46,3.46,0,0,1,2-.88,2.31,2.31,0,0,1,1.45.3,1.44,1.44,0,0,1,.68,1.15l.17,1.69a3.13,3.13,0,0,0,.3,1.1l.12.26a.09.09,0,0,1,0,.15l-.46.22a.11.11,0,0,1-.17,0Zm-.23-.82-.1-1L63.33,8a1.09,1.09,0,0,0-.59.32.64.64,0,0,0-.2.53.69.69,0,0,0,.36.57,1.3,1.3,0,0,0,.75.13,2.22,2.22,0,0,0,.95-.31A1.87,1.87,0,0,0,65.27,8.61Z"/><path class="cls-1" d="M79.72,5.65l3.89.67a.11.11,0,0,1,.1.15l-.79,4.61a.12.12,0,0,1-.15.11l-.56-.1a.12.12,0,0,1-.11-.15l.69-4-2.52-.43-.68,4c0,.08-.07.12-.15.1l-.56-.1a.11.11,0,0,1-.11-.14l.8-4.62A.11.11,0,0,1,79.72,5.65Z"/><path class="cls-1" d="M84.61,10.93A2.42,2.42,0,0,1,84.37,9a2.44,2.44,0,0,1,1.18-1.57,2.48,2.48,0,0,1,1.93-.24,2.51,2.51,0,0,1,1.57,1.17,2.44,2.44,0,0,1,.24,2,2.44,2.44,0,0,1-1.18,1.57,2.63,2.63,0,0,1-3.5-.94Zm3.74-2.2a1.67,1.67,0,0,0-1.06-.8A1.62,1.62,0,0,0,86,8.1a1.9,1.9,0,0,0-.66,2.45,1.64,1.64,0,0,0,1.06.8,1.62,1.62,0,0,0,1.32-.16,1.74,1.74,0,0,0,.79-1.1A1.76,1.76,0,0,0,88.35,8.73Z"/><path class="cls-1" d="M93.64,14.49l-.53-.2c-.08,0-.11-.08-.08-.16l1.39-3.8-1.78-.65L91.2,12.45a1.13,1.13,0,0,1-1.51.65,1.23,1.23,0,0,1-.45-.27,1.5,1.5,0,0,1-.28-.49A.11.11,0,0,1,89,12.2L89.5,12c.06,0,.11,0,.13.05a.51.51,0,0,0,.32.36c.21.08.38,0,.52-.27l1.74-3.28a.1.1,0,0,1,.15-.05l3,1.09c.08,0,.11.08.08.16l-1.61,4.4A.12.12,0,0,1,93.64,14.49Z"/><path class="cls-1" d="M96.87,10.53l.52.23a.12.12,0,0,1,.07.17l-1.89,4.29a.11.11,0,0,1-.17.06l-.52-.23a.12.12,0,0,1-.07-.17L96.7,10.6A.12.12,0,0,1,96.87,10.53Zm.51-.43A.6.6,0,0,1,97,9.74a.62.62,0,0,1,.37-.84.64.64,0,0,1,.49,0,.59.59,0,0,1,.33.36.62.62,0,0,1,0,.5.65.65,0,0,1-.85.33Z"/><path class="cls-1" d="M97.15,16.09l-.51-.26a.11.11,0,0,1-.06-.17l2.11-4.18a.11.11,0,0,1,.08-.07.13.13,0,0,1,.09,0L102,13a.11.11,0,0,1,0,.17l-.23.47c0,.07-.09.08-.17,0l-2.48-1.26L97.31,16C97.28,16.11,97.22,16.12,97.15,16.09Z"/><path class="cls-1" d="M100.4,19.51l-.49-.3a.11.11,0,0,1,0-.17l3.25-5.28a.12.12,0,0,1,.18,0l.39.25c.07,0,.08.1,0,.18l-.14.33.05,0a2.1,2.1,0,0,1,1.63.34,2.54,2.54,0,1,1-2.67,4.33,2.21,2.21,0,0,1-1-1.33l-1,1.62A.11.11,0,0,1,100.4,19.51Zm2.73-4.19L102.07,17a1.87,1.87,0,0,0,1,1.48,1.55,1.55,0,0,0,1.28.21,1.73,1.73,0,0,0,1.06-.84,1.8,1.8,0,0,0,.28-1.34,1.55,1.55,0,0,0-.77-1A1.84,1.84,0,0,0,103.13,15.32Z"/><path class="cls-1" d="M108.68,22.47l0,0a2.48,2.48,0,0,1-1.94-.51,1.94,1.94,0,0,1-.8-1.14,1.39,1.39,0,0,1,.27-1.17,1.34,1.34,0,0,1,1-.57,2.1,2.1,0,0,1,1.24.29l1.71,1,.09-.12a.68.68,0,0,0,.11-.67,1.5,1.5,0,0,0-.55-.68,2.79,2.79,0,0,0-1.64-.57q-.14,0-.12-.12v-.52c0-.08,0-.13.12-.13a3.42,3.42,0,0,1,2.1.73,2.2,2.2,0,0,1,.87,1.18,1.43,1.43,0,0,1-.26,1.32l-1,1.36a3.29,3.29,0,0,0-.52,1l-.08.27a.1.1,0,0,1-.14.08l-.49-.15a.11.11,0,0,1-.09-.15Zm.38-.76.63-.84L108,20a1.15,1.15,0,0,0-.66-.16.62.62,0,0,0-.49.25.72.72,0,0,0-.13.67,1.29,1.29,0,0,0,.48.6,2.05,2.05,0,0,0,.9.41A1.9,1.9,0,0,0,109.06,21.71Z"/><path class="cls-1" d="M116.44,21.62l.42.38a.11.11,0,0,1,0,.18l-1.14,1.23a1.57,1.57,0,0,1,1.13.44,2,2,0,0,1,.71,1.62,2.69,2.69,0,0,1-.81,1.76,2.74,2.74,0,0,1-1.69.94,2,2,0,0,1-1.67-.6,1.48,1.48,0,0,1-.5-1.11l-1.23,1.32q-.07.09-.18,0l-.41-.38a.11.11,0,0,1,0-.18l1.22-1.32a1.5,1.5,0,0,1-1.14-.42,2,2,0,0,1-.72-1.62,2.76,2.76,0,0,1,.82-1.76,2.73,2.73,0,0,1,1.69-.93,2,2,0,0,1,1.67.59,1.53,1.53,0,0,1,.52,1.09l1.14-1.23A.11.11,0,0,1,116.44,21.62Zm-3.57,3.65,1.74-1.87a1.54,1.54,0,0,0-.52-1.06A1.27,1.27,0,0,0,113,22a2.09,2.09,0,0,0-1.14.69,2.05,2.05,0,0,0-.6,1.19,1.29,1.29,0,0,0,.44,1.09A1.42,1.42,0,0,0,112.87,25.27ZM115.21,24l-1.74,1.87a1.43,1.43,0,0,0,.42,1.16,1.26,1.26,0,0,0,1.11.36,2.37,2.37,0,0,0,1.75-1.87,1.24,1.24,0,0,0-.45-1.08A1.5,1.5,0,0,0,115.21,24Z"/><path class="cls-1" d="M119.32,26.52l.38.42a.11.11,0,0,1,0,.18l-3.46,3.16c-.06.06-.12,0-.18,0l-.38-.42a.11.11,0,0,1,0-.18l3.46-3.16C119.2,26.45,119.26,26.46,119.32,26.52Zm.64-.19a.62.62,0,0,1-.17-.47.64.64,0,0,1,.21-.45.61.61,0,0,1,.47-.17.64.64,0,0,1,.45.21.62.62,0,0,1,.16.46.64.64,0,0,1-.21.45.61.61,0,0,1-.47.17A.63.63,0,0,1,120,26.33Z"/><path class="cls-1" d="M117,31l1.72-.17a1.63,1.63,0,0,1,.6-1.78,1.69,1.69,0,0,1,1.31-.38,1.84,1.84,0,0,1,1.24.72l1.43,1.75c0,.07,0,.13,0,.18l-3.63,3a.13.13,0,0,1-.19,0l-.36-.44a.11.11,0,0,1,0-.17l1-.8-1-1.27-1.5.17a.21.21,0,0,1-.23-.09l-.4-.48a.15.15,0,0,1,0-.12S116.93,31,117,31Zm5.26.09-1-1.22a1,1,0,0,0-.7-.41,1,1,0,0,0-.73.23,1,1,0,0,0-.38.67,1,1,0,0,0,.26.78l1,1.21Z"/><path class="cls-1" d="M128.83,41a2.87,2.87,0,0,1,1.52,1.51,2.43,2.43,0,0,1,.27,1.35,1.17,1.17,0,0,1-.69,1,.88.88,0,0,1-1-.13l0,0a1.14,1.14,0,0,1-.69,1.23,1.42,1.42,0,0,1-1.37,0,2.73,2.73,0,0,1-1.09-1.22,3,3,0,0,1-.15-2.4c0-.07.07-.09.15-.09l.52.16c.08,0,.1.06.07.15a2.38,2.38,0,0,0,.11,1.87,1.75,1.75,0,0,0,.64.76.75.75,0,0,0,.76.06c.45-.21.53-.62.25-1.2l-.5-1a.11.11,0,0,1,.06-.17l.46-.23a.11.11,0,0,1,.17.06l.52,1.06a.87.87,0,0,0,.32.38.44.44,0,0,0,.43,0,.51.51,0,0,0,.29-.49,1.9,1.9,0,0,0-.22-.81,2.16,2.16,0,0,0-1.11-1.08c-.09,0-.11-.08-.08-.14l.25-.53S128.76,41,128.83,41Z"/><path class="cls-1" d="M127.92,47.68a2.43,2.43,0,0,1,1.43-1.34,2.47,2.47,0,0,1,2,0,2.62,2.62,0,0,1,1.3,3.38,2.63,2.63,0,0,1-3.4,1.31,2.48,2.48,0,0,1-1.32-1.43A2.45,2.45,0,0,1,127.92,47.68Zm4,1.73a1.62,1.62,0,0,0,0-1.33,1.65,1.65,0,0,0-.91-1,1.74,1.74,0,0,0-1.36,0,1.76,1.76,0,0,0-1,.9,1.66,1.66,0,0,0,0,1.33,1.62,1.62,0,0,0,.91,1,1.75,1.75,0,0,0,1.35,0A1.81,1.81,0,0,0,131.89,49.41Z"/><path class="cls-1" d="M132.72,55.48h-.05a1.25,1.25,0,0,1-.27.73,1.18,1.18,0,0,1-.6.41,1.45,1.45,0,0,1-1.17-.16,1.66,1.66,0,0,1-.75-1l-.72-2.54a.1.1,0,0,1,0-.09.13.13,0,0,1,.07-.06l4.51-1.28a.11.11,0,0,1,.15.08l.68,2.4a1.42,1.42,0,0,1-.09,1.12,1.29,1.29,0,0,1-.81.65,1,1,0,0,1-.52,0A.9.9,0,0,1,132.72,55.48ZM131.51,53l-1.42.4.53,1.84a.92.92,0,0,0,.36.54.67.67,0,0,0,.59.07c.47-.13.62-.47.47-1Zm1.86-.53-1.12.32.51,1.77a.57.57,0,0,0,1.06.13.63.63,0,0,0,0-.49Z"/><path class="cls-1" d="M135.4,57.08l.11.57c0,.08,0,.13-.1.14l-1.83.35.51,2.62,1.82-.35c.08,0,.13,0,.15.11l.11.55a.12.12,0,0,1-.1.15l-4.6.88c-.09,0-.13,0-.15-.1l-.11-.55c0-.09,0-.14.1-.16l2-.38-.5-2.62-2,.39a.12.12,0,0,1-.15-.1l-.11-.56c0-.09,0-.14.1-.15l4.6-.89C135.34,57,135.39,57,135.4,57.08Z"/><path class="cls-1" d="M136.38,62.7l.07.56a.11.11,0,0,1-.11.14L131.7,64a.11.11,0,0,1-.14-.11l-.08-.56a.11.11,0,0,1,.11-.14l4.65-.61C136.32,62.57,136.37,62.61,136.38,62.7Zm.63.2a.62.62,0,0,1,.13-.47.65.65,0,0,1,.43-.26.64.64,0,0,1,.6,1,.65.65,0,0,1-.43.26.62.62,0,0,1-.48-.14A.59.59,0,0,1,137,62.9Z"/><path class="cls-1" d="M132.59,65.87l.1,1.83,4-.23c.08,0,.13,0,.13.12l0,.56c0,.09,0,.13-.12.13l-4,.24.11,1.83,4-.23c.08,0,.13,0,.13.12l0,.56c0,.09,0,.13-.12.13l-4.68.27c-.08,0-.13,0-.13-.12l-.34-5.86c0-.08,0-.13.12-.13l4.67-.27a.12.12,0,0,1,.14.12l0,.56c0,.09,0,.13-.12.14Z"/><path class="cls-1" d="M137,72.58l0,.57c0,.08-.05.12-.13.12L135,73.19l-.11,2.66,1.86.08c.08,0,.12,0,.12.14l0,.56c0,.09,0,.13-.13.12L132,76.56a.12.12,0,0,1-.12-.14l0-.56c0-.09,0-.13.14-.13l2.05.09.11-2.66-2-.09c-.09,0-.13,0-.12-.13l0-.57c0-.09,0-.13.13-.12l4.68.19C137,72.45,137,72.49,137,72.58Z"/><path class="cls-1" d="M132,77.59l1.31,1.12a1.61,1.61,0,0,1,1.7-.79,1.74,1.74,0,0,1,1.18.69,1.85,1.85,0,0,1,.33,1.39l-.28,2.25a.11.11,0,0,1-.14.11l-4.65-.6a.12.12,0,0,1-.11-.15l.07-.56a.11.11,0,0,1,.14-.11l1.26.17.21-1.63-1.16-1a.23.23,0,0,1-.09-.23l.08-.62a.12.12,0,0,1,.05-.11S131.92,77.55,132,77.59Zm3.56,3.87.2-1.56a1,1,0,0,0-.18-.79,1,1,0,0,0-.68-.37.95.95,0,0,0-1.12.91l-.2,1.55Z"/><path class="cls-1" d="M129,85.31l.15-.55c0-.09.07-.12.15-.1l6,1.56c.08,0,.11.07.09.16l-.12.44c0,.08-.07.11-.15.1l-.37,0V87a2.09,2.09,0,0,1,.15,1.65,2.4,2.4,0,0,1-1.13,1.55,2.73,2.73,0,0,1-3.56-.92,2.44,2.44,0,0,1-.23-1.9,2.19,2.19,0,0,1,1-1.39l-1.84-.48C129,85.44,129,85.39,129,85.31Zm4.81,1.38-2-.51a1.89,1.89,0,0,0-1.14,1.34,1.6,1.6,0,0,0,.18,1.29,1.75,1.75,0,0,0,1.12.77,1.8,1.8,0,0,0,1.36-.13,1.59,1.59,0,0,0,.77-1A1.85,1.85,0,0,0,133.83,86.69Z"/><path class="cls-1" d="M129.6,91.29a2.47,2.47,0,0,1,2-.06A2.43,2.43,0,0,1,133,92.54a2.49,2.49,0,0,1,.06,2,2.41,2.41,0,0,1-1.29,1.43,2.53,2.53,0,0,1-2,0l-.25-.09c-.07,0-.1-.08-.07-.14l1.38-3.84a1.61,1.61,0,0,0-1.14.2,1.77,1.77,0,0,0-.75,1,2.45,2.45,0,0,0,0,1.71c0,.06,0,.1-.07.12l-.53.18a.1.1,0,0,1-.14-.07,3.12,3.12,0,0,1,0-2.21A2.61,2.61,0,0,1,129.6,91.29Zm2.76,3a1.8,1.8,0,0,0,0-1.21,1.57,1.57,0,0,0-.76-.88l-1.14,3.16a1.57,1.57,0,0,0,1.12-.17A1.6,1.6,0,0,0,132.36,94.25Z"/><path class="cls-1" d="M131.6,98.14l-.24.52a.11.11,0,0,1-.17.06l-2-.92,1,3a.39.39,0,0,1,0,.28l-.34.74a.09.09,0,0,1-.08.06.11.11,0,0,1-.08-.07l-.88-2.81-3.37,1a.08.08,0,0,1-.1,0,.09.09,0,0,1,0-.11l.3-.66a.34.34,0,0,1,.22-.19l2.73-.75-.22-.87-1.44-.66a.12.12,0,0,1-.06-.17l.24-.52a.11.11,0,0,1,.17-.06l4.25,2A.12.12,0,0,1,131.6,98.14Z"/><path class="cls-1" d="M122.67,104.59l.28-.49a.12.12,0,0,1,.18,0l3.5,2,1-1.65-2.49-1.89a1.13,1.13,0,0,1-.38-1.59,1.27,1.27,0,0,1,.35-.4,1.31,1.31,0,0,1,.52-.2.11.11,0,0,1,.13.09l.17.51c0,.07,0,.11-.08.13a.49.49,0,0,0-.41.25c-.11.19,0,.37.19.56l2.93,2.27a.12.12,0,0,1,0,.16L127,107.06a.12.12,0,0,1-.18,0l-4-2.34A.12.12,0,0,1,122.67,104.59Z"/><path class="cls-1" d="M120.58,108.81l0,0a2.51,2.51,0,0,1,.45-2,2,2,0,0,1,1.12-.83,1.4,1.4,0,0,1,1.18.24,1.36,1.36,0,0,1,.59,1,2,2,0,0,1-.25,1.24l-.92,1.74.13.09a.69.69,0,0,0,.68.08,1.42,1.42,0,0,0,.65-.56,2.71,2.71,0,0,0,.53-1.66c0-.09,0-.13.12-.13h.52c.08,0,.12,0,.13.12a3.36,3.36,0,0,1-.67,2.12,2.18,2.18,0,0,1-1.16.9,1.41,1.41,0,0,1-1.32-.22l-1.39-1a3.13,3.13,0,0,0-1-.49l-.28-.08c-.07,0-.1-.06-.08-.14l.13-.49c0-.08.07-.11.15-.09Zm.77.36.86.61.84-1.7a1.27,1.27,0,0,0,.15-.66.64.64,0,0,0-.28-.49.67.67,0,0,0-.66-.11,1.32,1.32,0,0,0-.6.49,2.25,2.25,0,0,0-.38.92A2,2,0,0,0,121.35,109.17Z"/><path class="cls-1" d="M119.7,116.62l-.52.61a.1.1,0,0,1-.17,0l-3.56-3a.11.11,0,0,1,0-.17l.38-.44c.06-.06.12-.07.18,0l1.64,1.41,1.06,1,0,0-.9-1.75-.82-1.77a.2.2,0,0,1,0-.22l.23-.28a.23.23,0,0,1,.22,0l1.86.53,1.89.61,0,0-1.11-.9-1.65-1.41c-.06-.06-.07-.11,0-.17l.37-.43c.06-.06.12-.07.18,0l3.55,3a.11.11,0,0,1,0,.18l-.55.64a.18.18,0,0,1-.19,0l-2.36-.69-1.48-.46,0,0,.83,1.61.91,2A.23.23,0,0,1,119.7,116.62Z"/><path class="cls-1" d="M112.56,117.76l0,0a2.46,2.46,0,0,1,.81-1.83,2,2,0,0,1,1.26-.6,1.46,1.46,0,0,1,1.51,1.53,2.07,2.07,0,0,1-.49,1.17l-1.23,1.53.11.11a.7.7,0,0,0,.65.22,1.53,1.53,0,0,0,.75-.43,2.77,2.77,0,0,0,.83-1.53c0-.09.06-.12.15-.1l.51.09c.08,0,.11.05.1.14a3.38,3.38,0,0,1-1.06,2,2.24,2.24,0,0,1-1.31.67,1.42,1.42,0,0,1-1.25-.47l-1.18-1.23a3.22,3.22,0,0,0-.92-.68l-.26-.13c-.07,0-.08-.07,0-.15l.22-.45a.12.12,0,0,1,.17-.07Zm.69.5.72.75,1.15-1.5a1.2,1.2,0,0,0,.27-.63.63.63,0,0,0-.17-.53.69.69,0,0,0-.63-.23,1.25,1.25,0,0,0-.68.37,2.19,2.19,0,0,0-.55.83A1.79,1.79,0,0,0,113.25,118.26Z"/><path class="cls-1" d="M107,126.5h0a2,2,0,0,1-1,1.54,2.36,2.36,0,0,1-1.87.37,2.4,2.4,0,0,1-1.53-1.12,2.36,2.36,0,0,1-.34-1.87,2.42,2.42,0,0,1,1.11-1.55,2.34,2.34,0,0,1,2-.33,3,3,0,0,1,1.66,1.34,5.29,5.29,0,0,1,.68,1.52,2.55,2.55,0,0,1-.38,2.23,2.87,2.87,0,0,1-.76.71,2.52,2.52,0,0,0-.7.57.8.8,0,0,0-.14.53c0,.08,0,.13-.1.14l-.52.07a.12.12,0,0,1-.14-.1,1.14,1.14,0,0,1,.15-1,3.83,3.83,0,0,1,1.07-.93,1.93,1.93,0,0,0,.82-.94A2,2,0,0,0,107,126.5Zm-1.42.9a1.64,1.64,0,0,0,.74-1,1.6,1.6,0,0,0-.23-1.29,1.64,1.64,0,0,0-1-.75,1.59,1.59,0,0,0-1.27.21,1.65,1.65,0,0,0-.74,1,1.61,1.61,0,0,0,.25,1.28,1.7,1.7,0,0,0,1,.79A1.6,1.6,0,0,0,105.56,127.4Z"/><path class="cls-1" d="M99.2,124.68l.51-.27c.08,0,.13,0,.17.06l2.84,5.52c0,.08,0,.13-.06.17l-.41.21a.13.13,0,0,1-.18-.05l-.21-.3-.06,0a2.11,2.11,0,0,1-1.14,1.22,2.38,2.38,0,0,1-1.91.18,2.5,2.5,0,0,1-1.47-1.31,2.46,2.46,0,0,1-.2-1.95,2.35,2.35,0,0,1,1.26-1.44,2.2,2.2,0,0,1,1.68-.21l-.87-1.69C99.11,124.77,99.13,124.71,99.2,124.68Zm2.17,4.5-.92-1.8a1.92,1.92,0,0,0-1.76.05,1.59,1.59,0,0,0-.84,1A2,2,0,0,0,99,130.7a1.59,1.59,0,0,0,1.29-.12A1.85,1.85,0,0,0,101.37,129.18Z"/><path class="cls-1" d="M95.1,129.1a2.65,2.65,0,0,1,1.35,3.39A2.56,2.56,0,0,1,95,133.84a2.42,2.42,0,0,1-1.92,0,2.5,2.5,0,0,1-1.33-1.43l-.1-.25a.1.1,0,0,1,.06-.15l3.79-1.51a1.65,1.65,0,0,0-.91-.72,1.71,1.71,0,0,0-1.23.08A2.45,2.45,0,0,0,92.1,131c0,.06-.08.07-.14,0l-.49-.28a.11.11,0,0,1,0-.16,3.23,3.23,0,0,1,1.65-1.46A2.62,2.62,0,0,1,95.1,129.1Zm-.37,4a1.69,1.69,0,0,0,.91-.79,1.56,1.56,0,0,0,.16-1.14l-3.12,1.25a1.55,1.55,0,0,0,.87.72A1.66,1.66,0,0,0,94.73,133.12Z"/><path class="cls-1" d="M91.32,135.14l-.55.17a.12.12,0,0,1-.16-.09l-.53-1.78-2.55.77.53,1.77c0,.09,0,.14-.09.17l-.54.16a.12.12,0,0,1-.16-.09l-1.34-4.49a.11.11,0,0,1,.09-.15l.53-.17c.09,0,.15,0,.17.09l.59,2,2.55-.77-.59-2a.11.11,0,0,1,.09-.15l.54-.17c.09,0,.14,0,.16.09L91.4,135A.1.1,0,0,1,91.32,135.14Z"/><path class="cls-1" d="M84.78,136.93l-3.23.65c-.08,0-.13,0-.15-.1l-.79-4-.43.09a.11.11,0,0,1-.14-.09l-.33-1.65a.1.1,0,0,1,.1-.14l.51-.11q.14,0,.15.09l.24,1,3.64-.74-.16-1c0-.09,0-.14.09-.16l.52-.1c.08,0,.13,0,.15.1l.33,1.64c0,.08,0,.12-.09.14l-.28.05a.31.31,0,0,0-.21.18.55.55,0,0,0-.07.35l.24,3.63A.1.1,0,0,1,84.78,136.93Zm-2.69-.24L84,136.3l-.22-3.09a1.78,1.78,0,0,1,0-.34l-2.41.49Z"/><path class="cls-1" d="M75.94,138.29l-.71.08c-.08,0-.11,0-.08-.11l1.5-5.26A1.59,1.59,0,0,1,78,131.69h.33a.13.13,0,0,1,.12.13l0,.49a.16.16,0,0,1,0,.1.11.11,0,0,1-.08,0h-.25a.78.78,0,0,0-.73.66l-.05.21,2.68,4.44c0,.05,0,.07,0,.08l-.77.08a.08.08,0,0,1-.1,0l-2.05-3.54H77l-1,3.86A.1.1,0,0,1,75.94,138.29Z"/><path class="cls-1" d="M70.39,136.31v-.05a1.43,1.43,0,0,1-.64-.45,1.19,1.19,0,0,1-.24-.68A1.41,1.41,0,0,1,70,134a1.67,1.67,0,0,1,1.17-.47l2.63-.07a.12.12,0,0,1,.08,0,.12.12,0,0,1,0,.09l.12,4.68c0,.09,0,.13-.12.13l-2.49.06a1.43,1.43,0,0,1-1.07-.37,1.29,1.29,0,0,1-.42-.94,1,1,0,0,1,.14-.5A.83.83,0,0,1,70.39,136.31Zm2.72-.54,0-1.48-1.91.05a.88.88,0,0,0-.61.22.68.68,0,0,0-.22.55c0,.48.3.72.87.7Zm0,1.93,0-1.16-1.84,0a.58.58,0,0,0-.41.18.52.52,0,0,0-.17.41.57.57,0,0,0,.19.41.58.58,0,0,0,.45.16Z"/><path class="cls-1" d="M65.07,134.05h.05a2.46,2.46,0,0,1,1.9-.64,1.9,1.9,0,0,1,1.29.51,1.38,1.38,0,0,1,.42,1.13,1.35,1.35,0,0,1-.52,1,2,2,0,0,1-1.19.43l-2,.14v.15a.67.67,0,0,0,.28.62,1.46,1.46,0,0,0,.83.27,2.77,2.77,0,0,0,1.68-.43c.08,0,.14,0,.17,0l.29.43c0,.07,0,.12,0,.18a3.47,3.47,0,0,1-2.16.55,2.35,2.35,0,0,1-1.38-.52,1.44,1.44,0,0,1-.5-1.24l.1-1.7a3,3,0,0,0-.12-1.13l-.08-.28a.09.09,0,0,1,.07-.14l.49-.15a.12.12,0,0,1,.16.08Zm.09.84-.06,1.05,1.89-.17a1.17,1.17,0,0,0,.64-.23.67.67,0,0,0,.28-.49.71.71,0,0,0-.27-.62,1.35,1.35,0,0,0-.73-.25,2.33,2.33,0,0,0-1,.16A2,2,0,0,0,65.16,134.89Z"/><path class="cls-1" d="M62.4,138.08l-.57-.08a.1.1,0,0,1-.1-.14L62,136l-2.64-.39-.27,1.84a.11.11,0,0,1-.15.1l-.56-.08a.1.1,0,0,1-.1-.14l.68-4.64a.11.11,0,0,1,.15-.1l.55.08c.09,0,.13.06.12.14l-.3,2,2.63.39.3-2a.11.11,0,0,1,.15-.1l.56.08a.11.11,0,0,1,.11.14L62.54,138A.1.1,0,0,1,62.4,138.08Z"/><path class="cls-1" d="M56.66,137.16l-.55-.13c-.08,0-.12-.08-.1-.16l.44-1.8-2.6-.62-.43,1.8a.12.12,0,0,1-.16.1l-.54-.14a.11.11,0,0,1-.1-.15l1.09-4.55c0-.09.07-.12.15-.1l.55.13a.12.12,0,0,1,.1.16l-.48,2,2.59.62.48-2c0-.09.07-.12.15-.1l.56.13a.12.12,0,0,1,.09.16l-1.08,4.55A.12.12,0,0,1,56.66,137.16Z"/><path class="cls-1" d="M52.73,131.25l-1.36,1.06a1.63,1.63,0,0,1,.45,1.82,1.69,1.69,0,0,1-.9,1,1.81,1.81,0,0,1-1.43.07l-2.15-.71c-.08,0-.11-.08-.08-.16l1.47-4.45a.12.12,0,0,1,.17-.08l.54.18a.12.12,0,0,1,.08.16l-.4,1.2,1.55.52,1.17-.95a.23.23,0,0,1,.24-.05l.6.2a.11.11,0,0,1,.09.07S52.77,131.21,52.73,131.25ZM48.24,134l1.49.5a1,1,0,0,0,.81,0A1.07,1.07,0,0,0,51,133.1a1,1,0,0,0-.64-.51l-1.49-.49Z"/><path class="cls-1" d="M43.45,133l-3.57-1.7a.11.11,0,0,1-.06-.17l2-4.23a.11.11,0,0,1,.16-.06l.52.25a.11.11,0,0,1,.06.17l-1.73,3.65L43.15,132l1.73-3.65a.11.11,0,0,1,.17-.06l.51.24a.11.11,0,0,1,.06.17l-2,4.24A.12.12,0,0,1,43.45,133Z"/><path class="cls-1" d="M36.89,123.86l.49.29a.12.12,0,0,1,0,.18l-2.06,3.48,1.64,1,1.92-2.46a1.13,1.13,0,0,1,1.59-.37,1.41,1.41,0,0,1,.4.35,1.37,1.37,0,0,1,.19.53A.11.11,0,0,1,41,127l-.52.16c-.07,0-.11,0-.12-.08a.52.52,0,0,0-.25-.41c-.19-.11-.38-.05-.56.18l-2.31,2.91a.1.1,0,0,1-.15,0l-2.74-1.61a.12.12,0,0,1,0-.18l2.38-4A.11.11,0,0,1,36.89,123.86Z"/><path class="cls-1" d="M35.09,123.43a2.4,2.4,0,0,1-.47,1.9,2.49,2.49,0,0,1-1.66,1,2.53,2.53,0,0,1-1.9-.48,2.57,2.57,0,0,1,1.1-4.6,2.52,2.52,0,0,1,1.89.48A2.49,2.49,0,0,1,35.09,123.43Zm-4.28.72a1.64,1.64,0,0,0,.71,1.12,1.61,1.61,0,0,0,1.29.32,1.94,1.94,0,0,0,1.49-2.06,1.78,1.78,0,0,0-2-1.44,1.76,1.76,0,0,0-1.13.74A1.81,1.81,0,0,0,30.81,124.15Z"/><path class="cls-1" d="M26.89,115.91l4.27,3.84a.11.11,0,0,1,0,.18L28,123.41c-.06.06-.12.07-.18,0l-.42-.38a.11.11,0,0,1,0-.18l2.7-3-1.36-1.23-2.71,3c0,.07-.11.07-.18,0l-.41-.37a.11.11,0,0,1,0-.18l2.7-3-1.37-1.23-2.7,3a.12.12,0,0,1-.18,0l-.42-.38a.12.12,0,0,1,0-.18l2.71-3-.33-.3q-.09-.08,0-.18L27,114.62a.11.11,0,0,1,.17,0l.36.32c.06.06.07.12,0,.18Z"/><path class="cls-1" d="M22.11,118.06l-.38-.42a.11.11,0,0,1,0-.18L23.35,116l1.13-.93,0,0-1.4.15-3.2.24a.22.22,0,0,1-.21-.1l-.36-.39a.11.11,0,0,1,0-.18l3.47-3.14a.11.11,0,0,1,.17,0l.38.42a.12.12,0,0,1,0,.19l-1.62,1.46-1.13.95,0,0,1.51-.18,3.11-.23a.18.18,0,0,1,.17.06l.39.43a.11.11,0,0,1,0,.17l-3.48,3.14A.1.1,0,0,1,22.11,118.06Z"/><path class="cls-1" d="M18.19,113.6l-.35-.46a.11.11,0,0,1,0-.17l1.48-1.12-1.61-2.13-1.48,1.12a.11.11,0,0,1-.18,0l-.34-.45a.12.12,0,0,1,0-.18l3.74-2.82a.12.12,0,0,1,.18,0l.34.45a.12.12,0,0,1,0,.19l-1.64,1.24,1.6,2.12,1.64-1.24a.11.11,0,0,1,.18,0l.35.45a.11.11,0,0,1,0,.18l-3.74,2.82A.1.1,0,0,1,18.19,113.6Z"/><path class="cls-1" d="M11.51,101.75v0a2,2,0,0,1-1.42-1.14,2.36,2.36,0,0,1-.15-1.9,2.42,2.42,0,0,1,1.3-1.39,2.38,2.38,0,0,1,1.9-.11,2.45,2.45,0,0,1,1.4,1.28,2.31,2.31,0,0,1,.09,2,3,3,0,0,1-1.52,1.49,5.26,5.26,0,0,1-1.59.5,2.6,2.6,0,0,1-1.27-.1,2.65,2.65,0,0,1-.91-.54,2.8,2.8,0,0,1-.6-.84,2.82,2.82,0,0,0-.49-.76.73.73,0,0,0-.51-.2.12.12,0,0,1-.13-.12v-.53c0-.07,0-.11.12-.13a1.17,1.17,0,0,1,1,.27,3.86,3.86,0,0,1,.79,1.18,2,2,0,0,0,.84.92A1.88,1.88,0,0,0,11.51,101.75Zm-.72-1.52a1.68,1.68,0,0,0,1,.86,1.62,1.62,0,0,0,1.31-.08,1.66,1.66,0,0,0,.87-1,1.55,1.55,0,0,0-.07-1.28,1.61,1.61,0,0,0-.94-.87,1.67,1.67,0,0,0-1.31.1,1.7,1.7,0,0,0-.9.93A1.55,1.55,0,0,0,10.79,100.23Z"/><path class="cls-1" d="M14.26,94.26l.2.54a.11.11,0,0,1-.07.16L8.57,97.12A.11.11,0,0,1,8.41,97l-.17-.43a.13.13,0,0,1,.08-.17l.32-.18,0-.06a2.11,2.11,0,0,1-1.08-1.27,2.41,2.41,0,0,1,0-1.92,2.44,2.44,0,0,1,1.48-1.3,2.4,2.4,0,0,1,3.24,1.45,2.2,2.2,0,0,1,0,1.69l1.78-.66A.11.11,0,0,1,14.26,94.26ZM9.53,95.88l1.9-.7a1.9,1.9,0,0,0,.16-1.75,1.54,1.54,0,0,0-.88-1,1.78,1.78,0,0,0-1.36,0,1.79,1.79,0,0,0-1,.89,1.56,1.56,0,0,0,0,1.29A1.85,1.85,0,0,0,9.53,95.88Z"/><path class="cls-1" d="M10.36,89.67a2.45,2.45,0,0,1-1.57,1.16,2.4,2.4,0,0,1-1.95-.23A2.48,2.48,0,0,1,5.67,89a2.38,2.38,0,0,1,.23-1.91A2.51,2.51,0,0,1,7.49,86l.25-.07a.1.1,0,0,1,.14.08l1,3.94a1.62,1.62,0,0,0,.83-.82,1.83,1.83,0,0,0,.06-1.23,2.47,2.47,0,0,0-1-1.4c-.06,0-.06-.09,0-.14l.33-.45a.11.11,0,0,1,.16,0,3.17,3.17,0,0,1,1.26,1.81A2.56,2.56,0,0,1,10.36,89.67Zm-3.95-.85a1.78,1.78,0,0,0,.67,1,1.55,1.55,0,0,0,1.12.29l-.86-3.24a1.51,1.51,0,0,0-.83.78A1.62,1.62,0,0,0,6.41,88.82Z"/><path class="cls-1" d="M4.81,85.18l-.1-.56a.12.12,0,0,1,.11-.15l1.83-.31-.46-2.63-1.83.32a.12.12,0,0,1-.15-.11l-.09-.56a.1.1,0,0,1,.1-.14l4.62-.8c.08,0,.13,0,.14.1l.1.56a.11.11,0,0,1-.1.15L7,81.4,7.4,84l2-.35c.08,0,.13,0,.15.1l.09.56a.11.11,0,0,1-.1.15L5,85.29C4.87,85.3,4.82,85.27,4.81,85.18Z"/><path class="cls-1" d="M3.81,78.47l-.26-3.28a.1.1,0,0,1,.11-.13l4-.33,0-.43c0-.08,0-.12.1-.13L9.43,74c.09,0,.13,0,.14.12l0,.52a.11.11,0,0,1-.1.14l-1,.11.3,3.71,1,0a.12.12,0,0,1,.15.12l0,.52c0,.08,0,.13-.12.14l-1.67.13c-.08,0-.12,0-.13-.11l0-.28a.28.28,0,0,0-.14-.23.63.63,0,0,0-.35-.11l-3.63-.19C3.85,78.58,3.82,78.54,3.81,78.47Zm.56-2.64.16,2L7.62,78A1.44,1.44,0,0,1,8,78l-.19-2.44Z"/><path class="cls-1" d="M3.52,69.5v-.71c0-.09,0-.11.12-.07l5,2.15a1.59,1.59,0,0,1,1.13,1.5,1.28,1.28,0,0,1-.05.33.11.11,0,0,1-.13.1h-.5l-.1,0s0,0,0-.09a1.06,1.06,0,0,0,0-.24.78.78,0,0,0-.56-.81l-.2-.07L3.52,73.65s-.07,0-.07,0v-.78a.11.11,0,0,1,.06-.09l3.77-1.59v-.09l-3.7-1.45A.11.11,0,0,1,3.52,69.5Z"/><path class="cls-1" d="M6.12,64.24h0a1.34,1.34,0,0,1,.52-.58,1.17,1.17,0,0,1,.71-.16,1.42,1.42,0,0,1,1,.57,1.71,1.71,0,0,1,.33,1.22l-.25,2.62a.1.1,0,0,1,0,.08.13.13,0,0,1-.08,0l-4.67-.44c-.08,0-.12,0-.11-.13L3.83,65a1.42,1.42,0,0,1,.49-1,1.28,1.28,0,0,1,1-.3.88.88,0,0,1,.48.19A.89.89,0,0,1,6.12,64.24Zm-1.7,2.59,1.15.11.17-1.83a.54.54,0,0,0-.12-.43.51.51,0,0,0-.39-.21.51.51,0,0,0-.43.13.56.56,0,0,0-.21.43ZM6.34,67l1.47.14L8,65.24a.93.93,0,0,0-.15-.63.7.7,0,0,0-.52-.29c-.48,0-.75.22-.8.79Z"/><path class="cls-1" d="M9,59.24v0a2.52,2.52,0,0,1,.41,2,1.92,1.92,0,0,1-.66,1.22,1.4,1.4,0,0,1-1.17.29,1.35,1.35,0,0,1-.95-.64,2.09,2.09,0,0,1-.3-1.23l.1-2-.15,0a.66.66,0,0,0-.65.21,1.42,1.42,0,0,0-.36.78,2.75,2.75,0,0,0,.22,1.73c0,.08,0,.13-.06.16L5,62c-.07,0-.12,0-.17,0a3.42,3.42,0,0,1-.29-2.2,2.27,2.27,0,0,1,.68-1.31,1.39,1.39,0,0,1,1.29-.35l1.68.3a3.13,3.13,0,0,0,1.14,0l.28,0c.07,0,.11,0,.13.09l.09.5c0,.09,0,.14-.1.15Zm-.85,0-1-.19L7.06,61a1.28,1.28,0,0,0,.14.66.71.71,0,0,0,1.11.14,1.24,1.24,0,0,0,.33-.69,2.2,2.2,0,0,0,0-1A1.88,1.88,0,0,0,8.14,59.24Z"/><path class="cls-1" d="M5.31,56.09l.15-.55a.11.11,0,0,1,.15-.09l1.79.49.71-2.57-1.8-.49a.11.11,0,0,1-.08-.16l.15-.54c0-.09.07-.11.15-.09l4.52,1.23c.08,0,.11.07.09.16L11,54a.12.12,0,0,1-.16.1l-2-.55-.7,2.57,2,.55a.11.11,0,0,1,.09.15l-.15.55c0,.08-.07.11-.16.09L5.4,56.25C5.31,56.23,5.29,56.17,5.31,56.09Z"/><path class="cls-1" d="M6.91,50.52l.2-.54a.11.11,0,0,1,.16-.07L9,50.55l.92-2.5-1.74-.64a.12.12,0,0,1-.07-.17l.19-.53a.12.12,0,0,1,.17-.07l4.39,1.62a.11.11,0,0,1,.08.16l-.2.53c0,.09-.09.11-.16.08l-1.93-.71-.93,2.5,1.93.71a.12.12,0,0,1,.08.17l-.2.53c0,.08-.08.11-.16.08L7,50.68A.11.11,0,0,1,6.91,50.52Z"/><path class="cls-1" d="M13.25,47.31l-.9-1.47a1.61,1.61,0,0,1-1.86.22,1.67,1.67,0,0,1-.9-1,1.84,1.84,0,0,1,.1-1.43l1-2a.12.12,0,0,1,.17-.06l4.23,2a.11.11,0,0,1,.06.17l-.24.52a.11.11,0,0,1-.17,0l-1.15-.54-.69,1.49.8,1.27a.23.23,0,0,1,0,.25l-.26.56a.19.19,0,0,1-.09.09S13.28,47.36,13.25,47.31Zm-2.19-4.78L10.39,44a1,1,0,0,0-.07.81,1,1,0,0,0,.53.56,1,1,0,0,0,1.35-.52l.67-1.42Z"/><path class="cls-1" d="M18.05,37.35l0,0a2.49,2.49,0,0,1-.36,2,1.92,1.92,0,0,1-1.07.89,1.44,1.44,0,0,1-1.19-.17,1.37,1.37,0,0,1-.64-.95A2,2,0,0,1,15,37.87l.82-1.78L15.65,36A.67.67,0,0,0,15,36a1.52,1.52,0,0,0-.63.59,2.78,2.78,0,0,0-.44,1.69c0,.09,0,.13-.11.13l-.52,0c-.08,0-.12,0-.13-.1a3.41,3.41,0,0,1,.55-2.16,2.29,2.29,0,0,1,1.12-1,1.42,1.42,0,0,1,1.33.16l1.44.91a3,3,0,0,0,1.05.43l.28.07c.07,0,.1,0,.09.13l-.11.49c0,.09-.06.12-.14.11ZM17.27,37l-.89-.56-.76,1.74a1.24,1.24,0,0,0-.11.67.62.62,0,0,0,.3.47.68.68,0,0,0,.67.07,1.28,1.28,0,0,0,.57-.52,2.26,2.26,0,0,0,.33-.93A2,2,0,0,0,17.27,37Z"/><path class="cls-1" d="M19.64,31.67l0,0a1.28,1.28,0,0,1,.75-.22,1.09,1.09,0,0,1,.69.24,1.38,1.38,0,0,1,.57,1A1.62,1.62,0,0,1,21.33,34l-1.59,2.1a.12.12,0,0,1-.08,0l-.09,0-3.74-2.83a.12.12,0,0,1,0-.17l1.51-2a1.48,1.48,0,0,1,1-.61,1.35,1.35,0,0,1,1,.26.93.93,0,0,1,.3.43A.85.85,0,0,1,19.64,31.67ZM16.83,33l.93.7,1.11-1.46a.57.57,0,0,0,.12-.43.56.56,0,0,0-.22-.39.6.6,0,0,0-.44-.12.68.68,0,0,0-.41.26Zm1.54,1.17,1.18.89,1.15-1.52a.91.91,0,0,0,.21-.62.68.68,0,0,0-.29-.52c-.39-.29-.75-.21-1.1.24Z"/><path class="cls-1" d="M19,28.92l2.77-3.12c.06-.06.12-.07.18,0l.39.35a.1.1,0,0,1,0,.17l-1.12,1.25,3,2.69c.06.06.07.12,0,.18l-.38.43a.11.11,0,0,1-.18,0l-3-2.69-1.12,1.25c-.06.06-.12.07-.18,0L19,29.1A.11.11,0,0,1,19,28.92Z"/><path class="cls-1" d="M25.8,27.83a2.63,2.63,0,0,1-2.51-2.63,2.49,2.49,0,0,1,.81-1.78,2.57,2.57,0,0,1,4.32,1.91,2.63,2.63,0,0,1-2.62,2.5Zm.07-4.34a1.76,1.76,0,0,0-1.78,1.7A1.91,1.91,0,0,0,25.84,27a1.64,1.64,0,0,0,1.24-.49,1.62,1.62,0,0,0,.54-1.21,1.73,1.73,0,0,0-.52-1.25A1.79,1.79,0,0,0,25.87,23.49Z"/></svg>