<svg width="222" height="222" viewBox="0 0 222 222" fill="none" xmlns="http://www.w3.org/2000/svg">
<path d="M98.1751 0.707565L105.61 0.208984C105.776 0.208984 105.847 0.28021 105.871 0.422662L106.465 9.23092C106.465 9.39711 106.394 9.46834 106.251 9.49208L105.182 9.56331C105.016 9.56331 104.945 9.49208 104.921 9.34963L104.422 1.75221L99.6003 2.0846L100.099 9.68202C100.099 9.84821 100.028 9.91944 99.8854 9.94318L98.8165 10.0144C98.6502 10.0144 98.5789 9.94318 98.5552 9.80073L97.9614 0.992468C97.9376 0.802533 98.0089 0.707565 98.1751 0.707565Z" fill="white"/>
<path d="M110.598 8.25736C109.719 7.30768 109.315 6.14432 109.363 4.76729C109.434 3.39026 109.933 2.27439 110.907 1.39594C111.881 0.517484 113.021 0.137613 114.398 0.185097C115.752 0.256323 116.869 0.754904 117.748 1.70458C118.626 2.65426 119.03 3.81761 118.983 5.19465C118.911 6.57168 118.413 7.68755 117.439 8.54226C116.465 9.39697 115.325 9.80058 113.947 9.72936C112.617 9.70561 111.501 9.20703 110.598 8.25736ZM116.631 2.70174C116.061 2.03697 115.301 1.68084 114.351 1.6571C113.401 1.60961 112.617 1.89452 111.976 2.48807C111.334 3.08161 111.002 3.88884 110.954 4.83852C110.907 5.81194 111.168 6.61916 111.738 7.26019C112.308 7.92497 113.068 8.25736 114.018 8.30484C114.968 8.35232 115.752 8.06742 116.394 7.47387C117.035 6.88032 117.368 6.09684 117.415 5.12342C117.463 4.17374 117.201 3.36652 116.631 2.70174Z" fill="white"/>
<path d="M129.719 11.5342L128.65 11.368C128.484 11.3442 128.436 11.2493 128.46 11.0831L129.695 3.55689L126.156 2.98709L124.446 8.63767C124.018 9.99096 123.163 10.5845 121.904 10.3708C121.524 10.2996 121.216 10.2046 120.954 10.0384C120.717 9.87225 120.479 9.61109 120.265 9.25496C120.194 9.13625 120.218 9.04128 120.337 8.97005L121.121 8.30528C121.239 8.21031 121.311 8.23406 121.382 8.35277C121.548 8.66141 121.786 8.85135 122.094 8.89883C122.498 8.97006 122.783 8.73264 122.95 8.21031L125.016 1.51509C125.064 1.39638 125.135 1.34889 125.277 1.37263L131.192 2.34605C131.358 2.3698 131.406 2.46476 131.382 2.63096L129.957 11.3442C129.957 11.4867 129.885 11.5579 129.719 11.5342Z" fill="white"/>
<path d="M135.467 3.39015L136.513 3.65131C136.679 3.69879 136.726 3.79376 136.679 3.93621L134.517 12.5071C134.47 12.6732 134.375 12.7207 134.232 12.6732L133.187 12.4121C133.021 12.3646 132.973 12.2696 133.021 12.1272L135.182 3.55634C135.23 3.39015 135.325 3.34267 135.467 3.39015ZM136.275 2.41673C135.943 2.3455 135.705 2.15557 135.539 1.84692C135.372 1.53828 135.301 1.22963 135.396 0.920988C135.467 0.612343 135.657 0.351181 135.966 0.184988C136.275 0.0187942 136.584 -0.0524316 136.893 0.0425361C137.201 0.113762 137.439 0.303697 137.629 0.612343C137.795 0.920988 137.867 1.22963 137.771 1.53828C137.7 1.84692 137.51 2.10808 137.201 2.27428C136.893 2.44047 136.584 2.48796 136.275 2.41673Z" fill="white"/>
<path d="M138.793 13.9553L137.748 13.6229C137.605 13.5754 137.534 13.4804 137.582 13.338L140.361 4.9096C140.384 4.83838 140.432 4.79089 140.479 4.76715C140.551 4.74341 140.598 4.74341 140.646 4.74341L146.869 6.80896C147.012 6.85644 147.083 6.95141 147.012 7.1176L146.703 8.06728C146.655 8.20973 146.56 8.25722 146.394 8.20973L141.406 6.57154L139.007 13.8366C139.007 13.9553 138.912 14.0028 138.793 13.9553Z" fill="white"/>
<path d="M146.655 19.8196L145.681 19.3685C145.539 19.2973 145.491 19.2023 145.563 19.0599L150.432 8.39972C150.503 8.25727 150.598 8.20979 150.741 8.28101L151.525 8.63714C151.667 8.70837 151.715 8.80334 151.667 8.96953L151.477 9.6343L151.596 9.68179C152.522 9.32566 153.567 9.42063 154.731 9.94295C155.966 10.5128 156.798 11.3675 157.249 12.5546C157.677 13.7417 157.605 14.9762 157.012 16.2583C156.418 17.5641 155.539 18.4188 154.351 18.8462C153.164 19.2735 151.976 19.226 150.741 18.6562C149.624 18.1339 148.864 17.3979 148.484 16.4245L146.988 19.7009C146.916 19.8433 146.821 19.8908 146.655 19.8196ZM150.812 11.3437L149.22 14.81C149.482 15.9734 150.194 16.8281 151.335 17.3504C152.166 17.7303 152.997 17.7778 153.781 17.4454C154.565 17.1368 155.183 16.5195 155.586 15.6173C156.014 14.7151 156.061 13.8366 155.8 13.0531C155.515 12.2459 154.969 11.6524 154.114 11.2725C152.973 10.7502 151.857 10.7739 150.812 11.3437Z" fill="white"/>
<path d="M163.734 24.1167L163.662 24.0692C162.38 24.4016 161.145 24.1879 159.933 23.4757C159.031 22.9296 158.46 22.2648 158.223 21.4813C157.985 20.6978 158.08 19.9381 158.508 19.2258C158.912 18.5373 159.506 18.1337 160.266 17.9675C161.026 17.8251 161.833 17.92 162.641 18.2762L166.038 19.7719L166.18 19.5345C166.442 19.1071 166.465 18.6798 166.251 18.2524C166.038 17.8251 165.658 17.4215 165.111 17.0891C164.09 16.4718 163.045 16.2106 161.928 16.3056C161.762 16.3293 161.667 16.2581 161.667 16.0919L161.572 15.1185C161.548 14.976 161.62 14.8811 161.762 14.8573C163.164 14.7149 164.541 15.0473 165.848 15.8307C166.75 16.3768 167.368 17.0653 167.7 17.8963C168.033 18.7273 167.962 19.582 167.439 20.4129L165.776 23.167C165.373 23.8318 165.111 24.4966 164.993 25.1613L164.898 25.7074C164.874 25.8498 164.803 25.8973 164.66 25.8736L163.71 25.6837C163.544 25.6599 163.496 25.5649 163.52 25.4225L163.734 24.1167ZM164.328 22.6209L165.349 20.9353L162.047 19.5582C161.596 19.3683 161.168 19.2971 160.788 19.3683C160.384 19.4395 160.099 19.6295 159.886 19.9381C159.624 20.3655 159.601 20.7928 159.791 21.1964C159.981 21.6 160.313 21.9562 160.788 22.2411C161.335 22.5735 161.928 22.7871 162.57 22.8346C163.187 22.9296 163.757 22.8584 164.328 22.6209Z" fill="white"/>
<path d="M179.221 22.0751L180.052 22.7636C180.171 22.8586 180.195 22.9773 180.076 23.096L178.081 25.5414C178.865 25.4702 179.601 25.6839 180.266 26.2299C181.264 27.0372 181.786 28.0343 181.81 29.1977C181.834 30.361 181.406 31.5006 180.504 32.5928C179.601 33.7086 178.58 34.3734 177.439 34.5871C176.299 34.8008 175.23 34.4921 174.209 33.6849C173.568 33.1626 173.188 32.4978 173.116 31.6668L170.979 34.3022C170.884 34.4209 170.765 34.4446 170.646 34.3259L169.815 33.6374C169.696 33.5424 169.672 33.4237 169.791 33.305L171.929 30.6697C171.097 30.7646 170.361 30.551 169.72 30.0286C168.722 29.2214 168.199 28.2243 168.176 27.0609C168.152 25.8975 168.58 24.7579 169.482 23.6421C170.385 22.5262 171.406 21.8852 172.546 21.6715C173.686 21.4578 174.755 21.7664 175.777 22.5737C176.442 23.096 176.798 23.7608 176.893 24.568L178.888 22.1226C178.983 21.9801 179.102 21.9801 179.221 22.0751ZM172.95 29.4114L175.991 25.6601C175.896 24.8766 175.515 24.2356 174.898 23.737C174.209 23.191 173.496 23.001 172.76 23.191C172.024 23.3809 171.335 23.8557 170.694 24.6392C170.076 25.399 169.743 26.1824 169.72 26.9659C169.696 27.7494 170.005 28.4142 170.694 28.9603C171.287 29.4351 172.048 29.5775 172.95 29.4114ZM177.202 26.6335L174.162 30.3848C174.185 31.3107 174.494 32.023 175.112 32.5215C175.777 33.0676 176.489 33.2338 177.249 33.0676C178.01 32.8777 178.698 32.4028 179.316 31.6193C179.957 30.8359 180.266 30.0761 180.29 29.2926C180.314 28.5329 179.981 27.8681 179.316 27.3221C178.698 26.8235 177.986 26.5861 177.202 26.6335Z" fill="white"/>
<path d="M186.157 31.8805L186.917 32.6402C187.036 32.7589 187.036 32.8776 186.917 32.9726L180.67 39.2167C180.551 39.3354 180.432 39.3354 180.337 39.2167L179.553 38.457C179.435 38.3383 179.435 38.2196 179.553 38.1246L185.8 31.8805C185.919 31.7618 186.038 31.7618 186.157 31.8805ZM187.344 31.4531C187.107 31.2157 186.988 30.9308 186.988 30.5747C186.988 30.2185 187.107 29.9336 187.344 29.6962C187.582 29.4588 187.867 29.3401 188.223 29.3401C188.58 29.3401 188.865 29.4588 189.102 29.6962C189.316 29.9336 189.435 30.2185 189.435 30.5509C189.435 30.9071 189.316 31.192 189.078 31.4294C188.841 31.6668 188.556 31.7855 188.2 31.7855C187.843 31.8092 187.558 31.6905 187.344 31.4531Z" fill="white"/>
<path d="M182.855 41.3536L186.085 40.95C185.705 39.6205 186.062 38.5046 187.131 37.5787C187.843 36.9614 188.651 36.724 189.577 36.7952C190.504 36.8664 191.287 37.3175 191.952 38.0772L194.732 41.3299C194.827 41.4486 194.827 41.5673 194.708 41.6623L187.986 47.4078C187.867 47.5028 187.748 47.5028 187.629 47.3603L186.941 46.5294C186.846 46.4107 186.846 46.3157 186.988 46.197L188.817 44.6538L186.798 42.3033L183.995 42.7069C183.805 42.7307 183.663 42.6832 183.544 42.5407L182.784 41.6385C182.713 41.5673 182.689 41.4961 182.713 41.4249C182.689 41.4011 182.76 41.3774 182.855 41.3536ZM192.784 41.3061L190.86 39.0507C190.456 38.5758 190.005 38.3384 189.53 38.2909C189.031 38.2672 188.58 38.4096 188.152 38.7658C187.724 39.1219 187.487 39.5492 187.439 40.0478C187.392 40.5464 187.582 41.0212 187.986 41.4961L189.91 43.7516L192.784 41.3061Z" fill="white"/>
<path d="M205.444 60.157C206.679 60.6793 207.629 61.6527 208.294 63.0298C208.698 63.9082 208.865 64.7392 208.746 65.5939C208.651 66.4249 208.199 67.0422 207.416 67.3983C206.798 67.6832 206.18 67.5882 205.563 67.1371L205.492 67.1846C205.587 68.253 205.135 69.0127 204.138 69.4638C203.259 69.8912 202.38 69.8437 201.549 69.3451C200.717 68.8465 200.028 68.0868 199.553 67.0184C198.841 65.5227 198.769 64.0032 199.34 62.4837C199.387 62.365 199.482 62.3175 199.625 62.3413L200.598 62.6499C200.741 62.6736 200.788 62.7686 200.741 62.9348C200.313 64.1456 200.337 65.309 200.883 66.4486C201.192 67.1134 201.596 67.612 202.071 67.9206C202.546 68.2293 203.021 68.2767 203.496 68.0631C204.351 67.6594 204.518 66.8997 203.995 65.8076L203.069 63.8607C202.997 63.7183 203.045 63.5996 203.188 63.5521L204.066 63.1485C204.209 63.0773 204.328 63.1247 204.375 63.2672L205.325 65.2853C205.492 65.6176 205.682 65.8551 205.919 66.0213C206.157 66.1874 206.442 66.1874 206.727 66.045C207.083 65.8788 207.273 65.5702 207.273 65.1428C207.297 64.6917 207.154 64.1931 206.893 63.6233C206.442 62.6499 205.729 61.9614 204.803 61.5578C204.636 61.4865 204.589 61.3916 204.684 61.2729L205.159 60.2757C205.23 60.1332 205.325 60.1095 205.444 60.157Z" fill="white"/>
<path d="M203.9 73.6663C204.47 72.5029 205.396 71.6957 206.703 71.2446C208.009 70.7935 209.244 70.8647 210.408 71.4583C211.572 72.0518 212.356 72.9777 212.807 74.2598C213.235 75.5419 213.187 76.7764 212.617 77.9398C212.047 79.1032 211.121 79.9104 209.814 80.3615C208.508 80.8126 207.273 80.7414 206.133 80.1478C204.969 79.5543 204.185 78.6283 203.757 77.3463C203.282 76.0642 203.354 74.8296 203.9 73.6663ZM211.263 77.2275C211.667 76.4441 211.715 75.6131 211.406 74.7109C211.097 73.8087 210.551 73.1914 209.767 72.8116C208.983 72.4317 208.128 72.4079 207.202 72.7166C206.275 73.0252 205.634 73.5713 205.23 74.331C204.826 75.1145 204.779 75.9455 205.088 76.8239C205.396 77.7261 205.943 78.3434 206.726 78.7233C207.51 79.1032 208.365 79.1269 209.292 78.8183C210.194 78.5571 210.86 78.011 211.263 77.2275Z" fill="white"/>
<path d="M212.499 89.9296L212.403 89.9533C212.332 90.4994 212.118 90.9505 211.81 91.3066C211.477 91.6627 211.097 91.8764 210.622 91.9951C209.838 92.1613 209.102 92.0188 208.437 91.544C207.772 91.0692 207.344 90.4044 207.154 89.5497L206.109 84.6826C206.085 84.6351 206.109 84.5639 206.156 84.5164C206.204 84.4689 206.251 84.4214 206.299 84.4214L214.945 82.5696C215.111 82.5458 215.206 82.5933 215.23 82.7357L216.204 87.3417C216.37 88.1489 216.275 88.8612 215.895 89.4547C215.515 90.0483 214.969 90.4281 214.28 90.5706C213.971 90.6418 213.662 90.6181 213.306 90.4994C212.95 90.3569 212.689 90.167 212.499 89.9296ZM210.527 85.0625L207.795 85.656L208.555 89.1936C208.651 89.6684 208.864 90.0245 209.173 90.2382C209.482 90.4756 209.862 90.5468 210.289 90.4519C211.192 90.2619 211.525 89.6447 211.287 88.6L210.527 85.0625ZM214.09 84.3027L211.952 84.7538L212.689 88.1489C212.76 88.4576 212.902 88.695 213.164 88.8612C213.401 89.0274 213.686 89.0748 213.995 89.0274C214.304 88.9561 214.541 88.7899 214.708 88.5525C214.874 88.3151 214.921 88.0065 214.826 87.6503L214.09 84.3027Z" fill="white"/>
<path d="M217.487 94.5592L217.606 95.6276C217.629 95.7938 217.558 95.865 217.392 95.8887L213.9 96.2449L214.399 101.254L217.891 100.898C218.057 100.875 218.128 100.97 218.152 101.136L218.247 102.18C218.271 102.347 218.2 102.418 218.033 102.442L209.245 103.32C209.078 103.344 209.007 103.272 208.983 103.106L208.888 102.062C208.865 101.895 208.936 101.8 209.102 101.777L212.974 101.397L212.475 96.3873L208.603 96.7672C208.437 96.7909 208.366 96.7197 208.342 96.5535L208.223 95.4851C208.199 95.3189 208.271 95.2477 208.437 95.224L217.226 94.3455C217.392 94.3218 217.487 94.393 217.487 94.5592Z" fill="white"/>
<path d="M218.389 106.525L218.413 107.593C218.413 107.76 218.342 107.831 218.176 107.831L209.339 108.021C209.173 108.021 209.102 107.95 209.102 107.783L209.078 106.715C209.078 106.549 209.149 106.478 209.316 106.478L218.152 106.288C218.294 106.288 218.389 106.359 218.389 106.525ZM219.529 107.047C219.529 106.715 219.648 106.43 219.886 106.169C220.123 105.908 220.408 105.789 220.741 105.789C221.073 105.789 221.358 105.908 221.62 106.145C221.881 106.383 222 106.668 222 107C222 107.309 221.881 107.593 221.644 107.855C221.406 108.116 221.121 108.234 220.788 108.234C220.456 108.234 220.171 108.116 219.91 107.878C219.672 107.641 219.529 107.38 219.529 107.047Z" fill="white"/>
<path d="M210.574 112.769L210.313 116.236L217.914 116.805C218.08 116.829 218.152 116.9 218.128 117.067L218.057 118.135C218.033 118.301 217.962 118.372 217.795 118.349L210.194 117.779L209.933 121.245L217.534 121.815C217.7 121.839 217.772 121.91 217.748 122.076L217.677 123.145C217.677 123.311 217.582 123.382 217.415 123.358L208.603 122.693C208.437 122.693 208.365 122.599 208.389 122.432L209.244 111.345C209.244 111.179 209.339 111.107 209.506 111.131L218.318 111.796C218.484 111.82 218.556 111.891 218.532 112.057L218.461 113.125C218.461 113.292 218.366 113.363 218.199 113.339L210.574 112.769Z" fill="white"/>
<path d="M216.941 127.727L216.727 128.771C216.703 128.938 216.608 128.985 216.442 128.961L212.998 128.249L211.976 133.164L215.421 133.876C215.587 133.9 215.634 134.018 215.611 134.185L215.397 135.229C215.373 135.395 215.278 135.443 215.112 135.419L206.442 133.639C206.276 133.615 206.228 133.52 206.252 133.354L206.466 132.309C206.489 132.143 206.584 132.072 206.751 132.095L210.551 132.879L211.573 127.964L207.772 127.181C207.606 127.157 207.558 127.062 207.582 126.896L207.796 125.851C207.82 125.685 207.915 125.638 208.081 125.661L216.751 127.442C216.917 127.489 216.964 127.584 216.941 127.727Z" fill="white"/>
<path d="M205.729 136.535L207.748 139.075C208.674 138.054 209.814 137.77 211.168 138.221C212.047 138.506 212.712 139.075 213.116 139.906C213.52 140.737 213.567 141.639 213.259 142.613L211.928 146.673C211.881 146.815 211.786 146.886 211.62 146.815L203.211 144.085C203.069 144.037 203.021 143.919 203.069 143.776L203.401 142.755C203.449 142.613 203.544 142.565 203.686 142.613L205.966 143.349L206.917 140.405L205.111 138.221C204.993 138.078 204.945 137.936 205.016 137.746L205.373 136.63C205.396 136.535 205.444 136.464 205.515 136.44C205.586 136.416 205.658 136.44 205.729 136.535ZM210.955 144.963L211.881 142.162C212.071 141.568 212.047 141.07 211.833 140.619C211.596 140.167 211.24 139.883 210.717 139.716C210.195 139.55 209.696 139.574 209.244 139.788C208.793 140.001 208.484 140.405 208.294 140.998L207.368 143.8L210.955 144.963Z" fill="white"/>
<path d="M196.608 151.564L197.107 150.614C197.178 150.471 197.297 150.448 197.439 150.519L207.819 155.956C207.962 156.027 207.985 156.146 207.914 156.288L207.51 157.072C207.439 157.214 207.32 157.238 207.178 157.19L206.513 156.953L206.465 157.048C206.774 157.998 206.608 159.042 206.038 160.158C205.396 161.369 204.494 162.152 203.282 162.509C202.071 162.865 200.86 162.746 199.577 162.081C198.318 161.416 197.51 160.49 197.13 159.28C196.75 158.093 196.893 156.882 197.534 155.671C198.104 154.579 198.888 153.866 199.886 153.534L196.703 151.872C196.584 151.825 196.536 151.706 196.608 151.564ZM204.874 156.169L201.501 154.389C200.313 154.579 199.434 155.244 198.84 156.359C198.413 157.167 198.342 157.998 198.603 158.805C198.864 159.612 199.458 160.253 200.337 160.704C201.216 161.179 202.071 161.298 202.902 161.06C203.734 160.823 204.351 160.301 204.779 159.493C205.325 158.354 205.373 157.262 204.874 156.169Z" fill="white"/>
<path d="M194.47 163.743C195.729 163.506 196.94 163.767 198.08 164.574C199.22 165.358 199.909 166.402 200.147 167.661C200.384 168.919 200.099 170.13 199.292 171.293C198.532 172.409 197.51 173.074 196.275 173.288C195.016 173.501 193.829 173.216 192.688 172.433L192.285 172.148C192.166 172.053 192.142 171.958 192.213 171.863L196.584 165.524C195.848 165.192 195.135 165.12 194.399 165.334C193.686 165.548 193.068 166.023 192.546 166.759C191.928 167.661 191.667 168.705 191.762 169.892C191.762 170.011 191.715 170.082 191.572 170.082L190.527 170.154C190.384 170.154 190.313 170.082 190.289 169.94C190.147 168.492 190.503 167.162 191.358 165.928C192.19 164.717 193.211 163.981 194.47 163.743ZM198.104 170.462C198.579 169.774 198.793 169.038 198.722 168.254C198.65 167.495 198.342 166.83 197.772 166.307L194.185 171.507C194.85 171.863 195.563 171.934 196.299 171.744C197.035 171.554 197.653 171.127 198.104 170.462Z" fill="white"/>
<path d="M194.043 178.178L193.33 178.986C193.235 179.104 193.117 179.104 192.998 179.009L189.91 176.326L190.147 182.381C190.171 182.547 190.1 182.713 189.957 182.879L188.936 184.043C188.888 184.114 188.817 184.114 188.77 184.09C188.698 184.066 188.675 184.019 188.675 183.924L188.532 178.368L181.905 178.345C181.834 178.345 181.763 178.321 181.739 178.25C181.715 178.178 181.715 178.107 181.786 178.036L182.689 177.015C182.831 176.849 182.998 176.778 183.188 176.778L188.508 176.849L188.58 175.163L186.323 173.193C186.204 173.098 186.204 172.979 186.299 172.86L187.012 172.053C187.107 171.934 187.226 171.934 187.345 172.029L194.019 177.822C194.138 177.941 194.138 178.06 194.043 178.178Z" fill="white"/>
<path d="M173.591 185.776L174.375 185.04C174.494 184.921 174.613 184.945 174.708 185.064L179.862 190.69L182.499 188.269L179.102 183.449C178.294 182.262 178.366 181.241 179.316 180.363C179.601 180.102 179.886 179.935 180.171 179.84C180.456 179.745 180.812 179.722 181.216 179.793C181.335 179.817 181.406 179.888 181.406 180.03V181.051C181.406 181.194 181.359 181.265 181.216 181.241C180.884 181.17 180.575 181.241 180.337 181.479C180.028 181.763 180.028 182.12 180.361 182.571L184.351 188.34C184.423 188.459 184.399 188.554 184.304 188.625L179.886 192.685C179.767 192.803 179.648 192.78 179.553 192.661L173.568 186.156C173.473 185.99 173.473 185.895 173.591 185.776Z" fill="white"/>
<path d="M166.465 192.732L166.536 192.685C166.726 191.379 167.391 190.31 168.555 189.48C169.41 188.862 170.242 188.601 171.049 188.672C171.857 188.744 172.522 189.123 173.021 189.812C173.496 190.453 173.638 191.165 173.496 191.925C173.33 192.685 172.926 193.373 172.285 193.99L169.577 196.531L169.743 196.768C170.028 197.172 170.408 197.362 170.907 197.338C171.382 197.314 171.904 197.124 172.427 196.745C173.377 196.056 174.042 195.178 174.375 194.109C174.422 193.943 174.517 193.896 174.66 193.967L175.586 194.252C175.729 194.275 175.8 194.37 175.752 194.537C175.349 195.89 174.517 197.029 173.258 197.932C172.403 198.549 171.524 198.858 170.622 198.834C169.719 198.81 168.983 198.407 168.413 197.623L166.536 195.011C166.085 194.394 165.562 193.872 164.992 193.516L164.541 193.207C164.422 193.136 164.399 193.041 164.47 192.922L165.016 192.139C165.111 191.996 165.206 191.972 165.325 192.044L166.465 192.732ZM167.605 193.848L168.769 195.462L171.311 192.946C171.667 192.613 171.881 192.234 171.976 191.854C172.071 191.45 172 191.118 171.786 190.809C171.501 190.405 171.121 190.216 170.669 190.216C170.218 190.239 169.767 190.405 169.315 190.738C168.793 191.118 168.365 191.593 168.08 192.139C167.771 192.685 167.605 193.254 167.605 193.848Z" fill="white"/>
<path d="M158.864 206.621L157.558 207.357C157.439 207.428 157.32 207.405 157.249 207.262L152.974 199.522C152.902 199.38 152.926 199.285 153.045 199.214L153.995 198.691C154.138 198.62 154.233 198.644 154.328 198.786L156.299 202.371L157.534 204.769L157.606 204.722L157.178 201.042L156.917 197.362C156.917 197.172 156.988 197.053 157.107 196.982L157.701 196.65C157.819 196.578 157.962 196.602 158.104 196.697L161.05 198.881L163.995 201.208L164.066 201.161L162.689 198.834L160.717 195.249C160.646 195.106 160.67 195.011 160.788 194.94L161.739 194.418C161.881 194.347 161.976 194.37 162.071 194.513L166.347 202.253C166.418 202.395 166.394 202.49 166.252 202.585L164.85 203.345C164.731 203.416 164.613 203.392 164.494 203.297L160.788 200.519L158.484 198.739L158.413 198.786L158.817 202.181L159.126 206.265C159.078 206.407 159.007 206.526 158.864 206.621Z" fill="white"/>
<path d="M144.47 204.152L144.541 204.128C145.04 202.917 145.966 202.039 147.273 201.517C148.247 201.137 149.125 201.065 149.886 201.35C150.669 201.635 151.192 202.158 151.525 202.941C151.81 203.677 151.81 204.413 151.453 205.102C151.121 205.79 150.551 206.36 149.767 206.811L146.536 208.615L146.655 208.877C146.845 209.328 147.178 209.613 147.653 209.708C148.128 209.803 148.674 209.731 149.268 209.494C150.361 209.043 151.216 208.354 151.81 207.405C151.905 207.262 152 207.238 152.142 207.333L152.973 207.856C153.116 207.927 153.14 208.022 153.068 208.164C152.332 209.375 151.263 210.277 149.838 210.847C148.864 211.227 147.938 211.322 147.059 211.085C146.18 210.847 145.563 210.277 145.206 209.375L144.019 206.384C143.734 205.671 143.353 205.054 142.902 204.556L142.546 204.152C142.451 204.057 142.451 203.962 142.546 203.843L143.258 203.202C143.377 203.084 143.496 203.084 143.591 203.202L144.47 204.152ZM145.301 205.505L146.038 207.357L149.125 205.529C149.553 205.292 149.838 204.983 150.028 204.627C150.218 204.271 150.242 203.915 150.099 203.558C149.909 203.084 149.601 202.822 149.149 202.704C148.698 202.609 148.223 202.656 147.7 202.87C147.106 203.107 146.584 203.463 146.156 203.938C145.753 204.413 145.467 204.935 145.301 205.505Z" fill="white"/>
<path d="M117.843 216.569L117.748 216.521C117.012 217.542 115.99 218.088 114.731 218.16C113.354 218.231 112.237 217.851 111.311 217.02C110.408 216.189 109.909 215.097 109.838 213.744C109.767 212.414 110.171 211.298 111.026 210.372C111.881 209.446 112.974 208.948 114.28 208.877C115.753 208.805 116.94 209.233 117.843 210.159C118.746 211.085 119.244 212.343 119.316 213.91C119.387 215.097 119.268 216.142 119.031 217.044C118.769 217.946 118.413 218.658 117.914 219.181C117.415 219.703 116.893 220.083 116.299 220.368C115.705 220.629 115.088 220.771 114.399 220.819C113.615 220.866 113.045 220.961 112.736 221.104C112.403 221.246 112.166 221.507 112 221.84C111.928 221.982 111.833 222.03 111.691 221.982L110.764 221.626C110.646 221.578 110.598 221.484 110.622 221.317C110.812 220.605 111.192 220.106 111.786 219.822C112.38 219.537 113.259 219.37 114.422 219.299C115.325 219.252 116.061 218.991 116.631 218.516C117.202 218.041 117.653 217.376 117.843 216.569ZM114.66 216.711C115.515 216.664 116.251 216.332 116.845 215.69C117.439 215.049 117.724 214.266 117.677 213.364C117.629 212.485 117.297 211.749 116.655 211.156C116.014 210.562 115.254 210.277 114.375 210.325C113.496 210.372 112.76 210.705 112.19 211.346C111.62 211.987 111.358 212.746 111.406 213.672C111.453 214.598 111.762 215.358 112.356 215.928C112.95 216.498 113.734 216.759 114.66 216.711Z" fill="white"/>
<path d="M105.823 206.265L106.892 206.336C107.059 206.336 107.13 206.431 107.106 206.598L106.322 218.279C106.322 218.445 106.227 218.516 106.061 218.492L105.206 218.421C105.063 218.421 104.968 218.326 104.968 218.16L104.921 217.471H104.802C104.042 218.136 103.044 218.421 101.785 218.326C100.432 218.231 99.3389 217.709 98.5075 216.783C97.6762 215.833 97.3199 214.646 97.4149 213.222C97.5099 211.797 98.0325 210.681 98.9826 209.85C99.9327 209.019 101.073 208.663 102.427 208.758C103.662 208.829 104.636 209.28 105.348 210.04L105.586 206.455C105.586 206.313 105.657 206.241 105.823 206.265ZM104.945 215.643L105.206 211.845C104.541 210.847 103.567 210.301 102.308 210.206C101.382 210.135 100.622 210.396 99.9802 210.966C99.3626 211.536 99.0063 212.319 98.9351 213.317C98.8638 214.314 99.1013 215.145 99.6477 215.786C100.194 216.451 100.93 216.807 101.857 216.854C103.139 216.973 104.161 216.569 104.945 215.643Z" fill="white"/>
<path d="M93.8281 209.233C94.5645 210.277 94.802 211.488 94.5407 212.865C94.2794 214.242 93.6143 215.287 92.5455 215.999C91.4766 216.711 90.2652 216.949 88.8875 216.688C87.5573 216.426 86.5359 215.785 85.8471 214.741C85.1345 213.696 84.9207 212.485 85.182 211.108L85.277 210.61C85.3008 210.467 85.3958 210.396 85.5145 210.42L93.068 211.844C93.068 211.037 92.8542 210.349 92.3554 209.779C91.8804 209.209 91.1915 208.829 90.3127 208.663C89.22 208.449 88.1749 208.639 87.1297 209.209C87.011 209.28 86.916 209.233 86.8685 209.114L86.3697 208.188C86.3221 208.069 86.3459 207.951 86.4647 207.903C87.7473 207.191 89.1013 206.977 90.5739 207.238C92.0229 207.523 93.0918 208.188 93.8281 209.233ZM89.1488 215.263C89.9801 215.429 90.7402 215.311 91.4053 214.931C92.0941 214.551 92.5455 214.005 92.8067 213.269L86.5834 212.105C86.5359 212.865 86.7497 213.53 87.2248 214.147C87.7236 214.741 88.3649 215.121 89.1488 215.263Z" fill="white"/>
<path d="M80.4315 214.67L79.4101 214.361C79.2675 214.313 79.1963 214.218 79.2438 214.052L80.2889 210.705L75.4908 209.209L74.4457 212.556C74.3982 212.699 74.3032 212.77 74.1369 212.699L73.1155 212.39C72.973 212.343 72.9017 212.248 72.9492 212.082L75.5858 203.653C75.6333 203.511 75.7283 203.44 75.8946 203.487L76.916 203.796C77.0823 203.843 77.1298 203.938 77.0823 204.104L75.9184 207.808L80.7165 209.304L81.8804 205.6C81.9279 205.458 82.0229 205.386 82.1892 205.434L83.2106 205.743C83.3531 205.79 83.4243 205.885 83.3768 206.051L80.7402 214.48C80.669 214.67 80.574 214.717 80.4315 214.67Z" fill="white"/>
<path d="M67.1058 210.064L61.4288 207.547C61.2863 207.476 61.2388 207.381 61.3101 207.239L64.4217 200.282L63.6616 199.95C63.5191 199.879 63.4954 199.784 63.5429 199.665L64.8255 196.768C64.8968 196.626 64.9918 196.578 65.1343 196.65L66.0369 197.053C66.1795 197.125 66.227 197.219 66.1557 197.362L65.4194 199.166L71.8327 202.015L72.6641 200.282C72.7353 200.116 72.8303 200.092 72.9966 200.14L73.8992 200.543C74.0417 200.615 74.0892 200.71 74.018 200.852L72.7353 203.749C72.6641 203.891 72.569 203.915 72.4503 203.867L71.9752 203.654C71.8089 203.582 71.6427 203.582 71.4526 203.677C71.2626 203.772 71.0964 203.915 70.9538 204.152L67.3671 209.993C67.3196 210.088 67.2246 210.111 67.1058 210.064ZM63.2341 206.74L66.6308 208.259L69.6712 203.274C69.7899 203.06 69.9325 202.894 70.0512 202.775L65.8232 200.899L63.2341 206.74Z" fill="white"/>
<path d="M51.0013 201.683L49.8374 200.994C49.6948 200.923 49.6948 200.828 49.8374 200.733L58.0559 194.489C59.3148 193.563 60.5025 193.421 61.5714 194.038C61.8089 194.18 61.9752 194.299 62.0702 194.418C62.1652 194.513 62.189 194.631 62.1177 194.75L61.6426 195.557C61.5951 195.629 61.5476 195.676 61.5001 195.676C61.4526 195.7 61.4051 195.676 61.3576 195.629C61.2151 195.51 61.0963 195.439 60.9776 195.367C60.3362 194.988 59.7186 195.035 59.1248 195.534L58.816 195.795L57.8184 205.529C57.7946 205.624 57.7471 205.648 57.6759 205.6L56.417 204.84C56.3457 204.793 56.322 204.746 56.322 204.674L57.2246 197.053L57.0821 196.958L51.2388 201.659C51.1675 201.73 51.0725 201.73 51.0013 201.683Z" fill="white"/>
<path d="M43.9704 191.593L44.0417 191.521C43.7566 191.046 43.6141 190.595 43.6141 190.121C43.6141 189.646 43.7804 189.218 44.0654 188.838C44.5642 188.197 45.2056 187.818 46.0132 187.746C46.8208 187.651 47.5809 187.889 48.2935 188.411L52.2602 191.403C52.3077 191.426 52.3315 191.498 52.3315 191.545C52.3315 191.616 52.3315 191.664 52.284 191.711L46.9633 198.763C46.8683 198.881 46.7495 198.905 46.6307 198.81L42.8778 195.985C42.2127 195.486 41.8326 194.893 41.7376 194.18C41.6426 193.492 41.7851 192.851 42.2127 192.281C42.4027 192.044 42.664 191.83 42.9965 191.711C43.3528 191.569 43.6854 191.521 43.9704 191.593ZM46.4645 196.887L47.7709 195.13L44.9918 193.041C44.7543 192.851 44.4692 192.78 44.1842 192.803C43.8991 192.827 43.6379 192.97 43.4716 193.231C43.2816 193.492 43.2103 193.753 43.2578 194.062C43.3053 194.37 43.4716 194.608 43.7566 194.821L46.4645 196.887ZM48.6498 193.967L50.3362 191.735L47.4621 189.574C47.0821 189.29 46.702 189.147 46.2982 189.171C45.9182 189.195 45.5856 189.385 45.3243 189.741C44.778 190.477 44.9205 191.165 45.7756 191.806L48.6498 193.967Z" fill="white"/>
<path d="M38.0558 181.17L38.127 181.217C39.4572 181.17 40.6211 181.621 41.6425 182.594C42.4026 183.307 42.8301 184.09 42.9014 184.897C42.9727 185.705 42.7351 186.417 42.1413 187.034C41.595 187.604 40.9299 187.889 40.146 187.889C39.3622 187.865 38.6258 187.604 37.8895 187.082L34.8966 184.897L34.7066 185.111C34.374 185.467 34.2553 185.871 34.374 186.346C34.4928 186.82 34.7778 187.271 35.2529 187.723C36.108 188.53 37.1056 189.005 38.222 189.147C38.3883 189.171 38.4596 189.242 38.4121 189.408L38.2933 190.382C38.2933 190.524 38.1983 190.595 38.0558 190.595C36.6543 190.453 35.3954 189.836 34.2553 188.791C33.4952 188.079 33.0439 187.271 32.8776 186.369C32.7113 185.467 32.9726 184.684 33.6615 183.971L35.8705 181.645C36.3931 181.075 36.7969 180.481 37.0581 179.864L37.2719 179.365C37.3194 179.247 37.4144 179.199 37.557 179.247L38.4358 179.627C38.5783 179.698 38.6258 179.793 38.5783 179.935L38.0558 181.17ZM37.1769 182.499L35.823 183.948L38.7684 185.966C39.1722 186.251 39.5522 186.393 39.956 186.417C40.3598 186.441 40.6924 186.322 40.9537 186.037C41.2862 185.681 41.4287 185.277 41.3337 184.826C41.2387 184.375 40.9774 183.971 40.5736 183.591C40.0985 183.14 39.5522 182.832 38.9584 182.642C38.3646 182.452 37.7707 182.404 37.1769 182.499Z" fill="white"/>
<path d="M28.4597 182.808L27.7709 181.977C27.6758 181.858 27.6758 181.74 27.7946 181.645L30.4787 179.389L27.2245 175.567L24.5404 177.822C24.4217 177.917 24.3029 177.917 24.1841 177.775L23.4953 176.967C23.4003 176.849 23.4003 176.73 23.519 176.635L30.2649 170.913C30.3837 170.818 30.5025 170.818 30.5975 170.937L31.2863 171.744C31.4051 171.863 31.3813 171.982 31.2626 172.1L28.2934 174.617L31.5476 178.439L34.5167 175.923C34.6355 175.828 34.7543 175.828 34.8493 175.947L35.5381 176.777C35.6331 176.896 35.6331 177.015 35.5144 177.11L28.7685 182.832C28.6735 182.95 28.5547 182.927 28.4597 182.808Z" fill="white"/>
<path d="M20.74 173.335L20.1461 172.433C20.0511 172.29 20.0749 172.195 20.2174 172.1L23.1153 170.153L20.3124 165.975L17.4145 167.922C17.272 168.017 17.177 167.993 17.082 167.85L16.4882 166.972C16.3931 166.83 16.4169 166.735 16.5594 166.64L23.8991 161.701C24.0416 161.606 24.1367 161.63 24.2317 161.773L24.8255 162.651C24.9205 162.793 24.8968 162.912 24.778 163.007L21.5476 165.168L24.3504 169.346L27.5809 167.186C27.7234 167.091 27.8184 167.114 27.9134 167.257L28.5072 168.159C28.6022 168.302 28.5785 168.396 28.436 168.491L21.0963 173.43C20.93 173.477 20.835 173.477 20.74 173.335Z" fill="white"/>
<path d="M22.3078 159.161L19.0774 158.829C19.1487 160.206 18.5549 161.227 17.2959 161.891C16.4646 162.319 15.6095 162.39 14.7306 162.105C13.8517 161.82 13.1867 161.227 12.7116 160.324L10.7401 156.526C10.6688 156.383 10.6926 156.288 10.8351 156.193L18.6736 152.11C18.8161 152.038 18.9349 152.086 19.0062 152.228L19.505 153.178C19.5762 153.32 19.5287 153.415 19.3862 153.487L17.2722 154.603L18.6974 157.357L21.524 157.594C21.714 157.594 21.8328 157.689 21.9278 157.855L22.4741 158.9C22.5216 158.995 22.5216 159.066 22.4979 159.113C22.4741 159.161 22.4029 159.185 22.3078 159.161ZM12.6166 157L13.9943 159.612C14.2793 160.158 14.6593 160.514 15.1344 160.657C15.6095 160.799 16.0845 160.752 16.5833 160.491C17.0822 160.229 17.391 159.873 17.5572 159.398C17.6997 158.924 17.6522 158.425 17.3672 157.879L15.9895 155.267L12.6166 157Z" fill="white"/>
<path d="M4.80177 141.402L2.85401 134.208C2.80651 134.066 2.87777 133.947 3.02028 133.923L11.5476 131.62C11.6902 131.573 11.8089 131.644 11.8327 131.787L12.1177 132.831C12.1652 132.997 12.094 133.092 11.9514 133.116L4.58799 135.11L5.8469 139.764L13.2104 137.77C13.3529 137.722 13.4716 137.793 13.4954 137.936L13.7804 138.98C13.8279 139.123 13.7567 139.242 13.6142 139.265L5.0868 141.568C4.94428 141.616 4.84927 141.544 4.80177 141.402Z" fill="white"/>
<path d="M9.83723 119.797L10.0035 120.865C10.0273 121.031 9.956 121.103 9.81348 121.126L2.25999 122.242L2.78256 125.804L8.67333 125.685C10.0985 125.685 10.9061 126.326 11.0961 127.584C11.1437 127.964 11.1436 128.297 11.0486 128.581C10.9536 128.866 10.7874 129.175 10.5023 129.484C10.4073 129.579 10.3123 129.579 10.2173 129.507L9.36217 128.938C9.2434 128.866 9.21965 128.771 9.31466 128.676C9.57594 128.439 9.67096 128.154 9.62345 127.822C9.55219 127.418 9.26716 127.204 8.69708 127.204L1.68992 127.276C1.57115 127.276 1.49989 127.204 1.47614 127.086L0.597275 121.15C0.573522 120.984 0.644781 120.913 0.787299 120.889L9.52844 119.607C9.74222 119.559 9.81348 119.631 9.83723 119.797Z" fill="white"/>
<path d="M8.31715 115.523C7.43828 116.473 6.29813 116.971 4.92045 116.995C3.54277 117.043 2.37887 116.592 1.4525 115.713C0.526131 114.811 0.0273161 113.695 0.00356296 112.342C-0.0439432 110.989 0.383613 109.825 1.28623 108.899C2.16509 107.95 3.30524 107.451 4.68292 107.427C6.0606 107.38 7.22451 107.831 8.15088 108.709C9.07725 109.611 9.57606 110.727 9.59981 112.081C9.59981 113.434 9.19601 114.574 8.31715 115.523ZM2.33137 109.944C1.71379 110.561 1.405 111.345 1.42875 112.294C1.4525 113.244 1.78505 114.004 2.45013 114.597C3.09147 115.191 3.89907 115.476 4.87295 115.428C5.84683 115.405 6.63068 115.072 7.24826 114.455C7.86584 113.838 8.15088 113.054 8.12712 112.104C8.10337 111.155 7.77083 110.395 7.12949 109.801C6.48816 109.208 5.68055 108.923 4.70668 108.97C3.7328 108.994 2.94895 109.327 2.33137 109.944Z" fill="white"/>
<path d="M10.5025 93.6096L9.3624 104.388C9.33865 104.555 9.26739 104.626 9.10112 104.602L0.31247 103.676C0.146198 103.652 0.0749389 103.581 0.098692 103.415L0.217457 102.37C0.241211 102.204 0.31247 102.133 0.478741 102.157L8.05598 102.964L8.41228 99.5214L0.835038 98.7141C0.668766 98.6904 0.597507 98.6192 0.62126 98.453L0.740026 97.4083C0.763779 97.2421 0.835038 97.1709 1.00131 97.1946L8.57855 98.0019L8.93484 94.5593L1.35761 93.7521C1.19133 93.7283 1.12008 93.6571 1.14383 93.4909L1.26259 92.4463C1.28635 92.2801 1.35761 92.2088 1.52388 92.2326L9.10112 93.0398L9.19613 92.2088C9.21988 92.0664 9.31489 91.9952 9.48116 92.0189L12.5928 92.4463C12.7353 92.47 12.8066 92.5412 12.7828 92.7074L12.6878 93.6096C12.6641 93.7758 12.5928 93.847 12.4265 93.8233L10.5025 93.6096Z" fill="white"/>
<path d="M2.21239 87.4128L2.47367 86.3682C2.52118 86.202 2.61619 86.1545 2.75871 86.202L6.74923 87.1754L9.38582 87.9351L9.43333 87.8639L7.69935 85.8458L3.92261 81.0975C3.8276 81.0025 3.80384 80.86 3.85135 80.6701L4.08888 79.6967C4.11263 79.5542 4.20765 79.5067 4.37392 79.5305L12.9725 81.6198C13.1388 81.6673 13.1863 81.7385 13.1626 81.8809L12.9013 82.9256C12.8538 83.0918 12.7588 83.163 12.6162 83.1155L8.60197 82.1421L5.91787 81.3586L5.87036 81.4298L7.74686 83.5904L11.4048 88.1963C11.4998 88.2913 11.5236 88.3862 11.4761 88.5049L11.2148 89.5733C11.1911 89.7158 11.096 89.7633 10.9298 89.7395L2.33115 87.6502C2.23614 87.6502 2.16488 87.5553 2.21239 87.4128Z" fill="white"/>
<path d="M5.41918 75.3046L5.79923 74.2837C5.84674 74.1412 5.9655 74.0937 6.10802 74.1412L9.4097 75.352L11.1437 70.6274L7.842 69.4166C7.69948 69.3691 7.65197 69.2504 7.69948 69.0842L8.05578 68.087C8.10328 67.9446 8.22205 67.8971 8.36457 67.9446L16.6544 70.9835C16.7969 71.031 16.8444 71.1497 16.7969 71.2922L16.4406 72.2893C16.3931 72.4555 16.2743 72.503 16.1318 72.4555L12.4976 71.126L10.7636 75.8506L14.3979 77.1802C14.5404 77.2277 14.5879 77.3464 14.5404 77.4888L14.1603 78.5097C14.1128 78.6522 13.9941 78.6997 13.8515 78.6522L5.5617 75.6132C5.41918 75.542 5.37168 75.447 5.41918 75.3046Z" fill="white"/>
<path d="M29.1248 41.4485L29.196 41.5197C29.6711 41.2348 30.1461 41.1161 30.6212 41.1398C31.0963 41.1636 31.5238 41.3298 31.9039 41.6384C32.5452 42.137 32.8777 42.8018 32.949 43.609C32.9965 44.4162 32.759 45.176 32.2127 45.8645L29.101 49.7344C29.0535 49.7819 29.006 49.8056 28.9347 49.8056C28.8635 49.8056 28.816 49.7819 28.7685 49.7582L21.8801 44.2263C21.7613 44.1313 21.7375 44.0126 21.8326 43.8939L24.7779 40.2376C25.3005 39.5966 25.9181 39.2167 26.6069 39.1455C27.3195 39.0743 27.9371 39.2405 28.4834 39.6916C28.7209 39.8815 28.911 40.1427 29.0297 40.4988C29.1485 40.8312 29.196 41.1398 29.1248 41.4485ZM23.7566 43.7514L25.4668 45.1285L27.6521 42.4219C27.8421 42.1845 27.9371 41.9233 27.9133 41.6147C27.8896 41.306 27.7471 41.0686 27.5095 40.8787C27.272 40.6887 26.987 40.5938 26.6782 40.6413C26.3694 40.6887 26.1081 40.8312 25.8943 41.1161L23.7566 43.7514ZM26.5832 46.0307L28.7447 47.7876L31.0012 44.986C31.31 44.6062 31.4526 44.2263 31.4288 43.8464C31.405 43.4665 31.2388 43.1342 30.9062 42.8493C30.1936 42.2794 29.5048 42.3982 28.8397 43.2529L26.5832 46.0307Z" fill="white"/>
<path d="M29.5527 34.6582L30.3128 33.8985C30.4316 33.7798 30.5503 33.7798 30.6453 33.8985L33.5432 36.8188L35.396 38.8606L35.4672 38.8131L35.0634 36.1777L34.3271 30.1473C34.3033 30.0048 34.3508 29.8861 34.4933 29.7437L35.2059 29.0314C35.3009 28.9364 35.4197 28.9364 35.5385 29.0551L41.7618 35.323C41.8805 35.4417 41.8806 35.5367 41.7855 35.6317L41.0254 36.3914C40.9067 36.5101 40.7879 36.5101 40.6691 36.3914L37.7713 33.4711L35.8948 31.4293L35.8235 31.4768L36.2986 34.3021L37.0112 40.1664C37.0349 40.2851 37.0112 40.4038 36.9162 40.475L36.1323 41.2348C36.0373 41.3297 35.9185 41.3297 35.7998 41.211L29.5764 34.9431C29.4577 34.8719 29.4339 34.7532 29.5527 34.6582Z" fill="white"/>
<path d="M46.2745 25.3041L46.3457 25.3753C46.8683 25.2091 47.3671 25.1853 47.8184 25.3278C48.2697 25.4702 48.6498 25.7077 48.9586 26.0875C49.4574 26.7286 49.6474 27.4408 49.5287 28.2481C49.4099 29.0553 49.0061 29.7201 48.2935 30.2661L44.398 33.3526C44.3505 33.3763 44.303 33.4001 44.2317 33.3763C44.1605 33.3763 44.1129 33.3288 44.0892 33.2813L38.6022 26.3487C38.5072 26.23 38.5072 26.1113 38.626 26.0163L42.3077 23.0961C42.949 22.5737 43.6379 22.3601 44.3267 22.4313C45.0393 22.5025 45.6094 22.8349 46.0369 23.381C46.227 23.6184 46.3457 23.927 46.3932 24.2831C46.4645 24.6868 46.417 25.0191 46.2745 25.3041ZM40.5262 26.3487L41.8802 28.0581L44.6118 25.8976C44.8493 25.7077 44.9918 25.4702 45.0393 25.1616C45.0868 24.8767 45.0156 24.5918 44.8255 24.3544C44.6355 24.0932 44.3742 23.9745 44.0654 23.927C43.7567 23.9033 43.4716 23.9982 43.2103 24.2119L40.5262 26.3487ZM42.8065 29.1977L44.5405 31.382L47.3671 29.1502C47.7472 28.8416 47.9609 28.5092 48.0322 28.1293C48.1035 27.7495 48.0085 27.3933 47.7472 27.0372C47.1771 26.325 46.4883 26.3012 45.6331 26.966L42.8065 29.1977Z" fill="white"/>
<path d="M47.9138 17.6828C47.6288 17.8728 47.32 17.9202 46.9874 17.849C46.6549 17.7778 46.3936 17.6116 46.2036 17.3267C46.0136 17.0418 45.9661 16.7569 46.0373 16.4008C46.1086 16.0684 46.2748 15.8072 46.5599 15.6173C46.8212 15.4511 47.13 15.3799 47.4625 15.4511C47.795 15.5223 48.0563 15.6885 48.2464 15.9734C48.4364 16.2583 48.4839 16.567 48.4126 16.8993C48.3414 17.2555 48.1751 17.5166 47.9138 17.6828ZM48.0801 18.9412L48.9827 18.3476C49.1252 18.2526 49.2202 18.2764 49.3152 18.4188L54.2321 25.7551C54.3271 25.8975 54.3034 25.9925 54.1609 26.0875L53.2583 26.681C53.1157 26.776 53.0207 26.7522 52.9257 26.6098L48.0088 19.2735C47.9376 19.1311 47.9376 19.0124 48.0801 18.9412Z" fill="white"/>
<path d="M56.2271 13.7654C56.9159 13.3856 57.6523 13.1719 58.4124 13.1244C59.1725 13.0769 59.9088 13.2431 60.6452 13.5992C60.7639 13.6705 60.8114 13.7417 60.7639 13.8604L60.3839 14.8101C60.3126 14.9288 60.2176 14.9763 60.0988 14.905C58.9825 14.4302 57.9611 14.454 56.9634 15.0238C56.1321 15.4749 55.6095 16.1396 55.3957 16.9943C55.182 17.849 55.3007 18.68 55.7758 19.511C56.2508 20.342 56.8922 20.888 57.7473 21.1492C58.6024 21.4103 59.4338 21.3154 60.2414 20.8405C61.2152 20.2945 61.8091 19.3923 61.9753 18.1814C61.9991 18.0627 62.0704 18.0152 62.2129 18.0152L63.2343 18.1814C63.353 18.2052 63.4243 18.2764 63.4005 18.4189C63.2105 20.057 62.4029 21.2679 60.9302 22.0989C59.7188 22.7636 58.5074 22.9298 57.2485 22.5974C56.0133 22.265 55.0394 21.4816 54.3506 20.2707C53.6855 19.0836 53.5192 17.849 53.8755 16.6145C54.2793 15.3799 55.0394 14.4302 56.2271 13.7654Z" fill="white"/>
<path d="M63.3292 10.2279L64.3269 9.80055C64.4694 9.72932 64.5882 9.77681 64.6357 9.91926L66.2271 13.6942L68.6737 8.13861C68.7449 7.97242 68.8637 7.85371 69.0537 7.78248L70.4789 7.18893C70.5502 7.16519 70.6214 7.16519 70.6689 7.21268C70.7164 7.26016 70.7165 7.33139 70.6927 7.40261L68.3649 12.4596L74.3032 15.3799C74.3744 15.4036 74.4219 15.4511 74.4219 15.5461C74.4219 15.6173 74.3744 15.6648 74.3032 15.7123L73.0443 16.2346C72.8542 16.3058 72.6642 16.3058 72.4742 16.2346L67.7236 13.8367L66.916 15.3324L68.0799 18.0865C68.1511 18.2289 68.1036 18.3476 67.9611 18.3951L66.9635 18.8225C66.8209 18.8937 66.7022 18.8462 66.6547 18.7038L63.2105 10.5603C63.1392 10.4178 63.1867 10.2991 63.3292 10.2279Z" fill="white"/>
<path d="M82.3083 11.8422L82.2371 11.866C81.6195 13.0293 80.6456 13.8365 79.2917 14.2402C78.2941 14.5488 77.4152 14.5251 76.6551 14.1927C75.9188 13.8603 75.42 13.2905 75.1587 12.4833C74.9211 11.7235 75.0161 11.0113 75.42 10.3465C75.8238 9.68171 76.4176 9.15939 77.2489 8.80326L80.6219 7.28377L80.5269 6.99887C80.3843 6.52403 80.0756 6.21539 79.6242 6.09668C79.1492 5.95423 78.6266 5.97797 77.9853 6.1679C76.8451 6.50029 75.9425 7.14132 75.2774 8.01977C75.1824 8.16223 75.0637 8.16223 74.9449 8.06726L74.161 7.47371C74.0185 7.40248 74.0185 7.28377 74.0898 7.14132C74.9211 6.00171 76.085 5.19448 77.5577 4.76713C78.5554 4.45848 79.4817 4.45848 80.3368 4.76713C81.192 5.07577 81.762 5.69306 82.0471 6.64274L82.9734 9.72919C83.1872 10.4652 83.5198 11.1062 83.9236 11.6523L84.2561 12.0796C84.3511 12.1746 84.3274 12.2933 84.2324 12.3645L83.4485 12.9344C83.3297 13.0293 83.211 13.0293 83.116 12.9106L82.3083 11.8422ZM81.5958 10.4177L81.0257 8.51836L77.7953 10.0616C77.3677 10.2753 77.0352 10.5364 76.8214 10.8688C76.6076 11.2012 76.5363 11.5573 76.6551 11.9135C76.7976 12.3883 77.0827 12.6969 77.534 12.8394C77.9853 12.9818 78.4603 12.9581 78.9829 12.7919C79.6005 12.602 80.1468 12.2933 80.6219 11.866C81.0732 11.4624 81.4057 10.9638 81.5958 10.4177Z" fill="white"/>
</svg>
