<svg width="198" height="198" viewBox="0 0 198 198" fill="none" xmlns="http://www.w3.org/2000/svg">
<path d="M50.1879 23.6183L49.5327 24.012C49.4017 24.012 49.4017 24.012 49.2706 24.012L45.6015 18.2386V18.1074C45.6015 18.1074 45.6015 17.9762 45.7326 17.9762L49.9258 15.3519C50.0569 15.3519 50.0569 15.3519 50.1879 15.3519L50.581 16.008C50.581 16.1392 50.581 16.1392 50.581 16.2704L47.174 18.3698L50.3189 23.3559C50.3189 23.4871 50.3189 23.4871 50.1879 23.6183Z" fill="#88CED9"/>
<path d="M56.8709 22.175L56.0847 22.5686C55.9537 22.5686 55.9537 22.5686 55.8226 22.4374L51.7604 14.4334C51.7604 14.3022 51.7604 14.3022 51.8915 14.171L52.5467 13.9086C52.6777 13.9086 52.6777 13.9086 52.8087 14.0398L53.0708 14.4334H53.2018C53.4639 13.6461 53.9881 13.1213 54.9054 12.7276C55.8226 12.2028 56.7399 12.2028 57.6572 12.4652C58.5744 12.7276 59.2296 13.3837 59.7538 14.3022C60.278 15.2207 60.409 16.2704 60.0159 17.1889C59.7538 18.1074 59.0986 18.7634 58.1813 19.2883C57.3951 19.6819 56.4778 19.8131 55.8226 19.5507L57.133 22.0437C57.002 22.0437 57.002 22.0438 56.8709 22.175ZM53.726 15.6143L55.0364 18.2386C55.8226 18.6322 56.7399 18.6322 57.5261 18.1074C58.1813 17.8449 58.5744 17.3201 58.7055 16.664C58.8365 16.008 58.8365 15.3519 58.4434 14.6958C58.0503 14.0398 57.6572 13.5149 57.002 13.3837C56.3468 13.1213 55.8226 13.2525 55.1674 13.5149C54.3812 14.0398 53.857 14.6958 53.726 15.6143Z" fill="#88CED9"/>
<path d="M66.6988 14.0397C66.3057 14.9582 65.5195 15.7455 64.6022 16.1391C63.816 16.4016 63.1608 16.5328 62.6366 16.2703C61.9814 16.0079 61.5883 15.6143 61.3262 15.0894C61.0641 14.5646 61.0641 13.9085 61.3262 13.3837C61.5883 12.8588 61.9814 12.4652 62.6366 12.0715L65.1263 10.6282L64.9953 10.497C64.8643 10.1034 64.6022 9.97214 64.2091 9.84093C63.816 9.70971 63.4228 9.84093 63.0297 9.97214C62.2435 10.3658 61.5883 10.8906 61.0641 11.5467C60.9331 11.6779 60.9331 11.6779 60.8021 11.5467L60.1469 11.1531C60.0158 11.1531 60.0158 11.0218 60.0158 10.8906C60.54 9.97214 61.3262 9.31608 62.5056 8.79122C63.2918 8.5288 63.947 8.39759 64.6022 8.66001C65.2574 8.92244 65.7815 9.31608 66.0436 9.97214L66.9609 12.2028C67.223 12.7276 67.485 13.2525 67.8782 13.6461L68.1402 13.9085C68.2713 14.0397 68.2713 14.0397 68.1402 14.1709L67.6161 14.6958C67.485 14.827 67.485 14.827 67.354 14.6958L66.6988 14.0397ZM66.0436 12.99L65.5195 11.5467L63.1608 12.99C62.8987 13.1212 62.6366 13.3837 62.5056 13.6461C62.3745 13.9085 62.3745 14.1709 62.5056 14.4334C62.6366 14.827 62.8987 14.9582 63.2918 15.0894C63.6849 15.2206 63.947 15.0894 64.3401 14.9582C64.8643 14.827 65.2574 14.4334 65.5195 14.1709C65.6505 13.9085 65.9126 13.3837 66.0436 12.99Z" fill="#88CED9"/>
<path d="M71.4162 3.80515L72.2024 3.54272C72.3335 3.54272 72.3335 3.54272 72.4645 3.67394L73.1197 6.03577C73.3818 5.51092 73.906 5.11728 74.5612 4.98606C75.4784 4.72364 76.3957 4.85485 77.0509 5.3797C77.7061 5.90455 78.3613 6.69183 78.6234 7.74153C78.8854 8.79123 78.8854 9.70972 78.4923 10.497C78.0992 11.2843 77.444 11.8091 76.5267 12.0716C75.8715 12.2028 75.3474 12.2028 74.8232 11.8091L75.4784 14.3022C75.4784 14.4334 75.4784 14.4334 75.3474 14.5646L74.5612 14.827C74.4301 14.827 74.4301 14.827 74.2991 14.6958L73.6439 12.2028C73.3818 12.7276 72.8576 13.1213 72.3335 13.2525C71.4162 13.5149 70.4989 13.3837 69.8437 12.8588C69.0575 12.334 68.5334 11.5467 68.2713 10.497C68.0092 9.4473 68.0092 8.52881 68.4023 7.74153C68.7954 6.95426 69.4506 6.4294 70.3679 6.16698C71.0231 6.03577 71.5473 6.03577 72.0714 6.29819L71.2852 3.93636C71.2852 3.93636 71.2852 3.80515 71.4162 3.80515ZM73.2508 10.8906L72.2024 7.34789C71.6783 7.08547 71.1541 7.08547 70.4989 7.21668C69.8437 7.34789 69.4506 7.74153 69.1885 8.26638C68.9265 8.79123 68.9265 9.4473 69.1885 10.2346C69.4506 11.0219 69.7127 11.5467 70.2369 11.8091C70.761 12.2028 71.4162 12.334 72.0714 12.2028C72.5956 11.9403 72.9887 11.5467 73.2508 10.8906ZM73.3818 7.08547L74.4301 10.6282C74.9543 11.0219 75.6095 11.1531 76.1336 11.0218C76.7888 10.8906 77.1819 10.497 77.444 9.97215C77.7061 9.4473 77.7061 8.79123 77.444 8.00396C77.1819 7.21668 76.9199 6.69183 76.3957 6.4294C75.8715 6.16698 75.3474 6.03577 74.6922 6.16698C74.168 6.16698 73.7749 6.56062 73.3818 7.08547Z" fill="#88CED9"/>
<path d="M79.9339 2.88666C79.6718 2.88666 79.4097 2.88666 79.2787 2.75545C79.0166 2.62424 78.8856 2.36181 78.8856 2.09938C78.8856 1.83696 78.8856 1.57453 79.0166 1.44332C79.1476 1.1809 79.4097 1.04968 79.6718 1.04968C79.9339 1.04968 80.1959 1.04968 80.327 1.1809C80.5891 1.31211 80.7201 1.57453 80.7201 1.83696C80.7201 2.09938 80.7201 2.36181 80.5891 2.49302C80.327 2.75545 80.1959 2.88666 79.9339 2.88666ZM79.6718 3.80515L80.458 3.67394C80.5891 3.67394 80.5891 3.67394 80.7201 3.80515L82.0305 10.497C82.0305 10.6282 82.0305 10.6282 81.8995 10.7594L81.1132 10.8906C80.9822 10.8906 80.9822 10.8906 80.8511 10.7594L79.5408 4.06758C79.5408 3.93636 79.5408 3.93636 79.6718 3.80515Z" fill="#88CED9"/>
<path d="M82.6856 3.28031L83.4718 3.14909C83.6029 3.14909 83.6029 3.14909 83.7339 3.28031L83.996 5.37971C84.127 5.90456 84.2581 6.2982 84.6512 6.56062C85.0443 6.82305 85.4374 6.95426 86.0926 6.82305C86.7478 6.69184 87.403 6.56062 87.9272 6.2982L87.403 2.75545C87.403 2.62424 87.403 2.62424 87.5341 2.49303L88.3203 2.36182C88.4513 2.36182 88.4513 2.36182 88.5824 2.49303L89.4996 9.18488C89.4996 9.31609 89.4996 9.31609 89.3686 9.4473L88.5824 9.57852C88.4513 9.57852 88.4513 9.57852 88.3203 9.4473L88.0582 7.3479C87.534 7.61033 87.0099 7.74154 86.2237 7.87275C85.3064 8.00396 84.5202 7.87275 83.996 7.47911C83.3408 7.08547 83.0787 6.42941 82.9477 5.51092L82.5546 3.41152C82.4235 3.28031 82.5546 3.28031 82.6856 3.28031Z" fill="#88CED9"/>
<path d="M90.8101 2.23057H91.5963C91.7274 2.23057 91.7274 2.23057 91.7274 2.36178L91.8584 4.98603L95.6585 4.72361L95.5275 2.09935C95.5275 1.96814 95.5275 1.96814 95.6585 1.96814H96.4448C96.5758 1.96814 96.5758 1.96814 96.5758 2.09935L96.9689 8.92241C96.9689 9.05363 96.9689 9.05363 96.8379 9.05363H96.0516C95.9206 9.05363 95.7896 9.05363 95.7896 8.92241L95.6585 5.90452L91.8584 6.16695L91.9894 9.18484C91.9894 9.31605 91.9894 9.31605 91.8584 9.31605H91.0722C90.9411 9.31605 90.9411 9.31605 90.9411 9.18484L90.548 2.36178C90.548 2.23057 90.679 2.23057 90.8101 2.23057Z" fill="#88CED9"/>
<path d="M99.1966 1.83691H99.9828C100.114 1.83691 100.114 1.96813 100.114 1.96813V5.24845L99.9828 7.34785L101.162 5.7733L104.176 2.23055C104.176 2.09934 104.307 2.09934 104.438 2.09934H105.224C105.355 2.09934 105.355 2.23055 105.355 2.23055L105.093 9.05361C105.093 9.18483 105.093 9.18483 104.962 9.18483H104.176C104.045 9.18483 104.045 9.05361 104.045 9.05361L104.176 5.90451L104.307 3.80511L102.997 5.51087L100.114 9.05361C100.114 9.18483 99.9828 9.18483 99.8517 9.18483H99.0655C98.9345 9.18483 98.9345 9.18483 98.9345 9.05361L99.1966 2.23055C98.9345 1.96813 99.0655 1.83691 99.1966 1.83691Z" fill="#88CED9"/>
<path d="M107.714 2.23062L108.5 2.36183C108.631 2.36183 108.631 2.49304 108.631 2.62425L108.238 5.77336L107.845 7.87276L109.287 6.42942L112.694 3.01789C112.825 2.88668 112.825 2.88668 112.956 2.88668L113.742 3.01789C113.873 3.01789 113.873 3.14911 113.873 3.28032L113.087 9.97217C113.087 10.1034 112.956 10.1034 112.956 10.1034L112.169 9.97217C112.038 9.97217 112.038 9.84096 112.038 9.70974L112.432 6.56064L112.694 4.59245L111.252 6.167L108.107 9.3161C108.107 9.44732 107.976 9.44732 107.845 9.44732L107.059 9.3161C106.928 9.3161 106.928 9.18489 106.928 9.05368L107.714 2.36183C107.583 2.23062 107.583 2.23062 107.714 2.23062ZM110.859 1.83698C109.942 1.70577 109.418 1.18091 109.156 0.393638C109.156 0.262425 109.156 0.262425 109.287 0.262425L109.942 0C109.942 0 110.073 0 110.073 0.131213C110.204 0.524851 110.466 0.787276 110.99 0.918489C111.383 0.918489 111.776 0.787276 112.038 0.393638C112.038 0.393638 112.169 0.262425 112.169 0.393638L112.825 0.787276C112.956 0.787276 112.956 0.918489 112.825 0.918489C112.432 1.70577 111.776 1.96819 110.859 1.83698Z" fill="#88CED9"/>
<path d="M121.08 4.46121L125.666 5.64213C125.798 5.64213 125.798 5.77334 125.798 5.90455L124.356 11.5467L125.011 11.6779C125.142 11.6779 125.142 11.8091 125.142 11.9403L124.487 14.171C124.487 14.3022 124.356 14.3022 124.225 14.3022L123.439 14.171C123.308 14.171 123.308 14.0397 123.308 13.9085L123.57 12.4652L118.328 11.1531L117.935 12.5964C117.935 12.7276 117.804 12.7276 117.673 12.7276L116.887 12.5964C116.756 12.5964 116.756 12.4652 116.756 12.334L117.411 9.97215C117.411 9.84093 117.542 9.84093 117.673 9.84093L118.066 9.97215C118.197 9.97215 118.328 9.97215 118.459 9.84093C118.59 9.70972 118.721 9.57851 118.721 9.44729L120.687 4.59242C120.949 4.46121 121.08 4.33 121.08 4.46121ZM124.487 6.4294L121.735 5.77334L120.032 9.97215C119.901 10.1034 119.901 10.2346 119.77 10.3658L123.177 11.2843L124.487 6.4294Z" fill="#88CED9"/>
<path d="M128.549 6.42944L129.336 6.69187C129.467 6.69187 129.467 6.82308 129.467 6.95429L128.418 9.97219L127.632 11.9404L129.336 10.7595L133.267 8.26642C133.398 8.26642 133.398 8.13521 133.66 8.26642L134.446 8.52885C134.577 8.52885 134.577 8.66006 134.577 8.79127L132.349 15.2207C132.349 15.3519 132.218 15.3519 132.087 15.3519L131.301 15.0895C131.17 15.0895 131.17 14.9583 131.17 14.8271L132.218 11.8092L133.005 9.84097L131.17 11.1531L127.37 13.6461C127.239 13.6461 127.239 13.7774 127.108 13.6461L126.191 13.1213C126.06 13.1213 126.06 12.9901 126.06 12.8589L128.287 6.56066C128.418 6.42944 128.418 6.42944 128.549 6.42944Z" fill="#88CED9"/>
<path d="M136.019 10.2346C137.067 9.97221 137.984 9.97221 139.163 10.4971C139.819 10.7595 140.343 11.2843 140.736 11.8092C141.129 12.334 141.129 12.8589 140.867 13.5149C140.605 14.0398 140.212 14.3022 139.688 14.3022C140.212 14.8271 140.343 15.6144 140.081 16.2704C139.819 16.9265 139.295 17.3201 138.508 17.4513C137.722 17.5825 136.936 17.4513 136.15 17.0577C134.97 16.5328 134.184 15.7456 133.791 14.5647C133.791 14.4334 133.791 14.4334 133.922 14.3022L134.577 14.0398C134.708 14.0398 134.708 14.0398 134.839 14.171C135.232 15.0895 135.756 15.7456 136.674 16.1392C137.198 16.4016 137.722 16.4016 138.115 16.4016C138.508 16.4016 138.901 16.1392 139.032 15.7456C139.295 15.0895 139.032 14.5647 138.246 14.171L136.805 13.5149C136.674 13.5149 136.674 13.3837 136.674 13.2525L136.936 12.5965C136.936 12.4652 137.067 12.4652 137.198 12.4652L138.77 13.1213C139.032 13.2525 139.295 13.2525 139.426 13.2525C139.688 13.2525 139.819 13.1213 139.95 12.8589C140.081 12.5965 140.081 12.334 139.819 12.0716C139.557 11.8092 139.295 11.5468 138.901 11.4155C138.115 11.0219 137.46 11.0219 136.674 11.2843C136.543 11.2843 136.412 11.2843 136.412 11.1531L136.15 10.3658C135.888 10.2346 135.888 10.2346 136.019 10.2346Z" fill="#88CED9"/>
<path d="M144.929 20.6004C143.881 20.8628 142.964 20.7316 142.046 20.2067C141.391 19.8131 140.867 19.2882 140.736 18.7634C140.474 18.1073 140.605 17.5825 140.867 17.0576C141.129 16.5328 141.653 16.1391 142.177 16.0079C142.702 15.8767 143.357 15.8767 144.012 16.1391L146.633 17.1888L146.764 17.0576C146.895 16.664 146.895 16.4016 146.764 16.0079C146.633 15.6143 146.24 15.3518 145.846 15.0894C145.06 14.6958 144.274 14.4334 143.357 14.5646C143.226 14.5646 143.226 14.5646 143.095 14.4334L142.964 13.6461C142.964 13.5149 142.964 13.5149 143.095 13.3837C144.143 13.2524 145.191 13.5149 146.24 14.0397C146.895 14.4334 147.419 14.9582 147.681 15.6143C147.943 16.2703 147.943 16.9264 147.55 17.5825L146.371 19.6819C146.109 20.2067 145.846 20.7316 145.846 21.2564L145.715 21.6501C145.715 21.7813 145.584 21.7813 145.584 21.7813L144.798 21.6501C144.667 21.6501 144.667 21.5188 144.667 21.5188L144.929 20.6004ZM145.322 19.4194L146.109 18.1073L143.488 17.1888C143.095 17.0576 142.833 17.0576 142.57 17.0576C142.308 17.0576 142.046 17.32 141.915 17.5825C141.784 17.9761 141.653 18.2385 141.915 18.501C142.177 18.7634 142.308 19.0258 142.702 19.2882C143.095 19.5507 143.619 19.6819 144.143 19.6819C144.667 19.6819 144.929 19.5507 145.322 19.4194Z" fill="#88CED9"/>
<path d="M150.957 16.9265L151.612 17.4514C151.743 17.5826 151.743 17.5826 151.612 17.7138L149.778 20.3381L148.467 22.0438L150.433 21.3878L154.888 19.9444C155.019 19.9444 155.15 19.9444 155.15 19.9444L155.805 20.3381C155.936 20.3381 155.936 20.4693 155.805 20.6005L152.005 26.2426C151.874 26.3738 151.874 26.3738 151.743 26.2426L151.088 25.7178C150.957 25.5866 150.957 25.5866 151.088 25.4554L152.923 22.8311L154.233 21.1253L152.136 21.9126L147.812 23.2247C147.681 23.2247 147.681 23.2247 147.55 23.2247L146.895 22.6999C146.764 22.6999 146.764 22.5687 146.895 22.4375L150.695 17.0577C150.826 16.9265 150.826 16.9265 150.957 16.9265ZM153.971 18.1074C153.185 17.5826 152.923 16.9265 153.054 16.008C153.054 15.8768 153.185 15.8768 153.185 15.8768L153.971 16.008C154.102 16.008 154.102 16.1393 154.102 16.1393C153.971 16.5329 154.233 16.9265 154.626 17.189C155.019 17.4514 155.412 17.4514 155.805 17.189C155.936 17.189 155.936 17.189 155.936 17.189L156.33 17.845C156.33 17.9762 156.33 17.9762 156.33 17.9762C155.412 18.6323 154.626 18.6323 153.971 18.1074Z" fill="#88CED9"/>
<path d="M158.033 21.9125L158.688 22.4373C158.819 22.5685 158.819 22.5685 158.688 22.6997L156.985 24.7992L159.999 27.2922L161.702 25.1928C161.833 25.0616 161.833 25.0616 161.964 25.1928L162.619 25.7176C162.75 25.8489 162.75 25.8489 162.619 25.9801L158.295 31.2286C158.164 31.3598 158.164 31.3598 158.033 31.2286L157.378 30.7037C157.247 30.5725 157.247 30.5725 157.378 30.4413L159.212 28.0795L156.198 25.5864L154.364 27.9483C154.233 28.0795 154.233 28.0795 154.102 27.9483L153.447 27.4234C153.316 27.2922 153.316 27.2922 153.447 27.161L157.771 21.9125C157.771 21.9125 157.902 21.9125 158.033 21.9125Z" fill="#88CED9"/>
<path d="M170.482 44.6124L169.958 43.9563C169.827 43.8251 169.827 43.8251 169.958 43.6939L174.544 40.0199L172.84 37.9205L169.04 40.2823C168.123 40.8072 167.337 40.8072 166.682 40.0199C166.551 39.7575 166.42 39.6263 166.289 39.3639C166.289 39.1014 166.289 38.839 166.289 38.5766C166.289 38.4454 166.42 38.4454 166.42 38.4454H167.206C167.337 38.4454 167.337 38.4454 167.337 38.5766C167.206 38.839 167.337 39.1014 167.468 39.2326C167.73 39.4951 167.992 39.4951 168.254 39.2326L172.84 36.4772C172.972 36.4772 172.972 36.4772 173.103 36.4772L175.985 40.0199C176.116 40.1511 176.116 40.1511 175.985 40.2823L170.744 44.6124C170.744 44.7436 170.613 44.7436 170.482 44.6124Z" fill="#88CED9"/>
<path d="M172.709 46.1869C172.84 45.2684 173.365 44.4811 174.282 43.8251C175.199 43.3002 176.116 43.0378 177.034 43.3002C177.951 43.5626 178.737 44.0875 179.392 44.8748C180.048 45.662 180.179 46.7117 179.917 47.6302C179.654 48.5487 179.261 49.336 178.344 49.9921C177.427 50.5169 176.51 50.7793 175.592 50.5169C174.675 50.2545 173.889 49.7296 173.234 48.9424C172.578 48.1551 172.578 47.1054 172.709 46.1869ZM178.868 47.3678C178.999 46.7117 178.868 46.0557 178.475 45.5308C178.082 45.006 177.558 44.6123 176.903 44.4811C176.247 44.3499 175.592 44.4811 174.937 44.8748C174.282 45.2684 173.889 45.7933 173.758 46.4493C173.627 47.1054 173.758 47.7614 174.151 48.2863C174.544 48.8111 175.068 49.2048 175.723 49.336C176.378 49.4672 177.034 49.336 177.689 48.9424C178.344 48.5487 178.737 48.0239 178.868 47.3678Z" fill="#88CED9"/>
<path d="M176.641 53.9284L176.248 53.1411C176.248 53.0099 176.248 53.0099 176.248 52.8787L182.144 49.5984H182.275C182.275 49.5984 182.406 49.5984 182.406 49.7296L184.896 54.1908C184.896 54.322 184.896 54.3221 184.765 54.4533L184.11 54.8469C183.979 54.8469 183.979 54.8469 183.848 54.7157L181.882 51.1729L176.772 54.0596C176.772 54.0596 176.641 54.0596 176.641 53.9284Z" fill="#88CED9"/>
<path d="M180.31 58.7833C180.703 57.8648 181.358 57.2088 182.275 56.6839C183.193 56.159 184.241 56.159 185.158 56.5527C186.075 56.9463 186.731 57.6024 187.255 58.5209C187.779 59.4394 187.779 60.3579 187.386 61.4076C186.993 62.326 186.338 62.9821 185.42 63.507C184.503 64.0318 183.455 64.0318 182.537 63.6382C181.62 63.2445 180.965 62.5885 180.441 61.67C180.048 60.6203 179.917 59.7018 180.31 58.7833ZM186.207 61.0139C186.469 60.3579 186.469 59.7018 186.075 59.0457C185.813 58.3897 185.289 57.996 184.634 57.7336C183.979 57.4712 183.324 57.6024 182.668 57.8648C182.013 58.1272 181.489 58.6521 181.227 59.3082C180.965 59.9642 180.965 60.6203 181.358 61.2763C181.62 61.9324 182.144 62.326 182.799 62.5885C183.455 62.8509 184.11 62.7197 184.765 62.4573C185.42 62.0636 185.944 61.5388 186.207 61.0139Z" fill="#88CED9"/>
<path d="M188.958 62.982L191.055 68.6242C191.055 68.7554 191.055 68.7554 190.924 68.8866L190.269 69.149C190.138 69.149 190.138 69.149 190.007 69.0178L189.22 66.7872L183.717 68.7554C183.586 68.7554 183.586 68.7554 183.455 68.6242L183.193 67.8369C183.193 67.7057 183.193 67.7057 183.324 67.5745L188.827 65.6063L188.041 63.3757C188.041 63.2445 188.041 63.2445 188.172 63.1133L188.827 62.8508C188.827 62.8508 188.958 62.8508 188.958 62.982Z" fill="#88CED9"/>
<path d="M191.579 70.5924L191.841 71.3797C191.841 71.5109 191.841 71.5109 191.71 71.6421L188.696 72.4294L186.6 72.823V72.9543L188.565 73.7415L192.889 75.5785C193.02 75.5785 193.02 75.7097 193.151 75.8409L193.414 76.6282C193.414 76.7594 193.414 76.7594 193.283 76.8906L186.731 78.5964C186.6 78.5964 186.6 78.5964 186.469 78.4652L186.206 77.6779C186.206 77.5467 186.206 77.4155 186.337 77.4155L189.351 76.6282L191.317 76.1034V75.9722L189.22 75.1849L185.027 73.4791C184.896 73.4791 184.896 73.3479 184.896 73.3479L184.634 72.5606C184.634 72.4294 184.634 72.4294 184.765 72.2982L191.317 70.5924C191.448 70.4612 191.579 70.4612 191.579 70.5924Z" fill="#88CED9"/>
<path d="M193.676 78.99L194.724 84.6322C194.724 84.7634 194.724 84.7634 194.593 84.8946L187.91 86.0755C187.779 86.0755 187.779 86.0755 187.648 85.9443L187.517 85.157C187.517 85.0258 187.517 85.0258 187.648 84.8946L193.414 83.8449L192.758 80.1709L186.993 81.2206C186.862 81.2206 186.862 81.2206 186.731 81.0894L186.6 80.3021C186.6 80.1709 186.6 80.1709 186.731 80.0397L193.414 78.8588C193.545 78.7276 193.676 78.8588 193.676 78.99Z" fill="#88CED9"/>
<path d="M194.331 101.952C194.986 102.608 195.379 103.527 195.248 104.445C195.248 105.495 194.855 106.282 194.069 106.938C193.414 107.594 192.496 107.857 191.448 107.726C190.4 107.726 189.613 107.332 188.958 106.545C188.303 105.757 188.041 104.97 188.041 103.92C188.172 102.739 188.565 101.952 189.351 101.296C190.138 100.64 191.186 100.378 192.365 100.509C193.283 100.509 194.069 100.771 194.724 101.034C195.379 101.296 195.903 101.69 196.296 102.083C196.69 102.477 196.952 103.002 197.083 103.396C197.214 103.789 197.345 104.314 197.214 104.839C197.214 105.495 197.214 105.889 197.345 106.151C197.476 106.413 197.607 106.676 197.869 106.807C198 106.807 198 106.938 198 107.07L197.607 107.726C197.607 107.857 197.476 107.857 197.345 107.857C196.821 107.594 196.428 107.332 196.296 106.807C196.165 106.282 196.034 105.626 196.165 104.708C196.165 104.052 196.034 103.396 195.772 103.002C195.51 102.477 194.986 102.215 194.331 101.952ZM194.2 104.445C194.2 103.789 194.069 103.133 193.545 102.74C193.152 102.215 192.496 101.952 191.841 101.952C191.186 101.952 190.531 102.083 190.138 102.608C189.745 103.133 189.351 103.658 189.351 104.314C189.351 104.97 189.482 105.626 190.007 106.02C190.4 106.545 191.055 106.807 191.71 106.807C192.365 106.807 193.021 106.676 193.545 106.282C194.069 105.889 194.2 105.101 194.2 104.445Z" fill="#88CED9"/>
<path d="M185.682 109.563L185.813 108.775C185.813 108.644 185.944 108.644 186.076 108.644L194.986 109.956C195.117 109.956 195.117 110.088 195.117 110.219L194.986 110.875C194.986 111.006 194.855 111.006 194.724 111.006H194.2V111.137C194.593 111.793 194.855 112.581 194.724 113.499C194.593 114.549 194.069 115.336 193.283 115.861C192.496 116.386 191.579 116.648 190.531 116.517C189.483 116.386 188.565 115.861 188.041 115.074C187.517 114.286 187.255 113.368 187.386 112.318C187.517 111.4 187.91 110.612 188.565 110.219L185.813 109.825C185.682 109.694 185.682 109.563 185.682 109.563ZM192.759 110.744L189.876 110.35C189.089 110.744 188.565 111.531 188.434 112.449C188.303 113.105 188.434 113.761 188.827 114.286C189.22 114.811 189.745 115.074 190.531 115.205C191.317 115.336 191.972 115.205 192.496 114.811C193.021 114.418 193.414 113.893 193.414 113.237C193.676 112.187 193.414 111.4 192.759 110.744Z" fill="#88CED9"/>
<path d="M187.386 118.092C188.172 117.567 189.22 117.435 190.138 117.698C191.186 117.96 191.972 118.485 192.496 119.404C193.02 120.322 193.152 121.241 192.889 122.29C192.627 123.34 192.103 123.996 191.317 124.521C190.531 125.046 189.482 125.177 188.565 124.915L188.172 124.783C188.041 124.783 188.041 124.652 188.041 124.652L189.482 118.879C188.827 118.879 188.303 119.01 187.91 119.272C187.517 119.535 187.124 120.06 186.993 120.847C186.731 121.634 186.862 122.553 187.255 123.34C187.255 123.471 187.255 123.471 187.124 123.471L186.337 123.865C186.206 123.865 186.206 123.865 186.075 123.734C185.551 122.684 185.42 121.634 185.813 120.585C185.944 119.404 186.469 118.616 187.386 118.092ZM191.71 121.897C191.841 121.241 191.841 120.716 191.579 120.191C191.317 119.666 190.924 119.272 190.4 119.01L189.22 123.734C189.744 123.865 190.269 123.734 190.793 123.34C191.317 122.946 191.579 122.553 191.71 121.897Z" fill="#88CED9"/>
<path d="M191.186 127.67L190.924 128.457C190.924 128.588 190.793 128.588 190.662 128.588L188.172 127.67L186.862 131.344L189.351 132.262C189.483 132.262 189.483 132.394 189.483 132.525L189.22 133.312C189.22 133.443 189.089 133.443 188.958 133.443L182.537 131.213C182.406 131.213 182.406 131.082 182.406 130.95L182.668 130.163C182.668 130.032 182.8 130.032 182.931 130.032L185.682 130.95L186.993 127.276L184.241 126.358C184.11 126.358 184.11 126.227 184.11 126.095L184.372 125.308C184.372 125.177 184.503 125.177 184.634 125.177L191.055 127.408C191.186 127.408 191.317 127.539 191.186 127.67Z" fill="#88CED9"/>
<path d="M187.779 136.855L185.813 141.185C185.813 141.316 185.682 141.316 185.551 141.316L180.179 138.954L179.917 139.479C179.917 139.61 179.786 139.61 179.654 139.61L177.427 138.561C177.296 138.561 177.296 138.429 177.296 138.298L177.558 137.642C177.558 137.511 177.689 137.511 177.82 137.511L179.261 138.036L181.489 133.181L180.179 132.525C180.048 132.525 180.048 132.394 180.048 132.262L180.31 131.606C180.31 131.475 180.441 131.475 180.572 131.475L182.799 132.525C182.93 132.525 182.93 132.656 182.93 132.787L182.799 133.181C182.799 133.312 182.799 133.443 182.799 133.575C182.93 133.706 182.93 133.837 183.193 133.968L187.648 136.724C187.779 136.724 187.779 136.724 187.779 136.855ZM185.289 139.873L186.469 137.248L182.668 134.887C182.537 134.755 182.406 134.624 182.275 134.624L180.834 137.905L185.289 139.873Z" fill="#88CED9"/>
<path d="M181.882 148.402L181.358 149.32C181.358 149.451 181.227 149.451 181.096 149.32L176.247 143.153C175.461 142.235 175.33 141.316 175.854 140.398C175.985 140.266 176.116 140.135 176.116 140.004C176.247 139.873 176.248 139.873 176.379 140.004L177.034 140.398C177.034 140.398 177.165 140.398 177.165 140.529V140.66C177.034 140.791 177.034 140.922 176.903 140.922C176.641 141.447 176.641 141.841 177.034 142.366L177.296 142.628L184.765 143.284C184.896 143.284 184.896 143.284 184.765 143.416L184.241 144.334L184.11 144.465L178.213 143.809V143.94L181.882 148.402C181.882 148.27 181.882 148.27 181.882 148.402Z" fill="#88CED9"/>
<path d="M174.806 153.256C174.413 153.388 174.02 153.519 173.627 153.65C173.234 153.65 172.971 153.519 172.578 153.388C172.054 152.994 171.792 152.6 171.661 151.944C171.53 151.288 171.661 150.763 172.054 150.239L174.151 147.089C174.151 147.089 174.151 147.089 174.282 147.089H174.413L180.048 150.895C180.179 151.026 180.179 151.026 180.048 151.157L177.951 154.175C177.558 154.7 177.165 154.962 176.641 155.093C176.116 155.225 175.592 155.093 175.199 154.831C175.068 154.7 174.806 154.437 174.675 154.306C174.806 153.65 174.806 153.519 174.806 153.256ZM176.51 149.583L174.806 148.402L173.234 150.632C172.971 150.895 172.972 151.288 172.972 151.551C172.972 151.813 173.103 152.076 173.496 152.338C174.02 152.732 174.544 152.6 175.068 151.944L176.51 149.583ZM178.868 151.157L177.427 150.239L175.854 152.469C175.723 152.6 175.723 152.863 175.723 153.125C175.723 153.388 175.854 153.519 176.116 153.65C176.379 153.781 176.51 153.781 176.772 153.781C177.034 153.781 177.165 153.65 177.296 153.388L178.868 151.157Z" fill="#88CED9"/>
<path d="M167.73 157.586C167.599 156.537 167.992 155.618 168.647 154.831C169.171 154.175 169.695 153.912 170.351 153.781C171.006 153.65 171.53 153.781 172.054 154.306C172.578 154.7 172.84 155.225 172.84 155.749C172.84 156.406 172.709 156.93 172.316 157.455L170.875 159.817L171.006 159.948C171.268 160.211 171.661 160.211 171.923 160.079C172.316 159.948 172.578 159.686 172.971 159.292C173.496 158.636 173.889 157.849 173.889 156.93C173.889 156.799 174.02 156.799 174.02 156.799H174.806C174.937 156.799 174.937 156.799 174.937 156.93C174.937 157.98 174.544 159.03 173.758 159.948C173.234 160.604 172.709 160.998 171.923 161.129C171.268 161.26 170.613 161.129 170.089 160.604L168.123 159.03C167.599 158.636 167.206 158.374 166.682 158.243L166.288 158.111C166.157 158.111 166.157 157.98 166.157 157.849L166.42 157.193C166.42 157.062 166.551 157.062 166.682 157.062L167.73 157.586ZM168.778 158.111L169.958 159.03L171.399 156.668C171.53 156.406 171.661 156.012 171.661 155.749C171.661 155.487 171.53 155.225 171.268 154.962C171.006 154.7 170.613 154.7 170.351 154.7C169.958 154.831 169.695 154.962 169.433 155.356C169.171 155.749 168.909 156.143 168.778 156.668C168.647 157.193 168.647 157.718 168.778 158.111Z" fill="#88CED9"/>
<path d="M170.089 164.147L169.565 164.803C169.433 164.934 169.434 164.934 169.302 164.803L167.337 162.966L164.585 165.722L166.551 167.559C166.682 167.69 166.682 167.69 166.551 167.821L166.026 168.346C165.895 168.477 165.895 168.477 165.764 168.346L160.916 163.622C160.785 163.491 160.785 163.491 160.916 163.36L161.44 162.835C161.571 162.704 161.571 162.704 161.702 162.835L163.799 164.934L166.551 162.179L164.454 160.08C164.323 159.948 164.323 159.948 164.454 159.817L164.978 159.161C165.109 159.03 165.109 159.03 165.24 159.161L170.089 163.885C170.22 163.885 170.22 164.016 170.089 164.147Z" fill="#88CED9"/>
<path d="M164.192 170.052L163.537 170.577C163.406 170.708 163.406 170.708 163.275 170.577L161.571 168.477L158.688 170.97L160.392 173.07C160.523 173.201 160.523 173.201 160.392 173.332L159.737 173.857C159.606 173.988 159.606 173.988 159.475 173.857L155.019 168.74C154.888 168.608 154.888 168.608 155.019 168.477L155.674 167.952C155.805 167.821 155.805 167.821 155.936 167.952L157.902 170.183L160.785 167.69L158.819 165.459C158.688 165.328 158.688 165.328 158.819 165.197L159.475 164.672C159.606 164.541 159.606 164.541 159.737 164.672L164.192 169.789C164.323 169.921 164.323 169.921 164.192 170.052Z" fill="#88CED9"/>
<path d="M153.971 169.658L154.102 172.151C155.15 171.889 155.937 172.282 156.592 173.201C156.985 173.726 157.116 174.382 156.985 175.169C156.854 175.825 156.461 176.481 155.805 176.875L153.185 178.843C153.054 178.974 153.054 178.843 152.923 178.843L148.991 173.332C148.86 173.201 148.991 173.201 148.991 173.07L149.647 172.545C149.778 172.414 149.778 172.545 149.909 172.545L150.957 173.988L152.923 172.545L152.792 170.314C152.792 170.183 152.792 170.052 152.923 169.92L153.709 169.396H153.84C153.84 169.396 153.971 169.527 153.971 169.658ZM153.316 177.268L155.15 175.956C155.543 175.694 155.805 175.3 155.805 175.038C155.805 174.644 155.805 174.251 155.543 173.988C155.281 173.594 155.019 173.463 154.626 173.332C154.233 173.201 153.84 173.332 153.447 173.594L151.612 174.907L153.316 177.268Z" fill="#88CED9"/>
<path d="M132.349 189.471C131.825 189.734 131.17 189.734 130.646 189.734C130.122 189.602 129.467 189.471 129.073 189.078C128.942 189.078 128.942 188.946 129.073 188.815L129.467 188.159C129.467 188.028 129.598 188.028 129.729 188.159C130.515 188.684 131.301 188.815 132.087 188.421C132.742 188.159 133.267 187.765 133.529 187.109C133.791 186.453 133.791 185.797 133.529 185.141C133.267 184.485 132.874 183.96 132.218 183.698C131.563 183.435 130.908 183.435 130.253 183.567C129.467 183.829 128.942 184.485 128.68 185.404C128.68 185.535 128.549 185.535 128.418 185.535L127.632 185.272C127.501 185.272 127.501 185.141 127.501 185.01C127.894 183.829 128.549 182.911 129.86 182.517C130.908 182.123 131.825 182.123 132.742 182.517C133.66 182.911 134.315 183.567 134.708 184.616C135.101 185.666 135.101 186.584 134.577 187.503C134.053 188.421 133.398 189.078 132.349 189.471Z" fill="#88CED9"/>
<path d="M128.025 190.914L122.259 192.489C122.128 192.489 122.128 192.489 121.997 192.358L121.735 191.702C121.735 191.571 121.735 191.571 121.866 191.439L124.225 190.783L122.653 185.141C122.653 185.01 122.653 185.01 122.784 184.879L123.57 184.616C123.701 184.616 123.701 184.616 123.832 184.747L125.404 190.39L127.763 189.734C127.894 189.734 127.894 189.734 128.025 189.865L128.287 190.521C128.287 190.783 128.156 190.783 128.025 190.914Z" fill="#88CED9"/>
<path d="M120.294 193.014L119.508 193.145C119.377 193.145 119.377 193.145 119.245 193.014L118.59 189.865L118.328 187.765H118.197L117.28 189.602L115.183 193.801C115.183 193.932 115.052 193.932 114.921 193.932L114.135 194.064C114.004 194.064 114.004 194.064 113.873 193.932L112.563 187.241C112.563 187.109 112.562 187.109 112.694 186.978L113.48 186.847C113.611 186.847 113.742 186.847 113.742 186.978L114.397 190.127L114.659 192.227H114.79L115.707 190.258L117.804 186.191C117.804 186.06 117.935 186.06 117.935 186.06L118.721 185.928C118.852 185.928 118.852 185.928 118.983 186.06L120.294 192.751C120.556 192.883 120.425 192.883 120.294 193.014Z" fill="#88CED9"/>
<path d="M104.569 188.028L105.355 187.897C105.486 187.897 105.486 187.897 105.617 188.028L106.142 193.801L108.893 193.539L109.024 189.078C109.024 188.028 109.549 187.372 110.597 187.241C110.859 187.241 111.121 187.241 111.383 187.372C111.645 187.503 111.776 187.634 112.038 187.765C112.169 187.897 112.169 187.897 112.038 188.028L111.514 188.684C111.514 188.815 111.383 188.815 111.252 188.684C111.121 188.421 110.859 188.421 110.597 188.421C110.335 188.421 110.073 188.684 110.073 189.078L109.811 194.457C109.811 194.588 109.811 194.588 109.68 194.588L105.093 194.982C104.962 194.982 104.962 194.982 104.831 194.851L104.176 188.159C104.307 188.028 104.438 188.028 104.569 188.028Z" fill="#88CED9"/>
<path d="M102.473 196.032C102.735 196.032 102.997 196.163 103.128 196.294C103.259 196.425 103.39 196.688 103.39 196.95C103.39 197.213 103.259 197.475 103.128 197.606C102.997 197.738 102.735 197.869 102.473 197.869C102.21 197.869 101.948 197.738 101.817 197.606C101.686 197.475 101.555 197.213 101.555 196.95C101.555 196.688 101.686 196.425 101.817 196.294C101.948 196.163 102.21 196.032 102.473 196.032ZM102.866 195.245H102.079C101.948 195.245 101.948 195.244 101.948 195.113L101.686 188.29C101.686 188.159 101.686 188.159 101.817 188.159H102.604C102.735 188.159 102.735 188.159 102.735 188.29L102.997 195.113C102.997 195.113 102.997 195.113 102.866 195.245Z" fill="#88CED9"/>
<path d="M96.4448 195.376C95.7896 195.376 95.2654 195.245 94.7413 194.982C94.2171 194.72 93.824 194.326 93.4309 193.801C93.4309 193.67 93.4309 193.67 93.4309 193.539L94.0861 193.014C94.2171 193.014 94.2171 193.014 94.3481 193.014C94.8723 193.801 95.5275 194.195 96.4448 194.195C97.231 194.195 97.7552 193.932 98.2793 193.539C98.8035 193.014 99.0656 192.489 99.0656 191.702C99.0656 190.915 98.8035 190.39 98.4104 189.865C98.0172 189.34 97.362 189.078 96.5758 189.078C95.6585 189.078 95.0033 189.471 94.3481 190.127C94.3481 190.258 94.2171 190.258 94.0861 190.127L93.4309 189.602C93.2998 189.602 93.2998 189.471 93.4309 189.34C94.2171 188.29 95.2654 187.897 96.4448 187.897C97.4931 187.897 98.4104 188.29 99.0656 188.946C99.7207 189.602 100.114 190.521 100.114 191.571C100.114 192.62 99.7207 193.539 98.9345 194.195C98.4104 194.982 97.4931 195.376 96.4448 195.376Z" fill="#88CED9"/>
<path d="M91.8583 194.982L85.8305 194.326C85.6995 194.326 85.6995 194.195 85.6995 194.064L85.8305 193.276C85.8305 193.145 85.9616 193.145 86.0926 193.145L88.4513 193.407L89.1065 187.634C89.1065 187.503 89.2375 187.503 89.3686 187.503L90.1548 187.634C90.2859 187.634 90.2859 187.765 90.2859 187.897L89.6307 193.67L91.9894 193.932C92.1204 193.932 92.1204 194.064 92.1204 194.195L91.9894 194.982C92.1204 194.982 91.9894 195.113 91.8583 194.982Z" fill="#88CED9"/>
<path d="M83.996 194.064L83.2098 193.932C83.0788 193.932 83.0788 193.801 83.0788 193.67L83.6029 190.521L84.1271 188.421L82.6856 189.865L79.1476 192.883C79.0165 193.014 79.0165 193.014 78.8855 193.014L78.0993 192.883C77.9682 192.883 77.9682 192.752 77.9682 192.62L79.2786 185.928C79.2786 185.797 79.4097 185.797 79.4097 185.797L80.1959 185.928C80.3269 185.928 80.3269 186.06 80.3269 186.191L79.6717 189.34L79.1476 191.439L80.7201 189.865L84.1271 186.847C84.2581 186.716 84.2581 186.716 84.3891 186.716L85.1754 186.847C85.3064 186.847 85.3064 186.978 85.3064 187.109L83.996 193.801C84.1271 194.064 83.996 194.195 83.996 194.064Z" fill="#88CED9"/>
<path d="M75.4785 192.358L74.6923 192.095C74.5613 192.095 74.5613 191.964 74.5613 191.833L75.4785 188.815L71.4163 190.915C71.2853 191.046 71.1543 191.046 71.0232 190.915L69.8439 190.652C69.8439 190.652 69.7128 190.652 69.7128 190.521C69.7128 190.521 69.7128 190.39 69.8439 190.39L73.644 188.421L71.5474 183.829V183.698H71.6784L72.7267 183.96C72.8578 183.96 72.9888 184.091 73.1198 184.223L74.8233 187.897L76.0027 187.372L76.6579 185.141C76.6579 185.01 76.7889 185.01 76.92 185.01L77.7062 185.272C77.8372 185.272 77.8372 185.404 77.8372 185.535L76.0027 192.095C75.7406 192.358 75.6096 192.358 75.4785 192.358Z" fill="#88CED9"/>
<path d="M65.6506 182.779C66.5679 182.386 67.6162 182.386 68.6645 182.779C69.4507 183.042 69.9749 183.435 70.237 184.091C70.499 184.616 70.6301 185.272 70.368 185.797C70.1059 186.322 69.7128 186.716 69.1886 186.978C68.6645 187.241 68.0093 187.241 67.3541 187.109L64.6023 186.453L64.4712 186.716C64.3402 187.109 64.3402 187.372 64.6023 187.634C64.8644 187.897 65.1264 188.159 65.6506 188.29C66.4368 188.553 67.3541 188.684 68.1403 188.421C68.2714 188.421 68.4024 188.421 68.4024 188.553L68.6645 189.209C68.6645 189.34 68.6645 189.34 68.5335 189.471C67.4851 189.734 66.4368 189.734 65.2575 189.34C64.4712 189.078 63.9471 188.684 63.554 188.028C63.1609 187.503 63.1609 186.847 63.4229 186.06L64.2092 183.698C64.4712 183.173 64.4712 182.648 64.4712 182.123V181.73C64.4712 181.598 64.4712 181.598 64.6023 181.598H65.3885C65.5196 181.598 65.5196 181.598 65.5196 181.73L65.6506 182.779ZM65.5196 183.96L64.9954 185.404L67.7472 185.928C68.1403 186.06 68.4024 185.928 68.6645 185.928C68.9266 185.797 69.1886 185.666 69.1886 185.404C69.3197 185.01 69.3197 184.748 69.0576 184.485C68.7955 184.223 68.5335 183.96 68.1403 183.829C67.6162 183.698 67.2231 183.567 66.6989 183.698C66.3058 183.567 65.7816 183.698 65.5196 183.96Z" fill="#88CED9"/>
<path d="M47.043 181.074C47.305 181.205 47.4361 181.467 47.4361 181.73C47.4361 181.992 47.4361 182.254 47.305 182.386C47.174 182.648 46.9119 182.779 46.6498 182.779C46.3878 182.779 46.1257 182.779 45.9946 182.648C45.7326 182.517 45.6015 182.386 45.6015 182.123C45.6015 181.861 45.6015 181.598 45.7326 181.467C45.8636 181.205 46.1257 181.074 46.3878 181.074C46.6498 180.942 46.9119 180.942 47.043 181.074ZM47.8292 180.549L47.174 180.155C47.043 180.155 47.043 180.024 47.174 179.893L50.8431 174.119C50.9741 173.988 50.9741 173.988 51.1052 174.119L51.7604 174.513C51.8914 174.513 51.8914 174.644 51.7604 174.775L48.0913 180.549C48.0913 180.549 47.9602 180.68 47.8292 180.549Z" fill="#88CED9"/>
<path d="M45.2085 178.843L44.5533 178.318C44.4223 178.187 44.4223 178.187 44.5533 178.056L46.1258 175.825L42.9809 173.594L41.4084 175.825C41.2774 175.956 41.2774 175.956 41.1463 175.825L40.4911 175.3C40.3601 175.169 40.3601 175.169 40.4911 175.038L44.4223 169.527C44.5533 169.396 44.5533 169.396 44.6844 169.527L45.3396 170.052C45.4706 170.183 45.4706 170.183 45.3396 170.314L43.6361 172.676L46.781 174.907L48.4845 172.545C48.6155 172.414 48.6155 172.414 48.7466 172.545L49.4018 173.07C49.5328 173.201 49.5328 173.201 49.4018 173.332L45.4706 178.843C45.3396 178.974 45.3396 178.974 45.2085 178.843Z" fill="#88CED9"/>
<path d="M33.5461 172.282L32.8909 171.757C32.7598 171.626 32.7598 171.626 32.8909 171.495L34.4633 169.658C33.8081 169.658 33.284 169.527 32.7598 169.002C31.9736 168.346 31.7115 167.559 31.7115 166.64C31.7115 165.722 32.1046 164.934 32.8909 164.016C33.6771 163.229 34.4633 162.704 35.3806 162.573C36.2979 162.441 37.0841 162.704 37.8704 163.36C38.3945 163.754 38.6566 164.278 38.6566 164.934L40.3601 162.966C40.4911 162.835 40.4911 162.835 40.6222 162.966L41.2774 163.491C41.4084 163.622 41.4084 163.622 41.2774 163.754L39.5739 165.722C40.2291 165.722 40.7532 165.853 41.2774 166.247C42.0636 166.903 42.3257 167.69 42.3257 168.608C42.3257 169.527 41.9326 170.314 41.1463 171.233C40.3601 172.02 39.5739 172.545 38.7876 172.676C37.8704 172.807 37.0841 172.545 36.2979 171.889C35.7737 171.495 35.5116 170.97 35.5116 170.314L33.9392 172.151C33.6771 172.414 33.6771 172.414 33.5461 172.282ZM35.2496 168.871L37.7393 166.115C37.7393 165.459 37.6083 164.803 37.0841 164.41C36.56 164.016 36.0358 163.754 35.5116 163.885C34.9875 164.016 34.3323 164.278 33.8081 164.934C33.284 165.459 33.0219 166.115 33.0219 166.64C33.0219 167.165 33.1529 167.69 33.6771 168.215C34.0702 168.74 34.5944 168.871 35.2496 168.871ZM38.6566 166.903L36.1668 169.658C36.1668 170.314 36.4289 170.708 36.9531 171.233C37.4772 171.626 38.0014 171.889 38.5255 171.757C39.0497 171.626 39.7049 171.364 40.098 170.708C40.6222 170.183 40.8843 169.527 40.8843 169.002C40.8843 168.477 40.7532 167.952 40.2291 167.427C39.8359 167.034 39.3118 166.903 38.6566 166.903Z" fill="#88CED9"/>
<path d="M33.2839 160.604C33.2839 161.654 32.7597 162.441 31.9735 163.097C31.1873 163.754 30.27 164.147 29.3527 164.016C28.4354 163.885 27.5182 163.491 26.863 162.704C26.2078 161.917 25.8147 160.998 25.9457 160.08C25.9457 159.03 26.4699 158.243 27.2561 157.587C28.0423 156.93 28.9596 156.537 29.8769 156.668C30.9252 156.799 31.7114 157.193 32.3666 157.98C33.0218 158.767 33.4149 159.686 33.2839 160.604ZM26.994 160.342C26.994 160.998 27.1251 161.654 27.6492 162.179C28.1734 162.704 28.6975 162.966 29.3527 162.966C30.0079 162.966 30.6631 162.704 31.1873 162.31C31.7114 161.785 32.1045 161.26 32.1045 160.604C32.1045 159.948 31.9735 159.292 31.4493 158.767C30.9252 158.243 30.401 157.98 29.7458 157.849C29.0906 157.718 28.4354 158.111 27.9113 158.505C27.3871 159.03 27.1251 159.686 26.994 160.342Z" fill="#88CED9"/>
<path d="M28.4355 153.519L28.9596 154.175C29.0907 154.306 28.9596 154.306 28.9596 154.437L23.587 158.505H23.456C23.456 158.505 23.3249 158.505 23.3249 158.374L20.311 154.306C20.18 154.175 20.311 154.175 20.311 154.044L20.9662 153.65C21.0973 153.519 21.0973 153.65 21.2283 153.65L23.587 156.93L28.3044 153.388C28.3044 153.388 28.4355 153.388 28.4355 153.519Z" fill="#88CED9"/>
<path d="M26.4699 146.958L26.863 147.614C26.863 147.746 26.863 147.746 26.863 147.877L19.2627 152.6C19.1317 152.6 19.1317 152.6 19.0007 152.6L18.6076 152.076C18.6076 151.944 18.6076 151.944 18.6076 151.813L19.0007 151.42V151.288C18.2144 151.157 17.5592 150.632 17.1661 149.845C16.642 148.926 16.3799 148.008 16.642 147.089C16.904 146.171 17.4282 145.384 18.3455 144.859C19.2627 144.334 20.18 144.072 21.0973 144.334C22.0146 144.596 22.8008 145.121 23.325 146.04C23.8491 146.827 23.9802 147.614 23.8491 148.402L26.2078 146.958C26.3389 146.827 26.3389 146.827 26.4699 146.958ZM20.18 150.632L22.6698 149.058C22.9318 148.139 22.9318 147.352 22.4077 146.565C22.0146 145.909 21.4904 145.646 20.8352 145.515C20.18 145.384 19.5248 145.515 18.8696 145.909C18.2144 146.302 17.8213 146.827 17.6903 147.483C17.5592 148.139 17.6903 148.795 17.9524 149.32C18.6076 150.107 19.2627 150.632 20.18 150.632Z" fill="#88CED9"/>
<path d="M17.5592 137.773C18.6075 138.167 19.2627 138.823 19.7868 139.742C20.1799 140.398 20.311 141.185 20.0489 141.71C19.9179 142.366 19.5248 142.759 19.0006 143.022C18.4764 143.284 17.9523 143.284 17.2971 143.153C16.6419 143.022 16.2488 142.497 15.8557 141.972L14.2832 139.61L14.0211 139.742C13.628 139.873 13.497 140.135 13.497 140.529C13.497 140.922 13.497 141.316 13.759 141.71C14.1522 142.497 14.8073 143.153 15.4625 143.547C15.5936 143.547 15.5936 143.678 15.5936 143.809L15.2005 144.465C15.2005 144.596 15.0694 144.596 14.9384 144.596C14.0211 144.072 13.2349 143.416 12.7107 142.366C12.3176 141.71 12.1866 140.922 12.3176 140.266C12.4486 139.61 12.8418 139.086 13.497 138.692L15.7246 137.511C16.2488 137.249 16.6419 136.855 17.035 136.592L17.2971 136.33C17.4281 136.199 17.4281 136.199 17.5592 136.33L18.0833 136.855C18.2144 136.986 18.2144 136.986 18.0833 137.117L17.5592 137.773ZM16.6419 138.561L15.3315 139.217L16.904 141.447C17.166 141.71 17.4281 141.972 17.6902 142.103C17.9523 142.235 18.2144 142.235 18.4764 142.103C18.8696 141.972 19.0006 141.71 19.0006 141.316C19.0006 140.922 19.0006 140.66 18.7385 140.266C18.4764 139.873 18.2144 139.479 17.8212 139.217C17.4281 138.823 17.035 138.561 16.6419 138.561Z" fill="#88CED9"/>
<path d="M6.94509 133.968L6.68301 133.181C6.68301 133.05 6.68301 133.05 6.81405 132.918L9.04172 132C8.51756 131.738 8.12444 131.344 7.86237 130.688C7.46925 129.769 7.60029 128.851 7.9934 128.064C8.38652 127.276 9.17276 126.751 10.2211 126.358C11.2694 125.964 12.1867 125.964 12.9729 126.227C13.7591 126.489 14.4143 127.145 14.8074 128.064C15.0695 128.72 15.0695 129.244 14.8074 129.769L17.2972 128.851C17.4282 128.851 17.4282 128.851 17.5593 128.982L17.8213 129.769C17.8213 129.901 17.8213 129.901 17.6903 130.032L15.2006 130.95C15.7247 131.213 16.2489 131.606 16.3799 132.262C16.773 133.181 16.642 134.099 16.2489 134.887C15.8557 135.674 15.0695 136.199 14.0212 136.592C12.9729 136.986 12.0556 136.986 11.2694 136.724C10.4831 136.461 9.82795 135.805 9.43483 134.887C9.17276 134.231 9.17276 133.706 9.43483 133.181L7.20717 134.099C7.07613 134.099 7.07613 133.968 6.94509 133.968ZM10.09 131.606L13.497 130.294C13.8902 129.638 13.8902 129.113 13.7591 128.457C13.497 127.801 13.1039 127.408 12.5798 127.276C12.0556 127.145 11.2694 127.276 10.6142 127.539C9.95899 127.801 9.43483 128.195 9.04172 128.72C8.77964 129.244 8.6486 129.769 8.91068 130.425C9.17276 130.95 9.56587 131.344 10.09 131.606ZM13.8902 131.475L10.4831 132.787C10.2211 133.312 10.2211 133.968 10.4831 134.493C10.7452 135.149 11.1383 135.543 11.6625 135.674C12.1867 135.805 12.8418 135.805 13.6281 135.543C14.2833 135.28 14.8074 134.887 15.2006 134.362C15.4626 133.837 15.5937 133.312 15.3316 132.656C15.0695 132.131 14.6764 131.738 13.8902 131.475Z" fill="#88CED9"/>
<path d="M5.37265 125.439C5.50369 125.702 5.37265 125.964 5.24161 126.095C5.11058 126.358 4.97954 126.489 4.71746 126.489C4.45538 126.62 4.1933 126.489 4.06226 126.358C3.80019 126.227 3.66915 126.095 3.66915 125.833C3.53811 125.571 3.66915 125.308 3.80019 125.177C3.93122 124.915 4.06226 124.783 4.32434 124.783C4.58642 124.652 4.8485 124.783 4.97954 124.915C5.24161 125.046 5.37265 125.308 5.37265 125.439ZM6.42097 125.702L6.15889 124.915C6.15889 124.783 6.15889 124.783 6.28993 124.652L12.8419 122.815C12.9729 122.815 12.9729 122.815 13.104 122.946L13.366 123.734C13.366 123.865 13.366 123.865 13.235 123.996L6.68304 125.833C6.55201 125.833 6.42097 125.833 6.42097 125.702Z" fill="#88CED9"/>
<path d="M5.50369 122.553L5.37265 121.765C5.37265 121.634 5.37265 121.634 5.50369 121.503L8.51759 120.847L4.71745 118.223C4.58642 118.091 4.58642 118.091 4.45538 117.829L4.1933 116.779V116.648H4.32434L7.86239 119.141L10.8763 115.074C10.8763 115.074 11.0073 114.942 11.0073 115.074C11.0073 115.074 11.1384 115.074 11.1384 115.205L11.4004 116.254C11.4004 116.386 11.4004 116.517 11.2694 116.648L8.77966 119.928L9.82798 120.716L12.0556 120.191C12.1867 120.191 12.1867 120.191 12.3177 120.322L12.4488 121.109C12.4488 121.241 12.4488 121.241 12.3177 121.372L5.76577 122.815C5.63473 122.815 5.50369 122.684 5.50369 122.553Z" fill="#88CED9"/>
<path d="M9.30374 109.3C10.09 109.956 10.6141 110.744 10.7452 111.925C10.8762 112.712 10.7452 113.368 10.3521 113.893C9.95894 114.418 9.56582 114.68 8.91062 114.811C8.25543 114.942 7.73127 114.811 7.33816 114.418C6.94504 114.024 6.55192 113.499 6.42088 112.843L5.63465 110.088H5.37257C4.97945 110.088 4.71738 110.35 4.58634 110.612C4.4553 111.006 4.32426 111.4 4.4553 111.793C4.58634 112.843 4.97945 113.63 5.50361 114.155C5.63465 114.286 5.63465 114.286 5.50361 114.418L4.97945 114.942C4.84841 115.074 4.84841 115.074 4.71738 114.942C3.93114 114.155 3.53802 113.237 3.27595 112.056C3.14491 111.268 3.27595 110.612 3.66906 109.956C4.06218 109.3 4.58634 109.038 5.24153 108.907L7.73127 108.513C8.25543 108.382 8.77958 108.251 9.30374 107.988L9.69686 107.726C9.8279 107.726 9.8279 107.726 9.95894 107.726L10.3521 108.382C10.3521 108.513 10.3521 108.513 10.3521 108.644L9.30374 109.3ZM8.12439 109.694L6.68296 109.956L7.46919 112.581C7.60023 112.974 7.73127 113.237 7.99335 113.368C8.25543 113.63 8.51751 113.63 8.77958 113.63C9.1727 113.63 9.43478 113.368 9.56582 113.105C9.69686 112.843 9.8279 112.449 9.69686 112.056C9.56582 111.531 9.43478 111.137 9.1727 110.744C8.91062 110.219 8.51751 109.956 8.12439 109.694Z" fill="#88CED9"/>
<path d="M1.83455 92.2426C1.83455 92.505 1.70351 92.7674 1.57247 92.8986C1.44143 93.0299 1.17935 93.1611 0.917273 93.0299C0.655195 93.0299 0.393117 92.8986 0.262078 92.7674C0 92.505 0 92.3738 0 92.1114C0 91.8489 0.131039 91.7177 0.262078 91.4553C0.524156 91.3241 0.655195 91.1929 0.917273 91.1929C1.17935 91.1929 1.44143 91.3241 1.57247 91.4553C1.70351 91.5865 1.96559 91.9802 1.83455 92.2426ZM2.75182 92.6362V91.8489C2.75182 91.7177 2.88286 91.7177 2.88286 91.7177L9.69689 92.1114C9.82793 92.1114 9.82793 92.2426 9.82793 92.2426V93.0299C9.82793 93.1611 9.69689 93.1611 9.69689 93.1611L2.88286 92.7674C2.75182 92.8986 2.75182 92.7674 2.75182 92.6362Z" fill="#88CED9"/>
<path d="M10.8762 83.845L10.7452 84.6323C10.7452 84.7635 10.6141 84.7635 10.4831 84.7635L4.71737 83.9762L4.32425 86.7317L8.77958 87.9126C9.82789 88.175 10.352 88.8311 10.221 89.8808C10.221 90.1432 10.09 90.4056 9.95893 90.668C9.82789 90.7992 9.69685 91.0617 9.43477 91.1929C9.30373 91.1929 9.30373 91.1929 9.17269 91.1929L8.64854 90.5368C8.5175 90.4056 8.5175 90.4056 8.64854 90.2744C8.91061 90.1432 9.04165 90.012 9.04165 89.7495C9.04165 89.4871 8.91061 89.2247 8.5175 89.0935L3.27594 87.6501C3.1449 87.6501 3.1449 87.5189 3.1449 87.5189L3.66905 82.9265C3.80009 82.7953 3.80009 82.6641 3.93113 82.6641L10.6141 83.5826C10.7452 83.5826 10.8762 83.7138 10.8762 83.845Z" fill="#88CED9"/>
<path d="M4.1933 80.3022L4.32434 79.5149C4.32434 79.3837 4.45538 79.3837 4.58642 79.3837L7.2072 80.0398L7.46927 79.1213C6.552 78.7276 6.02784 78.2028 5.63473 77.4155C5.24161 76.6282 5.11057 75.841 5.37265 74.9225C5.63473 73.8728 6.15888 73.2167 7.07616 72.6919C7.86239 72.0358 8.77966 71.9046 9.82798 72.167C10.8763 72.4294 11.5315 72.9543 12.0556 73.8728C12.5798 74.7913 12.7108 75.7097 12.4488 76.6282C12.3177 77.5467 11.7936 78.2028 11.0073 78.7276C10.2211 79.2525 9.43486 79.5149 8.51759 79.3837L8.38655 80.171L11.2694 80.827C11.4004 80.827 11.4004 80.9583 11.4004 81.0895L11.2694 81.8767C11.2694 82.008 11.1384 82.008 11.0073 82.008L4.45538 80.4334C4.1933 80.4334 4.1933 80.4334 4.1933 80.3022ZM6.42096 75.1849C6.28992 75.841 6.28992 76.497 6.68304 77.0219C7.07616 77.5467 7.60031 77.9404 8.25551 78.0716C8.9107 78.2028 9.5659 78.2028 10.2211 77.8091C10.7453 77.4155 11.1384 76.8907 11.4004 76.2346C11.5315 75.5785 11.5315 74.9225 11.1384 74.3976C10.7452 73.8728 10.2211 73.4791 9.5659 73.3479C8.9107 73.2167 8.25551 73.2167 7.60031 73.6103C6.94512 74.004 6.552 74.3976 6.42096 75.1849Z" fill="#88CED9"/>
<path d="M7.99341 66.2625C8.25548 65.7376 8.51756 65.2128 8.91068 64.8191C9.3038 64.2943 9.82795 64.0318 10.4831 63.9006C10.6142 63.9006 10.6142 63.9006 10.7452 64.0318L11.0073 64.8191C11.0073 64.9503 11.0073 64.9503 10.8763 65.0815C9.95899 65.344 9.43483 65.8688 9.17276 66.7873C8.91068 67.4434 8.91068 68.0994 9.3038 68.7555C9.56587 69.4116 10.09 69.8052 10.7452 70.0676C11.4004 70.3301 12.0556 70.3301 12.7108 70.0676C13.366 69.8052 13.7591 69.2804 14.0212 68.6243C14.2833 67.837 14.1522 67.0497 13.6281 66.2625C13.6281 66.1312 13.6281 66.1312 13.6281 66L14.2833 65.6064C14.4143 65.6064 14.4143 65.6064 14.5454 65.6064C15.3316 66.6561 15.4626 67.7058 14.9385 69.0179C14.5454 70.0676 14.0212 70.7237 13.1039 71.1173C12.1867 71.511 11.2694 71.6422 10.2211 71.2485C9.17276 70.8549 8.51756 70.3301 8.12444 69.4116C7.73133 68.0994 7.60029 67.1809 7.99341 66.2625Z" fill="#88CED9"/>
<path d="M9.69685 61.9324L12.1866 56.4215C12.1866 56.2903 12.3176 56.2903 12.4487 56.2903L13.1039 56.5527C13.2349 56.5527 13.2349 56.6839 13.2349 56.8151L12.1866 59.0458L17.5592 61.4076C17.6902 61.4076 17.6902 61.5388 17.6902 61.67L17.2971 62.4573C17.2971 62.5885 17.1661 62.5885 17.035 62.5885L11.6624 60.2267L10.6141 62.4573C10.6141 62.5885 10.4831 62.5885 10.352 62.5885L9.69685 62.3261C9.69685 62.1949 9.56581 62.0636 9.69685 61.9324Z" fill="#88CED9"/>
<path d="M21.6214 58.5209L21.2283 59.3082C21.2283 59.4394 21.0973 59.4394 20.9662 59.4394L13.1039 55.1094C12.9728 55.1094 12.9728 54.9781 12.9728 54.8469L13.2349 54.3221C13.2349 54.1909 13.366 54.1909 13.497 54.1909L14.0212 54.3221V54.1909C13.7591 53.4036 13.8901 52.6163 14.4143 51.829C14.9384 50.9106 15.5936 50.3857 16.5109 50.1233C17.4282 49.8609 18.3454 49.9921 19.3938 50.5169C20.4421 51.0418 20.9662 51.829 21.2283 52.7475C21.4904 53.666 21.3593 54.5845 20.8352 55.503C20.4421 56.2903 19.7869 56.8151 19.0006 57.0776L21.3593 58.3897C21.6214 58.2585 21.6214 58.3897 21.6214 58.5209ZM15.3315 54.8469L17.9523 56.2903C18.8696 56.1591 19.5248 55.6342 20.0489 54.8469C20.4421 54.1909 20.4421 53.666 20.311 53.01C20.18 52.3539 19.6558 51.829 19.0006 51.5666C18.3454 51.173 17.6902 51.0418 17.035 51.3042C16.3799 51.4354 15.8557 51.829 15.5936 52.4851C15.0695 53.1412 14.9384 53.9284 15.3315 54.8469Z" fill="#88CED9"/>
<path d="M25.2906 46.3181C25.4216 47.3678 25.2906 48.2863 24.6354 49.2047C24.2422 49.8608 23.7181 50.2545 23.0629 50.3857C22.4077 50.5169 21.8835 50.3857 21.3594 50.1232C20.8352 49.7296 20.5732 49.336 20.4421 48.6799C20.3111 48.0238 20.4421 47.499 20.8352 46.8429L22.1456 44.3499L22.0146 44.2187C21.7525 43.9562 21.3594 43.9562 21.0973 44.0875C20.7042 44.2187 20.4421 44.4811 20.18 44.8747C19.6559 45.662 19.3938 46.4493 19.5248 47.2366C19.5248 47.3678 19.5248 47.3678 19.3938 47.3678H18.6076C18.4765 47.3678 18.4765 47.3678 18.4765 47.2366C18.4765 46.1869 18.7386 45.1372 19.3938 44.0875C19.7869 43.4314 20.4421 43.0377 21.0973 42.7753C21.7525 42.5129 22.4077 42.6441 23.0629 43.0377L25.1595 44.4811C25.6837 44.8747 26.2078 45.0059 26.6009 45.1372L26.9941 45.2684C27.1251 45.2684 27.1251 45.3996 27.1251 45.3996L26.9941 46.0556C26.9941 46.1869 26.863 46.1869 26.732 46.1869L25.2906 46.3181ZM24.2422 45.7932L22.9319 44.8747L21.7525 47.3678C21.6215 47.7614 21.4904 48.0238 21.6215 48.2863C21.6215 48.5487 21.7525 48.8111 22.0146 48.9423C22.2767 49.2047 22.6698 49.2048 22.9319 49.0735C23.1939 48.9423 23.5871 48.6799 23.7181 48.2863C23.9802 47.8926 24.1112 47.3678 24.2422 46.9741C24.3733 46.7117 24.3733 46.1869 24.2422 45.7932Z" fill="#88CED9"/>
<path d="M31.3183 40.151L27.9113 44.3498C27.7802 44.4811 27.7802 44.4811 27.6492 44.3498L22.4076 40.0198C22.2766 39.8886 22.2766 39.8886 22.4076 39.7574L22.9318 39.1013C23.0628 38.9701 23.0628 38.9701 23.1939 39.1013L27.7802 42.7753L30.1389 39.8886L25.5526 36.2147C25.4215 36.0834 25.4215 36.0834 25.5526 35.9522L26.0767 35.2962C26.2078 35.165 26.2078 35.165 26.3388 35.2962L30.9252 38.9701L31.3183 38.4453C31.4493 38.3141 31.4493 38.3141 31.5804 38.4453L33.4149 40.0198C33.546 40.151 33.546 40.151 33.4149 40.2822L32.7597 41.0695C32.6287 41.2007 32.6287 41.2007 32.4976 41.0695L31.3183 40.151Z" fill="#88CED9"/>
<path d="M27.2562 32.672C27.1251 32.8032 26.863 32.9344 26.601 32.9344C26.3389 32.9344 26.0768 32.8032 25.9458 32.672C25.8147 32.5408 25.6837 32.2783 25.6837 32.0159C25.6837 31.7535 25.8147 31.491 25.9458 31.3598C26.0768 31.2286 26.3389 31.0974 26.601 31.0974C26.863 31.0974 27.1251 31.2286 27.2562 31.3598C27.3872 31.491 27.5182 31.7535 27.5182 32.0159C27.5182 32.2783 27.3872 32.5408 27.2562 32.672ZM27.6493 33.5905L28.1734 32.9344C28.3045 32.8032 28.3045 32.8032 28.4355 32.9344L33.415 37.5268C33.546 37.658 33.546 37.658 33.415 37.7893L32.8908 38.4453C32.7598 38.5765 32.7598 38.5765 32.6288 38.4453L27.6493 33.8529C27.5182 33.7217 27.5182 33.7217 27.6493 33.5905Z" fill="#88CED9"/>
<path d="M34.4633 36.3459L33.9391 33.8529C32.8908 34.2465 32.1046 33.9841 31.3183 33.1968C30.7942 32.672 30.5321 32.0159 30.6631 31.3599C30.6631 30.7038 30.9252 30.0477 31.5804 29.5229L33.9391 27.2923C34.0702 27.161 34.0702 27.161 34.2012 27.2923L38.9186 32.1471C39.0496 32.2783 39.0496 32.2783 38.9186 32.4096L38.2634 32.9344C38.1324 33.0656 38.1324 33.0656 38.0013 32.9344L36.6909 31.6223L34.9874 33.328L35.3805 35.4274C35.3805 35.5587 35.3805 35.6899 35.2495 35.8211L34.5943 36.4771C34.5943 36.4771 34.5943 36.4771 34.4633 36.3459C34.4633 36.4771 34.4633 36.4771 34.4633 36.3459ZM33.9391 28.7356L32.3666 30.3102C31.9735 30.7038 31.8425 30.9662 31.8425 31.3599C31.8425 31.7535 31.9735 32.0159 32.2356 32.4096C32.4977 32.672 32.8908 32.9344 33.2839 32.9344C33.677 32.9344 34.0702 32.8032 34.3322 32.4096L35.9047 30.835L33.9391 28.7356Z" fill="#88CED9"/>
</svg>
