<svg width="14" height="16" viewBox="0 0 14 16" fill="none" xmlns="http://www.w3.org/2000/svg">
<g filter="url(#filter0_d)">
<path d="M5.69561 0.0510059C3.13202 0.331664 0.578803 2.34393 0.475014 5.22464C0.407551 6.98272 1.12889 8.30128 2.85179 8.67196C3.04899 7.84058 3.08531 7.39047 3.08531 7.39047C3.08531 7.39047 2.32765 6.64911 2.24981 6.17782C1.6167 2.38629 6.74907 -0.203175 9.4424 2.44454C11.3002 4.28205 10.0755 9.93227 7.07601 9.34448C4.20105 8.78317 8.48235 4.28735 6.18861 3.40301C4.32559 2.68283 3.33441 5.60061 4.21661 7.04627C3.69767 9.53512 2.58193 11.881 3.03342 15C4.50203 13.9674 4.99503 11.9869 5.39981 9.92168C6.13671 10.3559 6.53111 10.8113 7.47041 10.8802C10.937 11.1396 12.8726 7.51756 12.4004 4.17085C11.9749 1.20541 8.93383 -0.303788 5.69561 0.0510059Z" fill="#31679D"/>
</g>
<defs>
<filter id="filter0_d" x="0.470703" y="0" width="13" height="16" filterUnits="userSpaceOnUse" color-interpolation-filters="sRGB">
<feFlood flood-opacity="0" result="BackgroundImageFix"/>
<feColorMatrix in="SourceAlpha" type="matrix" values="0 0 0 0 0 0 0 0 0 0 0 0 0 0 0 0 0 0 127 0"/>
<feOffset dx="1" dy="1"/>
<feColorMatrix type="matrix" values="0 0 0 0 1 0 0 0 0 1 0 0 0 0 1 0 0 0 0.5 0"/>
<feBlend mode="normal" in2="BackgroundImageFix" result="effect1_dropShadow"/>
<feBlend mode="normal" in="SourceGraphic" in2="effect1_dropShadow" result="shape"/>
</filter>
</defs>
</svg>
