<svg id="Слой_1" data-name="Слой 1" xmlns="http://www.w3.org/2000/svg" viewBox="0 0 141.73 141.73"><defs><style>.cls-1{fill:#ec6d67;}</style></defs><title>Круги</title><path class="cls-1" d="M34.36,16.57h0a2,2,0,0,1,1-1.53,2.4,2.4,0,0,1,1.87-.35,2.38,2.38,0,0,1,1.52,1.15,2.32,2.32,0,0,1,.31,1.87A2.38,2.38,0,0,1,38,19.24a2.34,2.34,0,0,1-2,.31,2.94,2.94,0,0,1-1.64-1.36,5.14,5.14,0,0,1-.67-1.53,2.59,2.59,0,0,1,.41-2.23,3,3,0,0,1,.77-.69,2.82,2.82,0,0,0,.71-.56.78.78,0,0,0,.14-.53c0-.08,0-.13.11-.14l.52-.07c.07,0,.12,0,.14.11a1.14,1.14,0,0,1-.16,1,4,4,0,0,1-1.09.91,1.94,1.94,0,0,0-.83.93A1.85,1.85,0,0,0,34.36,16.57Zm1.44-.88a1.67,1.67,0,0,0-.76,1A1.64,1.64,0,0,0,35.25,18a1.69,1.69,0,0,0,1,.77,1.62,1.62,0,0,0,1.27-.2,1.6,1.6,0,0,0,.76-1,1.63,1.63,0,0,0-.23-1.28,1.7,1.7,0,0,0-1-.8A1.59,1.59,0,0,0,35.8,15.69Z"/><path class="cls-1" d="M42.12,18.51l-.51.25a.12.12,0,0,1-.18-.06l-2.75-5.56a.11.11,0,0,1,0-.17l.42-.2a.13.13,0,0,1,.18.05l.21.3.05,0a2.15,2.15,0,0,1,1.16-1.2,2.42,2.42,0,0,1,1.91-.16,2.5,2.5,0,0,1,1.45,1.34A2.42,2.42,0,0,1,43,16.45a2.19,2.19,0,0,1-1.68.18l.84,1.71A.11.11,0,0,1,42.12,18.51ZM40,14l.9,1.81a1.87,1.87,0,0,0,1.75,0,1.58,1.58,0,0,0,.86-1,1.73,1.73,0,0,0-.15-1.36,1.75,1.75,0,0,0-1-.94,1.58,1.58,0,0,0-1.29.09A1.88,1.88,0,0,0,40,14Z"/><path class="cls-1" d="M46.27,14.14a2.43,2.43,0,0,1-1.33-1.44,2.43,2.43,0,0,1,0-2,2.53,2.53,0,0,1,1.46-1.33,2.37,2.37,0,0,1,1.92,0,2.54,2.54,0,0,1,1.31,1.45l.09.25a.1.1,0,0,1-.06.15l-3.8,1.46a1.59,1.59,0,0,0,.89.73A1.79,1.79,0,0,0,48,13.42a2.48,2.48,0,0,0,1.28-1.14c0-.06.08-.06.14,0l.48.28a.11.11,0,0,1,0,.16,3.16,3.16,0,0,1-1.67,1.44A2.55,2.55,0,0,1,46.27,14.14Zm.42-4a1.82,1.82,0,0,0-.93.77A1.56,1.56,0,0,0,45.6,12l3.13-1.2a1.57,1.57,0,0,0-.86-.74A1.61,1.61,0,0,0,46.69,10.13Z"/><path class="cls-1" d="M50.14,8.15,50.69,8a.11.11,0,0,1,.15.09l.51,1.79,2.56-.73L53.4,7.35c0-.08,0-.13.1-.16L54,7a.12.12,0,0,1,.16.09l1.28,4.5a.12.12,0,0,1-.09.16l-.54.15a.12.12,0,0,1-.17-.08l-.56-2-2.56.73.56,2c0,.08,0,.13-.09.15l-.55.16a.11.11,0,0,1-.15-.09l-1.28-4.5C50,8.22,50.05,8.17,50.14,8.15Z"/><path class="cls-1" d="M56.71,6.45l3.23-.61a.11.11,0,0,1,.15.1l.75,4,.42-.08c.08,0,.13,0,.14.1l.31,1.64a.11.11,0,0,1-.1.15l-.52.1c-.08,0-.13,0-.14-.09l-.23-1-3.65.68.15,1a.11.11,0,0,1-.1.15l-.52.1a.1.1,0,0,1-.14-.1l-.31-1.65c0-.07,0-.12.09-.14l.28,0a.27.27,0,0,0,.21-.17.63.63,0,0,0,.08-.35l-.2-3.63A.11.11,0,0,1,56.71,6.45Zm2.69.28-1.94.36.17,3.09a1.22,1.22,0,0,1,0,.34L60,10.07Z"/><path class="cls-1" d="M65.55,5.21l.71-.07c.09,0,.11,0,.09.11l-1.57,5.24a1.59,1.59,0,0,1-1.37,1.29h-.33a.15.15,0,0,1-.12-.13l-.05-.5s0-.07,0-.09,0,0,.08,0h.24a.77.77,0,0,0,.74-.65l.05-.21L61.43,5.68s0-.07,0-.07l.77-.08a.11.11,0,0,1,.1,0l2,3.56h.09l1-3.84A.1.1,0,0,1,65.55,5.21Z"/><path class="cls-1" d="M71.08,7.25v.06a1.33,1.33,0,0,1,.64.45,1.12,1.12,0,0,1,.23.68,1.39,1.39,0,0,1-.45,1.09,1.62,1.62,0,0,1-1.17.46l-2.64,0a.12.12,0,0,1-.08,0,.12.12,0,0,1,0-.09L67.5,5.23c0-.09,0-.13.11-.13l2.49,0a1.44,1.44,0,0,1,1.07.38,1.24,1.24,0,0,1,.41.94.92.92,0,0,1-.14.51A.89.89,0,0,1,71.08,7.25Zm-2.76-1.4,0,1.16,1.84,0a.57.57,0,0,0,.41-.17.53.53,0,0,0,.17-.41A.54.54,0,0,0,70.58,6a.65.65,0,0,0-.46-.16Zm0,1.93,0,1.48,1.91,0A.87.87,0,0,0,70.9,9a.68.68,0,0,0,.23-.55c0-.49-.3-.72-.87-.71Z"/><path class="cls-1" d="M76.37,9.59h0a2.5,2.5,0,0,1-1.91.61,1.92,1.92,0,0,1-1.29-.53,1.41,1.41,0,0,1-.41-1.13,1.36,1.36,0,0,1,.54-1,2,2,0,0,1,1.2-.42l2-.11V6.84a.66.66,0,0,0-.28-.62,1.48,1.48,0,0,0-.82-.28,2.74,2.74,0,0,0-1.69.41c-.08,0-.13,0-.17,0l-.28-.44c0-.07,0-.12,0-.17a3.39,3.39,0,0,1,2.16-.52,2.24,2.24,0,0,1,1.37.53A1.42,1.42,0,0,1,77.25,7l-.13,1.7a3.2,3.2,0,0,0,.11,1.13l.08.28c0,.07,0,.11-.08.14l-.49.14a.12.12,0,0,1-.16-.08Zm-.08-.84.08-1-1.9.15a1.2,1.2,0,0,0-.64.22.63.63,0,0,0-.28.49.68.68,0,0,0,.25.62,1.28,1.28,0,0,0,.73.26,2.32,2.32,0,0,0,1-.15A2,2,0,0,0,76.29,8.75Z"/><path class="cls-1" d="M79.11,5.6l.56.09c.09,0,.12.06.11.15l-.3,1.83,2.63.43.3-1.84c0-.08.06-.11.15-.1l.56.09c.08,0,.11.06.1.14L82.47,11a.1.1,0,0,1-.14.1L81.77,11c-.09,0-.13-.06-.11-.14l.33-2-2.63-.43-.33,2a.12.12,0,0,1-.15.11l-.56-.1a.11.11,0,0,1-.11-.14L79,5.71A.12.12,0,0,1,79.11,5.6Z"/><path class="cls-1" d="M84.82,6.6l.55.14a.12.12,0,0,1,.1.16L85,8.7l2.58.65.46-1.8c0-.08.07-.11.16-.09l.54.14c.09,0,.12.07.1.15L87.7,12.29a.12.12,0,0,1-.16.09L87,12.25c-.09,0-.12-.08-.1-.16l.5-2-2.58-.66-.5,2a.12.12,0,0,1-.16.09l-.55-.14c-.08,0-.11-.07-.09-.16l1.15-4.54A.11.11,0,0,1,84.82,6.6Z"/><path class="cls-1" d="M88.67,12.57,90,11.52a1.61,1.61,0,0,1-.42-1.83,1.65,1.65,0,0,1,.91-1,1.81,1.81,0,0,1,1.43,0l2.14.74c.08,0,.11.08.08.16L92.64,14a.12.12,0,0,1-.17.08l-.54-.19c-.07,0-.09-.08-.07-.16l.42-1.19L90.73,12l-1.18.93a.23.23,0,0,1-.25,0l-.59-.2a.15.15,0,0,1-.09-.08S88.63,12.6,88.67,12.57Zm4.52-2.69-1.48-.52a1.05,1.05,0,0,0-.82,0,1,1,0,0,0-.49.58,1,1,0,0,0,0,.78,1,1,0,0,0,.63.51l1.48.52Z"/><path class="cls-1" d="M96.45,15a2.63,2.63,0,0,1,1.62-3.26,2.54,2.54,0,0,1,3.09,3.57,2.43,2.43,0,0,1-1.46,1.3A2.65,2.65,0,0,1,96.45,15Zm4.1-1.42a1.77,1.77,0,0,0-2.2-1.09,1.78,1.78,0,0,0-1,.93,1.74,1.74,0,0,0-.13,1.35,1.77,1.77,0,0,0,2.2,1.09,1.73,1.73,0,0,0,1-.92A1.76,1.76,0,0,0,100.55,13.6Z"/><path class="cls-1" d="M104.28,14.3l2.8,1.73a.11.11,0,0,1,0,.17L105,19.64l.37.23a.11.11,0,0,1,0,.16l-.89,1.42a.11.11,0,0,1-.17.05l-.45-.28a.11.11,0,0,1,0-.17l.51-.89-3.16-2-.57.85c0,.08-.1.09-.18.05l-.44-.28a.11.11,0,0,1,0-.17l.88-1.43a.1.1,0,0,1,.16,0l.24.15a.32.32,0,0,0,.27,0,.53.53,0,0,0,.29-.21l2.31-2.82A.1.1,0,0,1,104.28,14.3Zm1.8,2-1.68-1-2,2.4a1.64,1.64,0,0,1-.24.23l2.09,1.29Z"/><path class="cls-1" d="M105.74,20.9l1.63-.58a1.62,1.62,0,0,1,.15-1.87,1.7,1.7,0,0,1,1.18-.68,1.77,1.77,0,0,1,1.37.39l1.82,1.35a.12.12,0,0,1,0,.18l-2.81,3.75a.11.11,0,0,1-.18,0l-.46-.34a.11.11,0,0,1,0-.17l.76-1-1.31-1-1.4.53a.23.23,0,0,1-.25,0l-.5-.37s-.07-.07-.07-.1S105.69,20.92,105.74,20.9Zm5.13-1.19-1.26-.94a1,1,0,0,0-.78-.23,1.07,1.07,0,0,0-.86,1.15,1,1,0,0,0,.44.69l1.26.93Z"/><path class="cls-1" d="M110.37,24.69l-.43-.39a.1.1,0,0,1,0-.17l3.1-3.52a.1.1,0,0,1,.09,0,.12.12,0,0,1,.09,0l2.61,2.29c.06.06.07.12,0,.18l-.34.4c-.06.06-.11.06-.18,0l-2.09-1.83-2.67,3A.11.11,0,0,1,110.37,24.69Z"/><path class="cls-1" d="M119.48,26.58l.5.52c.06.06,0,.1,0,.13l-5.07,2A1.59,1.59,0,0,1,113,29a1,1,0,0,1-.2-.26.12.12,0,0,1,0-.17l.36-.35.08,0a.09.09,0,0,1,.08,0l.15.19a.79.79,0,0,0,1,.17l.19-.09,1.87-4.84s0,0,.08,0l.55.56a.14.14,0,0,1,0,.11l-1.54,3.78.06.07,3.65-1.59A.11.11,0,0,1,119.48,26.58Z"/><path class="cls-1" d="M122.28,29.81l2.53,3.32a.11.11,0,0,1,0,.18l-.41.31a.11.11,0,0,1-.18,0l-1-1.33L120,34.71q-.09.07-.18,0l-.34-.45a.12.12,0,0,1,0-.18l3.22-2.44-1-1.34a.1.1,0,0,1,0-.17l.41-.32A.11.11,0,0,1,122.28,29.81Z"/><path class="cls-1" d="M123.75,39.29l0,0a2.48,2.48,0,0,1-1.63-1.16,1.89,1.89,0,0,1-.35-1.34,1.4,1.4,0,0,1,.66-1,1.34,1.34,0,0,1,1.13-.18,2.09,2.09,0,0,1,1.06.71l1.26,1.5.13-.08a.7.7,0,0,0,.34-.6,1.49,1.49,0,0,0-.28-.82,2.66,2.66,0,0,0-1.33-1.11c-.09,0-.11-.09-.07-.16l.18-.48a.11.11,0,0,1,.16-.08,3.41,3.41,0,0,1,1.71,1.42,2.3,2.3,0,0,1,.4,1.42,1.43,1.43,0,0,1-.71,1.13l-1.43.92a3.17,3.17,0,0,0-.85.77l-.17.23c0,.06-.09.07-.16,0l-.4-.31a.11.11,0,0,1,0-.17Zm.62-.57.89-.57L124,36.73a1.22,1.22,0,0,0-.56-.39.65.65,0,0,0-.56.07.69.69,0,0,0-.34.58,1.25,1.25,0,0,0,.23.73,2.13,2.13,0,0,0,.7.7A1.93,1.93,0,0,0,124.37,38.72Z"/><path class="cls-1" d="M127.35,46.11l0,0a2.47,2.47,0,0,1-1.47-1.35,2,2,0,0,1-.19-1.38,1.42,1.42,0,0,1,.79-.92,1.38,1.38,0,0,1,1.14,0,2.13,2.13,0,0,1,1,.84l1.07,1.64.14-.06a.68.68,0,0,0,.4-.55,1.44,1.44,0,0,0-.17-.85,2.7,2.7,0,0,0-1.18-1.27c-.08,0-.1-.1,0-.17l.24-.45c0-.08.08-.1.16-.06a3.36,3.36,0,0,1,1.53,1.62,2.29,2.29,0,0,1,.22,1.45,1.47,1.47,0,0,1-.85,1l-1.53.73a3.24,3.24,0,0,0-.93.66l-.21.2a.09.09,0,0,1-.15,0l-.37-.36a.12.12,0,0,1,0-.18Zm.69-.49,1-.45-1.07-1.57a1.25,1.25,0,0,0-.5-.45.64.64,0,0,0-.57,0,.65.65,0,0,0-.41.53,1.32,1.32,0,0,0,.13.76,2.26,2.26,0,0,0,.62.78A1.9,1.9,0,0,0,128,45.62Z"/><path class="cls-1" d="M132.17,46.5l.2.53a.12.12,0,0,1-.07.17l-2,.76,2.89,1.41a.38.38,0,0,1,.18.21l.29.77s0,.07,0,.09a.09.09,0,0,1-.1,0l-2.62-1.34-1.68,3.08a.08.08,0,0,1-.08.06.09.09,0,0,1-.09-.07l-.25-.68a.36.36,0,0,1,0-.29l1.38-2.47-.77-.45-1.49.56c-.08,0-.13,0-.16-.08l-.2-.53a.12.12,0,0,1,.07-.17L132,46.42C132.09,46.39,132.14,46.42,132.17,46.5Z"/><path class="cls-1" d="M134.67,53.6a2.71,2.71,0,0,1,.06,1.2,2.4,2.4,0,0,1-.52,1.09.1.1,0,0,1-.15,0l-.44-.32a.11.11,0,0,1,0-.16,1.81,1.81,0,0,0,.33-1.63,1.64,1.64,0,0,0-.83-1.05,1.74,1.74,0,0,0-1.35-.12,1.76,1.76,0,0,0-1.08.81,1.62,1.62,0,0,0-.15,1.33A1.82,1.82,0,0,0,131.68,56c.06,0,.08.07,0,.14l-.21.51a.09.09,0,0,1-.14.05,2.43,2.43,0,0,1-1.6-1.72,2.54,2.54,0,1,1,4.89-1.39Z"/><path class="cls-1" d="M131.34,58.15a2.47,2.47,0,0,1,1.65-1,2.43,2.43,0,0,1,1.93.37A2.47,2.47,0,0,1,136,59.13a2.43,2.43,0,0,1-.37,1.89,2.51,2.51,0,0,1-1.66,1l-.26.05a.1.1,0,0,1-.14-.08l-.77-4a1.63,1.63,0,0,0-.88.75,1.8,1.8,0,0,0-.15,1.23,2.46,2.46,0,0,0,.89,1.46.08.08,0,0,1,0,.15l-.36.42a.1.1,0,0,1-.16,0A3.08,3.08,0,0,1,131,60.14,2.59,2.59,0,0,1,131.34,58.15Zm3.88,1.13a1.69,1.69,0,0,0-.6-1.05,1.5,1.5,0,0,0-1.09-.37l.63,3.29a1.48,1.48,0,0,0,.88-.71A1.65,1.65,0,0,0,135.22,59.28Z"/><path class="cls-1" d="M136.86,65.22A2.56,2.56,0,0,1,136,67.4a.11.11,0,0,1-.16,0l-.37-.39a.1.1,0,0,1,0-.16,1.8,1.8,0,0,0,.6-1.55,1.66,1.66,0,0,0-.62-1.18,1.79,1.79,0,0,0-1.31-.35,1.74,1.74,0,0,0-1.21.61,1.62,1.62,0,0,0-.38,1.28,1.8,1.8,0,0,0,.93,1.41.1.1,0,0,1,0,.15l-.3.46a.1.1,0,0,1-.15,0,2.42,2.42,0,0,1-1.27-2,2.5,2.5,0,0,1,.54-1.89,2.61,2.61,0,0,1,3.61-.36A2.45,2.45,0,0,1,136.86,65.22Z"/><path class="cls-1" d="M137.13,72.36v.71c0,.09,0,.11-.12.08l-5.1-2a1.6,1.6,0,0,1-1.17-1.47,1.37,1.37,0,0,1,0-.33.13.13,0,0,1,.13-.11h.5a.15.15,0,0,1,.1,0,.07.07,0,0,1,0,.08,2.36,2.36,0,0,0,0,.25.76.76,0,0,0,.59.78l.2.07L137,68.21c.05,0,.08,0,.08,0V69a.09.09,0,0,1,0,.09l-3.72,1.72v.09l3.74,1.33A.11.11,0,0,1,137.13,72.36Z"/><path class="cls-1" d="M132.62,77.33v0a2.47,2.47,0,0,1-.63-1.9,1.91,1.91,0,0,1,.52-1.29,1.38,1.38,0,0,1,1.13-.42,1.39,1.39,0,0,1,1,.53,2,2,0,0,1,.42,1.19l.13,2h.15a.68.68,0,0,0,.63-.28,1.51,1.51,0,0,0,.26-.82,2.72,2.72,0,0,0-.41-1.69.1.1,0,0,1,0-.17l.43-.28a.1.1,0,0,1,.17,0,3.34,3.34,0,0,1,.54,2.16,2.26,2.26,0,0,1-.52,1.38,1.42,1.42,0,0,1-1.25.49l-1.69-.11a3,3,0,0,0-1.14.12l-.28.08c-.07,0-.11,0-.14-.08l-.14-.49c0-.08,0-.13.08-.15Zm.85-.09,1,.07-.16-1.89a1.23,1.23,0,0,0-.22-.65.63.63,0,0,0-.49-.27.67.67,0,0,0-.62.26,1.28,1.28,0,0,0-.26.72,2.22,2.22,0,0,0,.16,1A1.85,1.85,0,0,0,133.47,77.24Z"/><path class="cls-1" d="M130.17,79.61l.09-.56c0-.09.06-.12.15-.11l6.13,1c.08,0,.12.07.1.15l-.07.46c0,.07-.06.11-.15.11h-.36v.06a2.15,2.15,0,0,1,.31,1.64,2.4,2.4,0,0,1-1,1.65,2.53,2.53,0,0,1-4-2.44,2.17,2.17,0,0,1,.82-1.48l-1.88-.29A.12.12,0,0,1,130.17,79.61Zm4.92.9-2-.31a1.87,1.87,0,0,0-1,1.45,1.55,1.55,0,0,0,.3,1.26,1.75,1.75,0,0,0,1.19.66,1.82,1.82,0,0,0,1.34-.26,1.62,1.62,0,0,0,.67-1.11A1.91,1.91,0,0,0,135.09,80.51Z"/><path class="cls-1" d="M135.58,86.07l-.12.56a.11.11,0,0,1-.15.09l-4.58-1a.11.11,0,0,1-.09-.15l.12-.56a.12.12,0,0,1,.15-.1l4.57,1C135.57,85.94,135.6,86,135.58,86.07Zm.52.41a.65.65,0,0,1,.29-.4.62.62,0,0,1,.49-.09.59.59,0,0,1,.4.29.61.61,0,0,1,.09.49.6.6,0,0,1-.28.39.62.62,0,0,1-.49.09.6.6,0,0,1-.41-.29A.68.68,0,0,1,136.1,86.48Z"/><path class="cls-1" d="M132,90.91h0a1.36,1.36,0,0,1-.62.48,1.18,1.18,0,0,1-.72,0,1.42,1.42,0,0,1-.91-.75,1.63,1.63,0,0,1-.1-1.25l.72-2.54a.09.09,0,0,1,.06-.06.1.1,0,0,1,.09,0L135,88.07a.11.11,0,0,1,.09.15l-.68,2.39a1.47,1.47,0,0,1-.67.91,1.29,1.29,0,0,1-1,.13,1,1,0,0,1-.44-.28A.92.92,0,0,1,132,90.91Zm.29-2.76-1.42-.4-.53,1.83a1,1,0,0,0,0,.65.68.68,0,0,0,.46.38c.47.13.78-.08.93-.62Zm1.85.53-1.11-.32-.5,1.77a.58.58,0,0,0,0,.45.51.51,0,0,0,.34.27.54.54,0,0,0,.45,0,.62.62,0,0,0,.29-.39Z"/><path class="cls-1" d="M130.24,101.37l-1.52,2.92a.11.11,0,0,1-.17,0L125,102.48l-.2.39a.12.12,0,0,1-.16,0l-1.49-.78c-.08,0-.09-.09-.05-.17l.24-.46c0-.08.09-.1.16-.06l.93.44,1.71-3.3-.88-.5a.11.11,0,0,1-.06-.17l.24-.47a.11.11,0,0,1,.17,0l1.49.77c.07,0,.09.09.05.16l-.13.25a.32.32,0,0,0,0,.27.58.58,0,0,0,.24.28l3,2.09A.1.1,0,0,1,130.24,101.37Zm-1.88,1.94.91-1.75-2.54-1.77a1.12,1.12,0,0,1-.25-.22l-1.13,2.18Z"/><path class="cls-1" d="M122,103l.31-.48a.1.1,0,0,1,.17,0l5.22,3.36a.1.1,0,0,1,0,.17l-.25.39c0,.07-.1.08-.18,0l-.33-.15,0,.05a2.13,2.13,0,0,1-.38,1.62,2.4,2.4,0,0,1-1.56,1.12,2.74,2.74,0,0,1-3.09-2,2.41,2.41,0,0,1,.38-1.88,2.18,2.18,0,0,1,1.34-1l-1.6-1A.11.11,0,0,1,122,103Zm4.13,2.82-1.7-1.09a1.89,1.89,0,0,0-1.5.92,1.62,1.62,0,0,0-.24,1.27,1.75,1.75,0,0,0,.83,1.08,1.79,1.79,0,0,0,1.33.31,1.59,1.59,0,0,0,1.06-.74A1.9,1.9,0,0,0,126.1,105.86Z"/><path class="cls-1" d="M122.17,113.94l-.44.56c0,.07-.1.06-.14,0l-2.74-4.74a1.57,1.57,0,0,1,0-1.87.88.88,0,0,1,.23-.24.12.12,0,0,1,.17,0l.39.3s.06,0,.06.08a.07.07,0,0,1,0,.08l-.16.18a.77.77,0,0,0,0,1l.11.18,5.06,1.16s.06,0,0,.08l-.48.62a.09.09,0,0,1-.1,0l-4-1,0,.07,2.09,3.38A.1.1,0,0,1,122.17,113.94Z"/><path class="cls-1" d="M120.82,115.54l-.38.42a.11.11,0,0,1-.18,0l-1.6-1.47,0,3.21a.34.34,0,0,1-.11.26l-.55.6a.09.09,0,0,1-.09,0,.08.08,0,0,1,0-.08v-3l-3.51-.11a.08.08,0,0,1-.09,0,.1.1,0,0,1,0-.1l.49-.54a.34.34,0,0,1,.27-.12l2.82.12.06-.89-1.17-1.08a.11.11,0,0,1,0-.18l.39-.42q.07-.09.18,0l3.45,3.17A.1.1,0,0,1,120.82,115.54Z"/><path class="cls-1" d="M109.14,120l2.88-2.46a.11.11,0,0,1,.18,0l3,3.57a.1.1,0,0,1,0,.17l-.44.38a.11.11,0,0,1-.18,0L112,118.56l-1.91,1.63,2.62,3.08a.1.1,0,0,1,0,.17l-.43.38a.11.11,0,0,1-.18,0l-2.62-3.07-.34.29q-.09.08-.18,0l-1-1.3c-.06-.06,0-.12,0-.17l.36-.31a.11.11,0,0,1,.18,0Z"/><path class="cls-1" d="M110.74,125l-.46.34a.11.11,0,0,1-.18,0l-1.26-1.78-.79-1.22,0,0v1.41l-.13,3.21a.23.23,0,0,1-.12.19l-.44.31a.11.11,0,0,1-.17,0l-2.71-3.82c0-.07,0-.12,0-.16l.47-.34a.11.11,0,0,1,.18,0l1.27,1.78.81,1.23,0,0v-1.53l.14-3.12a.17.17,0,0,1,.08-.15l.47-.34a.11.11,0,0,1,.17,0l2.72,3.81C110.81,124.9,110.81,125,110.74,125Z"/><path class="cls-1" d="M103.74,131.27l-.49.28c-.08,0-.14,0-.18-.05l-.81-1.46a1.57,1.57,0,0,1-.77.93,2,2,0,0,1-1.76.18,2.71,2.71,0,0,1-1.42-1.31,2.74,2.74,0,0,1-.37-1.9A2,2,0,0,1,99,126.53a1.51,1.51,0,0,1,1.21-.13l-.87-1.57a.11.11,0,0,1,0-.17l.49-.28c.08,0,.14,0,.18.05L101,126a1.52,1.52,0,0,1,.75-1,2,2,0,0,1,1.76-.18,3.09,3.09,0,0,1,1.79,3.21,2,2,0,0,1-1.08,1.41,1.56,1.56,0,0,1-1.19.16l.81,1.46A.11.11,0,0,1,103.74,131.27Zm-1.85-1.89-1.24-2.23a1.39,1.39,0,0,0-1.23,0,1.26,1.26,0,0,0-.69.95,2.42,2.42,0,0,0,1.24,2.24,1.29,1.29,0,0,0,1.17-.09A1.5,1.5,0,0,0,101.89,129.38Zm-.52-2.63,1.24,2.23a1.56,1.56,0,0,0,1.17-.16,1.28,1.28,0,0,0,.69-.94,2,2,0,0,0-.3-1.3,2.09,2.09,0,0,0-1-.94,1.25,1.25,0,0,0-1.17.08A1.42,1.42,0,0,0,101.37,126.75Z"/><path class="cls-1" d="M95.09,126.84l.52-.22a.12.12,0,0,1,.17.07l2.39,5.73a.11.11,0,0,1-.07.16l-.43.18a.12.12,0,0,1-.17-.06l-.19-.32-.06,0A2.11,2.11,0,0,1,96,133.53a2.38,2.38,0,0,1-1.92,0,2.73,2.73,0,0,1-1.41-3.39,2.39,2.39,0,0,1,1.37-1.33,2.22,2.22,0,0,1,1.69-.08L95,127A.11.11,0,0,1,95.09,126.84Zm1.8,4.66-.77-1.86a1.89,1.89,0,0,0-1.76-.09,1.59,1.59,0,0,0-.92.91,2,2,0,0,0,1,2.37,1.57,1.57,0,0,0,1.29,0A1.89,1.89,0,0,0,96.89,131.5Z"/><path class="cls-1" d="M90.64,130.93a2.63,2.63,0,0,1,1.08,3.48,2.54,2.54,0,0,1-1.52,1.23,2.47,2.47,0,0,1-1.94-.16A2.43,2.43,0,0,1,87,134a2.4,2.4,0,0,1,.16-2,2.48,2.48,0,0,1,1.52-1.23A2.51,2.51,0,0,1,90.64,130.93Zm-2,3.86a1.77,1.77,0,0,0,2.35-.73,1.73,1.73,0,0,0,.08-1.36,1.75,1.75,0,0,0-.83-1.07,1.65,1.65,0,0,0-1.33-.11,1.63,1.63,0,0,0-1,.84,1.74,1.74,0,0,0-.09,1.35A1.81,1.81,0,0,0,88.65,134.79Z"/><path class="cls-1" d="M82.54,135.22v-.06a1.4,1.4,0,0,1-.71-.31,1.12,1.12,0,0,1-.36-.63,1.45,1.45,0,0,1,.23-1.16,1.69,1.69,0,0,1,1.06-.68l2.58-.55a.15.15,0,0,1,.09,0s0,.05,0,.08l1,4.58a.11.11,0,0,1-.08.15l-2.44.52a1.46,1.46,0,0,1-1.12-.16,1.33,1.33,0,0,1-.59-.85,1.05,1.05,0,0,1,0-.52A.9.9,0,0,1,82.54,135.22Zm2.58-1.05-.31-1.44-1.87.4a.89.89,0,0,0-.56.33.71.71,0,0,0-.11.59c.1.47.42.65,1,.53Zm.4,1.89-.24-1.13-1.8.38a.61.61,0,0,0-.37.25A.51.51,0,0,0,83,136a.54.54,0,0,0,.25.38.61.61,0,0,0,.48.07Z"/><path class="cls-1" d="M80.77,137.79l-.57.07a.11.11,0,0,1-.14-.11l-.27-2.16-.12-1.45h0L79,135.37l-1.65,2.76a.23.23,0,0,1-.19.11l-.53.07a.11.11,0,0,1-.14-.11l-.57-4.65c0-.08,0-.13.09-.14l.57-.07a.12.12,0,0,1,.15.11l.26,2.17.13,1.46h.05l.72-1.34,1.6-2.68a.18.18,0,0,1,.14-.1l.58-.07c.08,0,.12,0,.13.11l.58,4.65A.11.11,0,0,1,80.77,137.79Z"/><path class="cls-1" d="M74.86,138.44l-.57,0c-.09,0-.13,0-.13-.12l-.08-2.17v-1.46h0l-.79,1.17-1.88,2.61a.23.23,0,0,1-.21.09l-.53,0q-.12,0-.12-.12l-.17-4.68c0-.08,0-.13.11-.13l.57,0a.12.12,0,0,1,.14.12l.07,2.18v1.47h.05l.83-1.27L74,133.62a.18.18,0,0,1,.16-.09l.57,0a.12.12,0,0,1,.13.12l.16,4.68C75,138.4,74.94,138.44,74.86,138.44Zm-2.09.59a1.33,1.33,0,0,1,1.35.82.09.09,0,0,1,0,.13l-.46.22a.1.1,0,0,1-.13,0,.76.76,0,0,0-1.36.05.11.11,0,0,1-.13,0l-.47-.19c-.06,0-.08-.07,0-.13A1.32,1.32,0,0,1,72.77,139Z"/><path class="cls-1" d="M66.83,138.5l-4.16-.34a.11.11,0,0,1-.11-.14l0-.51c0-.09,0-.13.14-.12l1.67.14.33-4a.11.11,0,0,1,.14-.11l.57,0a.11.11,0,0,1,.11.14l-.33,4,1.67.14a.1.1,0,0,1,.11.13l0,.52A.11.11,0,0,1,66.83,138.5Z"/><path class="cls-1" d="M58.8,133.25h.05a2.46,2.46,0,0,1,1.95-.44,1.93,1.93,0,0,1,1.24.64,1.42,1.42,0,0,1,.3,1.16,1.4,1.4,0,0,1-.62,1,2.09,2.09,0,0,1-1.23.31l-2-.07,0,.15a.68.68,0,0,0,.22.65,1.48,1.48,0,0,0,.79.35,2.73,2.73,0,0,0,1.72-.25c.08,0,.14,0,.17.05l.23.46a.11.11,0,0,1,0,.17,3.43,3.43,0,0,1-2.2.33,2.25,2.25,0,0,1-1.32-.66,1.4,1.4,0,0,1-.38-1.28l.28-1.68A3.12,3.12,0,0,0,58,133l-.06-.29c0-.07,0-.11.09-.13l.5-.09a.11.11,0,0,1,.15.09Zm0,.85-.17,1,1.9,0a1.19,1.19,0,0,0,.66-.15.65.65,0,0,0,.32-.47.68.68,0,0,0-.2-.64,1.3,1.3,0,0,0-.7-.32,2.07,2.07,0,0,0-1,.06A1.92,1.92,0,0,0,58.81,134.1Z"/><path class="cls-1" d="M53.34,136.4l-3.79-1.12a.1.1,0,0,1-.08-.15l1.32-4.5a.11.11,0,0,1,.16-.08l.55.16c.08,0,.1.08.08.16l-1.14,3.87,2.45.73L54,131.59a.12.12,0,0,1,.16-.09l.55.17a.1.1,0,0,1,.08.15l-1.32,4.5C53.47,136.4,53.42,136.43,53.34,136.4Z"/><path class="cls-1" d="M49.76,128.51l.53.21a.12.12,0,0,1,.07.17l-2.28,5.77a.12.12,0,0,1-.17.07l-.43-.17a.13.13,0,0,1-.08-.17l.08-.35,0,0a2.12,2.12,0,0,1-1.67,0,2.42,2.42,0,0,1-1.4-1.31,2.75,2.75,0,0,1,1.35-3.42,2.46,2.46,0,0,1,1.92,0,2.18,2.18,0,0,1,1.26,1.13l.7-1.77A.12.12,0,0,1,49.76,128.51Zm-2,4.61.74-1.88A1.89,1.89,0,0,0,47.35,130a1.59,1.59,0,0,0-1.3,0,2,2,0,0,0-.94,2.39,1.56,1.56,0,0,0,.94.89A1.87,1.87,0,0,0,47.8,133.12Z"/><path class="cls-1" d="M44.56,128.2l-1.5.86a1.6,1.6,0,0,1,.18,1.86,1.66,1.66,0,0,1-1,.89,1.85,1.85,0,0,1-1.43-.14l-2-1c-.08,0-.09-.09-.06-.17l2.1-4.18a.12.12,0,0,1,.18-.06l.51.26c.07,0,.08.09,0,.16L41,127.8l1.47.73,1.28-.77a.27.27,0,0,1,.26,0l.55.28a.19.19,0,0,1,.09.09A.12.12,0,0,1,44.56,128.2Zm-4.83,2.08,1.4.7a1,1,0,0,0,.81.09,1,1,0,0,0,.57-.52,1,1,0,0,0,.07-.77,1,1,0,0,0-.55-.59l-1.41-.7Z"/><path class="cls-1" d="M33.42,127.45l-.67-.43c-.07,0-.08-.09,0-.17l2.49-4a.11.11,0,0,1,.17,0l.49.31a.11.11,0,0,1,0,.17l-1.15,1.84-.8,1.19,0,0,1.6-1.15,1.63-1.07a.2.2,0,0,1,.22,0l.31.19a.2.2,0,0,1,.08.2l-.25,1.93-.32,2,0,0,.72-1.23,1.15-1.84c0-.07.1-.09.16-.05l.48.3a.12.12,0,0,1,0,.18l-2.48,4a.12.12,0,0,1-.18,0l-.71-.45c-.06,0-.08-.09-.07-.18l.33-2.44.23-1.53,0,0-1.46,1.06-1.81,1.2A.25.25,0,0,1,33.42,127.45Z"/><path class="cls-1" d="M31.33,126l-.45-.35c-.07,0-.07-.11,0-.18l1.32-1.72.94-1.11,0,0-1.35.4-3.11.81a.24.24,0,0,1-.22-.06l-.42-.33c-.07,0-.07-.1,0-.17l2.86-3.71c.05-.07.11-.08.16,0l.46.35a.11.11,0,0,1,0,.18l-1.34,1.73-.94,1.13,0,0,1.46-.44,3-.78a.15.15,0,0,1,.18,0l.45.35c.07.05.07.1,0,.17L31.5,126A.11.11,0,0,1,31.33,126Z"/><path class="cls-1" d="M24.76,121.25a1.35,1.35,0,0,1,.39,1.54q0,.09-.12.06l-.49-.16a.11.11,0,0,1-.06-.12.72.72,0,0,0-.21-.78.7.7,0,0,0-.79-.14.11.11,0,0,1-.13-.06l-.2-.47a.08.08,0,0,1,.05-.12A1.33,1.33,0,0,1,24.76,121.25Zm1.9,1.06-.42-.39a.1.1,0,0,1,0-.17l1.48-1.6,1-1,0,0-1.38.28-3.18.53a.24.24,0,0,1-.21-.08l-.39-.36a.1.1,0,0,1,0-.17l3.17-3.45a.12.12,0,0,1,.17,0l.42.39a.12.12,0,0,1,0,.19L25.85,118l-1,1,0,0,1.49-.32,3.08-.5a.17.17,0,0,1,.17,0l.43.39c.06.06.06.11,0,.18l-3.18,3.44C26.77,122.36,26.72,122.37,26.66,122.31Z"/><path class="cls-1" d="M17.77,113l-2.48-3.36a.11.11,0,0,1,0-.18l.42-.31a.11.11,0,0,1,.17,0l1,1.35,3.25-2.39a.11.11,0,0,1,.18,0l.34.46a.11.11,0,0,1,0,.17l-3.26,2.4,1,1.35a.11.11,0,0,1,0,.17l-.42.31A.1.1,0,0,1,17.77,113Z"/><path class="cls-1" d="M18.12,106.11A2.64,2.64,0,0,1,15,108a2.48,2.48,0,0,1-1.58-1.18,2.37,2.37,0,0,1-.32-1.89,2.51,2.51,0,0,1,1.18-1.56l.23-.14a.11.11,0,0,1,.16,0l2.14,3.47a1.62,1.62,0,0,0,.55-1,1.78,1.78,0,0,0-.29-1.21,2.55,2.55,0,0,0-1.35-1,.08.08,0,0,1-.06-.13l.19-.53a.12.12,0,0,1,.15-.07,3.17,3.17,0,0,1,1.72,1.38A2.52,2.52,0,0,1,18.12,106.11Zm-4,.32a1.7,1.7,0,0,0,.93.77,1.53,1.53,0,0,0,1.15,0l-1.76-2.85a1.49,1.49,0,0,0-.56,1A1.57,1.57,0,0,0,14.1,106.43Z"/><path class="cls-1" d="M17,100l.26.52a.12.12,0,0,1-.06.17l-5.56,2.75a.11.11,0,0,1-.17-.06L11.3,103a.14.14,0,0,1,.06-.18l.3-.21,0,0a2.15,2.15,0,0,1-1.2-1.16,2.42,2.42,0,0,1-.16-1.91A2.48,2.48,0,0,1,11.6,98a2.44,2.44,0,0,1,2-.18A2.41,2.41,0,0,1,15,99.14a2.24,2.24,0,0,1,.19,1.68l1.7-.84C17,99.94,17,100,17,100Zm-4.53,2.11,1.81-.89a1.89,1.89,0,0,0,0-1.76,1.55,1.55,0,0,0-1-.86,1.71,1.71,0,0,0-1.35.15,1.72,1.72,0,0,0-.94,1,1.55,1.55,0,0,0,.09,1.29A1.88,1.88,0,0,0,12.51,102.14Z"/><path class="cls-1" d="M7.23,93.62,7,92.88A.11.11,0,0,1,7,92.72l4.39-1.65a.11.11,0,0,1,.16.07l.2.54a.11.11,0,0,1-.07.16l-2,.77-1.35.46v0l2,.06,1.95.13a.23.23,0,0,1,.18.13l.13.34a.2.2,0,0,1-.06.21l-1.37,1.38L9.69,96.72l0,0L11,96.22l2-.76c.08,0,.13,0,.16.05l.2.54c0,.08,0,.13-.08.16L9,97.86a.11.11,0,0,1-.16-.07L8.5,97a.19.19,0,0,1,.06-.19l1.73-1.74L11.41,94l0,0-1.81,0-2.16-.14A.23.23,0,0,1,7.23,93.62Z"/><path class="cls-1" d="M10.46,89.66a2.44,2.44,0,0,1-1.57,1.18,2.55,2.55,0,1,1-1.31-4.92,2.48,2.48,0,0,1,3.11,1.81A2.48,2.48,0,0,1,10.46,89.66ZM6.69,87.52a1.62,1.62,0,0,0-.17,1.32,1.65,1.65,0,0,0,.81,1.06A1.73,1.73,0,0,0,8.68,90a1.74,1.74,0,0,0,1.1-.79A1.65,1.65,0,0,0,10,87.93a1.67,1.67,0,0,0-.8-1.07,1.79,1.79,0,0,0-1.35-.14A1.79,1.79,0,0,0,6.69,87.52Z"/><path class="cls-1" d="M4.76,84.26,4.21,81a.1.1,0,0,1,.1-.14l4-.67-.08-.43c0-.08,0-.13.1-.14L10,79.35c.09,0,.14,0,.15.11l.09.51c0,.09,0,.14-.1.15l-1,.21L9.72,84l1-.13a.12.12,0,0,1,.16.1l.09.52a.11.11,0,0,1-.11.14l-1.65.28a.11.11,0,0,1-.14-.09l0-.28a.33.33,0,0,0-.17-.22.55.55,0,0,0-.35-.08l-3.64.13A.12.12,0,0,1,4.76,84.26Zm.32-2.69.33,2,3.1-.12a1.55,1.55,0,0,1,.33,0L8.43,81Z"/><path class="cls-1" d="M10.35,77.94l.05.57a.12.12,0,0,1-.12.14l-6.19.45A.11.11,0,0,1,4,79l0-.47c0-.07,0-.12.12-.14l.35-.08v-.06a2.15,2.15,0,0,1-.68-1.53,2.43,2.43,0,0,1,.58-1.83A2.51,2.51,0,0,1,6.07,74,2.52,2.52,0,0,1,8,74.61a2.45,2.45,0,0,1,.83,1.73A2.2,2.2,0,0,1,8.32,78l1.9-.14A.1.1,0,0,1,10.35,77.94Zm-5,.24,2-.14A1.89,1.89,0,0,0,8,76.4a1.54,1.54,0,0,0-.57-1.16,1.76,1.76,0,0,0-1.31-.37,1.76,1.76,0,0,0-1.25.55,1.64,1.64,0,0,0-.4,1.24A1.85,1.85,0,0,0,5.36,78.18Z"/><path class="cls-1" d="M3.64,69.36v-.72c0-.08,0-.11.12-.07l5,2.15a1.6,1.6,0,0,1,1.13,1.5,1.22,1.22,0,0,1,0,.33.12.12,0,0,1-.14.1h-.5a.12.12,0,0,1-.09,0,.11.11,0,0,1,0-.08,1.29,1.29,0,0,0,0-.25.78.78,0,0,0-.57-.8l-.2-.08-4.74,2.1s-.08,0-.08-.05l0-.78a.11.11,0,0,1,.05-.09L7.41,71v-.09l-3.7-1.45A.1.1,0,0,1,3.64,69.36Z"/><path class="cls-1" d="M3.73,67.29l.06-.57a.11.11,0,0,1,.14-.11l2.16.2-2-2.53A.35.35,0,0,1,4.05,64l.07-.81c0-.05,0-.07.06-.08a.07.07,0,0,1,.09,0L6,65.51l2.86-2a.08.08,0,0,1,.1,0s.05.05.05.1L9,64.29a.38.38,0,0,1-.14.26l-2.32,1.6L7,66.9l1.58.15a.11.11,0,0,1,.11.14l0,.57a.11.11,0,0,1-.14.11l-4.66-.44C3.76,67.42,3.72,67.37,3.73,67.29Z"/><path class="cls-1" d="M8.24,54.19l0,0a1.32,1.32,0,0,1,.61-.5,1.18,1.18,0,0,1,.72,0,1.45,1.45,0,0,1,.93.73,1.67,1.67,0,0,1,.13,1.25L10,58.2a.13.13,0,0,1-.06.07.12.12,0,0,1-.1,0L5.33,57.11A.11.11,0,0,1,5.24,57l.62-2.41a1.47,1.47,0,0,1,.65-.93,1.26,1.26,0,0,1,1-.14,1,1,0,0,1,.45.27A.92.92,0,0,1,8.24,54.19ZM6.15,56.48l1.12.29L7.73,55a.59.59,0,0,0-.05-.45.55.55,0,0,0-.35-.26.5.5,0,0,0-.45.06.61.61,0,0,0-.28.39ZM8,57l1.43.37.48-1.85a1,1,0,0,0,0-.65.7.7,0,0,0-.47-.36c-.47-.12-.77.09-.91.64Z"/><path class="cls-1" d="M6.74,51.45l.19-.54a.11.11,0,0,1,.16-.07l2.05.72,1.35.55,0,0-.8-1.16L8,48.2A.21.21,0,0,1,8,48l.18-.51a.12.12,0,0,1,.16-.07L12.72,49q.12,0,.09.15l-.19.53a.12.12,0,0,1-.17.09L10.39,49,9,48.47l0,0,.88,1.24,1.68,2.63a.17.17,0,0,1,0,.18l-.19.54a.11.11,0,0,1-.16.07L6.82,51.6A.1.1,0,0,1,6.74,51.45Z"/><path class="cls-1" d="M12.86,47l.79-1.66L10,43.57a.11.11,0,0,1-.06-.17l.24-.51a.11.11,0,0,1,.17,0L14,44.57l.79-1.66-3.65-1.74a.1.1,0,0,1-.06-.16l.24-.51a.11.11,0,0,1,.17-.06l4.23,2a.11.11,0,0,1,.06.17l-2.52,5.3a.11.11,0,0,1-.17.06L8.86,46a.11.11,0,0,1-.06-.17L9,45.29a.11.11,0,0,1,.17-.06Z"/><path class="cls-1" d="M12.2,39l.3-.49a.11.11,0,0,1,.18,0l1.85,1.13,1.22.81,0,0L15.23,39l-1.14-3a.22.22,0,0,1,0-.22l.28-.46a.1.1,0,0,1,.17,0l4,2.43c.07,0,.09.1.05.16l-.29.49a.13.13,0,0,1-.18.05l-1.87-1.14-1.22-.81,0,0,.61,1.39,1.1,2.92a.17.17,0,0,1,0,.18l-.3.49a.11.11,0,0,1-.17,0l-4-2.44C12.18,39.08,12.16,39,12.2,39Z"/><path class="cls-1" d="M19.18,32.46l0,0a1.36,1.36,0,0,1,.75-.24,1.12,1.12,0,0,1,.68.23,1.4,1.4,0,0,1,.6,1,1.66,1.66,0,0,1-.35,1.21l-1.56,2.12a.11.11,0,0,1-.08,0,.12.12,0,0,1-.09,0L15.4,34.09a.11.11,0,0,1,0-.17l1.48-2a1.47,1.47,0,0,1,.94-.62,1.27,1.27,0,0,1,1,.25.88.88,0,0,1,.31.41A.86.86,0,0,1,19.18,32.46Zm-2.79,1.35.93.69L18.41,33a.56.56,0,0,0,.12-.43.55.55,0,0,0-.23-.38.54.54,0,0,0-.44-.11.6.6,0,0,0-.4.27ZM17.94,35l1.19.88,1.14-1.54a1,1,0,0,0,.2-.62.72.72,0,0,0-.3-.52c-.39-.28-.76-.2-1.09.26Z"/><path class="cls-1" d="M18.79,29.38l.38-.43c.06-.06.12-.07.18,0L21,30.37l-.12-3.21a.36.36,0,0,1,.09-.27l.54-.61a.09.09,0,0,1,.09,0,.08.08,0,0,1,.05.08l.07,3,3.51,0a.08.08,0,0,1,.09,0,.11.11,0,0,1,0,.11l-.48.55a.39.39,0,0,1-.27.13l-2.82-.05,0,.89L22.88,32a.11.11,0,0,1,0,.18l-.37.43a.12.12,0,0,1-.18,0l-3.53-3.08A.11.11,0,0,1,18.79,29.38Z"/><path class="cls-1" d="M27.74,26.09l0,0A2.46,2.46,0,0,1,26.9,28a2,2,0,0,1-1.25.62,1.4,1.4,0,0,1-1.11-.45,1.37,1.37,0,0,1-.41-1.07,2.13,2.13,0,0,1,.48-1.18l1.22-1.54-.11-.11a.66.66,0,0,0-.65-.21,1.53,1.53,0,0,0-.75.43A2.74,2.74,0,0,0,23.5,26c0,.09-.06.12-.14.1L22.85,26a.1.1,0,0,1-.11-.13,3.39,3.39,0,0,1,1.05-2,2.24,2.24,0,0,1,1.31-.67,1.42,1.42,0,0,1,1.25.46l1.19,1.23a3.38,3.38,0,0,0,.92.67l.26.12a.1.1,0,0,1,.06.15l-.23.46a.11.11,0,0,1-.16.07Zm-.68-.5-.74-.75-1.14,1.51a1.27,1.27,0,0,0-.26.63.63.63,0,0,0,.18.53.65.65,0,0,0,.63.22,1.22,1.22,0,0,0,.67-.37,2.27,2.27,0,0,0,.55-.83A2,2,0,0,0,27.06,25.59Z"/></svg>