<svg id="Слой_1" data-name="Слой 1" xmlns="http://www.w3.org/2000/svg" viewBox="0 0 141.73 141.73"><defs><style>.cls-1{fill:#f4991b;}</style></defs><title>Круги</title><path class="cls-1" d="M37.62,12.6l.69-.42c.07,0,.12,0,.16.05l2.45,4a.11.11,0,0,1,0,.17l-.5.3a.12.12,0,0,1-.18,0l-1.13-1.86-.71-1.25,0,0,.31,1.95.23,1.95a.2.2,0,0,1-.09.2l-.31.19a.21.21,0,0,1-.23,0l-1.61-1.09L35,15.61l0,0,.79,1.2,1.13,1.86c.05.08,0,.13,0,.17l-.49.3a.11.11,0,0,1-.17-.05l-2.45-4c0-.08,0-.14.05-.18l.72-.44a.17.17,0,0,1,.19,0l2,1.39,1.27.9,0,0L37.78,15l-.26-2.16A.22.22,0,0,1,37.62,12.6Z"/><path class="cls-1" d="M42.13,15.05a2.46,2.46,0,0,1-1.45-1.33,2.47,2.47,0,0,1-.13-2,2.64,2.64,0,0,1,3.28-1.57,2.48,2.48,0,0,1,1.46,1.33,2.41,2.41,0,0,1,.12,2,2.46,2.46,0,0,1-1.32,1.44A2.49,2.49,0,0,1,42.13,15.05Zm1.42-4.12A1.76,1.76,0,0,0,41.32,12a1.91,1.91,0,0,0,1.1,2.3,1.68,1.68,0,0,0,1.33-.08,1.62,1.62,0,0,0,.9-1,1.76,1.76,0,0,0-.11-1.36A1.81,1.81,0,0,0,43.55,10.93Z"/><path class="cls-1" d="M46.4,8.41l3.1-1.15c.08,0,.13,0,.16.08l1.41,3.81.41-.16a.11.11,0,0,1,.15.08l.58,1.57a.12.12,0,0,1-.07.17l-.5.18a.11.11,0,0,1-.16-.07l-.39-1-3.5,1.3.32,1a.12.12,0,0,1-.07.17l-.5.18a.11.11,0,0,1-.16-.07l-.59-1.58a.12.12,0,0,1,.07-.16l.27-.09a.33.33,0,0,0,.19-.21.71.71,0,0,0,0-.36l-.81-3.57A.11.11,0,0,1,46.4,8.41Zm2.71-.18-1.86.69.69,3a1.48,1.48,0,0,1,0,.34l2.31-.86Z"/><path class="cls-1" d="M52.88,10.72a2.48,2.48,0,0,1-1.17-1.58,2.42,2.42,0,0,1,.23-2A2.57,2.57,0,0,1,53.53,6a2.45,2.45,0,0,1,1.92.24A2.53,2.53,0,0,1,56.6,7.83l.07.26a.1.1,0,0,1-.07.14l-4,1.06a1.62,1.62,0,0,0,.81.82,1.82,1.82,0,0,0,1.25.07,2.52,2.52,0,0,0,1.4-1,.08.08,0,0,1,.14,0l.45.33a.12.12,0,0,1,0,.17,3.23,3.23,0,0,1-1.82,1.26A2.58,2.58,0,0,1,52.88,10.72Zm.85-4a1.77,1.77,0,0,0-1,.68,1.59,1.59,0,0,0-.29,1.12l3.26-.87a1.54,1.54,0,0,0-.78-.83A1.65,1.65,0,0,0,53.73,6.75Z"/><path class="cls-1" d="M62.5,9.29l-.56.1c-.09,0-.13,0-.15-.1l-.69-4-1.88.32.13,3.14a1.12,1.12,0,0,1-1,1.31,1.17,1.17,0,0,1-.53,0,1.27,1.27,0,0,1-.49-.27.11.11,0,0,1,0-.16l.29-.45q.06-.11.15,0a.5.5,0,0,0,.46.15c.21,0,.32-.2.31-.5l-.13-3.72a.11.11,0,0,1,.1-.12l3.15-.54c.08,0,.13,0,.15.1l.8,4.64A.11.11,0,0,1,62.5,9.29Z"/><path class="cls-1" d="M63.46,4.15l.58,0c.08,0,.12,0,.13.11l.12,1.86.62,0a2.39,2.39,0,0,1,.76-1.53,2.44,2.44,0,0,1,1.6-.69A2.52,2.52,0,0,1,70,6.21a2.41,2.41,0,0,1-.63,1.86,2.55,2.55,0,0,1-3.49.32,2.5,2.5,0,0,1-.94-1.57l-.58,0,.13,2.07c0,.08,0,.13-.12.14l-.57,0c-.08,0-.13,0-.13-.12l-.31-4.69A.12.12,0,0,1,63.46,4.15Zm3.86.46a1.72,1.72,0,0,0-1.2.58,1.75,1.75,0,0,0-.4,1.3,1.71,1.71,0,0,0,.58,1.23,1.64,1.64,0,0,0,1.25.43,1.62,1.62,0,0,0,1.19-.59,1.68,1.68,0,0,0,.41-1.29A1.71,1.71,0,0,0,68.58,5,1.64,1.64,0,0,0,67.32,4.61Z"/><path class="cls-1" d="M74.66,6.13v.06a1.29,1.29,0,0,1,.61.48,1.1,1.1,0,0,1,.2.7A1.39,1.39,0,0,1,75,8.44a1.65,1.65,0,0,1-1.2.4l-2.64-.09A.1.1,0,0,1,71,8.7a.12.12,0,0,1,0-.09l.17-4.7a.11.11,0,0,1,.12-.12l2.5.09a1.41,1.41,0,0,1,1,.43,1.32,1.32,0,0,1,.37,1,1,1,0,0,1-.17.49A.85.85,0,0,1,74.66,6.13Zm-2.76.39L71.84,8l1.92.07a.91.91,0,0,0,.63-.19.7.7,0,0,0,.26-.54c0-.48-.26-.74-.83-.76ZM72,4.58l0,1.16,1.85.07a.66.66,0,0,0,.43-.15.55.55,0,0,0,.18-.4.52.52,0,0,0-.16-.43.62.62,0,0,0-.44-.19Z"/><path class="cls-1" d="M79.87,8.72h-.05a2.48,2.48,0,0,1-1.94.52,2,2,0,0,1-1.27-.59,1.43,1.43,0,0,1-.35-1.16,1.38,1.38,0,0,1,.58-1,2.08,2.08,0,0,1,1.23-.36l2,0,0-.15a.67.67,0,0,0-.25-.64A1.46,1.46,0,0,0,79,5a2.81,2.81,0,0,0-1.72.32.1.1,0,0,1-.16,0l-.26-.46c0-.06,0-.12,0-.17a3.48,3.48,0,0,1,2.2-.42,2.34,2.34,0,0,1,1.35.6,1.41,1.41,0,0,1,.42,1.28l-.2,1.7a3.07,3.07,0,0,0,0,1.14l.07.28a.1.1,0,0,1-.08.14l-.5.12c-.09,0-.14,0-.16-.09Zm0-.85.12-1-1.9.07a1.16,1.16,0,0,0-.66.18.63.63,0,0,0-.3.48.68.68,0,0,0,.22.63,1.32,1.32,0,0,0,.72.3,2.21,2.21,0,0,0,1-.1A2,2,0,0,0,79.83,7.87Z"/><path class="cls-1" d="M82.79,4.84l.56.12c.08,0,.12.07.1.15l-.39,1.83,2.62.55.39-1.82c0-.09.07-.12.16-.1l.55.12c.08,0,.11.06.1.15l-1,4.6a.11.11,0,0,1-.15.1l-.55-.12a.12.12,0,0,1-.11-.15l.43-2L82.9,7.69l-.42,2a.11.11,0,0,1-.15.09l-.57-.11a.11.11,0,0,1-.09-.15l1-4.61A.12.12,0,0,1,82.79,4.84Z"/><path class="cls-1" d="M88.48,6.12l.55.17a.12.12,0,0,1,.09.16l-.55,1.78L91.13,9l.55-1.78a.11.11,0,0,1,.16-.08l.54.16a.12.12,0,0,1,.09.16L91.1,12a.12.12,0,0,1-.16.09l-.54-.17c-.09,0-.12-.08-.1-.16l.61-2L88.35,9l-.6,2a.12.12,0,0,1-.16.09L87,10.87a.12.12,0,0,1-.09-.16l1.37-4.5A.12.12,0,0,1,88.48,6.12Z"/><path class="cls-1" d="M92.08,12.3l1.42-1a1.62,1.62,0,0,1-.33-1.85,1.7,1.7,0,0,1,1-1,1.89,1.89,0,0,1,1.44,0l2.11.85a.12.12,0,0,1,.07.17L96,13.89a.12.12,0,0,1-.18.07l-.53-.21a.12.12,0,0,1-.06-.17l.47-1.18-1.52-.61L93,12.67a.25.25,0,0,1-.25,0l-.58-.24a.15.15,0,0,1-.09-.08S92,12.33,92.08,12.3Zm4.66-2.48-1.46-.59a1,1,0,0,0-.82,0,1,1,0,0,0-.52.56,1,1,0,0,0,0,.78,1,1,0,0,0,.61.55l1.46.59Z"/><path class="cls-1" d="M107.37,15.35a2.72,2.72,0,0,1,2,.53,3,3,0,0,1,.66.62,1.68,1.68,0,0,1,.32.79,1.16,1.16,0,0,1-.22.83.91.91,0,0,1-.93.37l0,0a1.14,1.14,0,0,1,0,1.42,1.36,1.36,0,0,1-1.22.63A2.65,2.65,0,0,1,106.4,20a3,3,0,0,1-1.28-2,.13.13,0,0,1,.09-.15l.54-.13c.07,0,.12,0,.14.1a2.43,2.43,0,0,0,1,1.56,1.94,1.94,0,0,0,.94.36.76.76,0,0,0,.7-.32c.29-.41.17-.8-.37-1.17l-.93-.66a.12.12,0,0,1,0-.18l.3-.43a.13.13,0,0,1,.18,0l1,.68a.92.92,0,0,0,.47.18.42.42,0,0,0,.38-.2.51.51,0,0,0,0-.57,1.73,1.73,0,0,0-.58-.61,1.82,1.82,0,0,0-1.42-.35c-.1,0-.14,0-.14-.1l0-.59S107.31,15.36,107.37,15.35Z"/><path class="cls-1" d="M112.23,18.05l1.43,1.2a2.53,2.53,0,0,1,1,1.7,2.4,2.4,0,0,1-.58,1.84,2.35,2.35,0,0,1-1.71.9,2.6,2.6,0,0,1-1.85-.63l-1.43-1.2a.11.11,0,0,1,0-.18l3-3.61C112.1,18,112.16,18,112.23,18.05Zm0,1.05-2.18,2.61.9.74a1.65,1.65,0,0,0,1.25.42A1.79,1.79,0,0,0,113.8,21a1.66,1.66,0,0,0-.63-1.16Z"/><path class="cls-1" d="M114.72,23.66l.36-.37a.11.11,0,0,1,.18,0l1.7,1.65a.11.11,0,0,1,0,.18l-.36.37a.11.11,0,0,1-.18,0l-1.7-1.64A.11.11,0,0,1,114.72,23.66Z"/><path class="cls-1" d="M120.2,25.44l2.2,2.48a.11.11,0,0,1,0,.18l-3,2.69.29.33a.1.1,0,0,1,0,.16l-1.26,1.12c-.07.05-.13.05-.18,0l-.35-.4a.1.1,0,0,1,0-.17l.75-.72-2.47-2.79-.79.65a.12.12,0,0,1-.19,0l-.35-.4a.11.11,0,0,1,0-.18l1.26-1.12a.1.1,0,0,1,.16,0l.19.21a.3.3,0,0,0,.26.1.61.61,0,0,0,.34-.12l3-2A.11.11,0,0,1,120.2,25.44Zm1.15,2.47L120,26.42l-2.58,1.75a1.39,1.39,0,0,1-.3.15l1.64,1.85Z"/><path class="cls-1" d="M118.79,33.8l-.34-.46a.11.11,0,0,1,0-.18l5-3.68c.07-.05.13-.05.18,0l.27.38a.12.12,0,0,1,0,.18l-.26.26,0,.05a2.19,2.19,0,0,1,1.38.94,2.44,2.44,0,0,1,.49,1.87,2.51,2.51,0,0,1-1.08,1.66,2.42,2.42,0,0,1-3.53-.51,2.22,2.22,0,0,1-.47-1.63L119,33.82A.11.11,0,0,1,118.79,33.8Zm4.13-2.87-1.64,1.2a1.92,1.92,0,0,0,.32,1.74,1.58,1.58,0,0,0,1.11.68,1.81,1.81,0,0,0,1.32-.38,1.76,1.76,0,0,0,.76-1.14,1.58,1.58,0,0,0-.31-1.26A1.91,1.91,0,0,0,122.92,30.93Z"/><path class="cls-1" d="M129.08,37.53l.37.62q.08.1-.06.12l-5.42.87a1.6,1.6,0,0,1-1.77-.68,1.45,1.45,0,0,1-.14-.29.14.14,0,0,1,.06-.17l.43-.26a.13.13,0,0,1,.1,0s0,0,.06.05l.11.22a.78.78,0,0,0,.91.39l.21-.05L126.85,34s.06,0,.09,0l.41.67a.11.11,0,0,1,0,.11L125,38.15l.05.08,3.93-.74A.09.09,0,0,1,129.08,37.53Z"/><path class="cls-1" d="M130.11,39.39l.26.51a.11.11,0,0,1-.06.17l-2,1,3,1.12a.33.33,0,0,1,.2.2l.37.73a.08.08,0,0,1,0,.1.09.09,0,0,1-.1,0l-2.75-1.07-1.37,3.25a.08.08,0,0,1-.08.06s-.07,0-.09-.06l-.32-.65a.35.35,0,0,1,0-.3l1.13-2.6-.82-.37-1.42.7c-.08,0-.14,0-.17,0l-.26-.52a.11.11,0,0,1,.06-.17l4.21-2.09A.11.11,0,0,1,130.11,39.39Z"/><path class="cls-1" d="M135.06,51.35l1,3.82c0,.09,0,.14-.09.16l-4.54,1.23a.11.11,0,0,1-.16-.09l-.15-.55a.12.12,0,0,1,.09-.16l3.92-1.06-.67-2.48-3.92,1.07a.12.12,0,0,1-.16-.09l-.15-.55c0-.09,0-.14.09-.16l4.54-1.23A.11.11,0,0,1,135.06,51.35Z"/><path class="cls-1" d="M130.2,58.57l-.1-.56c0-.09,0-.14.11-.15l6.13-1.09a.11.11,0,0,1,.15.1l.08.46c0,.08,0,.13-.1.16l-.35.11v.07a2.06,2.06,0,0,1,.83,1.45,2.43,2.43,0,0,1-.38,1.89,2.5,2.5,0,0,1-1.7,1,2.45,2.45,0,0,1-1.93-.38,2.39,2.39,0,0,1-1-1.64,2.19,2.19,0,0,1,.29-1.67l-1.88.33C130.27,58.69,130.22,58.65,130.2,58.57Zm5-.75-2,.35a1.89,1.89,0,0,0-.47,1.7,1.62,1.62,0,0,0,.69,1.11,1.76,1.76,0,0,0,1.35.23,1.81,1.81,0,0,0,1.19-.68,1.58,1.58,0,0,0,.27-1.28A1.89,1.89,0,0,0,135.17,57.82Z"/><path class="cls-1" d="M133.24,63.83a2.56,2.56,0,1,1,.3,3.62,2.64,2.64,0,0,1-.3-3.62Zm3.35,2.79a1.64,1.64,0,0,0,.4-1.28,1.6,1.6,0,0,0-.61-1.19,1.94,1.94,0,0,0-2.54.21,1.78,1.78,0,0,0,.2,2.47,2,2,0,0,0,2.55-.21Z"/><path class="cls-1" d="M133.63,69.67A2.56,2.56,0,0,1,138,71.59a2.41,2.41,0,0,1-.75,1.78,2.52,2.52,0,0,1-1.84.67h-.27a.1.1,0,0,1-.11-.11l.06-4.1a1.62,1.62,0,0,0-1,.56,1.8,1.8,0,0,0-.4,1.17,2.53,2.53,0,0,0,.58,1.63s0,.1,0,.14l-.44.34a.12.12,0,0,1-.17,0,3.15,3.15,0,0,1-.71-2.1A2.57,2.57,0,0,1,133.63,69.67Zm3.58,1.91a1.77,1.77,0,0,0-.37-1.16,1.6,1.6,0,0,0-1-.59l-.06,3.37a1.47,1.47,0,0,0,1-.52A1.6,1.6,0,0,0,137.21,71.58Z"/><path class="cls-1" d="M137.79,75.49l-.06.57a.11.11,0,0,1-.14.11L135.42,76l2,2.55a.36.36,0,0,1,.08.27l-.08.82a.1.1,0,0,1-.06.08s-.06,0-.09,0l-1.78-2.37-2.87,2a.08.08,0,0,1-.1,0s-.05,0-.05-.1l.07-.72a.34.34,0,0,1,.15-.26L135,76.62l-.5-.75-1.58-.15a.12.12,0,0,1-.12-.14l.06-.57c0-.09.05-.12.14-.12l4.68.46C137.76,75.36,137.79,75.4,137.79,75.49Z"/><path class="cls-1" d="M137.25,80.56l-.73,4.13a.11.11,0,0,1-.15.1l-.51-.09a.11.11,0,0,1-.1-.15l.29-1.65-4-.71c-.09,0-.12-.06-.11-.15l.1-.56a.12.12,0,0,1,.15-.11l4,.71.29-1.66c0-.08.06-.11.15-.1l.51.09C137.23,80.43,137.27,80.47,137.25,80.56Z"/><path class="cls-1" d="M135.27,89.65l-.18.69c0,.08-.07.1-.14,0l-4.39-3.3a1.6,1.6,0,0,1-.73-1.74A.83.83,0,0,1,130,85a.13.13,0,0,1,.16-.07l.48.13a.19.19,0,0,1,.09,0,.14.14,0,0,1,0,.09.91.91,0,0,0-.08.23.77.77,0,0,0,.35.92l.18.12,5.13-.9q.08,0,.06.06l-.2.76a.08.08,0,0,1-.07.07l-4.06.64,0,.09,3.26,2.31A.11.11,0,0,1,135.27,89.65Z"/><path class="cls-1" d="M131.41,94.14h0a1.35,1.35,0,0,1-.65.43,1.14,1.14,0,0,1-.73,0,1.43,1.43,0,0,1-.86-.81,1.64,1.64,0,0,1,0-1.27L130,90a.09.09,0,0,1,.06-.06.12.12,0,0,1,.1,0l4.42,1.59c.08,0,.11.08.08.16L133.82,94a1.44,1.44,0,0,1-.74.87,1.27,1.27,0,0,1-1,0,.83.83,0,0,1-.42-.31A.85.85,0,0,1,131.41,94.14Zm.47-2.75-1.39-.5-.65,1.81a.92.92,0,0,0,0,.65.69.69,0,0,0,.44.41c.46.16.78,0,1-.56Zm1.83.66-1.1-.39L132,93.39a.54.54,0,0,0,0,.45.5.5,0,0,0,.33.3.51.51,0,0,0,.45,0,.58.58,0,0,0,.31-.37Z"/><path class="cls-1" d="M127.36,98.3l0,0a2.48,2.48,0,0,1,.09-2,1.88,1.88,0,0,1,.95-1,1.45,1.45,0,0,1,2,.87,2.08,2.08,0,0,1,0,1.28l-.59,1.88.14.06a.68.68,0,0,0,.69,0,1.43,1.43,0,0,0,.54-.67,2.71,2.71,0,0,0,.22-1.74c0-.08,0-.13.1-.14l.51-.11q.11,0,.15.09a3.45,3.45,0,0,1-.27,2.22,2.36,2.36,0,0,1-1,1.11,1.41,1.41,0,0,1-1.34,0L128,99.34a3.07,3.07,0,0,0-1.1-.3l-.29,0c-.08,0-.11,0-.11-.12l0-.51c0-.09,0-.13.12-.13Zm.82.22,1,.44.52-1.83a1.22,1.22,0,0,0,0-.68.64.64,0,0,0-.36-.44.69.69,0,0,0-.67,0,1.28,1.28,0,0,0-.5.59,2.4,2.4,0,0,0-.21,1A1.91,1.91,0,0,0,128.18,98.52Z"/><path class="cls-1" d="M130.14,102.3l-.28.5a.12.12,0,0,1-.18,0l-1.62-.92-1.32,2.32,1.62.93c.07,0,.08.1,0,.18l-.28.49a.11.11,0,0,1-.17,0l-4.09-2.34a.11.11,0,0,1,0-.17l.28-.49q.07-.12.18-.06l1.79,1,1.33-2.33-1.79-1a.11.11,0,0,1,0-.17l.28-.5a.12.12,0,0,1,.18,0l4.08,2.33A.12.12,0,0,1,130.14,102.3Z"/><path class="cls-1" d="M127.2,107.3l-.33.48a.12.12,0,0,1-.18,0l-1.53-1.07L123.64,109l1.53,1.06a.11.11,0,0,1,0,.18l-.32.47a.11.11,0,0,1-.18,0L120.83,108a.11.11,0,0,1,0-.18l.32-.46a.11.11,0,0,1,.18,0l1.7,1.18,1.52-2.21-1.7-1.17a.11.11,0,0,1,0-.18l.33-.47a.1.1,0,0,1,.17,0l3.87,2.68A.11.11,0,0,1,127.2,107.3Z"/><path class="cls-1" d="M120.22,108.84l.51,1.66a1.61,1.61,0,0,1,1.86.24,1.68,1.68,0,0,1,.64,1.21,1.92,1.92,0,0,1-.46,1.37l-1.45,1.75a.11.11,0,0,1-.18,0l-3.63-3a.12.12,0,0,1,0-.19l.37-.44c0-.06.1-.06.17,0l1,.81,1-1.27-.46-1.43a.21.21,0,0,1,0-.25l.4-.49a.14.14,0,0,1,.1-.06S120.21,108.79,120.22,108.84Zm1,5.2,1-1.22a1,1,0,0,0,.27-.77,1,1,0,0,0-.37-.67,1,1,0,0,0-.74-.25,1,1,0,0,0-.71.41l-1,1.22Z"/><path class="cls-1" d="M109.23,126a2.48,2.48,0,0,1-2.33.33c-.07,0-.1-.07-.08-.14l.16-.52c0-.07.07-.09.15-.07a1.81,1.81,0,0,0,1.65-.23,1.67,1.67,0,0,0,.73-1.13,1.79,1.79,0,0,0-.33-1.32,1.81,1.81,0,0,0-1.13-.76,1.64,1.64,0,0,0-1.31.3,1.81,1.81,0,0,0-.78,1.5.11.11,0,0,1-.12.1l-.55,0a.1.1,0,0,1-.11-.11,2.44,2.44,0,0,1,1.11-2.08,2.48,2.48,0,0,1,3.57.61,2.44,2.44,0,0,1,.44,1.92A2.51,2.51,0,0,1,109.23,126Z"/><path class="cls-1" d="M106.25,127.86l-.49.29a.12.12,0,0,1-.18-.05l-1.1-1.89-.91,3.1a.35.35,0,0,1-.18.22l-.71.41a.08.08,0,0,1-.09,0,.1.1,0,0,1,0-.1l.89-2.82-3.34-1.14a.09.09,0,0,1,0-.17l.63-.37a.33.33,0,0,1,.29,0l2.68,1,.32-.84-.81-1.37a.12.12,0,0,1,.05-.18l.49-.29a.12.12,0,0,1,.18.05l2.37,4.06C106.34,127.76,106.33,127.82,106.25,127.86Z"/><path class="cls-1" d="M96.68,128.12l0,0a2.52,2.52,0,0,1,1.36-1.49,1.92,1.92,0,0,1,1.38-.18,1.41,1.41,0,0,1,.92.78,1.39,1.39,0,0,1,.05,1.16,2.13,2.13,0,0,1-.84,1l-1.66,1.07.07.14a.69.69,0,0,0,.55.41,1.57,1.57,0,0,0,.86-.17,2.74,2.74,0,0,0,1.27-1.2.11.11,0,0,1,.17-.05l.46.25c.07,0,.09.08.06.16a3.49,3.49,0,0,1-1.63,1.54,2.32,2.32,0,0,1-1.46.22,1.43,1.43,0,0,1-1-.85l-.74-1.55a2.9,2.9,0,0,0-.66-.93l-.2-.2a.1.1,0,0,1,0-.16l.36-.37a.12.12,0,0,1,.18,0Zm.49.69.46.95,1.57-1.07a1.29,1.29,0,0,0,.46-.51.71.71,0,0,0,0-.57.67.67,0,0,0-.53-.41,1.28,1.28,0,0,0-.77.13,2.26,2.26,0,0,0-.78.62A2,2,0,0,0,97.17,128.81Z"/><path class="cls-1" d="M96.29,133l-.54.2a.11.11,0,0,1-.16-.07l-.66-1.75-2.5.94.65,1.75c0,.08,0,.13-.08.16l-.53.2c-.08,0-.14,0-.16-.07l-1.66-4.41c0-.08,0-.13.08-.16l.53-.2a.12.12,0,0,1,.17.07l.73,1.93,2.5-.93-.72-1.94a.11.11,0,0,1,.07-.16l.54-.2a.11.11,0,0,1,.16.07l1.65,4.41A.11.11,0,0,1,96.29,133Z"/><path class="cls-1" d="M87.2,135.93l-.69.2c-.09,0-.12,0-.11-.1l.64-5.46a1.6,1.6,0,0,1,1.13-1.51,1.19,1.19,0,0,1,.33-.05.13.13,0,0,1,.14.1l.13.48a.09.09,0,0,1,0,.1s0,0-.07.05a1.11,1.11,0,0,0-.24,0,.78.78,0,0,0-.62.77v.21l3.37,4s0,.07,0,.08l-.75.21a.11.11,0,0,1-.11,0l-2.6-3.18-.08,0-.35,4A.1.1,0,0,1,87.2,135.93Z"/><path class="cls-1" d="M81.37,134.86v-.05a1.28,1.28,0,0,1-.71-.34,1.23,1.23,0,0,1-.35-.64,1.4,1.4,0,0,1,.27-1.15,1.65,1.65,0,0,1,1.08-.65l2.61-.49a.09.09,0,0,1,.08,0,.12.12,0,0,1,.06.08l.86,4.62a.12.12,0,0,1-.1.15l-2.46.45a1.42,1.42,0,0,1-1.12-.19,1.3,1.3,0,0,1-.57-.87,1,1,0,0,1,.06-.52A1,1,0,0,1,81.37,134.86Zm2.61-1-.27-1.46-1.89.35a.9.9,0,0,0-.57.32.68.68,0,0,0-.13.58c.09.48.41.66,1,.56Zm.35,1.9-.21-1.14L82.3,135a.63.63,0,0,0-.38.23.57.57,0,0,0-.09.44.53.53,0,0,0,.25.38.62.62,0,0,0,.47.09Z"/><path class="cls-1" d="M75.73,133.47h0a2.47,2.47,0,0,1,1.78-.93,1.88,1.88,0,0,1,1.36.3,1.36,1.36,0,0,1,.6,1,1.41,1.41,0,0,1-.35,1.1,2.16,2.16,0,0,1-1.12.62l-1.92.44v.16a.71.71,0,0,0,.38.57,1.55,1.55,0,0,0,.86.13,2.71,2.71,0,0,0,1.61-.69c.07-.06.12-.06.17,0l.35.39a.1.1,0,0,1,0,.17,3.44,3.44,0,0,1-2.05.89,2.38,2.38,0,0,1-1.45-.29,1.45,1.45,0,0,1-.7-1.16l-.16-1.7a3.13,3.13,0,0,0-.3-1.1l-.13-.27c0-.06,0-.11,0-.15l.46-.22c.08,0,.14,0,.17.05Zm.23.81.1,1.06,1.85-.48a1.24,1.24,0,0,0,.6-.32.67.67,0,0,0,.19-.53.71.71,0,0,0-.36-.58,1.32,1.32,0,0,0-.76-.13,2.28,2.28,0,0,0-1,.32A1.84,1.84,0,0,0,76,134.28Z"/><path class="cls-1" d="M73.74,137.88h-.58c-.08,0-.12,0-.13-.13l0-1.86-2.67,0,0,1.86c0,.09,0,.13-.14.13h-.56c-.08,0-.13,0-.13-.12l-.08-4.71c0-.08,0-.12.13-.13h.56c.1,0,.14,0,.14.13l0,2.07,2.67,0,0-2.06c0-.09,0-.13.12-.13h.58a.12.12,0,0,1,.13.12l.07,4.71C73.86,137.83,73.82,137.88,73.74,137.88Z"/><path class="cls-1" d="M67.91,137.88l-.58,0a.11.11,0,0,1-.11-.14l.13-1.86-2.66-.19-.14,1.86a.12.12,0,0,1-.15.11l-.56,0c-.08,0-.12-.05-.12-.13l.35-4.7a.1.1,0,0,1,.13-.11l.57,0c.09,0,.13,0,.12.13l-.15,2.06,2.67.2.15-2.06a.12.12,0,0,1,.14-.12l.57.05c.09,0,.12.05.12.13L68,137.76C68,137.85,68,137.89,67.91,137.88Z"/><path class="cls-1" d="M63,132.65l-1.17,1.28a1.6,1.6,0,0,1,.73,1.73,1.72,1.72,0,0,1-.72,1.16,1.86,1.86,0,0,1-1.41.29l-2.25-.36a.11.11,0,0,1-.1-.15l.74-4.64a.13.13,0,0,1,.16-.11l.56.09c.08,0,.12.07.1.15l-.2,1.26,1.63.26,1-1.13a.21.21,0,0,1,.23-.09l.62.1a.15.15,0,0,1,.11.06S63.06,132.61,63,132.65Zm-4,3.45,1.55.25a1,1,0,0,0,.81-.16,1,1,0,0,0,.38-.67,1,1,0,0,0-.16-.76,1,1,0,0,0-.71-.4l-1.55-.25Z"/><path class="cls-1" d="M45.17,132.15a2.76,2.76,0,0,1-2.06-.15,3,3,0,0,1-.76-.5,1.54,1.54,0,0,1-.46-.71,1.17,1.17,0,0,1,.06-.86.89.89,0,0,1,.84-.53l0,0a1.14,1.14,0,0,1-.25-1.39,1.4,1.4,0,0,1,1.09-.85,2.72,2.72,0,0,1,1.62.25,3,3,0,0,1,1.62,1.73.14.14,0,0,1-.06.16l-.51.22c-.07,0-.12,0-.15-.07a2.4,2.4,0,0,0-1.24-1.35,1.67,1.67,0,0,0-1-.18.73.73,0,0,0-.62.43c-.21.46,0,.82.57,1.09l1,.48a.12.12,0,0,1,.07.17l-.22.47a.11.11,0,0,1-.17.06l-1.07-.49A.92.92,0,0,0,43,130a.41.41,0,0,0-.33.27.51.51,0,0,0,.08.56,1.8,1.8,0,0,0,.69.49,1.89,1.89,0,0,0,1.47.09c.09,0,.14,0,.14.07l.16.57S45.23,132.13,45.17,132.15Z"/><path class="cls-1" d="M39.9,130.39l-1.63-.92A2.53,2.53,0,0,1,37,128a2.36,2.36,0,0,1,.23-1.91,2.39,2.39,0,0,1,1.52-1.2,2.56,2.56,0,0,1,1.93.29l1.63.91a.11.11,0,0,1,.05.17l-2.31,4.11A.11.11,0,0,1,39.9,130.39Zm-.23-1,1.66-3-1-.57a1.7,1.7,0,0,0-1.31-.18,1.61,1.61,0,0,0-1,.83,1.68,1.68,0,0,0-.18,1.3,1.72,1.72,0,0,0,.84,1Z"/><path class="cls-1" d="M36.42,125.33l-.28.43a.12.12,0,0,1-.18,0l-2-1.31a.12.12,0,0,1,0-.18l.29-.43a.11.11,0,0,1,.18,0l2,1.3A.11.11,0,0,1,36.42,125.33Z"/><path class="cls-1" d="M32,125.57,28.69,123a.12.12,0,0,1,0-.18l.31-.42a.12.12,0,0,1,.18,0l1.34,1L33,120.2a.11.11,0,0,1,.17,0l.46.35a.11.11,0,0,1,0,.17l-2.46,3.24,1.34,1a.11.11,0,0,1,0,.17l-.32.42A.11.11,0,0,1,32,125.57Z"/><path class="cls-1" d="M30.41,118.85A2.65,2.65,0,0,1,28,121.58a2.48,2.48,0,0,1-1.86-.69,2.42,2.42,0,0,1-.85-1.73,2.56,2.56,0,0,1,.7-1.84l.18-.19a.1.1,0,0,1,.16,0l3.05,2.73a1.59,1.59,0,0,0,.24-1.13,1.83,1.83,0,0,0-.62-1.08,2.45,2.45,0,0,0-1.6-.62.09.09,0,0,1-.09-.12l0-.56a.11.11,0,0,1,.12-.11,3.16,3.16,0,0,1,2.05.84A2.53,2.53,0,0,1,30.41,118.85Zm-3.78,1.47a1.75,1.75,0,0,0,1.12.47,1.58,1.58,0,0,0,1.1-.37l-2.51-2.25a1.55,1.55,0,0,0-.27,1.11A1.66,1.66,0,0,0,26.63,120.32Z"/><path class="cls-1" d="M23.53,118.4l-.52-.55a.17.17,0,0,1-.06-.15l.38-2.16,0,0-2.14.27a.18.18,0,0,1-.16-.07l-.54-.58a.07.07,0,0,1,0-.08.06.06,0,0,1,.06,0l2.84-.23.46-3.14a.12.12,0,0,1,.05-.08.09.09,0,0,1,.09,0l.55.59a.23.23,0,0,1,.06.19l-.44,2.44,0,0,2.4-.33a.25.25,0,0,1,.21.08l.54.57a.08.08,0,0,1,0,.08.07.07,0,0,1-.07,0l-3.14.28-.42,2.81,0,0-.05,0A.07.07,0,0,1,23.53,118.4Z"/><path class="cls-1" d="M19.36,113.85,19,113.4c-.05-.07-.05-.13,0-.18l1.47-1.16L18.85,110l-1.47,1.15a.11.11,0,0,1-.18,0l-.35-.44a.11.11,0,0,1,0-.18l3.7-2.9a.11.11,0,0,1,.18,0l.35.44a.12.12,0,0,1,0,.19l-1.62,1.27,1.65,2.11,1.62-1.28a.12.12,0,0,1,.18,0l.35.45a.11.11,0,0,1,0,.18l-3.7,2.91A.12.12,0,0,1,19.36,113.85Z"/><path class="cls-1" d="M19.19,106.51a2.44,2.44,0,0,1-1.12,1.61,2.5,2.5,0,0,1-3.54-.75,2.51,2.51,0,0,1,.75-3.54,2.45,2.45,0,0,1,1.93-.38,2.66,2.66,0,0,1,2,3.06Zm-4.26-.88a1.6,1.6,0,0,0,.25,1.31,1.63,1.63,0,0,0,1.09.77,1.93,1.93,0,0,0,2.15-1.39,1.8,1.8,0,0,0-1.35-2.08,1.75,1.75,0,0,0-1.33.29A1.73,1.73,0,0,0,14.93,105.63Z"/><path class="cls-1" d="M14.84,97.76l.27.51a.11.11,0,0,1,0,.17l-3.59,1.9.89,1.69,2.94-1.1a1.12,1.12,0,0,1,1.55.53,1.21,1.21,0,0,1,.16.5,1.34,1.34,0,0,1-.11.55.11.11,0,0,1-.15.07l-.52-.14c-.08,0-.1-.06-.07-.13a.46.46,0,0,0,0-.48c-.1-.19-.29-.24-.56-.14L12.09,103a.11.11,0,0,1-.14-.06l-1.49-2.82c0-.08,0-.14,0-.17l4.16-2.2A.11.11,0,0,1,14.84,97.76Z"/><path class="cls-1" d="M13.53,96.44a2.46,2.46,0,0,1-1.41,1.38,2.59,2.59,0,0,1-3.36-3.35,2.5,2.5,0,0,1,1.42-1.38,2.39,2.39,0,0,1,2,0,2.48,2.48,0,0,1,1.37,1.4A2.52,2.52,0,0,1,13.53,96.44Zm-4-1.64a1.62,1.62,0,0,0,0,1.33,1.6,1.6,0,0,0,.94,1,1.77,1.77,0,0,0,1.37,0,1.75,1.75,0,0,0,1-.93,1.79,1.79,0,0,0-.94-2.29,1.81,1.81,0,0,0-1.37,0A1.76,1.76,0,0,0,9.5,94.8Z"/><path class="cls-1" d="M12,90.63l.17.55a.11.11,0,0,1-.07.16L7.59,92.76a.11.11,0,0,1-.1,0,.13.13,0,0,1-.06-.07L6.37,89.35c0-.08,0-.14.08-.16L7,89c.07,0,.12,0,.15.08L8,91.78l3.88-1.23A.1.1,0,0,1,12,90.63Z"/><path class="cls-1" d="M5.37,87.86a.65.65,0,0,1-.47.8.61.61,0,0,1-.49-.07.65.65,0,0,1-.31-.4.64.64,0,0,1,.08-.48.65.65,0,0,1,.4-.31.61.61,0,0,1,.49.08A.59.59,0,0,1,5.37,87.86ZM6,88l-.15-.56A.12.12,0,0,1,6,87.28l4.56-1.17c.08,0,.13,0,.15.09l.15.55a.12.12,0,0,1-.09.16L6.18,88.09A.11.11,0,0,1,6,88Z"/><path class="cls-1" d="M4.44,84.51a.55.55,0,0,1,.26.36.54.54,0,0,1-.08.44.53.53,0,0,1-.35.25.51.51,0,0,1-.43-.08.54.54,0,0,1-.26-.36.58.58,0,0,1,.08-.44A.53.53,0,0,1,4,84.43.52.52,0,0,1,4.44,84.51Zm.4,1.78a.55.55,0,0,1,.26.36.53.53,0,0,1-.08.44.55.55,0,0,1-.78.18A.59.59,0,0,1,4,86.91a.57.57,0,0,1,.08-.44.54.54,0,0,1,.35-.26A.59.59,0,0,1,4.84,86.29Zm.68-.36-.13-.56c0-.09,0-.14.1-.15l4.59-1c.08,0,.13,0,.15.1l.13.56a.12.12,0,0,1-.1.15L5.67,86A.11.11,0,0,1,5.52,85.93Z"/><path class="cls-1" d="M3.75,69.7a3.08,3.08,0,0,1,.81-2.12s.08,0,.13,0l.44.37a.1.1,0,0,1,0,.16,2.41,2.41,0,0,0-.61,1.62c0,.77.18,1.17.58,1.17s.54-.42.67-1.3a3.92,3.92,0,0,1,.5-1.6,1.22,1.22,0,0,1,1.11-.54,1.24,1.24,0,0,1,1.1.64,2.93,2.93,0,0,1,.37,1.59A3.26,3.26,0,0,1,8,72a.09.09,0,0,1-.15,0l-.44-.36c-.07,0-.07-.11,0-.18a2.53,2.53,0,0,0,.71-1.77,2.1,2.1,0,0,0-.19-1,.59.59,0,0,0-.53-.37.53.53,0,0,0-.51.35,4,4,0,0,0-.28,1.1,4.71,4.71,0,0,1-.14.76,2.89,2.89,0,0,1-.26.63,1.06,1.06,0,0,1-.44.45,1.14,1.14,0,0,1-.65.15,1.14,1.14,0,0,1-1-.56A2.49,2.49,0,0,1,3.75,69.7Z"/><path class="cls-1" d="M8.68,66.71,4,66.13c-.09,0-.13,0-.12-.14L4,65.52a.12.12,0,0,1,.13-.11h.4v-.05a1.86,1.86,0,0,1,.55-2.83,1.86,1.86,0,0,1-.58-1.67,2,2,0,0,1,.66-1.32,2,2,0,0,1,1.56-.37l2.88.36a.11.11,0,0,1,.11.14l-.07.57c0,.09,0,.12-.14.11L6.63,60a1.32,1.32,0,0,0-1,.19,1.1,1.1,0,0,0-.42.79,1.61,1.61,0,0,0,.54,1.35,3,3,0,0,1,.5,0l2.91.36a.11.11,0,0,1,.11.14l-.07.57a.11.11,0,0,1-.14.11L6.2,63.17a1.32,1.32,0,0,0-.94.16,1,1,0,0,0-.41.75,1.55,1.55,0,0,0,.59,1.4l3.35.41c.08,0,.12,0,.11.13l-.08.6C8.82,66.69,8.77,66.72,8.68,66.71Z"/><path class="cls-1" d="M10.09,55.06v0a2.5,2.5,0,0,1,.3,2,1.92,1.92,0,0,1-.72,1.19,1.4,1.4,0,0,1-1.19.23,1.36,1.36,0,0,1-.92-.69,2,2,0,0,1-.23-1.26l.2-2-.15,0a.68.68,0,0,0-.66.18,1.45,1.45,0,0,0-.4.77,2.65,2.65,0,0,0,.13,1.74c0,.08,0,.14-.07.16l-.48.21c-.07,0-.12,0-.16-.06a3.38,3.38,0,0,1-.18-2.23,2.33,2.33,0,0,1,.75-1.28,1.43,1.43,0,0,1,1.32-.28l1.66.39a3.2,3.2,0,0,0,1.14.08l.29,0a.1.1,0,0,1,.13.1l.05.51a.1.1,0,0,1-.09.14ZM9.24,55l-1-.24-.15,1.9a1.3,1.3,0,0,0,.11.67.65.65,0,0,0,.44.36.7.7,0,0,0,.66-.15,1.32,1.32,0,0,0,.37-.68,2.11,2.11,0,0,0,0-1A2,2,0,0,0,9.24,55Z"/><path class="cls-1" d="M6.57,51.72l.14-.45a.12.12,0,0,1,.16-.09l.39.08,0,0a2,2,0,0,1,1.9-3c.06,0,.1,0,.1.09V49s0,.08-.08.09a1.3,1.3,0,0,0-1.31.86,1.8,1.8,0,0,0,.28,1.61l3.2,1.05a.11.11,0,0,1,.08.16l-.18.54c0,.08-.08.11-.16.08L6.65,51.88C6.57,51.85,6.54,51.8,6.57,51.72Z"/><path class="cls-1" d="M8.45,46.34l-.93-.48c-.07,0-.1-.09-.07-.16l.19-.47a.12.12,0,0,1,.17-.06l1,.39.54-1.32a.12.12,0,0,1,.17-.07l.48.2a.11.11,0,0,1,.07.16l-.54,1.33,2.43,1a.91.91,0,0,0,.66,0,.71.71,0,0,0,.42-.43,1.72,1.72,0,0,0,.11-.7c0-.08,0-.12.11-.12h.46c.08,0,.12,0,.13.11a2,2,0,0,1-.12,1.07,1.48,1.48,0,0,1-.82.89,1.7,1.7,0,0,1-1.24-.09l-2.46-1-.23.57a.11.11,0,0,1-.16.07l-.44-.18a.12.12,0,0,1-.07-.14Z"/><path class="cls-1" d="M17,43.18l-.27.51a.11.11,0,0,1-.18,0l-5.46-3a.11.11,0,0,1-.05-.17l.23-.41a.12.12,0,0,1,.17-.06l.35.13,0-.06A2.13,2.13,0,0,1,12,38.51a2.47,2.47,0,0,1,1.49-1.23,2.55,2.55,0,0,1,2,.27,2.5,2.5,0,0,1,1.27,1.51A2.4,2.4,0,0,1,16.52,41a2.21,2.21,0,0,1-1.28,1.12l1.67.92A.11.11,0,0,1,17,43.18Zm-4.34-2.53,1.78,1a1.9,1.9,0,0,0,1.44-1A1.56,1.56,0,0,0,16,39.31a1.8,1.8,0,0,0-.9-1,1.77,1.77,0,0,0-1.36-.21,1.57,1.57,0,0,0-1,.82A1.9,1.9,0,0,0,12.62,40.65Z"/><path class="cls-1" d="M14.1,35.13l.25-.39a.12.12,0,0,1,.18,0l.36.17,0,0a2.12,2.12,0,0,1,1.34-2.36,2,2,0,0,1,1.29,0,.09.09,0,0,1,.07.11l-.15.6a.09.09,0,0,1-.11.06,1.29,1.29,0,0,0-1.49.48,1.79,1.79,0,0,0-.17,1.62l2.8,1.88a.1.1,0,0,1,0,.17l-.32.48a.11.11,0,0,1-.17,0l-3.91-2.62A.11.11,0,0,1,14.1,35.13Z"/><path class="cls-1" d="M16.78,30.22a.6.6,0,0,1-.43.25.59.59,0,0,1-.48-.12.6.6,0,0,1-.25-.43.61.61,0,0,1,.12-.49.64.64,0,0,1,.42-.24.68.68,0,0,1,.49.12.66.66,0,0,1,.25.43A.61.61,0,0,1,16.78,30.22Zm.31.6.34-.46a.11.11,0,0,1,.18,0l3.76,2.83a.11.11,0,0,1,0,.18l-.35.46c-.05.07-.11.07-.18,0L17.11,31A.11.11,0,0,1,17.09,30.82Z"/><path class="cls-1" d="M22,32.26l-3.58-3a.11.11,0,0,1,0-.18l.3-.36a.14.14,0,0,1,.19,0l.33.21,0,0a2.07,2.07,0,0,1,.52-1.52,2.13,2.13,0,0,1,1.45-.83,2.2,2.2,0,0,1,1.64.63l2,1.73a.11.11,0,0,1,0,.18l-.38.45q-.07.09-.18,0l-2-1.71a1.58,1.58,0,0,0-1.06-.45,1.3,1.3,0,0,0-.95.51A1.81,1.81,0,0,0,20,29.45l2.57,2.18c.06.06.07.12,0,.18l-.37.44A.11.11,0,0,1,22,32.26Z"/><path class="cls-1" d="M22.4,24.54l-.68-.8a.11.11,0,0,1,0-.17l.36-.36a.1.1,0,0,1,.17,0l.73.72,1-1a.11.11,0,0,1,.18,0l.38.37a.11.11,0,0,1,0,.18l-1,1,1.88,1.84a.91.91,0,0,0,.59.3.76.76,0,0,0,.56-.25,1.6,1.6,0,0,0,.36-.6.1.1,0,0,1,.15-.07l.43.17a.12.12,0,0,1,.08.15,2,2,0,0,1-.52.95,1.5,1.5,0,0,1-1.1.51,1.68,1.68,0,0,1-1.11-.55L23,25.07l-.43.44a.11.11,0,0,1-.17,0L22,25.18A.12.12,0,0,1,22,25Z"/></svg>